<?xml version="1.0" encoding="utf-8"?>
<!-- Generator: Adobe Illustrator 21.1.0, SVG Export Plug-In . SVG Version: 6.00 Build 0)  -->
<svg version="1.1" id="Calque_1" xmlns="http://www.w3.org/2000/svg" xmlns:xlink="http://www.w3.org/1999/xlink" x="0px" y="0px"
	 viewBox="0 0 432 432" style="enable-background:new 0 0 432 432;" xml:space="preserve">
<style type="text/css">
	.st0{fill:#6E3C3F;}
	.st1{fill:#E3635C;}
	.st2{fill:#343434;}
	.st3{fill:#B1C369;}
	.st4{fill:#A490C4;}
	.st5{fill:#A2C1DB;}
	.st6{fill:#AFB67B;}
	.st7{fill:#4F4747;}
	.st8{fill:#AA6555;}
	.st9{fill:#93C6E3;}
	.st10{fill:#9C3A47;}
	.st11{fill:#52B5C3;}
	.st12{fill:#4B6C2A;}
	.st13{fill:#F4A38D;}
	.st14{fill:#6A8E2D;}
	.st15{fill:#EE7A9F;}
	.st16{fill:#F7DA6A;}
	.st17{fill:#E2991A;}
	.st18{fill:#A7B7BE;}
	.st19{fill:#E8D8CA;}
	.st20{fill:#A1A499;}
	.st21{fill:#C42725;}
	.st22{fill:#DBDC50;}
	.st23{fill:#020203;}
	.st24{fill:#92AA3C;}
	.st25{fill:#DFB87F;}
	.st26{fill:#7E4E1C;}
	.st27{fill:#BBCC53;}
	.st28{fill:#BA5C78;}
	.st29{fill:#85924F;}
	.st30{fill:#7C1142;}
	.st31{fill:#3B322E;}
	.st32{fill:#3B6C51;}
	.st33{fill:#C1292E;}
	.st34{fill:#CDCCCC;}
	.st35{fill:#886649;}
	.st36{fill:#F9B03D;}
	.st37{fill:#7D8C5B;}
	.st38{fill:#0D341E;}
	.st39{fill:#4D8F53;}
	.st40{fill:#1B1B1B;}
	.st41{fill:#F39323;}
	.st42{fill:#E7E6E6;}
	.st43{fill:#9A908B;}
	.st44{fill:#548981;}
	.st45{fill:#89525A;}
	.st46{fill:#AB9AB1;}
	.st47{fill:#5E676E;}
	.st48{fill:#DDDBCA;}
	.st49{fill:#56463E;}
	.st50{fill:#457885;}
	.st51{fill:#FFFFFF;}
	.st52{fill:#E69678;}
	.st53{fill:#A5AB9B;}
	.st54{fill:#855354;}
	.st55{fill:#DE8F6E;}
	.st56{fill:#C19D63;}
	.st57{fill:#837F62;}
	.st58{fill:#7D8769;}
	.st59{fill:#39466A;}
	.st60{fill:#4E4D4D;}
	.st61{fill:#673E44;}
	.st62{fill:#CEB283;}
	.st63{fill:#8890A4;}
	.st64{fill:#99B8B3;}
	.st65{fill:#A0747A;}
	.st66{fill:#BB839E;}
	.st67{fill:#E5DA9B;}
	.st68{fill:#BA9BC9;}
	.st69{fill:#8CACB5;}
	.st70{fill:#746458;}
	.st71{fill:#34354B;}
	.st72{fill:#6A8188;}
	.st73{fill:#B4B4B4;}
	.st74{fill:#97CB9E;}
	.st75{fill:#EE7896;}
	.st76{fill:#785F63;}
	.st77{fill:#E4A87C;}
	.st78{fill:#98D5E8;}
	.st79{fill:#CB6083;}
	.st80{fill:#9A9999;}
	.st81{fill:#C49A6C;}
	.st82{fill:#EC96AB;}
	.st83{fill:#ED87AB;}
	.st84{fill:#E2B471;}
	.st85{fill:#59B465;}
	.st86{fill:#4C996E;}
	.st87{fill:#A84F6B;}
	.st88{fill:#6BC4CD;}
	.st89{fill:#D6809C;}
	.st90{fill:#9DD0B3;}
	.st91{fill:#F3AA9A;}
	.st92{fill:#F29292;}
	.st93{fill:#BBBBBB;}
	.st94{fill:#5B5242;}
	.st95{fill:#8CCDC6;}
	.st96{fill:#EAC892;}
	.st97{fill:#F4B0CC;}
	.st98{fill:#7A6350;}
	.st99{fill:#9FC64B;}
	.st100{fill:#A68C6D;}
	.st101{fill:#F1D3D4;}
	.st102{fill:#BE8BBE;}
	.st103{fill:#F49523;}
	.st104{fill:#789835;}
	.st105{fill:#8FA369;}
	.st106{fill:#B17081;}
	.st107{fill:#E1B63D;}
	.st108{fill:#B05274;}
	.st109{fill:#CA9256;}
	.st110{fill:#A9A9AA;}
	.st111{fill:#BE202E;}
	.st112{fill-rule:evenodd;clip-rule:evenodd;fill:#A9A9AA;}
	.st113{fill:#89657B;}
	.st114{fill:#7F95B7;}
	.st115{fill:#9F9EC6;}
	.st116{fill:#7F6178;}
	.st117{fill:#6D8999;}
	.st118{fill:#A0C07E;}
	.st119{fill:#AA779F;}
	.st120{fill:#FBC063;}
	.st121{fill:#80A0C2;}
	.st122{fill:#CFAC75;}
	.st123{fill:#CD94C2;}
	.st124{fill:#AAB6DE;}
	.st125{fill:#CCAE99;}
	.st126{fill:#86B69F;}
	.st127{fill:#555D57;}
	.st128{fill:#86C1BB;}
	.st129{fill:#CA856C;}
	.st130{fill:#A4AA6D;}
	.st131{fill:#EAB978;}
	.st132{fill:#C091A7;}
	.st133{fill:#7E9DAD;}
	.st134{fill:#E5B1C8;}
	.st135{fill:#B9AEA3;}
	.st136{fill:#627F99;}
	.st137{fill:#E6A9AB;}
	.st138{fill:#913E41;}
	.st139{fill:#B46269;}
	.st140{fill:#C69C6C;}
	.st141{fill:#ED6D78;}
	.st142{fill:#C09047;}
	.st143{fill:#AE6C7B;}
	.st144{fill:#918FB2;}
	.st145{fill:#67816D;}
	.st146{fill:#B3B1A2;}
	.st147{fill:#A23A43;}
	.st148{fill:#6A907C;}
	.st149{fill:#B09294;}
	.st150{fill:#7B484D;}
	.st151{fill:#B78B5E;}
	.st152{fill:#DB7D82;}
	.st153{fill:#781611;}
	.st154{fill:#D38F8F;}
	.st155{fill:#965656;}
	.st156{fill:#9AA4B4;}
	.st157{fill:#754D24;}
	.st158{fill:#C8B7A7;}
	.st159{fill:#B4363B;}
	.st160{fill:#C77272;}
	.st161{fill:#91AF82;}
	.st162{fill:#C69462;}
	.st163{fill:#ED6C5B;}
	.st164{fill:#F3C186;}
	.st165{fill:#F3957D;}
	.st166{fill:#D1BBBC;}
</style>
<g>
	<g>
		<path class="st74" d="M295.9,189.4c-0.6-2.3-0.2-4.6,0.2-6.9c1.4-6.7,5.5-11.3,11.5-14.2c3.1-1.5,6.4-2.6,9.5-3.9
			c2.6-1.1,5.3-2.1,7.8-3.3c2.2-1,4.1-2.4,5.6-4.3c1.9-2.2,2.9-4.9,3-7.8c0.1-1.2-0.2-2.4-0.7-3.6c-0.4-1-1-1.9-1.4-2.9
			c-0.2-0.4-0.4-0.7-0.6-1.2c1,0,1.6,0.4,2.3,0.8c3.2,1.9,5.3,4.7,6.8,8c1.5,3.6,2.2,7.3,1.9,11.2c-0.2,2.3-1.1,4.4-2.6,6.1
			c-0.3,0.3-0.7,0.6-1,1c-1,1.1-2.1,1.5-3.6,1.6c-2.3,0.2-4.5,0.6-6.8,0.9c-2.5,0.3-4.9,0.6-7.4,0.9c-1.4,0.2-2.7,0.5-4,0.8
			c-0.4,0.1-0.9,0.4-1.2,0.7c-0.9,0.9-0.5,2.1,0.7,2.4c0.4,0.1,0.8,0.1,1.3,0c2.4-0.2,4.7-0.4,7.1-0.7c2.7-0.3,5.4-0.7,8.1-1.1
			c4-0.6,8.1-0.9,12.1-0.4c5.6,0.7,10.2,3.3,13.7,7.6c2.3,2.9,3.9,6.1,4.7,9.7c0.2,1.1,0.3,2.2,0.4,3.3c-0.3,0-0.5,0-0.7,0
			c-5.6-1.6-11.3-1.6-16.9-0.5c-5.7,1.1-11.5,1.9-17.3,2c-1.1,0-2.2,0.3-3.3,0.5c-0.4,0.1-0.8,0.3-1,0.6c-0.6,0.7-0.2,1.7,0.8,1.9
			c1,0.2,2,0.4,3,0.4c5.2,0.1,10.3-0.3,15.4-1.2c3.1-0.5,6.2-1.2,9.4-1.3c4.9-0.1,9.6,0.7,14,3.1c3.4,1.8,6,4.4,7.1,8.2
			c0.4,1.5,0.7,3,0.4,4.6c-0.6,4-3.6,6.8-7.7,6.8c-2.3,0-4.7-0.3-7-0.6c-5.4-0.6-10.9-1.4-16.3-2c-3.9-0.4-7.8-0.3-11.7,0.2
			c-5.9,0.7-11.8,1.6-17.6,2.3c-4.2,0.5-8.4,0.9-12.6,0.5c-3.6-0.3-7.1-0.9-10.3-2.5c-1.2-0.6-2.5-1.4-3.5-2.3
			c-2.4-2.2-3.5-4.9-3-8.1c0.1-0.9,0.5-1.8,0.9-2.6c3.2-6.3,8.3-10.3,14.9-12.4c3.2-1,6.4-1.6,9.7-1.8c4.5-0.4,9-0.6,13.5-1
			c4.9-0.4,9.8-0.9,14.8-1.4c0.9-0.1,1.9-0.4,2.8-0.7c0.7-0.2,1.1-0.8,1-1.4c0-0.6-0.5-1.2-1.3-1.2c-1.3-0.1-2.7-0.1-4-0.1
			c-3.3,0.2-6.6,0.4-10,0.6c-5.6,0.3-11.2,0.5-16.7,1c-4.6,0.4-9.1,1.2-13.4,2.9C296.3,189.3,296.1,189.4,295.9,189.4z"/>
		<path class="st75" d="M349.6,292.1c-0.4,0-0.7,0.1-1.1,0.1c-6.1,0-12.3-0.1-18.4-0.1c-0.6,0-1-0.2-1.5-0.5
			c-1.9-1.4-3.3-3.3-4.3-5.4c-1.3-2.8-1.9-5.7-1.4-8.8c0.2-1.5,0.8-2.9,1.9-4c1.3-1.4,2.8-1.6,4.5-0.9c2.2,0.9,3.7,2.6,4.5,4.8
			c0.8,2.5-0.5,4.8-2.9,5.3c-1.6,0.4-2.8-0.5-2.9-2.1c0-0.4,0-0.8,0-1.3c-0.1-0.9-0.6-1.5-1.4-1.6c-0.8-0.1-1.4,0.4-1.6,1.3
			c-0.9,3.1,1.8,6.8,5,7c5.2,0.2,8.9-4.1,7.9-9.1c-0.8-4-3.1-7-7-8.6c-4.9-2-9,0.9-10.6,3.7c-1.5,2.6-1.8,5.5-1.4,8.5
			c0.5,4.2,2.1,7.9,4.9,11c0.1,0.1,0.1,0.2,0.2,0.3c0,0,0,0.1,0,0.1c-1.2,0-2.5,0.1-3.7,0c-4.1-0.3-8.2-0.6-12.4-1
			c-2.6-0.3-5.2-0.5-7.7-1.2c-0.7-0.2-1.2-0.5-1.4-1.2c-1.4-4.1-1.7-8.2,0.3-12.3c0.8-1.6,2-2.8,3.5-3.7c1.5-0.8,3-0.9,4.5-0.2
			c2,0.9,3.3,2.5,4,4.6c0.3,0.8,0.1,1.6-0.3,2.3c-0.7,1.3-1.8,2.1-3.3,2.2c-1,0.1-1.7-0.3-2.2-1.2c-0.2-0.4-0.4-0.9-0.6-1.2
			c-0.3-0.4-0.6-0.8-1-1c-0.8-0.5-1.7-0.1-2,0.7c-0.1,0.3-0.2,0.8-0.1,1.1c1.1,3.4,3.6,5.6,7.5,4.6c2.7-0.7,4.6-2.4,5.4-5.2
			c0.4-1.2,0.3-2.4-0.1-3.6c-1.2-4-3.8-6.8-8-7.6c-1.7-0.3-3.4-0.1-5,0.7c-3.4,1.6-5.4,4.5-6.4,8c-0.6,2-0.9,4-0.6,6.1
			c0,0.1,0,0.3,0,0.6c-0.2-0.4-0.4-0.6-0.5-0.8c-3.1-6.2-5.7-12.6-7.9-19.1c-0.1-0.4-0.2-0.8,0-1.2c1.4-3.2,5.5-5.1,8.7-3.8
			c0.7,0.3,1.4,0.7,1.9,1.2c1.8,1.8,1.2,4.7-1.1,5.7c-1.2,0.6-3.1,0.2-3.2-1.6c0-0.2-0.1-0.5-0.2-0.7c-0.3-0.8-0.9-1.2-1.6-1.1
			c-0.7,0.1-1.2,0.6-1.2,1.5c-0.1,1.9,0.7,3.4,2.3,4.3c1.5,0.9,3.2,1,4.9,0.3c2.6-1.1,4.2-3,4.5-5.8c0.4-2.9-0.8-5.2-3.2-6.8
			c-3.9-2.6-9.7-1.6-12.6,2.2c-0.2,0.3-0.4,0.6-0.8,1c-1.9-5.9-3.3-11.7-4.7-17.7c0.4,0.3,0.6,0.5,0.9,0.7c2.9,2.3,5.8,4.7,8.6,7
			c0.6,0.5,1.3,0.9,2,1.4c1.7,1.2,3.6,1.3,5.6,0.7c2.1-0.7,4.1-1.7,6-2.8c1.4-0.9,2.8-1.7,4.4-2.7c-0.3,0.6-0.4,1-0.6,1.3
			c-1.5,3.6-2.1,7.3-0.9,11.1c1.2,3.8,3.7,6.4,7.5,7.7c3.1,1.1,6.6-0.1,8.4-2.9c1.8-2.7,2.1-5.7,1-8.8c-1.4-3.8-5.6-4.8-8.6-2.2
			c-0.5,0.5-1,1.1-1.2,1.7c-0.4,0.9,0,1.8,0.7,2.2c0.6,0.4,1.4,0.2,2.1-0.5c0.2-0.2,0.3-0.4,0.5-0.6c1-1,2.4-0.8,3.1,0.4
			c0.9,1.7,0.8,4.5-0.4,6c-1,1.3-2.6,1.8-4.2,1.2c-2.9-1.1-4.5-3.2-5.3-6.1c-1.2-4.7,1.3-11.9,6.6-14.5c0.4,0.3,0.9,0.6,1.3,1
			c2,1.9,4.1,3.7,6.1,5.6c1.5,1.4,3,2.7,4.5,4.1c1.5,1.4,3.2,1.6,5,0.8c1-0.4,2-0.9,3.1-1.4c-0.1,0.4-0.2,0.8-0.3,1.1
			c-1,3.3-1.3,6.7-0.4,10.1c0.4,1.7,1.2,3.1,2.3,4.4c4.2,4.9,11.6,4.2,14.8-1.4c1.4-2.5,1.9-5.1,1.3-7.9c-0.8-3.6-4.5-5.7-8-4.5
			c-2.2,0.7-3.8,3-3.7,5.3c0,0.2,0,0.3,0,0.5c0.2,0.9,0.7,1.5,1.4,1.6c0.7,0.1,1.4-0.3,1.7-1.2c0.2-0.5,0.3-1,0.4-1.4
			c0.4-1.2,1.3-1.7,2.6-1.4c1.1,0.3,1.9,0.9,2.1,2c0.6,2.6,0,5-2,6.8c-2.2,2.1-5.8,1.6-7.9-0.8c-1.1-1.4-1.7-3-1.9-4.7
			c-0.4-4.1,0.5-7.9,2.8-11.3c0.3-0.4,0.6-0.8,0.9-1c2.5-1.5,5-3,7.5-4.5c0.9-0.6,1.7-0.5,2.5,0.1c1.6,1.3,3.2,2.6,4.8,3.9
			c1.3,1,2.5,2.1,3.8,3.1c1.1,0.8,2.3,1,3.6,0.5c0.2-0.1,0.4-0.1,0.7-0.2c1.3,1.4,1.9,3.1,2.2,5c0.3,2.3,0,4.6-1,6.7
			c-0.5,1-1.2,1.9-2.1,2.5c-1.5,0.9-3.2,0.4-4-1.2c-0.4-0.9-0.5-1.8-0.3-2.7c0.3-1.3,1.4-1.8,2.6-1.3c0.4,0.2,0.8,0.4,1.2,0.5
			c1.2,0.2,1.9-0.6,1.6-1.8c-0.2-0.7-0.7-1.2-1.3-1.6c-3-1.8-6.7-0.2-7.4,3.3c-0.3,1.8-0.1,3.6,0.9,5.2c1.6,2.8,5.1,3.9,8,2.4
			c1.6-0.8,2.7-1.9,3.6-3.4c2.7-4.4,2.7-10.4-0.7-14.7c-0.1-0.1-0.2-0.2-0.3-0.4c3.2-1.9,6.3-3.8,9.6-5.8c-0.1,0.5-0.1,0.8-0.2,1.1
			c-2.6,9.3-5.4,18.6-9.1,27.6c-1.9,4.7-4.1,9.3-7,13.6c-0.6,0.9-1.3,1.7-1.9,2.6c-1,1.4-2.4,2-4,2.1c-3.5,0.3-7.4-1.8-9-4.9
			c-1-2-1.1-4.1-0.5-6.1c0.9-2.8,3.4-3.8,6-2.6c1,0.5,1.8,1.2,2.3,2.2c0.4,0.8,0.3,1.3-0.4,1.8c-0.6,0.4-1.2,0.6-1.9,0.9
			c-0.4,0.2-0.9,0.3-1.2,0.6c-1,0.7-0.8,2,0.4,2.5c0.3,0.1,0.8,0.2,1.1,0.2c1.4-0.2,2.8-0.7,3.9-1.5c2.1-1.6,2.7-3.9,1.6-6.3
			c-1.5-3.2-5.3-5.2-9.1-4.7c-3.2,0.4-5.9,3.4-6.4,6.9c-0.9,5.4,1.9,10,5.9,12.4c0.4,0.2,0.7,0.4,1.1,0.6
			C349.6,292,349.6,292,349.6,292.1z"/>
		<path class="st76" d="M331.3,249.4c-0.5-0.5-0.9-0.9-1.3-1.2c-3-2.8-5.9-5.7-8.9-8.5c-0.8-0.8-1.8-1.5-2.7-2.1
			c-1.5-1-3.1-1.1-4.7-0.3c-0.6,0.3-1.2,0.6-1.7,0.9c-3.4,2-6.7,4-10.1,5.9c-1.9,1-3.8,1.9-5.8,2.8c-1,0.5-1.9,0.4-2.7-0.3
			c-0.1-0.1-0.3-0.2-0.5-0.3c-4.3-3.3-8.7-6.7-13.1-10.1c0.6-2.9,1.2-5.8,2.7-8.5c1.5-2.6,3.3-5.1,4.9-7.6c1,0.5,1.9,1,2.8,1.4
			c3.1,1.5,6.4,2.1,9.7,2.5c5.1,0.6,10.2,0.1,15.3-0.5c5.3-0.7,10.7-1.5,16-2.1c4.8-0.6,9.6-0.5,14.3,0.1c5.3,0.7,10.5,1.4,15.8,2
			c1.9,0.2,3.8,0.1,5.7,0.1c0.2,0,0.5,0,0.6,0c4.1,4.7,7.6,9.6,9.6,15.5c-0.1,0.1-0.3,0.2-0.5,0.4c-3.8,2.5-7.7,4.9-11.7,7
			c-1.6,0.8-1.6,0.8-2.9-0.4c-1.5-1.4-2.9-2.8-4.5-4.1c-1.2-1-2.5-1.9-3.8-2.7c-1.9-1.2-3.8-1-5.7,0.3c-4.1,2.6-8.3,5.2-12.5,7.7
			C334.4,247.9,332.8,248.6,331.3,249.4z"/>
	</g>
	<g>
		<path class="st77" d="M105.3,141.5c-0.2,0.3-0.4,0.5-0.5,0.7c-2.8,3.7-3.4,7.7-1.7,12c1.5,3.7,4,6.5,7.2,8.7
			c1.7,1.2,3.5,2.2,5.3,3.2c1.8,1,3.5,2.2,5,3.6c2.5,2.5,3.9,5.5,4.3,8.9c0,0.4,0,0.8,0,1.3c0,0.6-0.1,1.3-0.1,1.9
			c0,1.5,0.6,2.3,2.1,2.7c0.7,0.1,1.4,0.2,2,0.3c0.8,0.2,1.7,0.3,2.4,0.6c2.8,1,4.6,3,5.4,6c0.7,2.7,0.6,5.4,0.4,8.1
			c-0.1,0.6-0.1,1.3-0.1,1.9c0,1.2,0.5,2.2,1.6,2.8c0.7,0.4,1.5,0.8,2.3,1.1c4.8,2.1,7.6,5.7,8.5,10.9c0.4,2.7-0.4,4.8-2.5,6.5
			c-1.4,1.1-2.9,1.9-4.6,2.6c-5.5,2.2-11.3,3.6-17.2,4.4c-6.4,0.8-12.9,1.2-19.4,1.4c-7.1,0.3-14.2,0-21.4-0.5
			c-4.9-0.4-9.7-1.1-14.3-2.7c-1.5-0.5-3.1-1.2-4.5-2c-3.2-1.9-5-4.8-5.8-8.4c-0.3-1.3,0-2.6,0.4-3.8c1.1-3.1,3.1-5.6,6.1-6.9
			c1.1-0.5,2.2-0.9,3.3-1.3c1.2-0.5,1.7-1.2,1.4-2.5c-0.2-0.9-0.5-1.9-0.6-2.8c-0.5-3.9,0.3-7.7,2.3-11c2.6-4.4,6.6-6.3,11.7-6.2
			c0.8,0,1.6,0.1,2.4,0.2c0.5,0,0.9,0,1.4,0c1.2-0.2,1.9-1.3,1.5-2.5c-0.2-0.5-0.4-1.1-0.7-1.5c-2.2-3.6-2.7-7.5-2.3-11.6
			c0.2-1.6,0.3-3.3,0.7-4.9c1.8-7.3,5.8-13.2,11.7-17.8c1.5-1.2,3.3-2.1,5.1-2.8C104.4,141.7,104.8,141.6,105.3,141.5z"/>
		<path class="st74" d="M132.9,291.7c0.1-0.8,0.2-1.6,0.3-2.3c1.4-10.1,3.2-20.2,5.1-30.2c0.3-1.6,0.5-3.3,0.7-4.9
			c0.1-0.6,0-1.2-0.1-1.8c-0.1-0.8-0.7-1.4-1.4-1.5c-0.8-0.1-1.3,0.3-1.7,1c-0.4,0.7-0.7,1.4-0.9,2.1c-0.6,2.6-1.3,5.3-1.8,8
			c-1.4,7.9-2.7,15.8-4.1,23.8c-0.3,2-0.6,4.1-0.9,6.3c-3.7,0.3-7.4,0.3-11.2,0.4c0-0.4,0-0.7,0-1c0.2-5,0.3-10,0.6-14.9
			c0.2-5.4,0.5-10.9,0.8-16.3c0.1-1.1,0-2.2,0-3.3c0-0.4-0.1-0.8-0.2-1.2c-0.3-1.2-0.9-1.8-1.7-1.8c-0.9,0-1.6,0.5-1.9,1.7
			c-0.2,0.8-0.4,1.6-0.5,2.4c-0.3,3.4-0.5,6.9-0.7,10.3c-0.3,5.9-0.6,11.9-0.8,17.8c-0.1,2.1,0,4.2,0,6.3c-1,0.3-8.9,0.3-10.2,0
			c-0.2-2.5-0.5-4.9-0.7-7.4c-0.5-4.7-1-9.4-1.5-14.2c-0.4-4-0.8-8.1-1.3-12.1c-0.3-2.3-0.6-4.6-0.9-6.9c-0.1-0.5-0.3-1-0.5-1.5
			c-0.3-0.6-0.8-1-1.4-1c-0.7,0-1.2,0.4-1.4,1c-0.3,0.9-0.6,1.8-0.6,2.7c0,2.3,0.1,4.6,0.3,6.9c0.5,5.6,1.2,11.3,1.8,16.9
			c0.5,4.8,1,9.7,1.5,14.5c0,0.3,0,0.6,0.1,1.1c-3.7-0.2-7.3-0.5-10.8-0.7c-1.5-6.6-3.1-13.1-4.6-19.5c-1.2-5.4-2.5-10.8-3.7-16.2
			c-0.1-0.6-0.3-1.3-0.5-1.9c-0.3-0.8-0.9-1.2-1.6-1.2c-0.8,0.1-1.3,0.6-1.5,1.3c-0.4,1.4-0.3,2.7-0.1,4.1c0.8,4.3,1.6,8.5,2.5,12.7
			c1.4,6.3,2.9,12.5,4.4,18.8c0.1,0.4,0.2,0.8,0.3,1.3c-0.2,0-0.3,0.1-0.4,0.1c-2.2-0.4-4.4-0.7-6.6-1.1c-1.9-0.3-3.3-1.4-4.3-3.1
			c-2.1-3.6-3.8-7.4-5.4-11.3c-4.4-10.3-7.9-20.8-10.3-31.7c-0.3-1.1-0.6-2.3-0.9-3.6c0.6,0.2,1.1,0.2,1.5,0.4
			c1.2,0.6,2.5,1.2,3.7,1.8c2.1,1.1,4.1,2.3,6.2,3.5c2.3,1.3,4.6,2.2,7.2,2.6c3.2,0.6,6.3,0.1,9.3-0.8c2.3-0.7,4.6-1.5,6.9-2.3
			c2.9-1,5.9-1.7,9-1.9c4.1-0.4,8.1,0.3,11.9,1.7c2.2,0.8,4.4,1.7,6.6,2.6c3.1,1.2,6.4,1.9,9.7,2c2.4,0.1,4.8-0.2,7.2-0.9
			c2.4-0.7,4.7-1.6,6.9-2.7c1.8-0.9,3.6-1.8,5.4-2.8c2.1-1.1,4.4-1.9,6.7-2.3c0.3-0.1,0.6-0.1,1.1-0.2c0,0.6,0,1.2-0.1,1.8
			c-1.3,12.2-3.8,24.1-7.8,35.7c-1.1,3.2-2.3,6.4-4.1,9.4c-0.5,0.9-1.2,1.8-1.9,2.6c-0.2,0.3-0.6,0.6-0.9,0.6
			C136.7,291.5,134.9,291.6,132.9,291.7z"/>
		<path class="st76" d="M148.2,226.5c2.1,3.4,3.5,7,4.4,10.9c-0.7,0.2-1.3,0.3-1.9,0.5c-2.7,0.7-5.2,1.8-7.7,3
			c-1.8,0.9-3.7,1.9-5.5,2.8c-3.5,1.6-7.1,2.7-11,2.6c-3.1-0.1-6.1-0.8-8.9-1.9c-2.1-0.8-4.3-1.6-6.4-2.4
			c-6.5-2.5-13.1-2.6-19.8-0.7c-2.6,0.7-5.1,1.7-7.6,2.5c-1.9,0.6-3.9,1.1-5.9,1.5c-2.8,0.6-5.4,0-8-1c-1.1-0.4-2.2-1-3.2-1.5
			c-1.3-0.7-2.6-1.4-3.8-2.1c-2.5-1.3-4.9-2.8-8-3.1c0.9-4.1,2.7-7.6,5.6-10.6c0.8,0.6,1.6,1.3,2.4,1.8c2.5,1.7,5.3,2.8,8.2,3.6
			c4.6,1.3,9.4,2,14.1,2.3c5.2,0.4,10.5,0.7,15.7,0.6c5-0.1,10-0.3,15-0.6c5.2-0.2,10.3-0.8,15.4-1.9c3.9-0.8,7.8-1.8,11.6-3.3
			c1.6-0.7,3.1-1.6,4.7-2.4C147.7,226.9,147.9,226.7,148.2,226.5z"/>
	</g>
	<g>
		<path class="st76" d="M253.3,212.7c3.8,4.2,10.9,18.5,12.3,24.8c-0.7,0.1-1.3,0.3-2,0.4c-3.3,0.6-6.7,1.4-10,1.9
			c-4,0.6-8,1-12,1.3c-6.6,0.4-13.2,0.6-19.9,0.7c-5.8,0.1-11.5-0.1-17.3-0.3c-11.3-0.3-22.4-2.4-33.3-5.6c-0.9-0.3-1.8-0.5-2.8-0.8
			c1.6-7.4,5.1-13.6,10.3-19.1c0.2,0.3,0.4,0.5,0.5,0.7c1.6,3.1,4.1,4.8,7.6,5.2c2.4,0.3,4.8,0.1,7.2,0c2.7-0.1,5.5-0.3,8.2-0.2
			c2.8,0.1,5.5,0.9,8.1,1.9c1.8,0.7,3.5,1.4,5.2,2.1c4.7,1.9,9.5,2.1,14.4,1.2c4.5-0.8,8.7-2.3,12.7-4.5c2.2-1.2,4-2.7,5.6-4.6
			c1.5-1.8,3.1-3.5,4.9-5.1C253,212.8,253.2,212.8,253.3,212.7z"/>
		<path class="st77" d="M199.4,194c0.1,0.3,0.2,0.5,0.3,0.6c2.7,6.7,7.6,10.7,14.6,12.5c3.7,1,7.4,1.2,11.1-0.1
			c3.6-1.2,6.5-3.3,8.5-6.5c0.8-1.3,1.5-2.6,2.3-4.1c0.1,0,0.3-0.1,0.5,0c3.4,0.7,6.9,1.2,10.1,2.5c1.2,0.4,2.3,1,3.3,1.7
			c0.6,0.4,1.2,1,1.7,1.6c1.7,2.1,1.5,4.6-0.5,6.5c-0.1,0.1-0.3,0.3-0.4,0.4c-2.1,1.6-3.9,3.4-5.4,5.5c-2.8,3.7-6.7,5.9-11,7.3
			c-3.5,1.2-7.2,1.7-10.9,1.6c-2.3-0.1-4.5-0.7-6.6-1.5c-2.6-1-5.3-2-7.9-3c-4.2-1.5-8.5-1.7-12.9-1.3c-2,0.2-4.1,0.4-6.1,0.4
			c-1.4,0-2.7-0.1-4.1-0.4c-2.1-0.5-3.2-1.9-3.8-3.9c-0.4-1.4-0.2-2.8,0-4.2c0.9-4.7,3.5-8.3,7.1-11.3c2.5-2,5.2-3.4,8.4-4.1
			C198.4,194.1,198.8,194.1,199.4,194z"/>
		<g>
			<path class="st74" d="M217.1,166.7c0.2-3.6,0.8-6.7,1.7-9.7c1.9-5.9,4.6-11.3,8.7-16c0.5-0.6,1.1-1.3,1.7-1.8
				c0.5-0.4,1.1-0.8,1.7-1c1.2-0.4,2.3,0.6,2,1.8c-0.2,0.8-0.7,1.6-1.2,2.3c-1.2,1.7-2.6,3.4-3.7,5.2c-3.2,5-5.2,10.5-6.5,16.3
				c-0.3,1.3-0.6,2.5-0.9,3.8c-0.1,0.4-0.2,0.8-0.4,1.2c-0.7,1.1-2,1.1-2.6,0C217.3,168,217.2,167.2,217.1,166.7z"/>
			<path class="st75" d="M218.7,173.6c1.8,0.2,3.6,0.3,5.3,0.7c5,1.3,7.9,4.7,9.2,9.5c1.4,5,0.6,9.8-2.2,14.2c-2.6,4.1-6.4,6-11.2,6
				c-2.9,0-5.7-0.7-8.3-1.9c-4.8-2.2-8.1-5.9-9.2-11.2c-1.4-6.3,1.4-12.4,7.6-15.4C212.7,174.3,215.6,173.7,218.7,173.6z"/>
		</g>
		<g>
			<path class="st78" d="M210.8,293.5c-3.7-0.2-7.3-0.5-10.9-0.7c-5.1-16.4-8.9-33.1-13.9-49.6c6.8,1.3,13.6,2.1,20.4,2.3
				C207.5,261.5,209.1,277.4,210.8,293.5z"/>
			<path class="st78" d="M226.9,293.8c-3.8-0.1-7.7-0.1-11.6-0.2c-0.7-8.1-1.4-16-2.2-24c-0.8-7.9-1.2-15.9-2.5-23.9
				c6.2-0.1,12.5-0.1,18.8-0.2C228.4,261.6,227.9,277.7,226.9,293.8z"/>
			<path class="st78" d="M241.1,293.7c-3.1,0-6.2,0.1-9.3,0.1c0-1.1-0.1-2.2,0-3.2c0.2-4.5,0.5-9,0.7-13.5
				c0.3-5.2,0.5-10.5,0.8-15.7c0.2-3.9,0.3-7.8,0.5-11.8c0-1.4,0-2.7,0-4.2c5.7-0.4,11.5-0.9,17.4-1.3c0,0.1,0,0.3,0,0.4
				c-1.6,5.3-2.5,10.8-3.5,16.2c-1.1,5.8-2.2,11.6-3.3,17.4c-0.9,4.5-1.7,9-2.5,13.5C241.5,292.4,241.3,293,241.1,293.7z"/>
			<path class="st78" d="M195.5,292.2c-2.3-0.3-4.4-0.6-6.5-1.2c-1.1-0.4-2.1-1-2.7-2c-1.2-1.9-2.4-3.7-3.4-5.6
				c-3.9-7.2-7-14.8-9.6-22.6c-1.7-5-3.2-10-4.7-15c-0.6-2.2-0.9-4.5-1.4-6.8c0-0.1,0-0.3,0-0.6c5,1.3,9.8,2.6,14.8,3.9
				C185.7,259.2,190.5,275.6,195.5,292.2z"/>
			<path class="st78" d="M255.2,243.4c4.8-0.7,9.2-2.2,14.1-2.6c-0.1,0.8-0.2,1.5-0.3,2.2c-1.2,4.4-2.3,8.9-3.5,13.3
				c-1.8,6.4-3.5,12.8-6.1,18.9c-1.7,4.1-3.7,8-5.7,12c-0.7,1.5-1.8,2.9-2.7,4.2c-1.4,1.9-3.3,2.3-5.6,2.2
				C248.6,276.8,251.9,260.1,255.2,243.4z"/>
		</g>
	</g>
</g>
</svg>
