<?xml version="1.0" encoding="utf-8"?>
<!-- Generator: Adobe Illustrator 22.0.1, SVG Export Plug-In . SVG Version: 6.00 Build 0)  -->
<svg version="1.1" id="Calque_1" xmlns="http://www.w3.org/2000/svg" xmlns:xlink="http://www.w3.org/1999/xlink" x="0px" y="0px"
	 viewBox="0 0 432 432" style="enable-background:new 0 0 432 432;" xml:space="preserve">
<style type="text/css">
	.st0{fill:#0E5A60;}
	.st1{fill:#828068;}
	.st2{fill:#7E2038;}
	.st3{fill:#1E4847;}
	.st4{fill:#AC847B;}
	.st5{fill:#FDECF0;}
	.st6{fill:#C5A36B;}
	.st7{fill:#D0AFA8;}
	.st8{fill:#9AA3AD;}
	.st9{fill:#9A8266;}
	.st10{fill:#91ACBA;}
	.st11{fill:#5C748E;}
	.st12{fill:#313F52;}
	.st13{fill:#96683E;}
	.st14{fill:#E4DDC2;}
	.st15{fill:#DED3C6;}
	.st16{fill:#E7E6E6;}
	.st17{fill:#BFD4DD;}
	.st18{fill:#FCE2DF;}
	.st19{fill:#CD8C56;}
	.st20{fill:#343434;}
	.st21{fill:#5D6F59;}
	.st22{fill:#C49253;}
	.st23{fill:#B88E5C;}
	.st24{fill:#E9A197;}
	.st25{fill:#72968E;}
	.st26{fill:#1B1B1B;}
	.st27{fill:#BD6581;}
	.st28{fill:#F2F2F2;}
	.st29{fill:#3D313B;}
	.st30{fill:#4E5254;}
	.st31{fill:#4B262E;}
	.st32{fill:#B093A5;}
	.st33{fill:#04707D;}
	.st34{fill:#A39BB2;}
	.st35{fill:#E3E1E0;}
	.st36{fill:#020203;}
	.st37{fill:#523F50;}
	.st38{fill:#81434D;}
	.st39{fill:#B58186;}
	.st40{fill:#563138;}
	.st41{fill:#E8B73C;}
	.st42{fill:#EC667A;}
	.st43{fill:#93A5A9;}
	.st44{fill:#A6394D;}
	.st45{fill:#6BC4CD;}
	.st46{fill:#3F6753;}
	.st47{fill:#66976A;}
	.st48{fill:#E3C8BD;}
	.st49{fill:#C8878D;}
	.st50{fill:#AE4043;}
	.st51{fill:#8B9976;}
	.st52{fill:#E7929D;}
	.st53{fill:#1E382B;}
	.st54{fill:#EF787A;}
	.st55{fill:#A81916;}
	.st56{fill:#E04747;}
	.st57{fill:#A5606F;}
	.st58{fill:#6C323C;}
	.st59{fill:#9C6434;}
	.st60{fill:#668CB9;}
	.st61{fill:#485B97;}
	.st62{fill:#F0C872;}
	.st63{fill:#D25215;}
	.st64{fill:#F1E0C6;}
	.st65{fill:#E1CBAC;}
	.st66{fill:#A9937F;}
	.st67{fill:#788A28;}
	.st68{fill:#A3AF32;}
	.st69{fill:#C1292E;}
	.st70{fill:#066938;}
	.st71{fill:#109F3D;}
	.st72{fill:#1861A9;}
	.st73{fill:#E00825;}
	.st74{fill:#F9B03D;}
	.st75{fill:#B4B4B4;}
	.st76{fill:#E52629;}
	.st77{fill:#DDC6A7;}
	.st78{fill:#746458;}
	.st79{fill:#754D24;}
	.st80{fill:#F39323;}
	.st81{fill:#A1AA40;}
	.st82{fill:#DBAD5D;}
	.st83{fill:#8EC045;}
	.st84{fill:#BA9BC9;}
	.st85{fill:#9B7574;}
	.st86{fill:#C68A89;}
	.st87{fill:#DF5564;}
	.st88{fill:#AA353D;}
	.st89{fill:#B75266;}
	.st90{fill:#DB6455;}
	.st91{fill:#975F74;}
	.st92{fill:#804F63;}
	.st93{fill:#FFFFFF;}
	.st94{fill:#CDCCCC;}
	.st95{fill:#A67D52;}
	.st96{fill:#DB8E98;}
	.st97{fill:#F3EED1;}
	.st98{fill:#CCD8B0;}
	.st99{fill:#47663C;}
	.st100{fill:#355129;}
	.st101{fill:#EEBCC5;}
	.st102{fill:#9A9999;}
	.st103{fill:#676767;}
	.st104{fill:#C69C6C;}
	.st105{fill:#4E3B3B;}
	.st106{fill:#D7ACAB;}
	.st107{fill:#CA5A69;}
	.st108{fill:#EC8A9F;}
	.st109{fill:#D4175B;}
	.st110{fill:#828BC5;}
	.st111{fill:#884C64;}
	.st112{fill:#F6B7BB;}
	.st113{fill:#F8D9C4;}
	.st114{fill:#F5CACD;}
	.st115{fill:#F6B1B3;}
	.st116{fill:#F9BFA1;}
	.st117{fill:#9BD2CC;}
	.st118{fill:#83B143;}
	.st119{fill:#959C57;}
	.st120{fill:#60643C;}
	.st121{fill:#C469A5;}
	.st122{fill:#9D8098;}
	.st123{fill:#9E1832;}
	.st124{fill:#BC1821;}
	.st125{fill:#AF5617;}
	.st126{fill:#DB6428;}
	.st127{fill:#FFFFFE;}
	.st128{fill:#141112;}
	.st129{fill:#EEC8A0;}
	.st130{fill:#CA1517;}
	.st131{fill:none;}
	.st132{fill:#B51918;}
	.st133{fill:#918A82;}
	.st134{fill:#878179;}
	.st135{fill:#F39BA4;}
	.st136{fill:#F0818B;}
	.st137{fill:#9F1915;}
	.st138{fill:#AB182A;}
	.st139{fill:#24612B;}
	.st140{fill:#114C25;}
	.st141{fill:#C7495D;}
	.st142{fill:#EBC164;}
	.st143{fill:#F6B6B8;}
	.st144{fill:#A9654E;}
	.st145{fill:#2D1B14;}
	.st146{fill:#CA3B63;}
	.st147{fill:#4A2C22;}
	.st148{fill:#E54967;}
	.st149{fill:#889F63;}
	.st150{fill:#808181;}
	.st151{fill:#8C633A;}
	.st152{fill:#CDAC81;}
	.st153{fill:#977D61;}
	.st154{fill:#423A30;}
	.st155{fill:#3D574A;}
	.st156{fill:#CCCDC9;}
	.st157{fill:#F1866C;}
	.st158{fill:#D8B67C;}
	.st159{fill:#432918;}
	.st160{fill:#D4A479;}
	.st161{fill:#E6C283;}
	.st162{fill:#3C3C3B;}
	.st163{fill:#C6C6C6;}
	.st164{fill:#F4A3A6;}
	.st165{fill:#B2B2B2;}
	.st166{fill:#1D71B8;}
	.st167{fill:#B4DCD3;}
	.st168{fill:#CEE7E1;}
	.st169{fill:#99D0C3;}
	.st170{fill:#3B3835;}
	.st171{fill:#E7CFB3;}
	.st172{fill:#DCC19F;}
	.st173{fill:#D4B188;}
	.st174{fill:#F3B68B;}
	.st175{fill:#F9C19B;}
	.st176{fill:#FCDCC8;}
	.st177{fill:#A68B74;}
	.st178{fill:#CCB295;}
	.st179{fill:#D2B89A;}
	.st180{fill:#3D3329;}
	.st181{fill:#966837;}
	.st182{fill:#A06E3B;}
	.st183{fill:#B57D44;}
	.st184{fill:#13110C;}
	.st185{fill:#D5D4D4;}
	.st186{fill:#9B6228;}
	.st187{fill:#844C16;}
	.st188{fill:#D01419;}
	.st189{fill:#4C2814;}
	.st190{fill:#B71918;}
	.st191{fill:#C11718;}
</style>
<g>
	<path class="st82" d="M378,276.2c0,0.2,0,0.3,0,0.5c0,1.4-0.1,2.8-0.4,4.1v0c-0.8,4.9-2.8,9.6-5.9,13.9
		c-11.2,15.7-36.2,26.5-65.2,26.5c-30.2,0-56.1-11.8-66.5-28.5c-1.5-2.4-2.7-4.9-3.5-7.5c-0.9-2.9-1.4-5.9-1.4-9c0-0.2,0-0.3,0-0.5
		c0-0.7,0-1.4,0.1-2.1c0.1-0.8,0.2-1.6,0.3-2.4c0-0.3,0.1-0.5,0.2-0.8c0.1-0.6,0.2-1.1,0.4-1.7c0.1-0.5,0.3-1,0.4-1.5
		c0.1-0.3,0.2-0.6,0.3-0.9c0.1-0.3,0.2-0.6,0.3-0.9c0.1-0.3,0.2-0.5,0.3-0.8c0.2-0.4,0.3-0.8,0.5-1.2c0.2-0.5,0.5-1,0.7-1.5
		c0.1-0.3,0.3-0.6,0.5-0.8c0.2-0.3,0.3-0.5,0.5-0.8c0.2-0.3,0.3-0.6,0.5-0.8c0.3-0.5,0.7-1.1,1.1-1.6c0.4-0.5,0.8-1.1,1.2-1.6
		c0.2-0.3,0.4-0.5,0.6-0.8c0.4-0.5,0.9-1,1.3-1.5c0.4-0.5,0.9-0.9,1.3-1.4c0.5-0.5,1.1-1.1,1.6-1.6c0.3-0.2,0.5-0.5,0.8-0.7
		c0.8-0.7,1.6-1.4,2.5-2.1c0.3-0.2,0.5-0.4,0.8-0.6c0,0,0.1-0.1,0.1-0.1c0.4-0.3,0.9-0.7,1.4-1c0.4-0.3,0.8-0.5,1.2-0.8
		c0.7-0.5,1.5-1,2.2-1.5c0.3-0.2,0.6-0.4,0.9-0.6c2.5-1.5,5.1-2.9,8-4.1c0.3-0.2,0.7-0.3,1-0.5c2.1-0.9,4.3-1.7,6.5-2.5
		c0.4-0.1,0.8-0.3,1.3-0.4c0.7-0.2,1.4-0.4,2.1-0.7c0.5-0.1,0.9-0.3,1.4-0.4c0.5-0.1,1-0.3,1.5-0.4c1.8-0.5,3.7-0.9,5.6-1.3
		c0.5-0.1,1.1-0.2,1.6-0.3c0.5-0.1,1.1-0.2,1.6-0.3c0.3-0.1,0.7-0.1,1-0.2c0.5-0.1,1.1-0.2,1.7-0.3c0.6-0.1,1.1-0.2,1.7-0.2
		c0.3,0,0.7-0.1,1-0.1c0.8-0.1,1.6-0.2,2.4-0.3c0.3,0,0.6-0.1,1-0.1c0.7-0.1,1.5-0.1,2.3-0.2c0.6,0,1.2-0.1,1.8-0.1
		c0.7,0,1.4-0.1,2-0.1c0.7,0,1.4,0,2.1-0.1c0.7,0,1.4,0,2.1,0c0.8,0,1.7,0,2.5,0c0.5,0,1.1,0,1.6,0.1c0.3,0,0.6,0,0.9,0
		c0.8,0,1.5,0.1,2.3,0.1c0.3,0,0.7,0,1,0.1c0.4,0,0.9,0.1,1.3,0.1c0.8,0.1,1.5,0.1,2.3,0.2c0.6,0.1,1.1,0.1,1.7,0.2
		c0.8,0.1,1.5,0.2,2.3,0.3c0.7,0.1,1.3,0.2,2,0.3c0,0,0,0,0,0c0.6,0.1,1.3,0.2,1.9,0.3c0.9,0.2,1.8,0.3,2.7,0.5
		c0.6,0.1,1.2,0.2,1.7,0.4c1.9,0.4,3.8,0.9,5.6,1.4c0.3,0.1,0.5,0.2,0.8,0.2c0.5,0.2,1,0.3,1.6,0.5c1.4,0.4,2.8,0.9,4.1,1.4
		c0.5,0.2,1,0.4,1.5,0.6c0.5,0.2,1.1,0.4,1.6,0.6c0.9,0.4,1.7,0.7,2.6,1.1c0.4,0.2,0.8,0.4,1.3,0.6c0.9,0.4,1.9,0.9,2.8,1.4
		c0.3,0.2,0.6,0.3,0.9,0.5c0.8,0.4,1.6,0.9,2.3,1.3c0.4,0.2,0.7,0.5,1.1,0.7c1.1,0.6,2.1,1.3,3,2c0.5,0.3,0.9,0.6,1.4,1
		c0.3,0.2,0.6,0.4,0.8,0.6c0.7,0.5,1.4,1.1,2,1.6c0.3,0.2,0.5,0.5,0.8,0.7c0.3,0.3,0.7,0.6,1,0.9c0.3,0.2,0.5,0.5,0.8,0.7
		c0.3,0.3,0.5,0.5,0.8,0.8c1.2,1.2,2.3,2.5,3.4,3.8c0.3,0.3,0.5,0.6,0.7,1c0.9,1.2,1.7,2.4,2.4,3.7c0.2,0.3,0.3,0.6,0.5,0.9
		c0.6,1.2,1.2,2.4,1.7,3.7c0.1,0.3,0.3,0.7,0.4,1c0.3,0.9,0.6,1.8,0.8,2.7C377.7,271.5,378,273.8,378,276.2z"/>
	<path class="st16" d="M352.8,279.1c-18.5,9.6-23.2-24.8-33.8-24.1c-10.6,0.7-2.6,25.8-17.2,27.8c-14.6,2-8-31.8-27.8-29.7
		c-9.1,0.9-18-1.4-22.7-5.6c0.4-0.3,0.9-0.7,1.4-1c0.4-0.3,0.8-0.5,1.2-0.8c0.7-0.5,1.5-1,2.2-1.5c0.3-0.2,0.6-0.4,0.9-0.6
		c2.5-1.5,5.1-2.9,8-4.1c0.3-0.2,0.7-0.3,1-0.5c2.1-0.9,4.3-1.7,6.5-2.5c0.4-0.1,0.8-0.3,1.3-0.4c0.7-0.2,1.4-0.4,2.1-0.7
		c0.5-0.1,0.9-0.3,1.4-0.4c0.5-0.1,1-0.3,1.5-0.4c1.8-0.5,3.7-0.9,5.6-1.3c0.5-0.1,1.1-0.2,1.6-0.3c0.5-0.1,1.1-0.2,1.6-0.3
		c0.3-0.1,0.7-0.1,1-0.2c0.5-0.1,1.1-0.2,1.7-0.3c0.6-0.1,1.1-0.2,1.7-0.2c0.3,0,0.7-0.1,1-0.1c0.8-0.1,1.6-0.2,2.4-0.3
		c0.3,0,0.6-0.1,1-0.1c0.7-0.1,1.5-0.1,2.3-0.2c0.6,0,1.2-0.1,1.8-0.1c0.7,0,1.4-0.1,2-0.1c0.7,0,1.4,0,2.1-0.1c0.7,0,1.4,0,2.1,0
		c0.8,0,1.7,0,2.5,0c0.5,0,1.1,0,1.6,0.1c0.3,0,0.6,0,0.9,0c0.8,0,1.5,0.1,2.3,0.1c0.3,0,0.7,0,1,0.1c0.4,0,0.9,0.1,1.3,0.1
		c0.8,0.1,1.5,0.1,2.3,0.2c0.6,0.1,1.1,0.1,1.7,0.2c0.8,0.1,1.5,0.2,2.3,0.3c0.7,0.1,1.3,0.2,2,0.3c0,0,0,0,0,0
		c0.6,0.1,1.3,0.2,1.9,0.3c0.9,0.2,1.8,0.3,2.7,0.5c0.6,0.1,1.2,0.2,1.7,0.4c1.9,0.4,3.8,0.9,5.6,1.4c0.3,0.1,0.5,0.2,0.8,0.2
		c0.5,0.2,1,0.3,1.6,0.5c1.4,0.4,2.8,0.9,4.1,1.4c0.5,0.2,1,0.4,1.5,0.6c0.5,0.2,1.1,0.4,1.6,0.6c0.9,0.4,1.7,0.7,2.6,1.1
		c0.4,0.2,0.8,0.4,1.3,0.6c0.9,0.4,1.9,0.9,2.8,1.4c0.3,0.2,0.6,0.3,0.9,0.5c0.8,0.4,1.6,0.8,2.3,1.3c0.4,0.2,0.7,0.5,1.1,0.7
		c1.1,0.6,2.1,1.3,3,2c0.5,0.3,0.9,0.6,1.4,1c0.3,0.2,0.6,0.4,0.8,0.6c0.7,0.5,1.4,1.1,2,1.6c0.3,0.2,0.5,0.5,0.8,0.7
		c0.3,0.3,0.7,0.6,1,0.9C359.6,256.1,370.3,270.1,352.8,279.1z"/>
	<path class="st62" d="M378,276.6c0,1.4-0.1,2.8-0.4,4.1v0c-0.8,4.9-2.8,9.6-5.9,13.9c-57.7,8.2-87.8,7-131.7-2
		c-1.5-2.4-2.7-4.9-3.5-7.5c-0.9-2.9-1.4-5.9-1.4-9c0-0.2,0-0.3,0-0.5C274.8,288.6,325,294.5,378,276.6z"/>
	<circle class="st69" cx="306.8" cy="229.1" r="9.3"/>
</g>
<g>
	<path class="st62" d="M197,276.2c0,24.9-32,45-71.5,45S54,301,54,276.2c0-0.9,0-1.7,0.1-2.6c2.1-23.7,33.3-42.4,71.4-42.4
		c35.8,0,65.4,16.5,70.7,38.1C196.7,271.5,197,273.8,197,276.2z"/>
	<path class="st82" d="M196.2,269.3c-14.9,15.6-42.2,26.1-73.3,26.1c-28.2,0-53.2-8.6-68.7-21.8c0.7-7.4,4.2-14.4,9.9-20.4
		c1.9-2,4-3.9,6.3-5.7c13.1-10,32.9-16.4,55.1-16.4c24.4,0,45.9,7.7,58.8,19.4c0.1,0.1,0.3,0.3,0.4,0.4
		C190.5,256.3,194.5,262.5,196.2,269.3z"/>
	<g>
		<path class="st69" d="M184.3,250.5c-11.3,7.9-32.2,25.8-51.9,29.8c-24.8,5.1-15.2-26.3-35.9-24.9c-11.2,0.8-24.4,0.4-32.5-2.3
			c1.9-2,4-3.9,6.3-5.7c13.1-10,32.9-16.4,55.1-16.4C149.9,231.1,171.4,238.8,184.3,250.5z"/>
		<g>
			<circle class="st60" cx="116.7" cy="239.9" r="3.3"/>
			<circle class="st83" cx="130.5" cy="254.9" r="2.1"/>
			<circle class="st84" cx="144" cy="242" r="2.1"/>
			<circle class="st45" cx="160.9" cy="256" r="2.8"/>
			<circle class="st80" cx="88.8" cy="247" r="1.5"/>
		</g>
	</g>
</g>
<g>
	<path class="st82" d="M284.8,158.6c0,0.2,0,0.3,0,0.5c0,1.4-0.1,2.8-0.4,4.1v0c-0.8,4.9-2.8,9.6-5.9,13.9
		c-11.2,15.7-36.2,26.5-65.2,26.5c-30.2,0-56.1-11.8-66.5-28.5c-1.5-2.4-2.7-4.9-3.5-7.5c-0.9-2.9-1.4-5.9-1.4-9c0-0.2,0-0.3,0-0.5
		c0-0.7,0-1.4,0.1-2.1c0.1-0.8,0.2-1.6,0.3-2.4c0-0.3,0.1-0.5,0.2-0.8c0.1-0.6,0.2-1.1,0.4-1.7c0.1-0.5,0.3-1,0.4-1.5
		c0.1-0.3,0.2-0.6,0.3-0.9c0.1-0.3,0.2-0.6,0.3-0.9c0.1-0.3,0.2-0.5,0.3-0.8c0.2-0.4,0.3-0.8,0.5-1.2c0.2-0.5,0.5-1,0.7-1.5
		c0.1-0.3,0.3-0.6,0.5-0.8c0.2-0.3,0.3-0.5,0.5-0.8c0.2-0.3,0.3-0.6,0.5-0.8c0.3-0.5,0.7-1.1,1.1-1.6c0.4-0.5,0.8-1.1,1.2-1.6
		c0.2-0.3,0.4-0.5,0.6-0.8c0.4-0.5,0.9-1,1.3-1.5c0.4-0.5,0.9-0.9,1.3-1.4c0.5-0.5,1.1-1.1,1.6-1.6c0.3-0.2,0.5-0.5,0.8-0.7
		c0.8-0.7,1.6-1.4,2.5-2.1c0.3-0.2,0.5-0.4,0.8-0.6c0,0,0.1-0.1,0.1-0.1c0.4-0.3,0.9-0.7,1.4-1c0.4-0.3,0.8-0.5,1.2-0.8
		c0.7-0.5,1.5-1,2.2-1.5c0.3-0.2,0.6-0.4,0.9-0.6c2.5-1.5,5.1-2.9,8-4.1c0.3-0.2,0.7-0.3,1-0.5c2.1-0.9,4.3-1.7,6.5-2.5
		c0.4-0.1,0.8-0.3,1.3-0.4c0.7-0.2,1.4-0.4,2.1-0.7c0.5-0.1,0.9-0.3,1.4-0.4c0.5-0.1,1-0.3,1.5-0.4c1.8-0.5,3.7-0.9,5.6-1.3
		c0.5-0.1,1.1-0.2,1.6-0.3c0.5-0.1,1.1-0.2,1.6-0.3c0.3-0.1,0.7-0.1,1-0.2c0.5-0.1,1.1-0.2,1.7-0.3c0.6-0.1,1.1-0.2,1.7-0.2
		c0.3,0,0.7-0.1,1-0.1c0.8-0.1,1.6-0.2,2.4-0.3c0.3,0,0.6-0.1,1-0.1c0.7-0.1,1.5-0.1,2.3-0.2c0.6,0,1.2-0.1,1.8-0.1
		c0.7,0,1.4-0.1,2-0.1c0.7,0,1.4,0,2.1-0.1c0.7,0,1.4,0,2.1,0c0.8,0,1.7,0,2.5,0c0.5,0,1.1,0,1.6,0.1c0.3,0,0.6,0,0.9,0
		c0.8,0,1.5,0.1,2.3,0.1c0.3,0,0.7,0,1,0.1c0.4,0,0.9,0.1,1.3,0.1c0.8,0.1,1.5,0.1,2.3,0.2c0.6,0.1,1.1,0.1,1.7,0.2
		c0.8,0.1,1.5,0.2,2.3,0.3c0.7,0.1,1.3,0.2,2,0.3c0,0,0,0,0,0c0.6,0.1,1.3,0.2,1.9,0.3c0.9,0.2,1.8,0.3,2.7,0.5
		c0.6,0.1,1.2,0.2,1.7,0.4c1.9,0.4,3.8,0.9,5.6,1.4c0.3,0.1,0.5,0.2,0.8,0.2c0.5,0.2,1,0.3,1.6,0.5c1.4,0.4,2.8,0.9,4.1,1.4
		c0.5,0.2,1,0.4,1.5,0.6c0.5,0.2,1.1,0.4,1.6,0.6c0.9,0.4,1.7,0.7,2.6,1.1c0.4,0.2,0.8,0.4,1.3,0.6c0.9,0.4,1.9,0.9,2.8,1.4
		c0.3,0.2,0.6,0.3,0.9,0.5c0.8,0.4,1.6,0.9,2.3,1.3c0.4,0.2,0.7,0.5,1.1,0.7c1.1,0.6,2.1,1.3,3,2c0.5,0.3,0.9,0.6,1.4,1
		c0.3,0.2,0.6,0.4,0.8,0.6c0.7,0.5,1.4,1.1,2,1.6c0.3,0.2,0.5,0.5,0.8,0.7c0.3,0.3,0.7,0.6,1,0.9c0.3,0.2,0.5,0.5,0.8,0.7
		c0.3,0.3,0.5,0.5,0.8,0.8c1.2,1.2,2.3,2.5,3.4,3.8c0.3,0.3,0.5,0.6,0.7,1c0.9,1.2,1.7,2.4,2.4,3.7c0.2,0.3,0.3,0.6,0.5,0.9
		c0.6,1.2,1.2,2.4,1.7,3.7c0.1,0.3,0.3,0.7,0.4,1c0.3,0.9,0.6,1.8,0.8,2.7C284.5,153.9,284.8,156.2,284.8,158.6z"/>
	<path class="st62" d="M284.8,159.1c0,1.4-0.1,2.8-0.4,4.1v0c-0.8,4.9-2.8,9.6-5.9,13.9c-57.7,8.2-87.8,7-131.7-2
		c-1.5-2.4-2.7-4.9-3.5-7.5c-0.9-2.9-1.4-5.9-1.4-9c0-0.2,0-0.3,0-0.5C181.6,171.1,231.8,176.9,284.8,159.1z"/>
	<path class="st59" d="M209.3,110.8c-36.3,0-53.4,15.1-63.6,26.5c-10.2,11.5,27.8,2.8,35.8,3.6c8.1,0.8,13.8,15.4,24.9,14.5
		s13.5-16.5,20-17c6.5-0.6,8.7,23.7,21.1,23.5c12.4-0.3,11.1-25.7,15-25.6c2.3,0.1,5.2,6.6,9.8,11c6.7,6.4,14.3,1.5,9.6-6.5
		C272,123.6,236,110.8,209.3,110.8z"/>
	<ellipse class="st79" cx="210.2" cy="121.5" rx="13.7" ry="4.6"/>
</g>
</svg>
