<?xml version="1.0" encoding="utf-8"?>
<!-- Generator: Adobe Illustrator 21.1.0, SVG Export Plug-In . SVG Version: 6.00 Build 0)  -->
<svg version="1.1" id="Calque_1" xmlns="http://www.w3.org/2000/svg" xmlns:xlink="http://www.w3.org/1999/xlink" x="0px" y="0px"
	 viewBox="0 0 432 432" style="enable-background:new 0 0 432 432;" xml:space="preserve">
<style type="text/css">
	.st0{fill:#591C00;}
	.st1{fill:#999999;}
	.st2{fill:#FCC062;}
	.st3{fill:#DA7D81;}
	.st4{fill:#C1272D;}
	.st5{fill:#1A1A1A;}
	.st6{fill:#736357;}
	.st7{fill:#8D819B;}
	.st8{fill:#BF7F99;}
	.st9{fill:#881B30;}
	.st10{fill:#A58B66;}
	.st11{fill:#781F00;}
	.st12{fill:#852A00;}
	.st13{fill:#AD8C52;}
	.st14{fill:#859660;}
	.st15{fill:#D3AB99;}
	.st16{fill:#A12E37;}
	.st17{fill:#8F8279;}
	.st18{fill:#758295;}
	.st19{fill:#60373C;}
	.st20{fill:#EFD333;}
	.st21{fill:#CE74B4;}
	.st22{fill:#313E2B;}
	.st23{fill:#5A1700;}
	.st24{fill:#BC79A7;}
	.st25{fill:#877F9A;}
	.st26{fill:#CC8FC1;}
	.st27{fill:#333333;}
	.st28{fill:#C3CD84;}
	.st29{fill:#7E97A5;}
	.st30{fill:#627C55;}
	.st31{fill:#B3B3B3;}
	.st32{fill:#AD3642;}
	.st33{fill:#2A7893;}
	.st34{fill:#669AB4;}
	.st35{fill:#AF689C;}
	.st36{fill:#6EA892;}
	.st37{fill:#663D2C;}
	.st38{fill:#BBBA2A;}
	.st39{fill:#A09830;}
	.st40{fill:#799D7D;}
	.st41{fill:#C69C6D;}
	.st42{fill:#BC79AD;}
	.st43{fill:#BC8A70;}
	.st44{fill:#ADADAD;}
	.st45{fill:#606981;}
	.st46{fill:#4D4D4D;}
	.st47{fill:#70BEB2;}
	.st48{fill:#11937F;}
	.st49{fill:#C78287;}
	.st50{fill:#944F54;}
	.st51{fill:#534741;}
	.st52{fill:#D6A354;}
	.st53{fill:#E7AC22;}
	.st54{fill:#89BBA2;}
	.st55{fill:#BF4D28;}
	.st56{fill:#88382D;}
	.st57{fill:#D86C62;}
	.st58{fill:#B57C53;}
	.st59{fill:#E6C34F;}
	.st60{fill:#A0392B;}
	.st61{fill:#FFFFFF;}
	.st62{fill:#AD7460;}
	.st63{fill:#939E9E;}
	.st64{fill:#2E4DA7;}
	.st65{fill:#39B54A;}
	.st66{fill:#D1417E;}
	.st67{fill:#FD8402;}
	.st68{fill:#727D6D;}
	.st69{fill:#BAAC91;}
	.st70{fill:#3F4650;}
	.st71{fill:#653F34;}
	.st72{fill:#3F3C35;}
	.st73{fill:#A84A5C;}
	.st74{fill:#3B5347;}
	.st75{fill:#854B16;}
	.st76{fill:#5B6F69;}
	.st77{fill:#767094;}
	.st78{fill:#08B19A;}
	.st79{fill:#AAB1A7;}
	.st80{fill:#4C5839;}
	.st81{fill:#6E2521;}
	.st82{fill:#ED6184;}
	.st83{fill:#A4B449;}
	.st84{fill:#EB7466;}
</style>
<g>
	<g>
		<g>
			<path class="st40" d="M265.5,143.3c-1.2,0.2-2.3,0.4-3.4,0.6c-2.4,0.4-4.6,1.1-6.8,2.2c-1.1,0.5-2.2,1.3-3.2,1.9
				c-0.3,0.2-0.6,0.3-1,0.2c-5-1.1-9.9-2.6-14.5-5c-2-1-4-1.9-6.1-2.7c-3.2-1.2-6.5-1.4-9.8-1c-4.5,0.5-8.9,1.5-13.4,2.5
				c-3.2,0.7-6.4,1.3-9.6,1.6c-1.5,0.1-3,0.2-4.5,0.2c-3,0.1-5.9,0.1-8.9,0.3c-3.9,0.2-7.7,1.3-11.2,3.2c-2.7,1.4-5.1,3.1-7.6,4.8
				c-1.4,1-2.7,2-4.1,2.9c-5.2,3.8-10.9,6.6-17.2,8.2c-2.3,0.6-4.5,1.3-6.7,2.1c-3.4,1.2-6.1,3.3-8.4,5.9c-1,1.1-1.8,2.3-2.3,3.7
				c-5.5-0.5-10.9,0.2-16.2,1.8c-5.2,1.6-10.1,4-14.7,7.1c0-0.2-0.1-0.3-0.1-0.4c0.3-5.5,2.8-9.7,7.6-12.4c1.6-0.9,3.3-1.8,5-2.6
				c4.9-2.4,9.3-5.6,13.2-9.5c3.3-3.2,6.6-6.4,10-9.5c2.1-2,4.5-3.6,7-5.1c4.3-2.5,8.9-3.9,13.8-4.6c5.5-0.8,11-1.5,16.4-2.8
				c6.2-1.4,12.1-3.5,18-5.8c4.9-1.9,9.8-3.9,14.9-5.4c3.5-1.1,7-1.9,10.7-2.2c5.8-0.5,11.5,0.2,17,2.2c2.3,0.8,4.5,1.7,6.7,2.7
				c5.4,2.3,11,3.7,16.7,4.8c2.6,0.5,5.2,1.1,7.7,1.7c0.7,0.2,1.3,0.5,2,0.7c1.1,0.5,1.8,1.3,2.1,2.5c0.2,0.8,0.4,1.6,0.5,2.5
				C265.3,141.4,265.4,142.3,265.5,143.3z"/>
			<path class="st40" d="M369.2,274.3c-0.5-2.4-0.8-4.8-1.4-7c-1.6-6.1-4.7-11.5-9.5-15.7c-0.3-0.3-0.6-0.7-0.7-1.1
				c-1.2-3.2-1.2-6.4-0.5-9.7c0.8-3.4,1.7-6.8,2.5-10.2c0.7-3,1.2-6,1.1-9.1c-0.3-5-2.3-9.1-6.4-12.1c-0.9-0.7-2-1.2-2.9-1.9
				c-1.2-0.8-2.3-1.7-3.4-2.6c-1.1-1-1.8-2.2-2.1-3.7c-0.2-0.9-0.4-1.8-0.6-2.6c-0.8-3.1-2.5-5.3-5.4-6.7c-1.4-0.6-2.8-1-4.3-1.5
				c-0.8-0.3-1.7-0.5-2.5-0.8c-3.1-1.2-5.3-3.3-6.7-6.2c-0.6-1.3-1.1-2.7-1.7-4c-0.9-2-1.9-3.9-3.2-5.6c-2-2.5-4.4-4.2-7.5-4.9
				c-1.7-0.4-3.4-0.4-5.1-0.2c-0.3,0-0.5,0.1-0.9,0.1c-5.3-12.5-14.8-20.1-27.5-24.2c1.1-4.3,5.3-6.6,9.4-5.2
				c1.4,0.5,2.7,1.2,3.9,2.1c1.2,1,2.5,2.1,3.6,3.2c4.2,4.3,9.1,7.6,14.6,10.2c2.6,1.3,5.3,2.4,8,3.7c4.6,2.1,8.9,4.6,12.8,7.8
				c2,1.7,3.8,3.6,5.6,5.6c2.5,2.7,5.1,5.5,7.7,8.1c2.7,2.8,5.9,5,9,7.3c1.8,1.4,3.6,2.7,5.3,4.2c2.4,2.1,4.4,4.5,5.9,7.3
				c1.1,2.2,1.7,4.5,1.9,6.9c0.3,3,0,6-0.3,9c-0.3,3.5-0.7,7-1,10.5c-0.3,4.1,0.1,8.1,1.2,11.9c0.6,1.9,1.4,3.8,2.2,5.7
				c1.2,2.5,2.5,5,3.7,7.4c1.7,3.4,2.9,6.9,3.4,10.7c0.3,2.4,0.5,4.8,0.1,7.2c-0.1,0.9-0.4,1.7-0.8,2.6c-0.5,1.3-1.5,2.1-2.8,2.6
				C372.6,273.9,370.9,274.1,369.2,274.3z"/>
			<path class="st40" d="M87.8,190.9c-0.3,0.3-0.5,0.6-0.7,0.8c-4.6,5.4-8.1,11.5-10,18.4c-1.1,3.9-1.6,7.9-1.4,11.9
				c0.1,2.3,0.4,4.6,1.3,6.8c0.2,0.5,0.1,0.9-0.1,1.3c-1.4,2.5-2.9,5-4.3,7.6c-1.5,2.6-2.9,5.2-3.8,8c-1.2,3.4-1.6,6.9-1.7,10.5
				c-0.1,3.1-0.1,6.1-0.2,9.2c-0.1,3.2-0.6,6.3-1.2,9.4c-0.3,1.8-0.6,3.6-0.6,5.4C65,287,69.3,293,75.9,295c1.1,0.3,2.2,0.6,3.3,0.9
				c0.2,0.6,0.3,1.2,0.5,1.8c0.2,0.6,0.4,1.2,0.6,1.9c-0.2,0-0.3,0.1-0.4,0.1c-1.6-0.2-3.2,0-4.8,0.5c-1.6,0.5-3.2,1.1-4.8,1.7
				c-1.8,0.7-3.7,1.2-5.6,1.5c-2.3,0.3-4.1-0.6-4.9-2.8c-0.4-1.1-0.6-2.2-0.8-3.4c-0.2-1.8-0.3-3.7-0.4-5.5
				c-0.2-3.1-0.9-6.1-1.9-9.1c-0.8-2.5-1.6-5-2.2-7.5c-1-3.7-0.7-7.4,0.7-11c0.8-1.9,1.6-3.8,2.3-5.7c1.8-4.7,2.7-9.6,2.4-14.7
				c-0.2-2.8-0.5-5.6-0.8-8.5c-0.5-5.1-0.5-10.1,0.6-15.1c0.6-2.5,1.6-4.8,3.1-6.8c3.4-4.6,6.5-9.5,9.6-14.4
				c1.6-2.6,3.3-5.1,5.4-7.3c0.6-0.7,1.3-1.3,2.1-1.9c1.3-1,2.8-1.2,4.3-0.7C85.4,189.8,86.5,190.3,87.8,190.9z"/>
		</g>
		<g>
			<path class="st6" d="M138.4,178.5c-3-2-6.3-2.7-9.8-3.4c0.3-0.4,0.5-0.7,0.8-1.1c2.5-2.9,5.6-5,9.3-6.2c2.5-0.8,5.1-1.6,7.7-2.3
				c4.9-1.3,9.4-3.3,13.6-6.1c2.4-1.6,4.8-3.3,7.2-5c2.5-1.8,5-3.5,7.7-4.9c3.3-1.7,6.9-2.6,10.6-2.8c2.2-0.1,4.4-0.2,6.6-0.2
				c5.1,0.1,10.1-0.6,15.1-1.6c3.8-0.8,7.7-1.6,11.5-2.3c2.4-0.4,4.9-0.7,7.4-0.3c1.8,0.2,3.5,0.8,5.2,1.5c1.2,0.5,2.4,1,3.5,1.6
				c4.7,2.4,9.5,4.2,14.7,5.3c3.6,0.8,7.3,1.7,10.8,3.1c1.5,0.6,2.9,1.3,4.1,2.3c1.8,1.5,2.7,3.3,2.7,5.6c0,1.5-0.2,3.1-0.4,4.6
				c-0.3-0.1-0.6-0.2-0.8-0.2c-7.8-2.8-15.7-4.9-23.9-6.3c-4.3-0.7-8.6-1.2-13-1.5c-5.1-0.3-10.2-0.4-15.3-0.1
				c-4.9,0.3-9.8,0.8-14.6,1.3c-6,0.6-12,1.6-17.9,2.7c-15,2.9-29.1,8.1-42.1,16C138.8,178.3,138.6,178.4,138.4,178.5z"/>
			<path class="st6" d="M354.2,248.3c-0.3-0.2-0.5-0.3-0.8-0.5c-2.3-1.4-4.6-2.7-7.2-3.6c-0.5-0.2-0.6-0.5-0.7-0.9
				c-1.4-3.4-2.7-6.8-4.2-10.1c-4.6-10.2-10.3-19.8-17.2-28.7c-4.4-5.7-9.3-11-14.8-15.6c-0.1-0.1-0.3-0.3-0.5-0.5
				c2-5.6,1.9-11.2,0.2-16.8c0.3-0.5,0.7-0.6,1.2-0.6c3.4-0.2,6.3,1.1,8.6,3.6c1.3,1.4,2.2,3.1,3,4.8c0.6,1.3,1.1,2.7,1.7,4
				c1.9,4.5,5.2,7.5,9.9,8.9c0.9,0.3,1.8,0.5,2.7,0.8c0.9,0.3,1.7,0.6,2.5,1c2,1,3.3,2.6,3.9,4.8c0.3,1.1,0.5,2.2,0.8,3.3
				c0.4,1.6,1.2,2.9,2.3,4.1c1.2,1.3,2.6,2.4,4.1,3.3c1,0.6,2,1.2,2.9,1.9c3.3,2.4,4.9,5.8,5.2,9.8c0.2,3.4-0.5,6.6-1.3,9.8
				c-0.7,2.9-1.4,5.7-2.1,8.6c-0.5,2-0.6,4-0.5,6C354,246.7,354.1,247.5,354.2,248.3z"/>
			<path class="st6" d="M78.5,293.4c-1.1-0.4-2.2-0.8-3.3-1.4c-3.2-1.8-5.7-4.2-6.8-7.8c-0.6-2-0.7-4-0.4-6c0.3-2.4,0.8-4.8,1.1-7.2
				c0.3-1.8,0.5-3.7,0.5-5.6c0.1-3.3,0.1-6.6,0.2-9.9c0.1-4.8,1.1-9.4,3.5-13.7c2-3.6,4.1-7.3,6.1-10.9c1.2-2.1,2.3-4.1,3.6-6.2
				c1.1-1.8,2.3-3.4,3.8-4.9c2.9-2.9,6.4-4.4,10.4-4.6c1.2,0,2.4,0,3.6,0c0.3,0,0.6,0.1,1,0.1c-0.2,0.3-0.3,0.5-0.4,0.7
				c-3.1,4.6-5.7,9.4-8.2,14.3C89,238.7,85.6,247.2,83,256c-1.6,5.1-2.7,10.4-3.6,15.7c-0.5,2.9-1,5.8-1.3,8.8
				c-0.4,4-0.4,8,0.4,11.9c0,0.2,0.1,0.4,0.1,0.7C78.6,293.2,78.6,293.2,78.5,293.4z"/>
		</g>
		<g>
			<path class="st16" d="M135.9,180.1c-12.7,9.1-23.1,20.2-32.1,32.8c-1.1-0.1-2.3-0.2-3.4-0.3c-2.9-0.2-5.7,0.1-8.4,1
				c-3.2,1-5.8,2.9-7.9,5.5c-1.7,1.9-3,4.1-4.3,6.3c-0.2,0.3-0.4,0.6-0.7,0.8c-0.1-0.9-0.3-1.8-0.4-2.7c-0.5-5.9,0.5-11.6,2.8-17.1
				c4.2-10.3,11.4-17.9,21.2-23.1c4.5-2.4,9.2-4.1,14.3-5c5.4-0.9,10.8-0.8,16.1,0.9C133.9,179.3,134.8,179.7,135.9,180.1z"/>
			<path class="st16" d="M269.3,167.3c0.1-1.4,0.2-2.7,0.4-3.9c0.5-4.4-1-7.8-4.6-10.3c-1.6-1.1-3.3-1.8-5.1-2.5
				c-1.5-0.5-3.1-1-4.8-1.5c0.3-0.2,0.6-0.3,0.9-0.5c2.4-1.2,5-1.9,7.7-2.3c3.1-0.5,6.1-0.7,9.2-0.4c3.3,0.3,6.6,0.9,9.8,2.1
				c7,2.7,13.1,6.9,17.8,12.9c3.6,4.7,5.9,9.9,6.8,15.7c0.5,3.2,0.3,6.4-0.6,9.5c0,0.1-0.1,0.2-0.1,0.4c0,0.1-0.1,0.1-0.2,0.2
				C295.2,178.2,282.6,172.3,269.3,167.3z"/>
			<path class="st16" d="M347.1,247.6c2.8,1.2,5.1,2.7,7.4,4.4c6,4.4,9.5,10.5,11.1,17.7c1,4.6,0.9,9.1-0.6,13.6
				c-0.9,2.9-2.4,5.5-4.3,7.8c-3,3.6-6.9,5.7-11.6,6.6c0.1-0.2,0.1-0.4,0.1-0.5c1.7-3.4,2.5-7,3.1-10.7c0.5-3.5,0.7-7,0.6-10.6
				c-0.2-4.8-0.9-9.6-2-14.3c-1-4.3-2.2-8.5-3.6-12.7C347.3,248.5,347.2,248.1,347.1,247.6z"/>
		</g>
	</g>
	<g>
		<path class="st41" d="M211.8,307.2c-5.7,0.1-11.5,0.2-17.2,0.3c-3.2,0.1-6.4,0.1-9.7,0.2c-5.2,0.1-10.4,0.2-15.6,0.4
			c-3,0.1-5.9,0.1-8.9,0.2c-13.1,0.5-26.2,0.2-39.3,0.3c-5,0-10.1,0.1-15.1,0.1c-3.4,0-6.8-0.2-10.1-0.8c-2-0.3-3.9-0.8-5.8-1.5
			c-3.6-1.4-5.9-4-7.2-7.5c-1-2.6-1.5-5.2-2-7.9c-0.4-2.5-0.5-5-0.4-7.5c0.2-4.5,1-8.9,1.8-13.4c2-11.1,5.5-21.7,10.2-31.8
			c3.3-7.3,7-14.3,11.5-21c7.7-11.3,16.7-21.5,27.2-30.2c6.1-5.1,13-9,20.1-12.3c10-4.7,20.5-7.9,31.4-9.9c7.1-1.3,14.3-2.3,21.5-3
			c6.7-0.7,13.4-1,20.1-0.8c6.9,0.2,13.8,0.9,20.6,2.4c16.6,3.4,32.2,9.5,47,17.6c8.2,4.5,15.6,9.9,22.1,16.6
			c5.5,5.8,10.4,12,14.7,18.8c8.6,13.5,14.9,28.1,18.8,43.7c1.1,4.5,2,9,2.3,13.6c0.5,6.2,0.1,12.3-1.6,18.3
			c-0.7,2.5-1.7,4.8-3.2,6.9c-2.4,3.5-5.8,5.6-9.7,7c-2.9,1.1-5.8,1.6-8.9,1.9c-6.8,0.8-13.6,0.7-20.5,0.4c-1.8-0.1-3.5-0.1-5.3-0.1
			c-4.3-0.1-8.6-0.2-12.9-0.2c-6-0.1-12.1-0.1-18.1-0.2c-5.9-0.1-11.8-0.3-17.7-0.4c-9.2-0.1-18.3-0.1-27.5-0.1c-4.3,0-8.6,0-13,0
			C211.8,307.1,211.8,307.1,211.8,307.2z M208.1,287c0.3,0.8,0.5,1.4,0.8,2c1.7,3.9,4.1,7.1,8.2,8.8c2.5,1,5.1,1.1,7.6,0.2
			c3.4-1.2,6.3-3.1,8.7-5.8c2.5-2.7,4.8-5.6,7.2-8.3c0.1-0.2,0.3-0.3,0.5-0.6c0.1,0.4,0.1,0.6,0.2,0.9c0.3,3.2,1.5,6,3.3,8.5
			c2.1,2.9,5,4.6,8.5,5.3c3.8,0.8,7.1-0.3,9.8-3c1.1-1.1,2.1-2.4,2.8-3.8c2.1-3.8,3.4-7.9,4-12.1c0.1-0.6,0.3-1,0.8-1.3
			c1.4-0.8,2.7-1.6,4-2.5c0.3-0.2,0.6-0.4,0.9-0.6c2,2.4,4,4.7,6.1,7.2c-0.3,0.2-0.7,0.4-0.9,0.7c-1.7,1.7-3.1,3.7-4.1,5.9
			c-0.7,1.7-1,3.4-0.5,5.2c0.3,1.3,0.7,2.6,1.2,3.9c0.7,2,2.1,3.4,4,4.2c1,0.4,2.1,0.8,3.2,0.9c3.9,0.6,7.1-0.6,9.7-3.6
			c1.1-1.3,1.8-2.7,2.4-4.3c1.1-3.3,1-6.6-0.1-9.9c-0.5-1.5-1.3-2.9-2-4.4c-0.1-0.2-0.2-0.4-0.3-0.7c2.8-0.7,5.5-0.5,8.1-0.1
			c8,1.3,13.9,5.4,17.7,12.5c0.9,1.7,1.6,3.6,2.5,5.3c0.3,0.6,0.7,1.1,1.1,1.5c0.8,0.7,1.8,0.9,2.8,0.5c1-0.4,1.6-1.2,1.7-2.3
			c0.1-0.6,0-1.2-0.1-1.7c-0.7-3.2-1.9-6.1-3.6-8.9c-1.7-2.9-3.7-5.5-6.4-7.5c-6.5-4.9-13.8-6.3-21.8-4.8c-1.7,0.3-3.3,0.9-4.9,1.3
			c-2.4-2.8-4.9-5.5-7.3-8.2c0.8-1.7,1.5-3.3,2.2-5c1.1-2.6,0.3-4.9-2.1-6.4c-1.1-0.7-2.4-1.1-3.7-1.4c-3.5-0.7-7.1,1.1-8.6,4.3
			c-0.7,1.5-1,3.1-1.1,4.7c-0.1,2.3,0.7,4.4,1.7,6.4c0.3,0.6,0.7,1.2,1.1,2c-1.2,0.6-2.4,1.1-3.7,1.7c-0.1-0.4-0.2-0.6-0.2-0.9
			c-0.2-3.3-1.1-6.4-2.4-9.4c-2.4-5.3-6.2-9.1-11.9-10.8c-2.4-0.7-4.7-1-7.2-0.4c-6.4,1.5-11.1,8.5-10.1,15.1
			c0.4,2.5,1.3,4.8,2.8,6.8c0.3,0.4,0.3,0.8,0.1,1.2c-0.8,1.7-1.6,3.3-2.7,4.8c-3.3,3.9-7.1,7.2-11.6,9.6c-2.3,1.2-6.5,0.9-8.6-1.9
			c-0.7-1-1.3-2.1-1.7-3.2c-1.8-5.5-1.7-10.9,0.2-16.3c0.5-1.3,1.2-2.5,2.1-3.6c1-1.1,2.1-2,3.6-2.3c2.2-0.3,4.4,1,5.3,3
			c0.2,0.4,0.3,0.8,0.5,1.2c0.2,0.5,0.6,0.9,1.2,0.9c0.6,0,1.1-0.3,1.3-0.9c0.2-0.6,0.4-1.2,0.5-1.8c0.1-2.1-0.7-3.8-2.2-5.2
			c-0.9-0.9-2-1.7-3-2.4c-4.3-2.9-10.6-2.1-14.2,2.4c-2,2.5-3.4,5.4-4.2,8.5c-1,3.7-1.2,7.4-1,11.1c0.1,1.1-0.1,2.1-0.7,3
			c-0.6,0.9-1.1,1.9-1.7,2.9c-1.4,2.4-3.2,4.5-5.4,6.3c-0.6,0.5-1.4,0.9-2.1,1.3c-0.6,0.3-1.2,0.2-1.6-0.3c-0.5-0.5-0.9-1.1-1.2-1.7
			c-0.7-1.6-1-3.3-1-5c0-2,0-4,0.2-6c0.4-3.8,0.8-7.7,1.3-11.5c0.3-2.1,0.5-4.3,0.3-6.5c-0.2-1.5-0.6-2.8-1.6-4
			c-1.2-1.4-2.7-1.8-4.5-1.4c-1.8,0.4-3,1.6-4,3c-1.3,1.8-2.2,3.9-2.7,6.1c-0.1,0.3-0.2,0.7-0.3,1c-0.1,0-0.1,0-0.2,0
			c-0.4-0.3-0.7-0.6-1.1-0.9c-3.1-2.6-6.5-4.4-10.6-4.8c-5.1-0.5-9.9,2-12.3,6.4c-0.8,1.5-1.4,3.2-1.9,4.9c-0.7,2.6-0.9,5.2-0.9,7.9
			c0,0.4,0,0.9-0.2,1.3c-1.4,2.5-2.7,5.1-4.5,7.3c-0.9,1.2-1.9,2.3-3,3.3c-1.9,1.6-4.1,2.3-6.6,1.9c-1.8-0.3-3.4-1.3-4.7-2.5
			c-2.4-2.2-3.9-5-5.1-8c-1.6-3.9-2.6-7.9-3.3-12.1c-0.2-1.5-0.4-3.1-0.6-4.6c0.2-0.1,0.3-0.2,0.5-0.3c2.1-0.8,4.2-1.5,6.5-1.8
			c3.7-0.5,6.7,0.5,9,3.6c0.3,0.4,0.6,0.7,1,1c0.7,0.5,1.5,0.4,2.3-0.1c0.7-0.5,1-1.4,0.7-2.2c-0.1-0.4-0.3-0.7-0.5-1.1
			c-2.8-4.5-7.1-6.3-12.2-6.1c-1.8,0.1-3.6,0.6-5.4,1c-0.7,0.2-1.5,0.4-2.3,0.6c-0.1-2.4-0.3-4.7-0.3-6.9c-0.1-3.8-0.1-7.7-0.1-11.5
			c0-1.7-0.1-3.4-0.2-5.1c-0.1-0.8-0.2-1.5-0.6-2.2c-0.8-1.6-2.2-2.4-3.9-2.3c-1.7,0.1-3,1.1-3.6,2.7c-0.2,0.6-0.4,1.4-0.4,2.1
			c-0.1,7.7-0.1,15.5,0.3,23.2c0.1,1.2,0.1,2.4,0.2,3.5c-2.9,1.5-7.2,2.6-10.8,2c-3.2-0.5-5.6-2.5-6.2-5.5c-0.4-2.1,0.3-3.9,1.4-5.5
			c0.5-0.7,1.1-1.4,1.4-2.2c0.6-1.4,0-2.8-1.3-3.5c-0.8-0.4-1.7-0.6-2.6-0.4c-2.6,0.4-4.5,1.7-5.8,3.9c-2.4,3.8-2.4,7.9-0.8,12
			c1.6,4.3,4.7,6.9,9.1,8c2.7,0.6,5.5,0.6,8.3,0.1c2.5-0.4,4.8-1.4,7.1-2.4c0.3-0.1,0.6-0.3,1-0.5c0.1,0.4,0.1,0.7,0.2,1
			c0.5,3.3,1.2,6.6,2.1,9.8c1.4,4.8,3.9,8.9,7.5,12.3c2.7,2.5,5.9,4.3,9.6,4.9c2.2,0.4,4.4,0.1,6.4-0.8c2.9-1.4,5.3-3.4,7.1-6.1
			c1.2-1.7,2.2-3.5,3.4-5.3c0.1-0.2,0.3-0.4,0.5-0.7c0.1,0.3,0.1,0.5,0.1,0.6c0.6,2.8,1.8,5.4,3.5,7.8c1.1,1.5,2.4,2.9,4,3.7
			c3.1,1.6,6.3,1.9,9.5,0.5c2.5-1.1,4.4-2.9,5.9-5.2c0.9-1.5,1.7-3.1,2.5-4.7c0.2-0.3,0.3-0.6,0.5-1.1c0.1,0.6,0.2,0.9,0.3,1.3
			c0.8,3.4,2.2,6.4,4.9,8.8c2.4,2.1,7.3,3.7,11.2,1.3c2.3-1.4,4.3-3.1,6-5.2c1.4-1.7,2.6-3.6,3.6-5.6
			C207.6,287.9,207.8,287.5,208.1,287z M233.3,188.8c-0.1-0.6-0.2-1.1-0.4-1.7c-1-4.1-2.8-7.8-5.9-10.7c-1.8-1.7-3.9-2.8-6.4-3.2
			c-6-0.9-11.4,3.6-11.6,9.7c-0.1,2.8,0.7,5.2,2.4,7.4c0.4,0.5,0.5,0.9,0.4,1.5c-0.4,2.3-0.6,4.6-0.1,6.8c0.2,1,0.1,1.8-0.3,2.7
			c-0.5,1.1-0.9,2.3-1.7,3.2c-0.9,1-1.2,1-2-0.1c-0.9-1.4-1.4-2.9-1.8-4.4c-0.4-1.7-0.8-3.5-1.2-5.3c-0.3-1.4-0.5-2.8-0.8-4.2
			c-0.1-0.5,0-0.9,0.2-1.3c0.7-1.8,1.5-3.6,2.1-5.5c0.9-2.8,1.5-5.6,1.4-8.5c-0.1-2.1-0.7-4-1.9-5.7c-1.4-1.8-3.7-2.3-5.7-1.2
			c-1.1,0.6-1.9,1.4-2.6,2.4c-1,1.6-1.7,3.2-2.1,5.1c-0.8,3.7-0.7,7.4-0.5,11.1c0,0.2,0,0.4,0,0.7c-0.4-0.2-0.6-0.4-0.9-0.6
			c-1.1-0.5-2.2-1.1-3.3-1.5c-3.7-1.1-7.5,0.5-9.3,4c-0.7,1.3-1.1,2.7-1.2,4.1c-0.4,7.2,2.5,12.8,8.4,16.9c0.5,0.4,1.1,0.6,1.7,0.9
			c1.7,0.7,3.4,0.6,4.9-0.4c0.8-0.5,1.4-1.1,2-1.7c1-1.1,1.6-2.5,2.1-4c0.1-0.3,0.2-0.7,0.4-1.1c0.4,0.5,0.7,0.9,1.1,1.3
			c1.4,1.6,3.1,2.9,5.1,3.6c1.8,0.7,3.4,0.2,4.8-1.1c0.5-0.5,0.9-1.1,1.2-1.7c0.4-0.8,0.7-1.7,1-2.5c0.1-0.3,0.2-0.6,0.4-1
			c0.1,0.2,0.2,0.3,0.3,0.4c1.3,2.1,3,3.6,5.1,5c1.1,0.7,2.3,1.2,3.6,1.4c3,0.5,5.5-0.2,7.5-2.7c0.8-1.1,1.5-2.2,2-3.4
			c1.4-3.4,2-6.9,1.9-10.5c0-0.8,0.3-1.2,0.8-1.7c0.9-0.7,1.7-1.4,2.5-2.2c0.6-0.5,0.6-1.3,0.1-1.7c-0.4-0.4-1.1-0.5-1.7,0
			c-0.4,0.3-0.8,0.7-1.3,1.1C233.8,188.5,233.6,188.6,233.3,188.8z M270.4,186.1c0.3-1.5,0.6-2.9,0.9-4.3c0.2-1.1,0.3-2.3-0.1-3.4
			c-0.8-2.3-3.4-3.2-5.4-1.9c-0.8,0.5-1.4,1.2-1.8,2.1c-0.5,1-0.8,2-1.2,2.9c-0.2,0.5-0.3,1-0.5,1.4c-0.4,0-0.7,0-1,0
			c-1.5,0-3,0.2-4.3,0.8c-0.6,0.3-1.2,0.7-1.7,1.2c-0.9,1.1-0.4,2.4,1.1,2.6c0.6,0.1,1.2,0,1.8,0.1c0.9,0,1.8,0.1,2.7,0.1
			c0.1,0.2,0.1,0.2,0.1,0.3c-0.1,0.3-0.1,0.6-0.2,0.9c-0.9,3.5-1.4,7-1.5,10.6c0,0.3-0.1,0.7-0.3,1c-1.1,1.8-2.2,3.7-3.3,5.5
			c-0.7,1.2-1.6,2.3-2.7,3.1c-0.4,0.3-0.8,0.6-1.3,0.9c-0.8,0.4-1.4,0.2-1.8-0.6c-0.3-0.7-0.6-1.4-0.6-2.1c0-1.5,0-3.1,0.3-4.6
			c0.5-3.1,1.2-6.1,1.7-9.2c0.2-1.2,0.4-2.4,0.4-3.6c0-2-1.2-3.5-2.9-3.9c-1.7-0.4-3.4,0.3-4.4,2c-0.4,0.6-0.7,1.3-0.9,2
			c-0.5,1.6-1,3.2-1.3,4.8c-0.7,3-1.1,6-0.7,9.1c0.5,3.1,1.8,5.8,4,7.9c0.7,0.7,1.6,1.2,2.6,1.5c2.3,0.5,4.2-0.2,5.8-1.8
			c1.2-1.2,2.2-2.6,3-4c0.7-1.2,1.3-2.4,2-3.5c0.1-0.2,0.3-0.3,0.4-0.5c0.2,0.9,0.3,1.8,0.5,2.6c0.6,2.5,1.4,4.8,2.9,6.9
			c0.8,1.1,1.7,2,2.9,2.7c2,1.1,4.2,0.9,5.9-0.7c0.9-0.9,1.7-1.8,2.4-2.9c0.9-1.4,1.7-2.9,2.6-4.4c0.2-0.4,0.4-0.8,0.5-1.2
			c0.1-0.5-0.1-1-0.5-1.3c-0.4-0.3-0.9-0.2-1.3,0.2c-0.4,0.4-0.7,0.8-1,1.3c-0.9,1.2-1.7,2.4-2.6,3.6c-0.5,0.6-1,1.1-1.7,1.6
			c-0.9,0.7-1.3,0.6-1.9-0.4c-0.4-0.6-0.6-1.3-0.8-2c-0.6-2.2-0.6-4.6-0.3-6.8c0.6-3.7,1.3-7.4,2-11c0.1-0.3,0.2-0.6,0.2-0.8
			c1.7,0.5,3.4,0.9,5,1.3c4.3,0.9,7.9-0.5,10.9-3.6c0.6-0.7,0.7-1.5,0.1-2.1c-0.5-0.6-1.4-0.5-2.1,0.1c-0.1,0.1-0.2,0.2-0.3,0.3
			c-0.5,0.6-1.1,1-1.8,1.2C277.3,189.1,273.7,188.5,270.4,186.1z M240,238.5c0-0.5-0.1-0.9-0.1-1.2c-0.1-3.8-0.3-7.5-0.4-11.3
			c0-0.4,0-0.7-0.1-1.1c-0.4-1.9-2-2.9-4.2-2.8c-1.7,0.1-2.7,1.2-2.8,3.2c0,0.2,0,0.5,0,0.7c0,0.9,0.1,1.8,0.1,2.7
			c0,6.2,0.6,12.3,1.2,18.4c0.2,2.2,1.5,3.3,3.7,3.2c1.1,0,2-0.6,2.4-1.7c0.2-0.6,0.3-1.2,0.3-1.8c0.1-1.4,0-2.7,0.1-4.1
			c0-0.3,0-0.6,0-1c1.4,0,2.8,0,4.1,0c0,0.2,0,0.4,0.1,0.5c0.1,1.4,0.1,2.8,0.3,4.1c0.1,0.7,0.1,1.5,0.3,2.2c0.4,1.4,1.5,2,2.9,1.9
			c0.5-0.1,1-0.1,1.4-0.2c1.2-0.1,1.9-0.8,2.3-1.9c0.1-0.4,0.2-0.8,0.2-1.2c0-1.4,0.1-2.8,0.1-4.2c0-1.9-0.2-3.8-0.2-5.7
			c-0.1-4.2-0.2-8.4-0.2-12.6c0-2.6-2.1-3.8-4.3-3.7c-1,0.1-1.8,0.6-2.2,1.5c-0.2,0.5-0.4,1-0.5,1.5c-0.4,2.8-0.4,5.7-0.3,8.6
			c0.1,1.7,0.1,3.5,0.1,5.2c0,0.1-0.1,0.3-0.1,0.5C242.7,238.4,241.4,238.5,240,238.5z M205.3,239c1.8-0.9,2.5-1.5,3.2-2.6
			c1.7-2.7,2.5-5.6,1.9-8.7c-0.5-2.6-1.8-4.6-4.5-5.6c-1.2-0.5-2.5-0.8-3.8-0.7c-1.6,0.1-3.2,0.1-4.7,0.3c-1,0.1-1.9,0.5-2.8,0.9
			c-1.1,0.5-1.7,1.4-1.8,2.5c-0.1,0.8-0.1,1.6-0.1,2.4c0,1.4,0.1,2.8,0.2,4.3c0.1,4.5,0.1,9,0.3,13.4c0,1.5,0.3,2.9,0.5,4.4
			c0.2,1.2,1,2,2.2,2.3c0.8,0.2,1.6,0.2,2.4,0.1c1.8-0.2,2.7-1.2,2.9-3c0-0.3,0-0.5,0-0.8c0-2,0-3.9,0.1-5.9c0-0.2,0.1-0.4,0.1-0.7
			c1.3,0.7,2.2,1.7,2.7,2.9c0.8,1.7,1.4,3.4,1.8,5.2c0.1,0.5,0.4,1.1,0.7,1.5c0.9,1,2.5,0.8,3-0.5c0.2-0.5,0.3-1.1,0.2-1.6
			c-0.5-3.5-1.7-6.8-4.1-9.6C205.6,239.4,205.5,239.2,205.3,239z M157.7,210.5c-0.3,0.2-0.5,0.3-0.7,0.5c-1.3,0.9-2.4,2.1-3.2,3.6
			c-0.3,0.5-0.5,1.1-0.6,1.6c-0.2,0.8,0,1.5,0.7,1.9c0.7,0.4,1.4,0.3,2-0.2c0.6-0.4,1.1-0.9,1.6-1.5c1.2-1.2,2.5-2.1,4.1-2.7
			c0.5-0.2,1.1-0.4,1.6-0.6c1.7-0.5,3.4-1,5.1-1.6c2-0.7,3.9-1.8,5.2-3.5c0.6-0.8,0.7-1.4,0.3-1.9c-0.4-0.5-1.1-0.5-1.9,0
			c-1.5,1-3.2,1.6-5,1.7c-1.2,0.1-2.4,0.3-3.6,0.4c-0.1-0.4-0.2-0.7-0.3-1c-1.5-3.3-2.6-6.8-3.8-10.2c-0.7-2-1.4-4.1-2.5-6
			c-0.1-0.2-0.2-0.4-0.4-0.7c0.4-0.2,0.7-0.3,1-0.4c3.7-1.4,6.3-3.9,7.9-7.5c0.2-0.5,0.3-1,0.4-1.6c0.1-0.6-0.2-1.1-0.8-1.3
			c-0.5-0.2-1-0.1-1.5,0.4c-0.4,0.4-0.7,0.9-0.9,1.5c-0.6,1.4-1.7,2.4-3,3.1c-0.9,0.4-1.8,0.8-2.8,1.1c-1.5,0.5-3,0.9-4.5,1.3
			c-3,0.9-5.7,2.3-7.8,4.6c-0.6,0.7-1.1,1.5-1.6,2.3c-0.2,0.4-0.3,1-0.3,1.5c0,0.9,0.8,1.4,1.7,1.1c0.4-0.2,0.8-0.5,1.2-0.7
			c1.1-0.7,2.1-1.5,3.2-2.2c0.4-0.3,0.9-0.5,1.4-0.8C151.5,199.3,154.6,204.8,157.7,210.5z M189.9,235.6c-0.1-1-0.3-2.7-0.5-4.3
			c-0.3-1.8-0.8-3.5-1.7-5.1c-1.5-2.7-4.6-4.1-7.5-3.5c-3.7,0.7-6.2,2.9-7.5,6.4c-2,5.7-1.3,11.2,1.5,16.5c0.6,1.1,1.5,2.1,2.6,2.9
			c2.9,2.1,7.2,2.2,9.9-1.1c0.7-0.8,1.2-1.8,1.6-2.7C189.4,242,189.7,239.1,189.9,235.6z M164,227.8c0.6,0,1.2,0,1.8,0
			c0.9,0,1.7-0.2,2.5-0.7c1.5-0.9,1.4-2.7-0.1-3.6c-0.7-0.4-1.5-0.6-2.3-0.6c-1.5,0-3.1,0-4.6,0c-1,0-2.1,0-3.1,0.1
			c-2.2,0.3-3.4,1.8-3.2,4c0.3,4.4,0.6,8.8,0.8,13.2c0.1,2.2,0.1,4.4,0.2,6.7c0,0.8,0.1,1.5,0.3,2.3c0.4,1.5,1.2,2.3,2.8,2.4
			c1.1,0.1,2.2,0,3.3-0.1c1.8-0.2,2.5-1.3,2.4-3.1c-0.1-2.7-0.2-5.4-0.3-8.1c0-0.2,0-0.4,0.1-0.7c0.4-0.1,0.8-0.1,1.2-0.2
			c0.7-0.2,1.4-0.3,2-0.6c0.8-0.3,1.1-0.9,1.1-1.8c0-0.8-0.5-1.4-1.3-1.6c-0.7-0.2-1.4-0.2-2.2-0.3c-0.3,0-0.7,0.1-1.1,0.1
			C164.2,232.9,164.1,230.4,164,227.8z M261.3,247c0-2.3,0-4.6,0-6.8c0.5-0.1,0.9-0.1,1.3-0.2c0.7-0.2,1.3-0.3,1.9-0.6
			c0.5-0.2,0.9-0.6,1.2-1.1c0.7-1.1,0.2-2.4-1-3c-1.1-0.6-2.3-0.8-3.7-0.6c-0.1-2.8-0.1-5.4-0.2-8c1.2-0.2,2.2-0.4,3.2-0.7
			c1-0.3,1.5-1,1.5-1.8c0-0.9-0.6-1.5-1.4-1.8c-0.8-0.3-1.7-0.6-2.6-0.6c-1.2,0-2.5,0.1-3.7,0c-2.1-0.1-3.9,1-4.1,3.6
			c-0.1,1.6-0.3,3.1-0.3,4.7c0,2.9,0,5.7,0.2,8.6c0.1,2.1,0.3,4.1,0.4,6.2c0.1,0.9,0.2,1.9,0.3,2.8c0.2,1.5,1.1,2.4,2.5,2.9
			c0.3,0.1,0.6,0.2,0.9,0.3c2.1,0.5,4.2,0.4,6.3,0c0.5-0.1,1-0.4,1.4-0.7c0.9-0.8,0.8-2-0.2-2.7c-0.6-0.4-1.3-0.5-2-0.5
			C262.6,247,262,247,261.3,247z M227.2,227.4c0.5-0.1,1-0.2,1.5-0.3c1-0.3,1.5-0.9,1.6-1.7c0.1-0.8-0.4-1.5-1.4-1.9
			c-0.6-0.2-1.2-0.4-1.9-0.5c-2.8-0.5-5.7-0.5-8.6-0.1c-0.6,0.1-1.2,0.3-1.7,0.6c-1.1,0.7-1,2.2,0.1,2.8c0.4,0.2,0.8,0.3,1.3,0.4
			c0.2,0.1,0.5,0.1,0.6,0.2c0,1.1,0,2.2,0,3.2c-0.1,5.7,0.5,11.3,0.8,17c0,0.8,0.2,1.7,0.3,2.5c0.2,0.9,0.8,1.6,1.7,1.7
			c0.5,0.1,1,0.1,1.5,0.1c0.7-0.1,1.4-0.2,2.1-0.3c1.4-0.2,2.2-1,2.4-2.4c0.1-0.6,0.1-1.2,0-1.8c-0.1-2.7-0.2-5.5-0.3-8.2
			c0-0.9,0-1.8-0.1-2.7C227.3,233.2,227.3,230.3,227.2,227.4z M287.7,212.7c0,1.9,0.6,3.4,1.7,4.7c2.9,3.4,7.7,3.6,10.7,0.3
			c2.3-2.5,2.3-6,0.1-8.4c-0.6-0.7-1.3-1.3-2-1.8c-2.6-2-5.9-1.9-8.2,0.2C288.4,209,287.7,210.8,287.7,212.7z M319.5,238.8
			c3.8,0,6.9-2.9,6.9-6.5c0-3.8-3.1-7-6.7-6.9c-4.3,0.1-6.7,2.6-6.7,6.4C312.9,235.8,315.8,238.8,319.5,238.8z M92.8,291.2
			c0.1,0.4,0.1,1,0.3,1.6c0.9,3.1,4.4,5.9,8.2,4.7c1.8-0.6,3.2-1.8,4.3-3.3c0.6-0.9,0.8-1.9,0.7-2.9c-0.3-2.4-1.4-4.4-3.4-5.7
			c-2.1-1.4-4.4-1.5-6.6-0.3C94.1,286.5,92.9,288.4,92.8,291.2z M112.8,228.6c1.8,0,3.3-0.7,4.2-1.9c1.4-1.8,1.2-4.1-0.4-5.6
			c-0.2-0.2-0.5-0.4-0.7-0.7c-1.8-1.8-4.6-1.8-6.3,0.1c-1.4,1.5-1.7,3.2-0.9,5.1C109.5,227.6,111,228.5,112.8,228.6z M291.3,244.2
			c2.4,0,4.4-1.9,4.4-4.2c0-2.5-2-4.7-4.3-4.7c-2.5,0-4.7,2.1-4.7,4.5C286.6,242.4,288.6,244.3,291.3,244.2z M248.3,174.7
			c-2.3,0-4.3,1.9-4.3,4.2c0,2.3,1.9,4.3,4.3,4.2c2.3,0,4.2-1.9,4.2-4.2C252.5,176.6,250.6,174.7,248.3,174.7z M116.4,303
			c2.2,0,4.1-1.8,4.1-3.9c0-2.3-2-4.2-4.3-4.3c-1.8-0.1-4.3,2-4.2,4.1C112,301,114.1,303,116.4,303z M338.7,270.5
			c0-1-0.6-2.4-1.4-3.2c-2.2-2.3-5.4-1-6.2,1.3c-0.7,2.1,0.6,4.7,2.9,5.3C336.5,274.7,338.7,273,338.7,270.5z M128.5,209.2
			c-2.1,0-3.8,1.6-3.8,3.7c0,2.1,1.7,3.7,3.7,3.8c2.1,0,4-1.8,4-3.9C132.4,210.9,130.6,209.2,128.5,209.2z M335.7,290.1
			c1.9,0,3.2-1.1,3.4-2.5c0.2-1.4-0.6-2.7-1.9-3.2c-1.2-0.5-3.5,0.5-4,1.6c-0.4,1-0.3,2.2,0.4,3
			C334.2,289.6,335.1,290.1,335.7,290.1z M134.5,221.7c0,1.2,1.1,2.3,2.3,2.3c1.2,0,2.3-1.1,2.3-2.3c0-1.3-1-2.3-2.3-2.3
			C135.5,219.5,134.5,220.5,134.5,221.7z"/>
		<path class="st41" d="M164.6,277.2c-0.1-1.9,0.1-3.8,0.8-5.6c0.4-0.9,0.9-1.7,1.4-2.5c0.6-0.9,1.5-1.3,2.6-1.4
			c2.1-0.3,4,0.4,5.9,1.2c2.4,1.1,4.3,2.8,5.8,5c0.2,0.2,0.2,0.6,0.2,0.9c-0.1,2.2-0.3,4.4-0.4,6.6c0,0.2-0.1,0.5-0.1,0.7
			c-1,2.2-2,4.5-3.4,6.5c-0.7,0.9-1.4,1.8-2.2,2.5c-2,1.8-4.5,1.6-6.2-0.4c-1.9-2.2-3-4.7-3.6-7.5
			C164.8,281.2,164.6,279.3,164.6,277.2z"/>
		<path class="st41" d="M246.1,266.2c-1.1-2.6-0.3-5.8,1.9-7.3c2.4-1.7,5.1-2.1,7.8-1c4.8,2,8.3,5.5,10.2,10.4
			c0.6,1.5,0.8,3.1,0.9,4.6c0.1,0.6,0.1,1.2,0.1,1.9c-4.8,1.6-9.4,0.9-14-0.7c0.1-0.4,0.3-0.8,0.4-1.1c0.7-1.9,1.4-3.9,1.8-5.9
			c0.6-3.4-2.5-5.2-5.1-4.3c-1.2,0.4-2.1,1.1-2.9,2C246.9,265.2,246.6,265.7,246.1,266.2z"/>
		<path class="st41" d="M267,279.8c-0.2,0.8-0.3,1.5-0.4,2.1c-0.6,2.5-1.7,4.9-3.4,6.9c-1.2,1.4-2.7,2.5-4.6,2.9
			c-1.1,0.3-2.1,0.1-3.1-0.5c-2.8-1.8-5.1-6.3-4.7-9.8C256.4,282.5,261.6,282,267,279.8z"/>
		<path class="st41" d="M284,285c1.7,2,2.8,4.2,3.1,6.7c0.1,0.6,0,1.2-0.2,1.8c-0.4,1.4-2.3,2.2-3.6,1.7c-1.9-0.7-2.7-1.9-2.7-3.9
			c0-0.8,0.2-1.7,0.5-2.4C281.7,287.3,282.8,286.2,284,285z"/>
		<path class="st41" d="M281.9,265.3c-0.7-0.8-1.4-1.5-2-2.3c-0.6-0.8-0.5-1.8-0.3-2.7c0.1-0.4,0.4-0.6,0.8-0.6
			c0.8-0.1,1.5,0.1,2.1,0.5c0.5,0.3,0.7,0.7,0.7,1.3C283.3,262.9,282.7,264.1,281.9,265.3z"/>
		<path class="st41" d="M216,184.7c-0.5-2.8,1.2-5.4,3.8-6.1c1.5-0.4,2.9-0.2,4.3,0.4c1.6,0.8,3,1.9,4,3.4c1.8,2.4,2.6,5.1,3.1,8
			c-2.8,2.5-7.1,2.5-10.6,0.5c0-0.8,0.1-1.6,0-2.3c-0.1-0.7-0.2-1.4-0.4-2.1c-0.6-1.6-2-2.3-3.7-2
			C216.4,184.6,216.3,184.6,216,184.7z"/>
		<path class="st41" d="M187.9,195.5c0.1-0.5,0.2-1.5,0.4-2.4c0.3-1.2,0.8-1.6,2-1.4c2,0.2,3.7,1,5.2,2.3c0.3,0.2,0.5,0.6,0.5,1
			c0.5,2,1,4.1,1.9,6c0.1,0.2,0.1,0.5,0.1,0.7c-0.5,1.4-0.9,2.9-1.5,4.3c-0.3,0.7-0.8,1.3-1.3,1.7c-1.1,1-2.1,0.9-3.1-0.1
			c-1.1-1.1-1.9-2.4-2.5-3.9C188.4,201.3,188,198.7,187.9,195.5z"/>
		<path class="st41" d="M220.2,195.2c4.1,1,7.8,0.4,11.4-1.8c-0.1,1.1-0.1,2.1-0.2,3c-0.3,2.1-0.9,4.1-1.8,6c-0.5,0.9-1,1.8-1.8,2.4
			c-1.3,1.1-2.7,1.1-4-0.1c-2-1.8-3.1-4.1-3.4-6.7C220.3,197.1,220.2,196.3,220.2,195.2z"/>
		<path class="st41" d="M203.4,185.1c-0.1-4.1-0.2-8,0.3-12.2c0.3,0.3,0.5,0.4,0.6,0.6c0.6,0.9,0.8,1.8,0.9,2.8
			c0.2,3-0.5,5.8-1.6,8.6C203.7,184.9,203.6,184.9,203.4,185.1z"/>
		<path class="st41" d="M201.4,236c0.1-3.4,0.2-6.8,0.3-10.3c2.9-0.1,5.2,2.2,5.2,4.9C206.9,233.5,204.3,236.2,201.4,236z"/>
		<path class="st41" d="M179.5,237.1c0.2-2.6,0.5-5.2,1.2-7.8c0.7-2.4,2.4-2.2,3.7-0.9c1.1,1.1,1.7,2.5,2,4c0.5,3,0.1,5.9-1.3,8.6
			c-0.3,0.7-0.8,1.4-1.4,1.9c-0.8,0.9-1.6,0.9-2.4,0c-0.5-0.6-0.9-1.3-1.2-2C179.6,239.7,179.5,238.4,179.5,237.1z"/>
	</g>
</g>
</svg>
