<?xml version="1.0" encoding="utf-8"?>
<!-- Generator: Adobe Illustrator 22.0.1, SVG Export Plug-In . SVG Version: 6.00 Build 0)  -->
<svg version="1.1" id="Calque_1" xmlns="http://www.w3.org/2000/svg" xmlns:xlink="http://www.w3.org/1999/xlink" x="0px" y="0px"
	 viewBox="0 0 432 432" style="enable-background:new 0 0 432 432;" xml:space="preserve">
<style type="text/css">
	.st0{fill:#1A1A1A;}
	.st1{fill:#46B3AF;}
	.st2{fill:#4C87C2;}
	.st3{fill:#89A667;}
	.st4{fill:#90952B;}
	.st5{fill:#3D3611;}
	.st6{fill:#A3936E;}
	.st7{fill:#693C6B;}
	.st8{fill:#7C5E82;}
	.st9{fill:#421653;}
	.st10{fill:#E6E6E6;}
	.st11{fill:#EDD1D1;}
	.st12{fill:#B1956B;}
	.st13{fill:#F2F2F2;}
	.st14{fill:#FFFFFF;}
	.st15{fill:#E6A8A1;}
	.st16{fill:#F0A967;}
	.st17{fill:#36302B;}
	.st18{fill:#E3AAB7;}
	.st19{fill:#CF8495;}
	.st20{fill:#DF7087;}
	.st21{fill:#91AF27;}
</style>
<g>
	<g>
		<g>
			<path class="st4" d="M230.9,248c-5.9-3.3-12-3.7-18.3-0.9c-6,2.8-10.7,7.2-13.7,12.2c-1.3,2.5-2.4,5.3-6.4,6.6
				c-2,0.6-3.6,0.2-4.8-1c-30.5-29.7-31.6-44.5-33-40.4c-0.2,0.5,0,1.1,0.1,1.6c0,0.4,0,0.9,0.1,1.3c2.7,10.9,5.9,16,7.9,20
				c8.3,16.7,20.3,23,16.4,25.3c-0.5,0.2-2.6,2.3-4.4,0.3c-5.4-5.9-27.1-24.9-31.3-28.3c-2.3-1.9-4.7-3.5-7.3-5
				c-1.4-0.9-2.7-0.5-1.9,1.2c5.9,12.9,11.1,22.3,24.3,40.9c0.8,1.1,0.1,2.5-1.2,2.9c-9.9,3.8-24.7,13.9-29.1,18.7
				c-0.3,0.3-0.7,0.6-0.4,1.1c0.6,1.1,1.2-0.7,16.8-2c0.9-0.1,1.5,1,0.8,1.8c-7.1,7.9-10.6,20.8-9.9,22.8c0,0.4,2.6,3.2,3,3.4
				c0.3,0.2,0.7,0.4,1.1,0.6c3.7,2.4,7.4,5,12.9,6.3c6.4,1.6,15.3-0.7,21.4-3.1c27.4-10.6,35.2-30.2,46.9-43.2c0.9-1,7.3-7.4,11-9.4
				c2.9-1.6,5.8-3.2,8.8-4.8C253.5,270.2,240.2,253.1,230.9,248z M222.7,261.8c-1.8-1-2.7-2.9-2.1-4.7c1.3-4.6,9.3-4.7,9.1,1.4
				C229.6,261.1,226.1,263.6,222.7,261.8z"/>
			<g>
				<path class="st5" d="M178.8,271.3c-28.7-33.9-103.9-81.5-122.1-97c-0.6-0.5-1.2-0.9-1.8-1.3c-0.5-0.3-0.9-0.1-0.9,0.4
					c-0.1,0.7,0.7,3.5,2.3,5.9c7.2,10.8,24.3,20.4,37,28.3c51,31.9,58.8,45.1,78.9,61.1c2.8,2.2,4.4,4.9,5.5,4.5
					C178.5,272.8,179.8,272.4,178.8,271.3z"/>
				<path class="st5" d="M137.5,248.2c-3.7-7.3-2.4-4.7-6.4-6.3c-10-4.1-24.1-6.7-44.4-19.3c-8.8-5.5-6.6-3.6-14.7-10.4
					c-0.5-0.5-0.9,0-0.8,0.5c0.6,2.1,4.3,7.7,4.7,8.3c6.1,9.6,14.8,14.5,25.8,18.6C107.1,241.7,140.1,253.4,137.5,248.2z"/>
				<path class="st5" d="M103.2,254.2c-0.7-0.6-1.3-1-1.4-0.3c-0.8,3.2,9.4,14.6,25,16c4.2,0.4,13.1-0.3,18.1-2.6
					c1-0.5,2-0.4,1.7-1.4c-0.5-1.3-0.8-1.2-2.5-4.9c-0.6-1.2-1.5-0.3-4.5-0.3C128.5,260.6,113.9,263.3,103.2,254.2z"/>
				<path class="st5" d="M141.6,281.5c-5.7,1.9-11.3,1.9-15.4,0.7c-0.8-0.2-1.5,0-1.4,0.6c0.2,0.8,3,4.5,6,6.5
					c9.5,5.5,20-3,25.4-4.8c0.5-0.2,0.9-0.3,1.3-0.5c1.2-0.6,1.1-0.4-3.5-7.3C152.7,274.8,153.3,277.5,141.6,281.5z"/>
				<path class="st5" d="M135.4,318.6c-1.5,0.5-23.2,13.3-43.8,20.3c-7.1,2.4-7.3,2.5-7.3,3.1c0.1,0.8,0.7,0.8,1.3,0.8
					c10,0.3,25.5-3.2,42.8-13.1c7.8-4.5,4.5-1.8,8-9.7C136.9,318.9,136.1,318.3,135.4,318.6z"/>
			</g>
			<g>
				<path class="st6" d="M143.5,303.6c-1.3-0.3-10,0-18.1,4.5c-12.5,7-20.4,17.9-39.4,29.2c-0.3,0.2-0.7,0.4-0.5,0.8
					c1,2.4,48-17.1,51-22.3C140.7,307.3,146.6,304.4,143.5,303.6z"/>
				<path class="st6" d="M134.7,328.6c-1.6-2.4-2.5,1.2-17.8,8c-8.2,3.6-21.5,7.4-27.9,7c-0.3,0-0.7-0.1-0.9,0.3
					c-0.1,0.3,0.1,0.7,0.4,0.9c2.1,0.9,4.1,1.7,6.2,2.1c13,2.7,29.5-4.8,39.7-11.8C140.8,330.8,136.6,331.5,134.7,328.6z"/>
				<path class="st6" d="M132.7,240.9c1.3,0.2,0.1-0.8,1.4-2.2c0.7-0.8,0.6-1.1-2.6-3.6c-23.5-17.8-58.6-32.1-74.1-50.5
					c-0.2-0.3-0.5-0.5-0.7-0.7c-0.5-0.5-1.2-0.1-1.2,0.5c0,1.7,3.6,12.8,11.2,20c7.7,7.3,15.4,13.5,28.1,20.3
					C101.1,228.1,127.3,240.2,132.7,240.9z"/>
				<path class="st6" d="M89.2,236.6c-0.6-0.5-0.9-0.7-1.2-0.5c-0.3,0.3-0.2,0.8,0.1,1.2c2.6,4,5.2,7.9,8.8,11.1
					c12.8,11.4,46.3,12.4,45,8.8c-0.1-0.4-1.9-3.5-3-5.1c-0.8-1.1-1.3,0.3-6.5-0.7C118.1,248.6,101.6,246.7,89.2,236.6z"/>
				<path class="st6" d="M146.7,268.6c-1.9,1.3-6.7,2.7-9,3.3c-8.6,2.3-17.2,0.4-21.2-2c-0.5-0.3-0.8-0.1-0.8,0.5
					c0,1.5,4.3,6.3,6.4,7.4c7.9,4.8,20.8,1.8,28.3-3.5c1.3-0.9,1.2-1.2,0.5-2.3C149.1,268.7,149.1,267,146.7,268.6z"/>
				<path class="st6" d="M289.4,277c-6.3-3.3-8.4-4.7-19.5-7c-4.2-0.9-8.2-1.5-12-1.8c-11.9-1-10.9,0.2-10.9,0.5
					c0.3,2.3-0.8,3.7,0.5,3.6c23.5-1.2,42,6.5,42.5,5.5C290.1,277.3,289.7,277.2,289.4,277z"/>
			</g>
			<path class="st0" d="M221.6,257.9c0.1-1.4,1.3-2.7,2.6-2.9c-0.1,0.9,0.1,1.4,0.7,1.6c1,0.3,1.7-0.1,2.2-0.9
				c2.5,2.3,0.2,6.6-3.1,5.5C222.4,260.7,221.4,259.3,221.6,257.9z"/>
		</g>
	</g>
	<g>
		<g>
			<path class="st7" d="M191.2,188.9c2.9,1.6,5.8,3.2,8.8,4.8c3.7,2.1,10,8.4,11,9.4c11.7,12.9,19.5,32.6,46.9,43.2
				c6.1,2.4,15,4.6,21.4,3.1c5.5-1.3,9.2-3.9,12.9-6.3c0.4-0.2,0.7-0.4,1.1-0.6c0.3-0.2,3-3,3-3.4c0.7-2-2.8-14.9-9.9-22.8
				c-0.6-0.7-0.1-1.8,0.8-1.8c15.6,1.2,16.2,3.1,16.8,2c0.3-0.5-0.1-0.8-0.4-1.1c-4.4-4.8-20.7-15.7-29.1-18.7
				c-1.3-0.5-2-1.8-1.2-2.9c13.2-18.6,18.4-28,24.3-40.9c0.8-1.7-0.5-2-1.9-1.2c-2.5,1.5-5,3.1-7.3,5c-4.2,3.4-25.8,22.4-31.3,28.3
				c-1.8,2-4-0.2-4.4-0.3c-3.9-2.4,8.1-8.6,16.4-25.3c2-3.9,5.2-9,7.9-20c0.1-0.4,0.1-0.9,0.1-1.3c0-0.5,0.2-1.1,0.1-1.6
				c-1.4-4-2.4,10.7-33,40.4c-1.2,1.2-2.8,1.6-4.8,1c-4-1.3-5.1-4.1-6.4-6.6c-3-5.1-7.7-9.5-13.7-12.2c-6.3-2.9-12.3-2.4-18.3,0.9
				C191.8,164.8,178.5,182,191.2,188.9z M202.3,170.2c-0.2-6.1,7.7-5.9,9.1-1.4c0.5,1.8-0.4,3.7-2.1,4.7
				C205.9,175.4,202.4,172.9,202.3,170.2z"/>
			<g>
				<path class="st8" d="M253.2,183.1c28.7-33.9,103.9-81.5,122.1-97c0.6-0.5,1.2-0.9,1.8-1.3c0.5-0.3,0.9-0.1,0.9,0.4
					c0.1,0.7-0.7,3.5-2.3,5.9c-7.2,10.8-24.3,20.4-37,28.3c-51,31.9-58.8,45.1-78.9,61.1c-2.8,2.2-4.4,4.9-5.5,4.5
					C253.5,184.6,252.2,184.1,253.2,183.1z"/>
				<path class="st8" d="M294.5,159.9c3.7-7.3,2.4-4.7,6.4-6.3c10-4.1,24.1-6.7,44.4-19.3c8.8-5.5,6.6-3.6,14.7-10.4
					c0.5-0.5,0.9,0,0.8,0.5c-0.6,2.1-4.3,7.7-4.7,8.3c-6.1,9.6-14.8,14.5-25.8,18.6C324.9,153.5,291.9,165.2,294.5,159.9z"/>
				<path class="st8" d="M328.8,165.9c0.7-0.6,1.3-1,1.4-0.3c0.8,3.2-9.4,14.6-25,16c-4.2,0.4-13.1-0.3-18.1-2.6
					c-1-0.5-2-0.4-1.7-1.4c0.5-1.3,0.8-1.2,2.5-4.9c0.6-1.2,1.5-0.3,4.5-0.3C303.5,172.4,318.1,175,328.8,165.9z"/>
				<path class="st8" d="M290.4,193.3c5.7,1.9,11.3,1.9,15.4,0.7c0.8-0.2,1.5,0,1.4,0.6c-0.2,0.8-3,4.5-6,6.5
					c-9.5,5.5-20-3-25.4-4.8c-0.5-0.2-0.9-0.3-1.3-0.5c-1.2-0.6-1.1-0.4,3.5-7.3C279.3,186.5,278.7,189.3,290.4,193.3z"/>
				<path class="st8" d="M296.6,230.3c1.5,0.5,23.2,13.3,43.8,20.3c7.1,2.4,7.3,2.5,7.3,3.1c-0.1,0.8-0.7,0.8-1.3,0.8
					c-10,0.3-25.5-3.2-42.8-13.1c-7.8-4.5-4.5-1.8-8-9.7C295.1,230.6,295.9,230,296.6,230.3z"/>
			</g>
			<g>
				<path class="st9" d="M288.5,215.4c1.3-0.3,10,0,18.1,4.5c12.5,7,20.4,17.9,39.4,29.2c0.3,0.2,0.7,0.4,0.5,0.8
					c-1,2.4-48-17.1-51-22.3C291.3,219,285.4,216.2,288.5,215.4z"/>
				<path class="st9" d="M297.3,240.4c1.6-2.4,2.5,1.2,17.8,8c8.2,3.6,21.5,7.4,27.9,7c0.3,0,0.7-0.1,0.9,0.3
					c0.1,0.3-0.1,0.7-0.4,0.9c-2.1,0.9-4.1,1.7-6.2,2.1c-13,2.7-29.5-4.8-39.7-11.8C291.2,242.5,295.4,243.2,297.3,240.4z"/>
				<path class="st9" d="M299.3,152.7c-1.3,0.2-0.1-0.8-1.4-2.2c-0.7-0.8-0.6-1.1,2.6-3.6c23.5-17.8,58.6-32.1,74.1-50.5
					c0.2-0.3,0.5-0.5,0.7-0.7c0.5-0.5,1.2-0.1,1.2,0.5c0,1.7-3.6,12.8-11.2,20c-7.7,7.3-15.4,13.5-28.1,20.3
					C330.9,139.8,304.7,152,299.3,152.7z"/>
				<path class="st9" d="M342.8,148.3c0.6-0.5,0.9-0.7,1.2-0.5c0.3,0.3,0.2,0.8-0.1,1.2c-2.6,4-5.2,7.9-8.8,11.1
					c-12.8,11.4-46.3,12.4-45,8.8c0.1-0.4,1.9-3.5,3-5.1c0.8-1.1,1.3,0.3,6.5-0.7C313.9,160.4,330.4,158.5,342.8,148.3z"/>
				<path class="st9" d="M285.3,180.4c1.9,1.3,6.7,2.7,9,3.3c8.6,2.3,17.2,0.4,21.2-2c0.5-0.3,0.8-0.1,0.8,0.5
					c0,1.5-4.3,6.3-6.4,7.4c-7.9,4.8-20.8,1.8-28.3-3.5c-1.3-0.9-1.2-1.2-0.5-2.3C282.9,180.5,282.9,178.8,285.3,180.4z"/>
				<path class="st9" d="M142.6,188.8c6.3-3.3,8.4-4.7,19.5-7c4.2-0.9,8.2-1.5,12-1.8c11.9-1,10.9,0.2,10.9,0.5
					c-0.3,2.3,0.8,3.7-0.5,3.6c-23.5-1.2-42,6.5-42.5,5.5C141.9,189.1,142.3,188.9,142.6,188.8z"/>
			</g>
			<path class="st0" d="M210.4,169.7c-0.1-1.4-1.3-2.7-2.6-2.9c0.1,0.9-0.1,1.4-0.7,1.6c-1,0.3-1.7-0.1-2.2-0.9
				c-2.5,2.3-0.2,6.6,3.1,5.5C209.6,172.4,210.6,171.1,210.4,169.7z"/>
		</g>
	</g>
</g>
</svg>
