<?xml version="1.0" encoding="utf-8"?>
<!-- Generator: Adobe Illustrator 21.1.0, SVG Export Plug-In . SVG Version: 6.00 Build 0)  -->
<svg version="1.1" id="Calque_1" xmlns="http://www.w3.org/2000/svg" xmlns:xlink="http://www.w3.org/1999/xlink" x="0px" y="0px"
	 viewBox="0 0 432 432" style="enable-background:new 0 0 432 432;" xml:space="preserve">
<style type="text/css">
	.st0{fill:#6E3C3F;}
	.st1{fill:#E3635C;}
	.st2{fill:#343434;}
	.st3{fill:#B1C369;}
	.st4{fill:#A490C4;}
	.st5{fill:#A2C1DB;}
	.st6{fill:#AFB67B;}
	.st7{fill:#4F4747;}
	.st8{fill:#AA6555;}
	.st9{fill:#93C6E3;}
	.st10{fill:#9C3A47;}
	.st11{fill:#52B5C3;}
	.st12{fill:#4B6C2A;}
	.st13{fill:#F4A38D;}
	.st14{fill:#6A8E2D;}
	.st15{fill:#EE7A9F;}
	.st16{fill:#F7DA6A;}
	.st17{fill:#E2991A;}
	.st18{fill:#A7B7BE;}
	.st19{fill:#E8D8CA;}
	.st20{fill:#A1A499;}
	.st21{fill:#C42725;}
	.st22{fill:#DBDC50;}
	.st23{fill:#020203;}
	.st24{fill:#92AA3C;}
	.st25{fill:#DFB87F;}
	.st26{fill:#7E4E1C;}
	.st27{fill:#BBCC53;}
	.st28{fill:#BA5C78;}
	.st29{fill:#85924F;}
	.st30{fill:#7C1142;}
	.st31{fill:#3B322E;}
	.st32{fill:#3B6C51;}
	.st33{fill:#C1292E;}
	.st34{fill:#CDCCCC;}
	.st35{fill:#886649;}
	.st36{fill:#F9B03D;}
	.st37{fill:#7D8C5B;}
	.st38{fill:#0D341E;}
	.st39{fill:#4D8F53;}
	.st40{fill:#1B1B1B;}
	.st41{fill:#F39323;}
	.st42{fill:#E7E6E6;}
	.st43{fill:#9A908B;}
	.st44{fill:#548981;}
	.st45{fill:#89525A;}
	.st46{fill:#AB9AB1;}
	.st47{fill:#5E676E;}
	.st48{fill:#DDDBCA;}
	.st49{fill:#56463E;}
	.st50{fill:#457885;}
	.st51{fill:#FFFFFF;}
	.st52{fill:#E69678;}
	.st53{fill:#A5AB9B;}
	.st54{fill:#855354;}
	.st55{fill:#DE8F6E;}
	.st56{fill:#C19D63;}
	.st57{fill:#837F62;}
	.st58{fill:#7D8769;}
	.st59{fill:#39466A;}
	.st60{fill:#4E4D4D;}
	.st61{fill:#673E44;}
	.st62{fill:#CEB283;}
	.st63{fill:#8890A4;}
	.st64{fill:#99B8B3;}
	.st65{fill:#A0747A;}
	.st66{fill:#BB839E;}
	.st67{fill:#E5DA9B;}
	.st68{fill:#BA9BC9;}
	.st69{fill:#8CACB5;}
	.st70{fill:#746458;}
	.st71{fill:#34354B;}
	.st72{fill:#6A8188;}
	.st73{fill:#B4B4B4;}
	.st74{fill:#97CB9E;}
	.st75{fill:#EE7896;}
	.st76{fill:#785F63;}
	.st77{fill:#E4A87C;}
	.st78{fill:#98D5E8;}
	.st79{fill:#CB6083;}
	.st80{fill:#9A9999;}
	.st81{fill:#C49A6C;}
	.st82{fill:#EC96AB;}
	.st83{fill:#ED87AB;}
	.st84{fill:#E2B471;}
	.st85{fill:#59B465;}
	.st86{fill:#4C996E;}
	.st87{fill:#A84F6B;}
	.st88{fill:#6BC4CD;}
	.st89{fill:#D6809C;}
	.st90{fill:#9DD0B3;}
	.st91{fill:#F3AA9A;}
	.st92{fill:#F29292;}
	.st93{fill:#BBBBBB;}
	.st94{fill:#5B5242;}
	.st95{fill:#8CCDC6;}
	.st96{fill:#EAC892;}
	.st97{fill:#F4B0CC;}
	.st98{fill:#7A6350;}
	.st99{fill:#9FC64B;}
	.st100{fill:#A68C6D;}
	.st101{fill:#F1D3D4;}
	.st102{fill:#BE8BBE;}
	.st103{fill:#F49523;}
	.st104{fill:#789835;}
	.st105{fill:#8FA369;}
	.st106{fill:#B17081;}
	.st107{fill:#E1B63D;}
	.st108{fill:#B05274;}
	.st109{fill:#CA9256;}
	.st110{fill:#A9A9AA;}
	.st111{fill:#BE202E;}
	.st112{fill-rule:evenodd;clip-rule:evenodd;fill:#A9A9AA;}
	.st113{fill:#89657B;}
	.st114{fill:#7F95B7;}
	.st115{fill:#9F9EC6;}
	.st116{fill:#7F6178;}
	.st117{fill:#6D8999;}
	.st118{fill:#A0C07E;}
	.st119{fill:#AA779F;}
	.st120{fill:#FBC063;}
	.st121{fill:#80A0C2;}
	.st122{fill:#CFAC75;}
	.st123{fill:#CD94C2;}
	.st124{fill:#AAB6DE;}
	.st125{fill:#CCAE99;}
	.st126{fill:#86B69F;}
	.st127{fill:#555D57;}
	.st128{fill:#86C1BB;}
	.st129{fill:#CA856C;}
	.st130{fill:#A4AA6D;}
	.st131{fill:#EAB978;}
	.st132{fill:#C091A7;}
	.st133{fill:#7E9DAD;}
	.st134{fill:#E5B1C8;}
	.st135{fill:#B9AEA3;}
	.st136{fill:#627F99;}
	.st137{fill:#E6A9AB;}
	.st138{fill:#913E41;}
	.st139{fill:#B46269;}
	.st140{fill:#C69C6C;}
	.st141{fill:#ED6D78;}
	.st142{fill:#C09047;}
	.st143{fill:#AE6C7B;}
	.st144{fill:#918FB2;}
	.st145{fill:#67816D;}
	.st146{fill:#B3B1A2;}
	.st147{fill:#A23A43;}
	.st148{fill:#6A907C;}
	.st149{fill:#B09294;}
	.st150{fill:#7B484D;}
	.st151{fill:#B78B5E;}
	.st152{fill:#DB7D82;}
	.st153{fill:#781611;}
	.st154{fill:#D38F8F;}
	.st155{fill:#965656;}
	.st156{fill:#9AA4B4;}
	.st157{fill:#754D24;}
	.st158{fill:#C8B7A7;}
	.st159{fill:#B4363B;}
	.st160{fill:#C77272;}
	.st161{fill:#91AF82;}
	.st162{fill:#C69462;}
	.st163{fill:#ED6C5B;}
	.st164{fill:#F3C186;}
	.st165{fill:#F3957D;}
	.st166{fill:#D1BBBC;}
</style>
<g>
	<g>
		<path class="st50" d="M255.7,257.9c-0.4,1.9,0,3.4,0.2,5c1.2,8.4,2.5,16.8,3.6,25.3c0.6,4.4,0.7,8.8,1.1,13.2
			c0.4,4.2,0.8,8.4,1.3,12.5c0.5,3.7,1.8,7.2,3.7,10.5c1.5,2.4,2.6,5,3,7.9c0.5,4.5-0.8,8.3-4.6,11c-2.7,1.9-5.6,3.2-8.8,4.2
			c-5.3,1.6-10.6,2.7-16.1,2.4c-3.6-0.2-7-1.2-10.2-3.1c-2.9-1.7-4.8-4.2-5.5-7.6c-0.4-2.2-0.3-4.4,0.3-6.6c0.4-1.4,0.7-2.8,1.2-4.2
			c1.1-3.3,1-6.5-0.3-9.7c-1.5-3.9-3-7.7-4.5-11.6c-5.2-12.9-9.9-26-13.9-39.3c-0.2-0.5-0.3-1-0.5-1.5c0-0.1-0.2-0.1-0.4-0.3
			c-0.2,1.6-0.5,3-0.7,4.5c-1.7,12.7-3.6,25.4-5.9,38c-0.7,3.7-1.2,7.5-1.5,11.2c-0.2,2.6,0.4,5.2,0.9,7.8c0.4,2.1,0.8,4.1,0.8,6.2
			c-0.1,4.4-1.9,7.1-6.1,8.6c-3.5,1.3-7.3,1.7-11,2c-4.1,0.3-8.2,0.4-12.3,0.3c-3.1-0.1-6.2-0.5-9.2-0.9c-1.4-0.2-2.8-0.7-4-1.4
			c-4.2-2.2-5.4-5.3-4.5-9.5c0.4-2,1.3-3.9,2.2-5.7c0.8-1.6,1.8-3.1,2.8-4.6c2.9-4.1,4.5-8.7,5.3-13.7c0.6-4.3,0.8-8.7,0.9-13
			c0.1-8,0-16,0.2-24c0.1-7.4,0.3-14.7,0.6-22.1c0.2-4.8,0.7-9.6,1.1-14.5c0.3-4.5,0.3-9-0.3-13.5c-0.3-2.1-1-4-2.2-5.7
			c-1.4-2-3-4-4.4-5.9c-0.8-1.1-1.9-1.5-3.3-1.5c-3,0-6.1,0-9.1-0.3c-5.8-0.6-11.3-2.4-16.5-4.9c-2.2-1.1-4.4-2.1-6.5-3.1
			c-2-1-3.9-0.8-5.6,0.7c-2.3,2.1-4.6,4.1-6.9,6.2c-0.5,0.5-1,1-1.5,1.4c-1.1,0.8-2.4,0.5-3.2-0.6c-0.2-0.3-0.3-0.5-0.4-0.8
			c-1.6-4.4-2.3-8.9-0.7-13.6c0.2-0.5,0.3-1.1,0.6-1.9c-0.9,0.3-1.5,0.5-2.1,0.7c-7.1,2.6-14.4,4-21.9,3.7c-6.8-0.3-13.3-2-19.2-5.4
			c-2.3-1.3-4.4-2.9-5.9-5.1c-0.6-0.9-1.2-1.9-1.5-2.9c-0.6-1.7,0.3-3.2,2.1-3.6c0.9-0.2,1.9-0.2,2.8-0.3c1.6,0,3.3,0,4.9-0.1
			c0.8,0,1.6-0.2,2.8-0.4c-1-0.8-1.7-1.4-2.4-2c-4.4-3.4-7.1-7.8-8.3-13.2c-1-4.7-0.9-9.4,0.8-14c1.7-4.8,4.3-8.9,7.9-12.6
			c4.6-4.8,9.8-8.9,15.1-12.9c3.6-2.8,7.1-5.6,10.6-8.5c1.1-0.9,2-2,2.9-3.1c2.4-3,1.6-6.3,0.1-8.5c-2.1-2.9-4.9-4.7-8.7-4.7
			c-1.5,0-2.9-0.2-4.3-0.9c-1.3-0.6-2-1.6-2.1-3.1c-0.1-1.7,0.1-3.4,0.8-4.9c0.7-1.6,1.6-3.2,2.6-4.7c2-2.8,4.8-3.6,8.1-3
			c0.7,0.1,1.4,0.3,2.1,0.5c6.8,2.1,13.2,5,18.9,9.2c5.1,3.8,8.3,8.8,9.3,15.2c0.6,4,0.1,8-1.2,11.8c-1.7,4.9-4.6,9.2-8.1,13
			c-2.9,3.2-6.2,6-9.5,8.7c-1.9,1.6-3.8,3.2-5.6,4.8c-0.6,0.5-1.3,1.1-1.2,2.2c1.5,1,3.2,0.9,4.8,0.5c3.1-0.6,5.9-1.9,8.4-3.8
			c7.2-5.4,13.9-11.3,19.8-18c2.1-2.3,4.3-4.4,6.9-6.2c4.7-3.1,9.9-4.6,15.5-4.7c8.7-0.2,17.2,0.8,25.5,3.4c5.2,1.6,10,4,14.5,7.1
			c3.1,2.1,6.1,4.3,9.2,6.4c1.7,1.2,3.5,2.3,5.3,3.4c4.1,2.4,8.5,3.5,13.2,3.7c4.7,0.2,9.4-0.2,14.2-0.8c7.2-0.9,14.2-2.7,21.3-4.1
			c8.5-1.7,17-2.6,25.7-2c6.3,0.4,12.5,1.8,18.5,3.8c12.1,3.9,23,9.9,33.1,17.6c7.5,5.8,13.3,13.1,17.6,21.6c3.3,6.5,7,12.8,10.9,19
			c6.9,10.9,11.5,22.8,14,35.4c1,5,1.4,10.1,1.2,15.2c-0.2,4.2-0.2,8.5-0.1,12.8c0.1,3.5,0.7,6.9,2.1,10.1c0.6,1.3,1.1,2.6,1.5,4
			c0.3,1.1,0.5,2.3,0.6,3.4c0.1,2.7-0.5,3.4-3.1,4.3c1.3,4.8,0.6,9.7,0.9,14.5c0.1,1.7,0.2,3.4,0.3,5c0,0.4,0,0.7-0.1,1.1
			c-0.3,1.6-1.8,2.5-3.3,1.8c-0.6-0.3-1.2-0.6-2-1.1c-0.5,1.8-0.6,3.6-0.8,5.3c-0.1,1-0.1,2-0.2,3c-0.4,2.8-2.9,4-5.2,2.4
			c-2.2-1.4-4-3.4-5.5-5.6c-2.3-3.5-3.4-7.3-3.8-11.4c-0.6-5.1,0-10.2,0.5-15.2c0.5-5,1.1-10,1.4-15.1c0.3-4.4,0.4-8.8,0.2-13.2
			c-0.4-7.2-1.3-14.3-3.4-21.3c-0.2-0.7-0.5-1.4-0.8-2.1c-0.1,0-0.2,0-0.3,0c-0.2,0.5-0.3,1.1-0.5,1.6c-2.6,9.4-4.9,18.8-8.2,28
			c-1.7,4.8-3.5,9.5-5.2,14.2c-1.2,3.3-2.2,6.6-2.7,10c-0.6,3.8-0.2,7.5,0.8,11.2c1.9,6.8,3.8,13.6,5.6,20.3c1,3.8,1.8,7.7,1.4,11.7
			c-0.2,1.9-0.5,3.8-1,5.6c-0.9,3.4-3,6.1-5.8,8.2c-4.1,3-8.6,4.9-13.5,6.2c-6.4,1.7-12.8,2.1-19.4,1.2c-3.4-0.5-6.5-1.7-9.4-3.4
			c-5-2.9-7.1-7.5-6.1-13.2c0.5-2.8,1.4-5.5,2.6-8.1c2-4.6,4-9.1,5.9-13.8c1.8-4.4,3.2-8.9,3.8-13.6c1.4-9.9-3.1-19-11.9-23.7
			c-4.2-2.2-8.6-3.9-13.1-5.3c-5.9-1.8-11.7-3.8-17.3-6.2C257.8,258.5,256.8,258.3,255.7,257.9z M82.5,148.6
			c0.4-0.7,0.6-1.3,0.9-1.8c1.3-2.4,2.4-4.8,2.9-7.5c0.3-1.6,0.6-3.3,0.4-5c-0.3-2.9-2.9-4.5-5.7-3.7c-1.5,0.4-2.7,1.2-3.7,2.3
			c-1.2,1.2-2,2.7-2.7,4.2c-1.7,3.7-2.4,7.6-2.8,11.6c-0.5,5.4-0.1,10.8,1.8,16c3.2,8.8,9.2,14.7,18.6,16.6c2,0.4,3.9,0.8,5.9,1.1
			c6,1,11.9,2,18,2.1c2.1,0.1,4.3,0.3,6.4,0.6c5.3,0.8,9.8,3,13.2,7.2c0.4,0.5,0.9,1,1.5,1.4c1.4,0.9,3,0.1,3-1.6
			c0-0.5-0.2-1-0.3-1.5c-0.3-0.9-0.7-1.8-1-2.7c-2.3-6.9-6.2-13-10.8-18.5c-0.3-0.4-0.6-0.7-1-1c-1.7-1.4-3.8-1-4.7,1
			c-0.3,0.7-0.5,1.6-0.6,2.4c-0.2,2.5,0.6,4.8,1.7,6.9c0.2,0.4,0.5,0.9,0.8,1.5c-1.3-0.1-2.2-0.7-3.1-1.3c-1.9-1.4-3.3-3.2-4.7-5.1
			c-2.1-2.8-4.3-5.6-6.5-8.3c-0.5-0.7-1.1-1.2-1.8-1.7c-1.2-0.9-2.6-0.6-3.4,0.6c-0.5,0.7-0.8,1.5-1,2.3c-0.6,2.4-0.4,4.8,0.4,7.1
			c0.1,0.4,0.2,0.7,0.5,1.4c-0.6-0.4-0.9-0.6-1.1-0.9c-1.5-1.6-3-3.2-4.6-4.8c-1.3-1.4-2.5-2.8-3.9-4.1c-0.6-0.6-1.5-1.1-2.3-1.4
			c-2.3-0.8-4.5,0.4-5.2,2.7c-0.1,0.5-0.2,1-0.4,1.7c-1.2-2.3-1.4-4.3-1-7.3c0.4-2.4,0.8-4.9,0.8-7.3
			C87.1,150.5,85.7,149.1,82.5,148.6z M244.4,175.6c10-0.1,17.8-3.3,24.1-9.9c6.6-6.8,9.2-15.3,9.4-24.5c0-0.4-0.1-0.8-0.2-1.2
			c-0.5-1.6-1.8-2.7-3.4-2.8c-1.5,0-3.1,1-3.6,2.6c-0.2,0.6-0.3,1.3-0.4,2c-0.4,3.7-1.3,7.2-2.6,10.7c-4.5,11.9-20.2,20.2-34.5,12.4
			c-6.2-3.4-10.6-8.3-12.1-15.4c-0.2-0.9-0.5-1.8-0.8-2.7c-0.2-0.6-0.5-1.2-0.9-1.6c-0.8-0.9-1.8-1.5-3.1-1.2
			c-1.2,0.3-2.1,1-2.4,2.3c-0.2,0.7-0.3,1.3-0.3,2c0.1,5.5,1.9,10.4,5.3,14.7C225.7,171.1,234.5,175.3,244.4,175.6z M201.7,237.3
			c-1,0-1.7,0.2-2.1,1c-0.4,0.7-0.1,1.4,0.4,1.9c0.5,0.6,1.1,1.2,1.8,1.5c1.8,0.9,3.6,1.9,5.6,2.6c3.4,1.2,7.1,1.6,10.7,1.9
			c6.5,0.4,13,0.8,19.5,1.1c8.8,0.4,17.6,1.3,26.2,3.6c7.8,2.1,15.5,4.6,22.7,8.5c4.7,2.5,8.8,5.7,12.7,9.2c1.2,1,2.5,2,3.8,2.7
			c2,1.1,3.9-0.2,3.7-2.5c-0.1-0.7-0.5-1.5-1-2.1c-1.3-1.4-2.7-2.7-4.1-3.9c-5.2-4.3-10.9-7.9-17-10.7c-13.7-6.4-28.3-9.7-43.4-10.4
			c-7-0.3-14-0.6-20.9-0.9c-5.7-0.3-11.4-1-16.8-3.1C202.7,237.6,202.1,237.4,201.7,237.3z M244.9,161.9c1.3-0.1,2.6-0.2,3.8-0.4
			c8.3-1.6,14.8-10.5,13.9-18.9c-0.2-1.9-1.4-3.2-3.4-3.4c-1-0.1-2-0.1-3,0.1c-2.9,0.4-5.8,0.9-8.7,1.5c-4.7,1-9.3,2-14,3.1
			c-1.5,0.3-2.9,0.8-4.3,1.4c-1.5,0.6-2.1,1.7-1.9,3.2c0.3,2.6,1.2,5,3.1,6.9C234.3,159.7,239.3,161.5,244.9,161.9z M177.4,272.3
			c0-8.4,0-18.9,0-29.3c0-2.8,0-5.6-0.1-8.4c0-1-0.1-2-0.4-3c-0.3-1.3-1.3-2.1-2.4-2.2c-1.2-0.1-2.2,0.7-2.7,2
			c-0.3,0.7-0.4,1.5-0.5,2.3c-0.1,2-0.2,4-0.2,6c-0.2,15.2-0.3,30.5-0.5,45.7c-0.1,8.8-0.3,17.6-0.4,26.5c0,1.7,0.2,3.4,0.6,5
			c0.3,1.4,1.4,2.1,2.6,2.2c1.2,0,2.3-0.8,2.7-2.3c0.3-1.1,0.4-2.2,0.4-3.3c0.1-3.8,0-7.7,0.1-11.5
			C176.8,292.8,177.1,283.6,177.4,272.3z M328.2,241.4c-4.7,0-8.8,0.8-12.5,3c-2.8,1.6-4.8,3.9-6,6.9c-0.8,2.1-0.9,4.1,0.2,6.1
			c1.5,2.9,4.7,5.7,9.5,5.3c3.3-0.3,6.2-1.6,8.8-3.5c4-2.8,7.3-6.3,10.4-10.1c1.5-1.7,1.2-3.9-0.6-5.3c-0.9-0.7-1.9-1.1-2.9-1.5
			C332.7,241.6,330.3,241.4,328.2,241.4z M186.7,211.6c-0.2-1.8-0.3-3.6-0.6-5.3c-0.7-4.4-2.2-8.6-5.2-12
			c-4.7-5.4-10.5-8.5-17.8-8.4c-3.8,0.1-7.2,1.3-10.5,3c-4,2.1-6.9,5.3-8.4,9.6c-0.5,1.5-0.3,2.6,0.6,3.1c0.9,0.5,1.7,0.3,2.9-0.9
			c0.9-0.9,1.7-1.8,2.6-2.8c1.8-1.9,4-3.4,6.5-4.3c4-1.5,8.1-2.1,12.3-0.3c4.3,1.9,7.5,4.9,9.2,9.2c2.4,5.9,2.4,11.9,0.2,17.9
			c-0.2,0.7-0.5,1.4-0.7,2.1c-0.3,1.5,0.4,3.1,1.6,3.6c1.1,0.5,2.7,0.2,3.7-1c0.5-0.6,0.9-1.3,1.2-2
			C185.8,219.5,186.6,215.6,186.7,211.6z M338.5,240.2c0.5,0,0.7,0,0.9,0c2.9-0.1,3.9-1.5,3-4.2c-0.6-1.7-1.4-3.3-2.3-4.8
			c-1.3-2.1-2.7-4-4.1-6c-0.9-1.2-1.8-2.5-2.8-3.6c-2.6-2.9-5.8-4.8-9.6-5.6c-3.6-0.7-6.8,0.6-8.5,3.6c-1.5,2.6-1.3,5.2-0.1,7.9
			c1.1,2.4,2.8,4.3,5,5.8c2.6,1.9,5.4,3.2,8.3,4.4C331.6,239.1,335.1,240.1,338.5,240.2z M349.4,209.3c-0.2-1.7-0.2-3.5-0.5-5.2
			c-0.5-2.7-1.4-5.3-3.3-7.4c-3.3-3.7-8.7-3.3-11.3,0.9c-0.7,1-1.2,2.2-1.5,3.4c-0.9,3.6-0.5,7.2,0.5,10.7c1.2,4.1,2.9,7.9,5,11.6
			c0.6,1,1.3,2,2,2.8c1.9,2.2,4,2,5.5-0.5c0.7-1.1,1.2-2.4,1.6-3.6C348.7,217.9,349.2,213.7,349.4,209.3z M233.2,185.2
			c0.1,3.5,1,6.7,3.1,9.5c1.4,2,3.4,3.3,5.8,3.8c4.4,0.9,10.3-0.8,13.2-5.7c1-1.8,1.9-3.6,2.4-5.6c0.5-2.1,0.7-4.1,0.1-6.2
			c-0.6-1.8-1.6-2.5-3.4-2.3c-0.5,0-1,0.1-1.6,0.2c-2.3,0.4-4.7,0.6-7.1,0.3c-2.7-0.3-5.4-0.6-8.1-0.8c-2.2-0.2-3,0.3-3.5,2.4
			C233.7,182.2,233.5,183.7,233.2,185.2z M255.9,318.6c0-0.5-0.1-1-0.2-1.6c-0.4-2.2-0.9-4.4-1.2-6.7c-1.7-9.7-3.3-19.4-4.9-29
			c-1.2-7-2.5-14-3.8-20.9c-0.2-1.1-0.7-2.2-1.2-3.2c-0.6-1.2-1.7-1.7-2.7-1.4c-1.1,0.3-1.8,1.1-1.8,2.5c0,1.4,0,2.8,0.1,4.2
			c1.4,11.8,3.2,23.5,5.6,35.1c1.4,6.8,2.9,13.6,4.4,20.3c0.2,1.1,0.8,2.2,1.3,3.2c0.5,0.9,1.4,1.3,2.4,1.1c1.1-0.2,1.6-0.9,1.8-1.9
			C255.8,319.8,255.8,319.3,255.9,318.6z M273.3,188.5c5.3,0,10.2-3.6,11.4-8.6c0.4-1.8,0.5-3.5,0.2-5.3c-0.6-3.4-1.6-6.5-3.9-9.1
			c-1.8-2-3.9-2.7-6,0.1c-2.1,2.9-4.8,5.1-7.9,6.9c-1.3,0.8-2.5,1.5-3.8,2.3c-2.2,1.5-2.7,3-1.7,5.6c0.8,2,2.2,3.7,3.8,5.1
			C267.7,187.5,270.3,188.5,273.3,188.5z M228.2,260.9c0,0.2,0,0.5,0.1,0.9c1.1,7,2.2,14,3.5,21c1.4,7.5,3.2,14.9,4.7,22.3
			c0.9,4.2,1.6,8.5,2.4,12.7c0.2,1.3,0.5,2.5,1.4,3.5c1.5,1.7,3.8,1.2,4.4-1c0.2-0.9,0.3-1.9,0.1-2.8c-1-5.9-2.2-11.9-3.3-17.8
			c-1.5-8.2-3.1-16.4-4.7-24.6c-0.7-3.8-1.3-7.7-2.2-11.4c-0.3-1.5-1-3-1.7-4.4c-0.8-1.5-2.1-2-3.2-1.7
			C228.8,257.9,228.2,259.1,228.2,260.9z M201.7,140.7c-3.4,0-6.1,1-8.1,3.1c-5.1,5.3-3.7,13,0.8,16.9c4.7,4.1,10.2,4.5,15.9,2.1
			c1-0.4,1.3-1.1,1.2-2.1c0-0.4-0.1-0.7-0.2-1.1c-1.1-4.4-1.8-8.8-1.9-13.4c0-1-0.4-1.8-1.1-2.5C206.4,141.7,204,140.7,201.7,140.7z
			 M217.1,189.3c0.3,0,0.5,0,0.8,0c0.2,0,0.4,0,0.6-0.1c5.5-1.2,9.4-4.5,11.7-9.6c0.2-0.4,0.3-0.8,0.3-1.2c0.4-1.8-0.2-2.8-1.9-3.5
			c-1.2-0.5-2.5-0.9-3.7-1.4c-3.4-1.4-6.2-3.6-8.9-6.1c-1.3-1.2-2-1.2-3.5-0.3c-5.2,3.4-7.9,10.4-4.3,16.9
			C210.1,187.5,213.2,189.1,217.1,189.3z M147.8,147.5c5.8,0,11-1.7,15.1-6c3-3.2,5.2-6.8,6.4-11.1c0.6-2.3,0.9-4.6,0.8-7
			c-0.1-2.1-1.6-3.4-3.5-3.1c-1.5,0.3-2.4,1.6-2.3,3.5c0.2,3.8-1.1,7.2-3.1,10.4c-1.8,2.8-4.3,4.9-7.5,5.6
			c-7.5,1.6-14.3,0.4-19.7-5.7c-0.4-0.5-0.9-1-1.5-1.4c-0.8-0.6-1.7-0.7-2.5-0.2c-0.9,0.4-1.3,1.2-1.3,2.2c0,1.5,0.5,2.8,1.3,4
			c1.2,1.8,2.7,3.5,4.5,4.8C138.5,146.4,143,147.5,147.8,147.5z M277.7,211.7c-0.1-1.6-0.2-2.6-0.3-3.6c-0.5-3.6-1.9-6.8-3.6-10
			c-2-3.8-5-6.5-8.9-8.3c-1.8-0.8-3.4-0.2-4,1.7c-0.3,1-0.5,2.2-0.5,3.2c-0.1,6.3,1.5,12.2,4.8,17.5c1.7,2.8,4,5.1,6.6,7.1
			c0.3,0.2,0.6,0.4,0.9,0.6c1.4,0.7,2.6,0.4,3.4-0.9c0.4-0.7,0.7-1.4,0.9-2.2C277.3,215,277.5,213.1,277.7,211.7z M285.3,161.9
			c4.1-0.1,7.2-1.1,10-3.1c2.3-1.7,3.5-4,3.3-6.8c-0.5-6.4-6.2-12.1-12.6-12.8c-2.3-0.2-4,0.8-4.1,3.3c-0.1,2.2-0.2,4.4-0.6,6.6
			c-0.5,2.6-1.2,5.2-1.9,7.8c-0.7,2.4-0.1,3.6,2.2,4.3C283,161.6,284.5,161.7,285.3,161.9z M217.1,216c0.1,1,0.1,2.3,0.3,3.5
			c0.3,2,1.8,2.8,3.6,1.9c1.2-0.6,2.4-1.5,3.4-2.5c2.8-2.6,4.6-5.9,5.9-9.4c1.7-4.4,2.4-9,1.6-13.7c-0.3-1.5-0.8-3-1.5-4.5
			c-0.7-1.6-2.3-2-3.9-1.2c-0.6,0.3-1.2,0.8-1.8,1.3c-2.1,2-3.5,4.4-4.5,7.1C218.1,204.2,217.4,209.9,217.1,216z M293.2,164.6
			c0,0.1,0,0.1,0,0.2c-0.8,0-1.6,0-2.4,0c-2.2,0.1-3.4,1.6-2.8,3.7c0.4,1.3,1,2.7,1.8,3.8c2.7,3.9,6,7.1,10.1,9.5
			c3.1,1.8,6.4,3,10,2.9c2.2-0.1,3.4-1.2,3.3-3.3c0-1-0.2-2-0.6-2.9c-0.9-2.1-1.9-4.2-3.1-6.2c-2.3-3.7-5.7-6-10-6.8
			C297.5,165,295.3,164.9,293.2,164.6z M199.2,168.5c0-0.1,0-0.1,0-0.2c-2.4,0.4-4.8,0.7-7.1,1.3c-6.2,1.6-11,5.2-15,10.1
			c-0.6,0.8-1.2,1.6-1.6,2.5c-0.7,1.4-0.2,2.8,1.2,3.4c0.8,0.3,1.6,0.5,2.4,0.6c3.4,0.4,6.7,0.1,10-0.8c6.5-1.8,11-5.9,13.9-11.8
			c0.4-0.7,0.5-1.6,0.6-2.4c0.2-1.6-0.6-2.5-2.2-2.6C200.7,168.5,200,168.5,199.2,168.5z M285.5,213.4c0,0.6,0,1.3,0,1.9
			c0,0.3,0.1,0.6,0.2,0.9c1.2,4.7,4.3,7.2,8.9,8.1c2.8,0.6,5.2-0.2,7.3-2c2.1-1.9,2.9-4.3,2.1-7c-0.8-2.7-2.4-4.8-5.3-5.5
			c-2-0.5-4.4,0.7-5.1,2.5c-0.4,1-0.4,2,0.3,2.8c0.6,0.7,1.3,0.7,2.6,0.1c0.1-0.1,0.3-0.2,0.4-0.2c0.3,0,0.7,0,0.9,0.2
			c1.1,0.8,1.2,2.4,0.1,3.3c-0.6,0.5-1.4,0.8-2.1,0.9c-2.3,0.3-4.5-1.2-5.2-3.5c-0.9-2.6,0.4-6.7,2.6-8.2c1.4-1,2.9-1.4,4.6-1
			c2.2,0.6,4.2,1.6,5.8,3.3c0.5,0.5,1,1.1,1.6,1.5c1,0.7,2.2,0.6,3.1,0c0.9-0.7,1.3-1.8,0.9-3c-0.2-0.5-0.5-1.1-0.8-1.5
			c-1.7-2.3-3.9-4-6.5-5.1c-2.5-1-5.1-1.3-7.7-0.6C288.9,202.8,285.5,207.6,285.5,213.4z M311.5,283.1c0-1.4,0.1-2.7,0-4.1
			c-0.1-1.3-0.9-2-1.9-2.2c-0.9-0.1-1.9,0.5-2.3,1.8c-0.4,1-0.6,2.1-0.8,3.2c-1.2,7.2-1.5,14.4-1.9,21.6c-0.2,4.6-0.5,9.2-0.7,13.8
			c0,0.6,0,1.3,0.2,1.9c0.7,2,2.9,2.4,4.4,0.9c0.7-0.7,1-1.6,1.1-2.6c0.3-5.3,0.7-10.7,1-16C310.8,295.3,311.1,289.2,311.5,283.1z
			 M325.3,329.1c0.1,0,0.1,0,0.2,0c0,2,0,4.1,0,6.1c0,0.2,0,0.4,0,0.6c0.3,2.8,2.6,4.3,5,2.7c1.9-1.3,3.9-2.5,5.7-4
			c2.2-1.7,2.6-3.7,1.2-6.1c-1.4-2.5-2.9-5-4.5-7.4c-0.4-0.7-1-1.3-1.5-1.8c-1-1-2.3-1.3-3.7-0.8c-1.3,0.5-1.9,1.6-2,2.9
			C325.7,324,325.5,326.6,325.3,329.1z M60.6,157.3c0.2,1.3,0.4,3.6,1,5.8c1.2,4.8,3.3,9,6.9,12.5c0.4,0.4,1,0.8,1.5,1.1
			c0.9,0.4,1.8,0.3,2.5-0.4c0.7-0.7,0.9-1.6,0.5-2.5c-0.2-0.5-0.5-0.9-0.8-1.3c-0.6-0.7-1.2-1.4-1.8-2.2c-3.4-4.9-4.6-10.4-4.4-16.3
			c0.2-3.6,1-7.2,2.1-10.6c0.3-0.9,0.5-1.8,0.5-2.8c0-1.4-1.4-2-2.5-1.2c-0.4,0.3-0.8,0.7-1.1,1.1c-0.7,1.1-1.3,2.1-1.8,3.3
			C61.4,147.9,60.8,152.1,60.6,157.3z M320.4,182.3C320.4,182.3,320.5,182.3,320.4,182.3c0.1,1.6,0.1,3.3,0.1,4.9c0,0.7,0,1.4,0.1,2
			c0.2,1.3,1.3,2.3,2.4,2.4c1.2,0.1,2.3-0.7,2.7-2c0.1-0.4,0.2-0.9,0.2-1.4c0.2-3.6,0.5-7.2,0.7-10.8c0.3-5.3,0.5-10.6,0.7-15.9
			c0-1-0.1-2-0.4-2.9c-0.3-1.2-1.2-1.9-2.2-1.9c-1.2,0-2,0.7-2.4,1.7c-0.4,1.1-0.7,2.2-0.8,3.4C321.1,168.6,320.7,175.4,320.4,182.3
			z M312.9,324c-1.4,0.2-2.6,0.2-3.7,0.5c-2,0.4-3.1,1.8-3,3.8c0,0.8,0.1,1.6,0.3,2.3c0.8,2.7,1.7,5.3,2.6,7.9
			c0.2,0.6,0.6,1.2,1,1.8c1.2,1.6,3.1,1.8,4.7,0.6c0.6-0.5,1.2-1,1.7-1.7c2.1-2.9,3.5-6.2,4.5-9.6c0.5-1.5-0.1-2.8-1.3-3.7
			c-0.6-0.5-1.4-0.9-2.1-1C315.9,324.4,314.3,324.2,312.9,324z M97,127.5c0.3,0.4,0.5,0.5,0.6,0.7c0.5,0.6,1,1.1,1.9,0.8
			c0.8-0.3,1.2-1,1.2-1.8c0.1-1.4-0.9-2.8-2.4-3.4c-1.9-0.7-3.9,0.2-5.1,2.1c-1.5,2.5-1.1,5.7,1.1,8c1.9,2,4.7,2.5,7.4,1.1
			c3.4-1.7,5-4.7,5.1-8.3c0.2-5.2-3.5-8.7-8.6-9.2c-0.6-0.1-1.3,0.1-1.8,0.3c-1.1,0.4-1.6,1.3-1.5,2.3c0.1,0.9,0.9,1.6,2,1.7
			c0.4,0.1,0.8,0,1.3,0.1c3.2,0.5,5,3,4.4,6.1c-0.3,1.5-1.2,2.5-2.7,3c-1.2,0.4-2.1,0.3-2.7-0.5C96.4,129.6,96.3,128.7,97,127.5z
			 M172.6,212c-0.1-1.1-0.2-2-0.3-2.9c-0.6-4.2-2.7-7.5-6.2-9.8c-3.2-2-6.6-2.3-10-0.5c-1.4,0.7-2.4,1.9-2.9,3.4
			c-0.3,0.9-0.3,1.9,0.6,2.6c0.7,0.6,1.5,0.5,2.6-0.1c0.5-0.3,1.1-0.7,1.7-0.8c3.3-0.9,6.8,0.8,8.3,3.8c0.7,1.4,1.1,2.9,1,4.4
			c-0.1,1.1-0.4,2.3-0.6,3.4c-0.3,1.3,0.3,2.5,1.4,3c1.1,0.5,2.4,0.1,3.2-1c0.3-0.5,0.6-1,0.7-1.6
			C172.2,214.6,172.4,213.2,172.6,212z M301,340.4c2.7,0.1,4.3-1.6,4.1-4.1c-0.2-2-0.4-4.1-0.6-6.1c-0.2-1.7-0.5-3.3-0.9-4.9
			c-0.3-1.2-1.3-2-2.6-2.2c-1.3-0.2-2.3,0.4-3.1,1.5c-1.3,2-2.7,4-3.9,6.1c-0.6,1-1.2,2.1-1.6,3.2c-0.7,2-0.1,3.5,1.7,4.5
			C296.2,339.7,298.7,340.1,301,340.4z M174,323.9c0,0.1,0,0.1,0,0.2c-0.8,0-1.7-0.1-2.5,0c-3.3,0.3-4.8,2.4-4,5.7
			c0.7,2.9,2,5.6,3.6,8.2c0.1,0.2,0.3,0.4,0.5,0.6c2.5,2.3,4.6,2.2,6.4-0.5c1.7-2.6,2.9-5.4,4-8.3c0.8-2.1,0-3.9-2.1-4.8
			c-0.5-0.2-1-0.4-1.5-0.5C176.9,324.2,175.4,324.1,174,323.9z M234.8,343.4c4,0.1,5.3-1.4,5-4.4c0-0.2,0-0.3-0.1-0.5
			c-0.3-1.8-0.6-3.6-1-5.4c-0.3-1.5-0.7-3-1.2-4.4c-0.7-1.7-2.2-2.5-3.8-2c-1,0.3-1.7,1-2.2,1.9c-1.3,2.8-2.7,5.7-4,8.6
			c-0.3,0.6-0.4,1.3-0.5,2c-0.1,1.9,0.7,3,2.5,3.4C231.6,342.9,233.7,343.2,234.8,343.4z M249.3,327.2c-2.4,0.1-4.5,0.6-6.5,1.5
			c-1.9,0.8-2.6,2.4-2.1,4.4c0.1,0.6,0.3,1.1,0.6,1.6c1.9,2.8,3.7,5.6,5.7,8.3c0.7,1,1.8,1.6,3.1,1.3c1.4-0.3,2-1.4,2.4-2.7
			c0.1-0.3,0.1-0.5,0.2-0.8c0.2-1.1,0.4-2.2,0.5-3.3c0.2-2.1,0.6-4.2,0.7-6.3c0.1-2.2-1.3-3.7-3.4-4
			C250,327.2,249.5,327.2,249.3,327.2z M153,123.6c0.1,2.1-0.3,4-1.8,5.5c-1,1-2.2,1.4-3.6,1.2c-1.7-0.3-3.2-1-4.4-2.3
			c-0.6-0.6-1.2-1.3-1.8-2c-0.8-0.9-1.6-1-2.4-0.7c-0.8,0.4-1.3,1.3-1.1,2.4c0.1,0.6,0.4,1.2,0.6,1.8c2,3.7,5.2,5.5,9.3,5.8
			c2.2,0.2,4.2-0.5,5.9-1.9c3.4-2.8,4.7-6.6,4.3-10.9c-0.1-0.7-0.5-1.4-1-1.9c-1.3-1.4-3.3-0.9-3.8,0.9
			C153,122.2,153.1,122.9,153,123.6z M313.1,200.9c0.2,0.7,0.4,1.5,0.8,2.2c0.5,0.8,1,1.6,1.7,2.3c2.6,2.8,5.8,4.8,9.2,6.6
			c0.5,0.2,1,0.4,1.5,0.5c1.7,0.3,2.7-0.9,2.4-2.5c0-0.3-0.1-0.5-0.2-0.8c-1.3-3.9-3.5-7.3-6.6-10c-1.2-1.1-2.6-1.8-4.2-2
			C315.1,196.7,313.2,198.3,313.1,200.9z M101.8,99.6c0.3-0.1,0.7-0.1,1-0.2c1.1-0.3,1.4-1.3,0.6-2.2c-0.2-0.2-0.5-0.4-0.8-0.5
			c-1.5-0.7-3.2-0.1-4.1,1.6c-1,1.8-0.8,3.6,0.4,5.2c1.3,1.8,3,2.6,5.2,2.2c3.2-0.6,5.6-4.1,5.3-7.6c-0.4-3.9-3.4-6.9-7.3-7.4
			c-1.6-0.2-3.2,0.1-4.4,1.2c-0.6,0.6-1.2,1.4-1.4,2.2c-0.4,1.4,0.9,2.5,2.3,2c0.4-0.2,0.8-0.5,1.2-0.7c0.7-0.6,1.5-0.7,2.4-0.5
			c1.8,0.4,3,1.5,3.5,3.3c0.3,1.1,0,2.1-0.7,3c-0.5,0.7-1.2,0.9-1.9,0.6C102.1,101.4,101.8,100.7,101.8,99.6z M204.4,200.5
			c3.4,0,6.1-2.6,6.1-5.9c0-3.7-3-6.7-6.6-6.7c-3.2,0-5.7,2.6-5.7,6C198.2,197.5,200.9,200.5,204.4,200.5z M368.2,256.7
			c-0.1-1.3-0.1-3-0.3-4.6c-0.1-1-0.5-2-0.8-3c-0.3-0.9-1-1.5-2-1.5c-1.1,0-1.5,0.8-1.8,1.7c-0.1,0.4-0.3,0.9-0.4,1.4
			c-0.1,1.1-0.3,2.3-0.3,3.4c-0.1,4.7-0.2,9.4-0.2,14.2c0,1.1,0.2,2.1,1,2.9c0.9,1,2,1.1,3.1,0.2c0.9-0.7,1.2-1.7,1.3-2.8
			C367.8,264.8,368,260.9,368.2,256.7z M303.1,152.1c0,3.7,2.4,6.4,5.9,6.4c3.5,0,6.2-2.7,6.2-6.1c0-3.6-2.8-6.4-6.4-6.4
			C305.5,145.9,303.1,148.5,303.1,152.1z M307.6,240.3c2.2-0.2,3.8-0.3,5.3-0.5c1-0.1,1.9-0.5,2.4-1.6c0.4-1.1,0-2.1-1.3-2.9
			c-3.3-2-6.8-3.3-10.6-3.7c-1.3-0.1-2.6,0-3.9,0.5c-2.7,1.2-3.1,3.8-0.9,5.6c0.9,0.8,2.2,1.4,3.3,1.6
			C304,240,306.2,240.1,307.6,240.3z M338.2,175.5c0-2,0.1-3.6,0-5.2c-0.1-0.9-0.3-1.9-0.7-2.7c-0.4-0.9-1.1-1.4-2.1-1.3
			c-1,0.1-1.7,0.7-1.9,1.7c-0.2,1-0.4,2.1-0.4,3.1c-0.1,1.5-0.1,2.9-0.1,4.4c-0.2,3.5-0.3,7-0.5,10.5c0,0.6,0,1.2,0.2,1.7
			c0.3,1.2,1.4,2,2.4,2c1,0,2.1-0.7,2.5-1.8c0.2-0.5,0.3-1.1,0.3-1.7C338,182.5,338.1,178.8,338.2,175.5z M185.4,339.4
			c1-0.1,2-0.1,3-0.3c1.1-0.2,2.3-0.4,3.3-0.8c1.7-0.7,2.5-2.2,1.9-4c-0.7-2.1-1.6-4.2-2.5-6.3c-0.3-0.7-0.8-1.3-1.4-1.8
			c-1.3-1-2.9-0.7-3.8,0.7c-0.3,0.4-0.4,0.8-0.6,1.3c-1,2.3-1.9,4.5-2.8,6.8c-0.1,0.3-0.3,0.7-0.4,1c-0.4,1.7,0.4,3,2.2,3.3
			C184.6,339.4,185,339.4,185.4,339.4z M162.5,340c0,0,0-0.1,0-0.1c0.7,0,1.4,0,2-0.1c1.9-0.3,2.9-1.8,2.4-3.7
			c-0.5-2.1-1.1-4.3-1.8-6.4c-0.3-0.9-0.7-1.8-1.2-2.5c-1.4-1.9-3.7-1.6-4.7,0.4c-0.5,1.1-0.9,2.2-1.3,3.4c-0.5,1.4-1.1,2.9-1.4,4.3
			c-0.6,2.3,0.2,3.5,2.4,4.1C160.1,339.7,161.3,339.8,162.5,340z M368.2,238.2c-0.5-4.2-1.1-8.3-2.6-12.3c-0.4-1-1-2-1.6-2.9
			c-0.4-0.6-0.9-1.1-1.5-1.4c-1.4-0.9-3.1,0-3.2,1.7c-0.1,0.6,0,1.2,0.1,1.7c1.5,4.5,2.3,9.1,3.1,13.6c0.1,0.6,0.3,1.2,0.6,1.8
			c0.6,1.1,1.9,1.6,3,1.3c1-0.3,1.9-1.3,2-2.4C368.3,239,368.2,238.6,368.2,238.2z M179,146.8c-3.2,0-5.8,2.6-5.7,5.7
			c0.1,3.3,2.8,6.2,5.9,6.2c3.1,0,6-2.8,6-5.7C185.1,149.7,182.2,146.8,179,146.8z M245.6,213.1c2.7,0,4.4-1,5.4-2.8
			c2-3.5-0.9-8.7-4.5-9.2c-2.2-0.3-3.9,0.4-5.2,2.2c-1.4,1.9-1.6,4.1-0.5,6.2C242,211.8,243.7,213.1,245.6,213.1z M287.4,188.5
			c-3.3,0-5.4,2.2-5.3,5.8c0,3.5,2.4,6.2,5.6,6.1c3.1,0,5.8-2.8,5.8-5.9C293.5,191.1,290.9,188.5,287.4,188.5z M360.6,285.5
			c-0.1,0-0.2,0-0.3,0c0.4,3.9,0.8,7.8,1.2,11.7c0.1,1.1,0.5,2.1,1.4,2.9c1.2,1,2.6,0.8,3.2-0.6c0.4-0.9,0.5-2,0.4-2.9
			c-0.6-4.9-1-9.8-1.1-14.8c0-0.7-0.2-1.4-0.4-2c-0.3-1-1-1.6-2-1.7c-0.9-0.1-1.8,0.6-2.1,1.6c-0.2,0.6-0.4,1.3-0.4,2
			C360.6,283,360.6,284.3,360.6,285.5z M196.2,191.2c0.1-2.2-0.9-3.1-2.7-2.7c-1.1,0.2-2.1,0.6-3.2,0.9c-1.8,0.6-3.6,1.2-5.3,1.9
			c-1.6,0.7-2.1,1.7-1.4,3.3c1,2.3,2.5,4.3,4.5,5.8c1,0.8,1.9,0.7,2.8-0.1c0.3-0.2,0.6-0.5,0.7-0.8c1.3-2.2,2.7-4.4,3.9-6.6
			C196,192.3,196.1,191.5,196.2,191.2z M184.2,272.5c0,0,0,0.1,0,0.1c-0.7,0.1-1.5,0-2.2,0.2c-1.1,0.2-1.9,1.1-2,2.1
			c-0.1,0.9,0.4,2,1.4,2.4c0.8,0.3,1.6,0.6,2.4,0.7c3.1,0.4,6.2,0.8,9.4,1.2c1.4,0.2,2.8,0.3,4.2,0.4c1.5,0.1,2.7-0.9,2.9-2.2
			c0.2-1.2-0.8-2.5-2.2-2.8c-0.3-0.1-0.5-0.1-0.8-0.1c-0.9-0.1-1.9-0.3-2.8-0.4C191,273.5,187.6,273,184.2,272.5z M259.2,233.1
			c-0.6,0.1-1,0.1-1.4,0.2c-0.9,0.2-1.6,0.8-1.8,1.7c-0.2,0.9,0.2,1.6,0.9,2.1c0.5,0.4,1.1,0.7,1.6,0.9c2.7,1,5.4,2,8.1,3
			c1.8,0.7,3.6,1.5,5.4,2.2c1.5,0.6,2.9,0.2,3.5-0.8c0.6-1.1,0.1-2.5-1.2-3.5c-0.3-0.2-0.7-0.5-1.1-0.7c-0.8-0.4-1.6-0.9-2.4-1.2
			c-2.9-1.1-5.9-2.2-8.9-3.2C261.1,233.4,260.1,233.3,259.2,233.1z M316,315.5c0.4-0.1,1-0.2,1.6-0.3c0.6-0.1,1.2-0.4,1.8-0.5
			c3.5-0.8,7-1.6,10.5-2.6c0.9-0.2,1.8-0.7,2.4-1.3c1.3-1.2,0.8-3.1-0.8-3.7c-0.8-0.3-1.7-0.3-2.5-0.2c-2.4,0.4-4.8,0.9-7.2,1.6
			c-2.5,0.7-4.9,1.7-7.2,2.6c-1.3,0.5-1.7,1.5-1.5,2.6C313.5,314.8,314.5,315.5,316,315.5z M283.2,241.1c0,0.1,0,0.1-0.1,0.2
			c-0.4,0-0.8,0-1.2,0.1c-1.5,0.4-2,1.8-1.1,3.1c0.3,0.4,0.7,0.8,1.2,1.1c0.8,0.5,1.7,1,2.6,1.5c2.2,1.2,4.4,2.4,6.6,3.7
			c1.2,0.7,2.4,1.5,3.7,2.2c1.5,0.8,3,0.6,3.7-0.4c0.7-1,0.3-2.5-1-3.6c-3.2-2.4-6.4-4.8-10.1-6.4
			C286.1,241.9,284.6,241.6,283.2,241.1z M162.3,184.2c0,0.1,0,0.1,0,0.2c1.4-0.3,2.8-0.5,4.1-1c1.7-0.6,2.2-2.1,1.5-3.7
			c-0.8-1.8-1.5-3.6-2.3-5.3c-0.4-0.9-0.9-1.8-1.6-2.5c-1.6-1.7-4-1.1-4.7,1.1c-0.1,0.4-0.2,0.8-0.2,1.2c-0.3,2.3-0.6,4.6-0.7,6.9
			c-0.1,1.9,1,2.9,2.8,3.1C161.6,184.1,162,184.1,162.3,184.2z M255.8,333.5C255.9,333.5,255.9,333.5,255.8,333.5c0,1.2,0,2.3,0,3.5
			c0,0.7,0.1,1.4,0.3,2c0.5,1.5,1.9,2.2,3.4,1.6c2-0.8,3.8-2.1,5.1-3.8c1-1.2,1.1-2.7,0.1-3.9c-1.4-1.8-2.9-3.4-4.4-5.1
			c-0.8-0.9-1.9-1.2-3-0.7c-1.2,0.5-1.6,1.6-1.5,2.8C255.9,331.1,255.8,332.3,255.8,333.5z M144.6,182.2c0,0,0.1,0,0.1,0
			c0,1.4-0.2,2.9,0,4.2c0.3,1.9,1.6,3.3,4,2.1c1.4-0.7,2.9-1.5,4.2-2.4c1.8-1.1,2.1-2.7,0.9-4.4c-1.2-1.7-2.6-3.3-4-4.8
			c-0.5-0.5-1.2-0.9-1.8-1.1c-1.3-0.5-2.6,0.2-3,1.5c-0.2,0.6-0.3,1.3-0.3,2C144.5,180.2,144.6,181.2,144.6,182.2z M237.8,230.5
			c-2.2,0.2-3.9,0.3-5.5,0.5c-0.6,0.1-1.1,0.2-1.6,0.5c-1.5,0.9-1.4,2.6,0.1,3.4c0.6,0.3,1.4,0.5,2.1,0.5c2.4,0.2,4.7,0.2,7.1,0.4
			c2.5,0.2,4.9,0.4,7.4,0.6c0.7,0.1,1.5,0.1,2.2,0c1.8-0.4,2.3-2.2,0.9-3.5c-0.7-0.6-1.6-1-2.5-1.2
			C244.4,231.2,240.8,230.9,237.8,230.5z M321.6,275.4c0.1,0,0.1,0.1,0.2,0.1c0,0.3,0,0.5,0,0.8c0,0.3,0.1,0.5,0.2,0.8
			c0.7,2.4,2.8,3.2,4.9,1.9c0.7-0.5,1.4-1.1,2-1.7c2.2-2.5,3.1-5.7,3.8-8.9c0.4-1.7-1.1-3-2.8-2.5c-0.7,0.2-1.4,0.5-2,0.9
			c-2,1.5-3.9,3.3-5.2,5.4C322.3,273.2,322,274.4,321.6,275.4z M190.2,226.9c2.3-0.3,4.8-0.8,7-2c0.5-0.3,1-0.7,1.3-1.1
			c0.8-1,0.9-2.6-0.1-3.4c-1.7-1.4-3.5-2.8-5.4-3.8c-2-1.1-3.9-0.2-4.7,1.9c-0.6,1.6-1,3.2-1.2,4.9
			C186.9,225.4,188.2,227,190.2,226.9z M193.9,202.4c0,0.1,0,0.2-0.1,0.3c-0.5,0-1.1-0.1-1.6,0c-2.1,0.2-3.5,1.4-3.7,3.2
			c-0.2,1.9,0,3.8,0.7,5.5c0.6,1.4,2,2,3.4,1.4c2.7-1.2,5.1-2.9,7.2-5c1.5-1.5,0.9-3.6-1.1-4.3C197.2,203.1,195.5,202.8,193.9,202.4
			z M185.1,263.2c0,0,0,0.1,0,0.1c-0.2,0-0.3,0-0.5,0c-1.5,0.1-2.4,0.8-2.6,1.9c-0.2,1.1,0.4,2.1,1.7,2.7c0.6,0.3,1.2,0.5,1.8,0.6
			c3.8,0.7,7.5,1.3,11.3,1.9c0.6,0.1,1.3,0,1.8-0.3c1.9-0.7,2.3-2.8,0.7-4.1c-0.6-0.5-1.4-0.8-2.1-0.9c-1.8-0.4-3.6-0.7-5.4-0.9
			C189.5,263.8,187.3,263.5,185.1,263.2z M317.8,305.6c0.7-0.1,1.3-0.1,1.8-0.2c2.6-0.6,5.2-1.2,7.8-1.9c1.3-0.3,2.5-0.8,3.7-1.2
			c1.1-0.4,1.8-1.2,1.8-2.5c0-1.7-1.6-2.8-3.5-2.3c-3.9,1.1-7.9,2.2-11.8,3.3c-0.6,0.2-1.3,0.5-1.8,0.9c-1.3,1.1-1,3,0.6,3.6
			C316.9,305.5,317.4,305.6,317.8,305.6z M220.9,235.9c1.7,0.1,3-0.7,3.3-2c0.3-1.2-0.5-2.4-1.8-3c-0.5-0.2-1.1-0.4-1.7-0.5
			c-3.1-0.6-6.2-1.3-9.2-1.9c-1-0.2-2-0.2-3-0.2c-0.9,0-1.6,0.5-1.9,1.4c-0.3,1,0.1,1.8,1,2.3c1,0.6,2,1.1,3.1,1.4
			c2.2,0.6,4.5,1.1,6.7,1.6C218.7,235.5,219.9,235.7,220.9,235.9z M186.5,236.8C186.5,236.8,186.5,236.7,186.5,236.8
			c0.8-0.1,1.6,0,2.4-0.1c2.1-0.2,3.1-2.1,2.1-3.9c-0.7-1.2-1.4-2.3-2.2-3.4c-0.5-0.6-1.1-1.1-1.7-1.6c-1.2-0.8-2.1-0.8-3.2,0.2
			c-1.5,1.3-2.8,2.8-3.7,4.7c-0.9,1.9-0.1,3.4,2,3.7C183.5,236.6,185,236.6,186.5,236.8z M351.8,212.3c0.2,0.7,0.2,1.6,0.6,2.2
			c0.6,1.2,2,1.4,3.1,0.6c0.2-0.2,0.4-0.3,0.6-0.5c1.5-2.1,2.9-4.2,4.3-6.4c0.4-0.6,0.5-1.4,0.6-2.1c0.2-2.5-2.1-4.1-4.4-3.3
			c-1.3,0.4-2.1,1.3-2.7,2.5C352.7,207.5,352.1,209.8,351.8,212.3z M178.7,128.1c0-0.6,0-1.1-0.1-1.5c-0.2-1-0.9-1.8-1.8-1.9
			c-1-0.2-1.9,0.2-2.4,1.2c-0.3,0.5-0.4,1.2-0.5,1.8c-0.5,2.1-0.9,4.2-1.5,6.3c-0.4,1.4-0.9,2.8-1.3,4.2c-0.4,1.6,0.1,2.7,1.3,3.2
			c1.1,0.4,2.1-0.1,2.9-1.6C177.3,136.1,178.2,132.1,178.7,128.1z M187.6,306.8c0.3,0,0.6-0.1,1-0.2c2.2-0.5,3.7-2.3,3.8-4.5
			c0.1-2.1-1.5-4.5-3.7-5.2c-2.4-0.8-4.8,0.3-5.7,2.5c-1.2,2.8,0.9,6.7,3.9,7.2C187.1,306.7,187.3,306.7,187.6,306.8z M155.9,156.1
			c0.7-0.1,1.3-0.2,2-0.4c3.1-0.8,5.8-2.5,8.3-4.3c0.5-0.3,0.8-0.8,1.1-1.3c0.5-0.8,0.6-1.7,0-2.5c-0.6-0.9-1.5-1.2-2.5-0.9
			c-0.9,0.3-1.8,0.6-2.6,1.1c-2.2,1.3-4.3,2.6-6.8,3.3c-0.2,0.1-0.5,0.2-0.7,0.3c-1.5,0.7-2.1,1.8-1.8,3
			C153.3,155.4,154.3,156,155.9,156.1z M81.4,186.8c0,2.1,1.5,4.3,3.6,5.1c2.4,0.9,5.1-0.4,5.9-2.9c0.7-2.4-0.7-5.2-3.1-6.4
			C84.7,181.3,81.4,183.4,81.4,186.8z M128.1,189.4c-2.5-0.1-4.6,1.9-4.7,4.4c-0.1,2.7,2.3,5.3,4.9,5.4c2.4,0.1,4.7-2.1,4.7-4.6
			C133.1,192,130.6,189.4,128.1,189.4z M112,115c0-2.8-2.1-5.2-4.7-5.3c-2.4-0.1-4.6,2.1-4.6,4.6c0,2.6,2.3,5,4.8,5.1
			C110,119.5,112,117.5,112,115z M197.9,261.3c2.5,0,4.6-2,4.6-4.5c0-2.6-2.6-5-5.4-4.9c-2.3,0.1-4.2,2.1-4.2,4.5
			C193,259.1,195.3,261.3,197.9,261.3z M182.3,315.9c0,1.4,0.5,2.7,1.4,3.7c1.2,1.4,2.8,1.8,4.6,1.2c1.7-0.5,2.8-2.1,3-3.9
			c0.1-1.6-0.5-3-1.6-4.1c-1.3-1.4-3.4-1.9-4.9-1.2C183,312.5,182.3,314,182.3,315.9z M193,288.6c0-2.6-2.2-4.9-4.7-4.9
			c-2.4,0-4.3,1.9-4.3,4.4c0,2.7,2.1,5,4.6,5C190.9,293.2,193,291.1,193,288.6z M116.7,197c1.6,0,2.8-0.8,3.6-2.1
			c1.3-2,0-6.3-2.4-7.1c-1.2-0.4-2.4-0.4-3.5,0.2c-1.8,1-2.7,3.2-2.2,5.3C112.8,195.5,114.6,197,116.7,197z M190.5,254.4
			c0-1.8-1-3.6-2.4-4.5c-2.4-1.6-5.3-0.5-6.2,2.2c-0.5,1.8,0.1,3.3,1,4.7c1.2,1.7,2.9,2.4,4.6,1.8
			C189.3,258.1,190.5,256.4,190.5,254.4z M225.4,280.9c0.1-1.4-0.6-2.7-1.6-3.9c-1-1.1-2.3-1.7-3.8-1.3c-1.6,0.4-2.6,1.4-3,2.9
			c-0.7,2.3,0.6,5.1,2.7,6.1C222.4,286.1,225.4,284.2,225.4,280.9z M221.5,295.6c2.3-0.5,4.9-1.2,7.2-2.6c1.3-0.7,1.7-2.2,1.2-3.4
			c-0.4-1.2-1.9-2.1-3.3-1.9c-2.5,0.4-4.7,1.3-6.8,2.7c-0.3,0.2-0.6,0.5-0.8,0.8c-0.7,0.9-1,1.9-0.4,2.9
			C219.1,295.2,220,295.5,221.5,295.6z M144.3,156.8c1.3-0.2,2.4-0.3,3.4-0.6c1-0.3,1.6-1.3,1.6-2.3c0-1-0.7-1.8-1.8-2.1
			c-0.5-0.1-1-0.1-1.5-0.2c-0.9,0-1.9,0-2.8-0.1c-1.7-0.2-3.4-0.5-5.1-0.8c-0.5-0.1-0.9-0.1-1.4-0.1c-0.8,0.1-1.5,0.5-1.8,1.4
			c-0.3,0.8,0,1.6,0.6,2.1c0.8,0.6,1.7,1.1,2.6,1.4C140.2,156.1,142.4,156.4,144.3,156.8z M312.4,264.7c-0.1-0.3-0.3-1-0.7-1.5
			c-1.2-1.5-2.4-3.1-3.7-4.5c-1-1.1-2.1-2-3.3-2.9c-0.6-0.4-1.3-0.7-2-1c-0.8-0.3-1.6-0.1-2.2,0.5c-0.5,0.6-0.6,1.5,0,2.3
			c0.5,0.7,1,1.3,1.7,1.9c2.1,1.9,4.3,3.7,5.9,6c0.4,0.6,1.1,1,1.7,1.3C311.2,267.4,312.4,266.5,312.4,264.7z M131.9,148.4
			c0-0.9-0.4-1.5-1.3-2.4c-1.4-1.5-2.7-3-4.1-4.5c-0.4-0.4-0.8-0.9-1.2-1.2c-0.8-0.6-1.7-0.8-2.6-0.2c-0.8,0.5-1.2,1.5-1,2.6
			c0.1,0.5,0.3,1,0.5,1.5c1.3,2.4,3.1,4.3,5.3,6c0.7,0.6,1.6,0.8,2.5,0.7C131.2,150.5,132,149.6,131.9,148.4z M224.2,304.8
			c2.3-0.6,5-1.2,7.4-2.4c0.7-0.4,1.2-1,1.3-1.9c0.3-1.9-1.3-3.6-3.3-3.1c-2.1,0.5-4.1,1.2-6.1,2c-0.6,0.2-1.1,0.6-1.6,1
			c-0.8,0.8-1.1,1.8-0.6,2.9C221.7,304.2,222.7,304.8,224.2,304.8z M152.6,160.3c-2.4-0.1-4.3,1.7-4.3,4c0,2.4,2.1,4.7,4.4,4.7
			c2.3,0,4.1-1.9,4.2-4.2C157,162.3,155.1,160.4,152.6,160.3z M120,149.5c0-2.4-1.9-4.5-4.1-4.6c-2.6,0-4.4,1.7-4.4,4.1
			c0,2.5,1.9,4.5,4.3,4.5C118.1,153.5,119.9,151.7,120,149.5z M95,91.2c0-2.4-1.8-4.4-4.1-4.5c-2.4-0.1-4.4,1.9-4.4,4.1
			c0,2.3,2,4.3,4.3,4.4C93.1,95.2,95,93.5,95,91.2z M130.1,157.7c0-0.2,0-0.6-0.1-1c-0.5-1.7-1.5-3-3.3-3.4
			c-1.5-0.3-2.8,0.3-3.7,1.4c-1.4,1.7-1.2,4.3,0.5,6c1.2,1.2,2.8,1.6,4.3,0.9C129.2,161,130.1,159.6,130.1,157.7z M135.6,162.9
			c0,1.5,0.9,3.1,2.2,4c2.2,1.5,4.9,0.6,5.8-1.9c0.7-1.8-0.1-3.3-1.2-4.6c-1.2-1.4-2.5-1.9-4-1.3
			C136.7,159.6,135.6,161.1,135.6,162.9z M218.4,263.2c-2.1,0-3.9,1.7-3.9,3.9c-0.1,2.6,1.7,4.7,4,4.8c2.2,0.1,4.1-1.8,4.2-4.1
			C222.7,265.4,220.7,263.2,218.4,263.2z M348.7,186.3c0.1,0,0.1,0,0.2,0c-0.2-1.7-0.3-3.3-0.6-5c-0.3-1.2-1.2-1.9-2.2-1.8
			c-1,0-1.9,0.7-2.1,2c-0.5,2.8-0.5,5.5,0,8.3c0.2,1.3,1.5,2.2,2.6,2.1c1.2-0.1,2.1-1.1,2.1-2.5
			C348.7,188.3,348.7,187.3,348.7,186.3z M189,136.6c0-2.3-2-4.3-4.3-4.3c-2.1,0-3.8,1.6-3.8,3.8c0,2.5,1.9,4.5,4.1,4.6
			C187.2,140.6,189,138.8,189,136.6z M166.2,158.1c-2.1-0.1-3.7,1.4-3.8,3.5c-0.1,2.4,1.8,4.4,4.1,4.5c2.2,0.1,4.1-1.7,4.1-3.9
			C170.7,160,168.8,158.2,166.2,158.1z M78,187c0-2.3-2-4.3-4.5-4.3c-2.1,0-3.6,1.6-3.7,3.7c0,2.3,2,4.4,4.3,4.4
			C76.3,190.9,78,189.2,78,187z M235,315.8c0-2.3-2-4.5-4.2-4.6c-2,0-3.7,1.7-3.7,3.7c0,2.4,2,4.5,4.3,4.5
			C233.5,319.5,235,317.8,235,315.8z M321.9,292.7c0-2.6-2-3.9-4.3-4.1c-1.9-0.1-3.4,1.5-3.4,3.6c0,2.4,1.7,4.3,3.9,4.3
			C320.2,296.5,321.9,294.8,321.9,292.7z M328.2,286.6c-2.1-0.1-3.6,1.3-3.7,3.4c-0.1,2.1,1.6,4,3.7,4.2c2.1,0.1,4-1.7,4-3.8
			C332.3,288.2,330.6,286.6,328.2,286.6z M249.5,226.1c-0.1,2.1,1.5,3.8,3.7,3.8c2,0.1,3.7-1.5,3.8-3.4c0.1-2-1.6-4-3.6-4
			C251.6,222.6,249.5,223.6,249.5,226.1z M282.6,234.5c0-2-2-4-3.9-4c-1.9,0-3.5,1.7-3.5,3.6c0,2,1.7,3.8,3.6,3.9
			C280.8,238,282.6,236.3,282.6,234.5z M232.3,224.7c0.1-2-1.5-3.8-3.4-4c-1.9-0.1-3.6,1.5-3.7,3.3c-0.1,2.1,1.5,3.8,3.7,3.9
			C230.7,228.1,232.2,226.6,232.3,224.7z M112.7,197.9c0-2-1.5-3.7-3.3-3.7c-1.5,0-2.6,1.4-2.6,3.1c0,1.8,1.4,3.4,3.2,3.4
			C111.5,200.8,112.7,199.6,112.7,197.9z M67.2,185c0-1.5-1.2-2.8-2.8-2.8c-1.4,0-2.5,1.1-2.5,2.5c0,1.7,1.1,3,2.6,3
			C65.9,187.7,67.2,186.5,67.2,185z"/>
		<path class="st50" d="M313.4,334.8c-0.6-1.7-1.1-3.4-1.8-5.2c1.6-0.3,2.9-0.2,4.4,0.2c-0.5,1.9-1.4,3.5-2.3,5.1
			C313.6,334.8,313.5,334.8,313.4,334.8z"/>
		<path class="st50" d="M177.4,329.4c-0.9,1.8-1.7,3.3-2.6,5.1c-1.2-1.8-1.8-3.4-2.3-5.4C174.2,329.2,175.7,329.3,177.4,329.4z"/>
		<path class="st50" d="M246.1,332.7c1.1-0.2,2.1-0.3,3.3-0.5c-0.2,1.6-0.3,3-0.5,4.7C247.6,335.5,246.9,334.1,246.1,332.7z"/>
	</g>
</g>
</svg>
