<?xml version="1.0" encoding="utf-8"?>
<!-- Generator: Adobe Illustrator 22.0.1, SVG Export Plug-In . SVG Version: 6.00 Build 0)  -->
<svg version="1.1" id="Calque_1" xmlns="http://www.w3.org/2000/svg" xmlns:xlink="http://www.w3.org/1999/xlink" x="0px" y="0px"
	 viewBox="0 0 432 432" style="enable-background:new 0 0 432 432;" xml:space="preserve">
<style type="text/css">
	.st0{fill:#1A1A1A;}
	.st1{fill:#46B3AF;}
	.st2{fill:#4C87C2;}
	.st3{fill:#89A667;}
	.st4{fill:#90952B;}
	.st5{fill:#3D3611;}
	.st6{fill:#A3936E;}
	.st7{fill:#693C6B;}
	.st8{fill:#7C5E82;}
	.st9{fill:#421653;}
	.st10{fill:#E6E6E6;}
	.st11{fill:#EDD1D1;}
	.st12{fill:#B1956B;}
	.st13{fill:#F2F2F2;}
	.st14{fill:#FFFFFF;}
	.st15{fill:#E6A8A1;}
	.st16{fill:#F0A967;}
	.st17{fill:#36302B;}
	.st18{fill:#E3AAB7;}
	.st19{fill:#CF8495;}
	.st20{fill:#DF7087;}
	.st21{fill:#91AF27;}
</style>
<g>
	<g>
		<g>
			<path class="st16" d="M180.5,278.7c1.4-0.9,3.9-0.6,8.4-2.5c0.3-0.1,0.5-0.4,0.4-0.8c-0.1-0.4-0.5-0.4-0.8-0.4
				c-0.5,0.1-0.9,0.2-1.4,0.3c-2,0.5-6.7,1.2-8.7,1.7c-1.5,0.4-1.5,0.4-2.3-1c-0.6-1-0.9-2.1-1.2-3.1c-2.8-9-5.6-18-8.5-26.9
				c-1.9-5.9-4-11.8-5.9-17.7c-2.5-7.9-4.3-15.9-4.5-24.2c-0.1-2.7-0.4-5.3-1.2-7.8c-1.5-5-2.2-10.1-2.7-15.3c-0.9-9-2.2-18-3.4-27
				c-0.4-2.6-0.6-5.2-0.9-7.8c-0.3,0.4-0.7,0.7-1.1,1c-0.6,0.4-1.2,0.5-2,0.5c-0.6,0-1.4-0.3-2.2-0.7c-0.2-0.1-0.4-0.2-0.6-0.3
				c1.2,14.1,1.7,28.2,1.6,42.4c0,2.6-0.1,5.2-0.4,7.7c-0.5,5.1-0.2,10.2,0.8,15.2c1.3,6.4,1.5,12.9,1.6,19.4
				c0.2,10.5,0.3,21.1,0.6,31.6c0.1,4.3,0.4,8.6,0.3,12.9c0,1.6,0.7,2.7,2.3,3.3c4,1.5,8,3.1,11.9,5.1c0.2,0.1,0.4,0.2,0.5,0.2
				c0.5,0.2,1,0.5,1.4-0.1c0.4-0.6,0.1-1.1-0.4-1.6c-0.5-0.5-5.8-2.9-7.5-4c1.7,0.5,8.7,3.2,10.1,3.6c0.6,0.2,1.2,0.4,1.5-0.3
				c0.4-0.8-0.2-1.2-0.9-1.5c-3.9-1.3-6.7-2.1-9.6-3.3c7.9-0.7,8-0.3,11-0.5c0.5,0,0.9-0.3,0.9-0.9c0-0.5-0.3-0.7-0.7-0.8
				c-0.5-0.1-1.1-0.1-1.6-0.1c-4.6,0.1-9.3,0.2-13.9,0.3c-1.7,0-1.7,0-1.7-1.7c-0.2-9.2-0.4-18.3-0.7-27.5
				c-0.3-6.8-0.8-13.6-1.1-20.5c-0.2-5.4,0-10.7,0.7-16.1c0.3-2.5,0.5-5,0.4-7.5c0.3,2.2,0.9,4.4,1.6,6.5c4,11.6,8.2,23.1,11.9,34.8
				c3.7,11.8,7.5,23.5,10.9,35.3c0.4,1.5,1.4,2.4,2.8,2.8c16.3,4.8,11.9,1.6,11.7,1.5c-1.2-0.8-6.3-1.7-7.8-2.7c1.6-0.3,5.5,0,6.7,0
				c0.9,0,1.7,0.1,2.6,0.1c0.4,0,0.8-0.2,0.9-0.6C190.7,278.1,184,278.8,180.5,278.7z M148.7,195.9c-0.4-2.9-0.5-5.8-0.7-8.7
				c-0.3-6-0.6-12.1-0.9-18.1c0.7,6.4,1.3,12.7,1.8,19.1c0.2,2.5,0.1,5-0.1,7.6c0,0.4,0,0.9-0.1,1.3
				C148.8,196.7,148.7,196.3,148.7,195.9z"/>
			<g>
				<path class="st16" d="M255.4,92.4c-2.7-4-6.2-7.3-9.7-10.5c0,1.2-0.1,2.4-0.4,3.6c-0.7,3.3-2.5,6.4-5.3,8.3c1,0.7,2.1,1.7,3.5,3
					c1.7,1.6,1.3,1.8,4.7,16.7c0.7,3,1.2,6.8,2.8,8.2c1.3,1.2,2-0.6,2.4-2.3c1-4.2,1.8-8.4,2.4-12.7
					C256.7,99.4,257.9,96.3,255.4,92.4z"/>
				<g>
					<path class="st17" d="M250.9,121.7c1.3,1.2,2-0.6,2.4-2.3c1-4.2,1.8-8.4,2.4-12.7c0.1-0.8,0.2-1.6,0.3-2.3c-0.1,0-0.2,0-0.3,0
						c-1.3,0.3-2.3,1.4-3.6,1.9c-1,0.4-2.1,0.4-3.1,0.4c-0.8,0-1.5,0-2.2,0.2c0.4,1.8,0.9,3.9,1.5,6.5
						C248.8,116.5,249.3,120.3,250.9,121.7z"/>
				</g>
			</g>
			<path class="st18" d="M239.8,72.1c-2.9-3.1-6.3-5.3-10.5-6.2c-13.5-3.1-29.5,0.5-35.1,13.2c-5.9,13.1-0.2,21.6,1.4,45.1
				c0.2,2.5-0.1,4.9-1.2,7.2c-1.7,3.5-6.4,2.3-7.5-1.7c-1.8-6.6,6.8-23.3-7.7-39.1c-20-21.8-95.7-18.4-106.4,61.8
				c-0.1,0.4,0.1,0.8,0.5,1c1.9,0.8,1-3,8.5-12c0.3-0.3,0.5-0.7,1.1-0.7c-0.2,1.2-0.6,2.8-0.7,4.6c0,0.6-0.1,1.4,0.7,1.7
				c1.8,0.6,1.3-3.9,8.4-9.9c-0.1,1.3-0.4,2.2-0.4,3.2c0.1,0.9,1,1.1,1.4,0.5c3.8-5.5,8-9.1,14.8-10.1c10.2-1.4,18.7-0.9,26.7,5.4
				c7.6,5.9,7.3,8.3,10.1,9.4c2.4,1,3.1-0.7,4.2-3.1c3.1-6.9,11.6-9.9,15.9-9.1c15.1,3,17.3,16.8,32.5,14.4
				c25.1-3.9-1-39.5,9.9-56.7c3-4.8,8.8-6.4,13.9-3.9c4,2,6.7,5,10.4,6.2C242,96.9,248.5,81.4,239.8,72.1z M235.8,79.1
				c-3.1,1.3-5.1,0.6-6.2-0.2c0,0-0.1-0.1-0.1-0.1c-1.6-1.2-2.3-3.2-2.2-4.5c0-0.6,0.5-1,1.1-0.9c0.6,0,1,0.5,0.9,1.1
				c0,0.6,0.4,2,1.5,2.8c1.1,0.8,2.5,0.7,4.3,0c0.5-0.2,1.1,0,1.3,0.5C236.6,78.3,236.3,78.9,235.8,79.1z"/>
			<path class="st19" d="M120.9,97.3c1.2,0,2.7-0.5,5.1-2.2c27.2-19.4,40-0.4,42.4,5.5c5,12.7-22.9,23.3-29.1,25
				c-0.3,0.1-0.6,0.1-0.9,0.2c-2.9,0.4,2.8-2.4,5.8-10.8c-1.1,0.2-2.2,1.1-4.5,2c-2.7,1-12.2,3.3-13.4,0.5c-0.6-1.5,2.5,1.1,6.4-3
				c1.6-1.7,3.1-3.8,3.7-4.7c-16.4,2.1-16.7-1.1-13.8-0.8c4.6,0.5,7.2-3.5,9.9-8.3C121.2,101.4,117.2,97.2,120.9,97.3z"/>
		</g>
		<g>
			<path class="st16" d="M310,282.8c-4.1-4.6-4.3-4.9-21.6-28.9c-0.9,0.9-1.8,1.8-2.8,2.3c0.1,0.1,13.1,17.2,14.4,18.8
				c4.7,5.7,8.8,10.6,7.1,17.3c-1.5,5.6-0.9,7.7-2.4,11.7c-11.9,32.5-9.5,24.9-16.7,43.1c-0.7,1.9-1.6,1.1-6.3,2.3
				c0-5.9-0.1-38.2,1.6-44c2.8-9.6-0.6-12.9,0.1-23.1c0.7-10.2,0.4-18.4,0.4-25.4c-0.2-0.1-1.7,0.8-4.6-1.8c0.1,3.8,1,8.3,0.2,29.5
				c-0.2,6.5-3,10.4-1.2,19.5c1.8,9.2,0.8,14,1,46c-3.2,1-5,1.4-4.4,2.7c0.6,1.4,1.5,0.6,4.4-0.2c0,0.3,0,0.6,0,0.9
				c-3.2,2.4-3.7,2.6-3.3,3.4c0.4,0.8,1,0.3,3.3-0.9c0.1,4.2,1.5,2.6-10.6,2c-1.5-0.1-1.7,1.8-0.3,2.2c2.1,0.7,2.9,0.4,4,0.9
				c-4.3,1.6-3.9,1.3-6.6,3c-0.6,0.4-1,0.8-0.7,1.6c0.5,1,1,0.5,6.5-1.1c-0.2,0.9-1.5,1.2-0.8,2.2c0.4,0.5,0.8,0.3,1.3,0.1
				c10.1-5.2,9.9-3.2,9.9-7.7c0.5,0.2,0.9-0.3,1.2-0.6c8.9-9,5.3-5.7,8.2-12.7c11.8-28.4,14.5-38.1,18.8-44.6
				c1.5-2.2,2.3-4.7,2.8-7.3C313.9,289.7,312.9,286.1,310,282.8z M281.9,356.8c0-0.7-0.1-1.4-0.1-2c0.8-0.4,1.7-0.9,2.6-1.4
				C284.2,354.1,282.8,355.4,281.9,356.8z"/>
			<path class="st18" d="M360.5,248c-2.3-1.1-5.9-3-14.2-13.2c-17.3-21-33.9-54.4-67.4-49.6c-15.8,2.3-28.3,10.2-37.3,23.4
				c-9.5,13.8-5.3,18.5-9.6,20.1c-9.2,3.5-14.9-5.5-1.6-22.9c6.4-8.5,11.9-14.1,14.8-24.3c4.5-16-5-29.6-16.1-32
				c-13.5-2.9-28.7,6.3-26,18.5c0.5,2,2,3.7,4,4.3c2.1,0.7,4.3,0.9,6.5,0.2c4.1-1.3,11.1-4.2,14.7-1.1c2.3,2,3.6,4.5,3.5,7.5
				c-0.2,4.1-1.1,8-3.2,11.6c-5.8,9.6-8.8,13.5-11.1,18.6c-5.4,12-5.6,25.2,6.2,31.3c10,5.2,14.8-0.6,28,1.7
				c10.9,1.9,20.2,1.5,28.2,10.9c3.4,4,4.7,2.1,7-0.2c5.7-5.5,10.7-11.8,27.8-8.9c10.4,1.8,20.3,5.1,29.9,9.5
				c11.3,5.1,14.8,0.8,14.9,0.7c0.5-1.4-4,1-11.1-9.8c6.4,5,10.4,5.3,12.4,4.8C361.5,248.8,361.3,248.3,360.5,248z M220.9,159.6
				c-1.3,2.3-2.8,2.8-3.9,2.8c0,0-0.1,0-0.1,0c-1.5,0-2.9-0.9-3.5-1.7c-0.2-0.4-0.1-0.8,0.2-1.1c0.4-0.2,0.8-0.1,1.1,0.2
				c0.2,0.4,1.2,1.1,2.3,1c1,0,1.9-0.7,2.6-2c0.2-0.4,0.7-0.5,1.1-0.3C221,158.8,221.1,159.3,220.9,159.6z"/>
			<g>
				<path class="st16" d="M201.1,162.8c-0.3,5.4,0.7,9.3,6.6,11.3c-0.1,0.4-0.5,0.6-0.9,0.8c-1.4,0.8-2.7,1.8-4.1,2.5
					c-4.5,2.2-6.7,5.8-7.3,10.6c-0.3,2.6-0.8,5.2-1.2,7.9c-0.9,5.9-2.5,5.5-3,4.1c-1.5-4.1-4.3-22.8-4.1-26.3
					c0.1-1.8,0.8-3.3,2.2-4.5C191.7,167,197.5,163.8,201.1,162.8z"/>
				<g>
					<path class="st17" d="M193.4,180.2c-0.2-0.5-0.5-1.1-0.9-1.5c-0.9-0.8-2.2-0.8-3.4-0.9c-0.6,0-1.1-0.2-1.6-0.3
						c0.7,6.7,2.7,19.2,3.9,22.5c0.5,1.3,2.1,1.7,3-4.1c0.4-2.6,0.9-5.2,1.2-7.9c0.1-1.1,0.4-2.2,0.7-3.2c-0.2-0.2-0.3-0.4-0.5-0.6
						C194.7,183,194,181.6,193.4,180.2z"/>
				</g>
			</g>
			<path class="st19" d="M317.6,213.6c-1.3-0.3-2.9-1.2-5.1-3.4c-24.9-25.6-44.8-10.4-49.2-5.3c-9.4,11,18.9,28.3,25.4,31.5
				c0.3,0.2,0.6,0.3,0.9,0.4c3.1,1.1-2.4-3.1-3.4-11.9c1.1,0.5,2.2,1.7,4.5,3.1c2.7,1.7,12.8,6.3,14.9,3.8c1.1-1.3-3.1,0.5-6.3-4.5
				c-1.3-2-2.3-4.4-2.8-5.5c17.8,6.1,19,3.1,15.7,2.7c-5.3-0.7-7.1-5.2-8.6-10.5C316,217.4,321.7,214.4,317.6,213.6z"/>
		</g>
	</g>
	<g>
		<path class="st20" d="M95,182.7c0.1,0.3,0.3,0.5,0.6,0.4c0.3-0.1,0.3-0.3,0.3-0.6c0,0-0.8-4.7-0.8-4.7c-1.3-7.2,3.1,0.3,3.2-2.6
			c0-1.1,0-2,0.4-2.9c0.5-1.1,1.5-1.9,2.4-1.2c1.7,1.3,0.7,4.4,0.6,5.1c0,0.2-0.1,0.4-0.1,0.6c-0.4,2.5,3.7-0.2,3.6,1.6
			c0,2.6-5.1,5.8-5.4,6.3c-0.2,0.3,0,0.7,0.4,0.8c0.3,0,1.6-0.3,1.9-0.4c10.3-2.9,11.9-9.4,9.4-12c-1.7-1.8-4.6-1.4-4.8-2.7
			c-0.1-0.7-0.1-1.3-0.2-2c-0.5-3.2-3.1-5.4-6.5-4.9c-1.5,0.3-2.5,1-3.5,1.7c-0.8,0.5-1.5,0.3-2.4,0.1c-3.2-0.6-4.2,4.5-2.3,10.1
			C92.9,178.7,93.9,180.3,95,182.7z"/>
		<path class="st20" d="M120.1,189.9c-1-1.3-1.9-1.6-2.2-2.9c-0.3-1.3-0.7-2.4-1.9-3.2c-5-3.5-9.6,1.4-15.6,2.3
			c-0.7,0.1-0.7,0.7-0.3,0.9c1.3,0.7,6.3-0.1,8.7,0c2.7,0.1,3.7,0.8,3.2,1.4c-1.2,1.3-3.2,1.3-4,1.4c-1.8,0.2-1.3,1.1-1,2
			c0.1,0.2,0,0.3-0.2,0.3c-2.1,0.8-5.3-1.9-6.9-1.7c-2,0.3,1.3,2.8,6.3,7.2c0.9,0.8,1.8,1.5,2.8,2c2.9,1.4,4.8-0.2,5-1.9
			c0.2-1.7,0.5-1.6,2.5-1.9C120.6,195.3,121.8,192,120.1,189.9z"/>
		<path class="st20" d="M76.2,180.5c2.3,3.9,9.5,5.2,15.5,4.8c1.3-0.1,1.2-0.9,0.6-1.1c-1.1-0.4-7.4-2.3-10.3-6.3
			c-2.7-3.7,0.1-7.7,2.8-5.2c2.3,2.1,3,5.3,6.4,8.7c2.6,2.5,2.9,1.1,2.4,0.3c-0.4-0.7-1.4-1.9-2.4-4c-2.3-4.6-1.7-9.8-3.3-12.2
			c-0.9-1.3-2.5-1.4-3.9-0.6c-2.3,1.3-2.5,3.7-4,3.6c-0.9-0.1-1.6-0.3-2.1-0.4c-1.2-0.2-2.1,0.7-2.4,1.7c-0.6,2.3,1.2,4.7,1.5,6.4
			C77.2,177.6,74.5,177.6,76.2,180.5z"/>
		<path class="st20" d="M102.7,196.8c-1.6-1.2-2.8-2.6-3.3-4.5c-0.1-0.4-0.7-0.4-0.8,0c-0.1,0.5-0.1,2.5,0.5,4.2c0.4,1,0.8,2,1.5,4
			c0.8,2.2-1,2.4-2.3,0.1c-1.3-2.2-1.3-3.5-1.6-5.7c-0.1-0.9-0.2-1.5-0.5-1.8c-0.4-0.4-0.9-0.2-1.1,0.3c-0.4,0.9-0.3,0.5-0.6,2.3
			c0,0,0,0,0,0c-0.5,3.9-1.5,8.7,1.5,12.8c1.3,1.7,3,1.8,3.9,1.9c1.1,0.1,1.4,0.5,2.4,1c1.6,0.8,3-0.3,3.6-2c0.6-1.6,0-2.4,1.1-2.6
			c0.6-0.1,2.9,0.1,3.1-1.7C110.3,201.8,105.6,199,102.7,196.8z"/>
		<path class="st20" d="M89.9,190.4c0-0.3-0.3-0.6-0.6-0.3c0,0-0.7,0.9-1,1.2c-3.1,2.7-9,3.8-11,2.9c-0.6-0.3-0.7-0.8-0.3-1.2
			c1.5-1.6,4-2.1,9.8-4c4.3-1.4,3.1-2.4,2.4-2.3c-0.7,0.1-2.1,0.4-4.3,0.2c-7-0.6-10.4-1.7-11.8,0.8c-0.6,1.1-0.4,1.8-0.1,2.9
			c0.4,2.1-3.3,2.8-1.8,5.7c1.6,3,5,1.6,5.8,3.3c0.3,0.6,0.5,1.2,1.4,1.4C83.5,202.2,89.7,192,89.9,190.4z"/>
		<path class="st20" d="M92.4,211.6c-1,0-1.4,0.3-2.4,0c-0.4-0.1-0.5-0.4-0.5-0.8c0-0.4-0.1-1.1-0.1-1.5c0.8,0.1,1.5,0.3,1.9,0.2
			c0.8-0.2,0.9-1.2-0.1-1.8c-0.7-0.4-1.2-0.2-1.7-0.3c-0.2,0-0.2-0.1-0.2-0.4c0.1-0.1,0.3,0,0.4,0c0.3,0.1,0.6,0.1,0.9,0.2
			c0.6,0.1,1.4-0.1,1.5-0.8c0.2-0.8-0.7-1.4-1.4-1.4c-0.3,0-0.6,0-0.9,0c-0.2,0-0.3,0-0.5-0.1c0-0.2,0.1-0.3,0.3-0.4
			c0.7-0.3,1.4,0.1,2.1,0c0.7-0.2,1-1.1,0.3-1.6c-1.3-1.1-3.1,0.6-1.9-2.3c3.6-8.9,6.7-10.5,7.7-12.6c0.9-1.9-1.8-3.5-3.4-1.8
			c-2.3,2.4-5.4,11.1-5.9,13c-0.3,1.4-0.3,2-0.7,2.6c-0.5,0.7-1.6-1-2.7-0.3c-1,0.6-1.2,1.9-0.1,2.4c0.8,0.4,1.4-0.1,2-0.4
			c0.2-0.1,0.3-0.2,0.5-0.2c0.1-0.1,0.2,0,0.3,0.1c0.3,0.4,0.1,0.8-0.3,1.3c-0.4,0.6-0.9,0.4-1.6,0.3c-1-0.1-1.9,0.3-1.9,1.3
			c0,0.9,1.2,1.6,2.2,0.9c0.1-0.1,0.5-0.4,0.8-0.6c0.4-0.3,0.8-0.2,0.8,0.3c0,0.8-0.6,1.7-1.6,1.5c-0.3,0-0.6,0-0.9,0
			c-1,0.2-1.2,1.6-0.2,2.2c0.8,0.5,2,0.2,2.5-1c0-0.1,0.1-0.2,0.2-0.3c0.1,0.4,0.2,1.1,0.2,1.5c0.1,1-0.6,1.2-1.2,1.6
			c-0.8,0.5-1.4,0.9-1.4,1.8c0,1.3,1.8,1.9,3.3,1.1c0.1,0,0.2-0.1,0.3-0.1c0.9,2.6,3.7,1.7,3.1-0.9
			C94.8,214.1,94.1,211.6,92.4,211.6z"/>
	</g>
	<path class="st21" d="M235.8,310.6c-1.8-2.3-4-3.8-6.1-4.1c-6.5-0.9-9.2,3-14.8,4.1c0.6-2.2,2.4-4.6,3.7-5.9
		c2.9-3.2,5.7-6.5,3.9-11.7c-1.1-3.1-4.5-5.4-6.5-6.3c-2.5-1.1-11.6-5.6-10.6,0.1c0.7,4.4,6.5,11.2,6.3,16.6c-0.1,1.3-0.2,4.1-1.4,1
		c-1.9-4.9-2.4-10-7.4-14.4c-7-6.1-16.6,0-21.4,2.8c-4.5,2.6-8.2,6.8-4.1,7.9c3.7,1,8.2,1.6,10.3,2.2c3.8,1.1,11,6,9.5,9.1
		c-2.3,4.6-9.8-0.2-12.1-1.2c-6.7-3-15-8.6-20.8-6.9c-3,0.9-3.4,3.5-4.7,6.2c-0.7,1.3-4.1,4.8,1.3,4.8c7.1,0.1,12.5-1,22.6,3.2
		c7.6,3.1-3,4-8.6,2.1c-2.2-0.8-10.6-3.1-14.6-2.7c-8,0.9-18,7-18.4,14.9c-0.2,5.6,0.3,2.9,6.3,8.2c3.4,3,23.4,18,27.4,7.2
		c2.4-6.3,5-12.5,10.4-13.9c1.7-0.5,2.1,0.5,1.3,2.6c-2.2,6-6.9,12.6-11.5,17.7c-1.8,1.9,0.1,5.5,3.2,6.1c3.2,0.6,6,2.5,8.6,0.4
		c5.1-4.2,4.5-15.7,8-23.1c0.1-0.2,2.2-4.5,2.8-4.7c1,4.6-9.1,25.7-1.4,26.5c4.3,0.4,12.3-3.2,18.2-5.6c7.1-2.9,4.2-16.1,2.9-28.2
		c-0.1-1.1,0.1-1.1,0.4-1.5c5.8,5.3,2.2,27.3,7.5,24.4c1.5-0.8,8.2-11,10-16.5C237.7,326.3,241.1,317.5,235.8,310.6z"/>
	<path class="st21" d="M340.6,157.8c0.5-0.8,1.1-0.9,3.9-2.2c2.3-1.1,4-1.6,3.9-4.2c-0.1-4.1-6.3-13.2-11.8-10
		c-3.1,1.8-5.3,4.4-8.6,5.9c-0.6-2.1,4.5-5.5,5.8-7.9c2.6-4.9-7.9-9.1-13.2-10.8c-4.7-1.5-5.7,2.2-8,7.4c-3.4,7.4-7.4,4.9-6.8,2.8
		c0.7-2.2,4.4-4.7,5.9-8c3.4-7.7-24.6-8.7-42.9,7.3c-2.3,2-4.3,3.5-7.3,3c-1.4-0.2-2.2,1.2-2.3,2.5c-0.3,3.8,5.8-0.3,7.6,2.3
		c2.4,3.3,6.4,13.6,13.1,16.4c1.8,0.7,5,0.9,5.5-2.3c0.2-1.4-0.2-2.7-0.5-4.9c-0.4-2.7,1.1-5.2,2.1-1.8c1.3,4.5-1.9,7.8,0.7,11
		c2.5,3.2,9.1,7,11.1,7.1c5.1,0.2,3.5-8.2,6.6-10.3c0.4-0.3,0.7-0.2,1,0.2c2.2,3.1-7.3,9.7,0.4,13.7c5.3,2.8,15,5.7,19.4,6.3
		c1.8,0.2,4-0.1,5.3-0.8c5.1-2.5-1.8-9.5,1.4-12c0.9-0.7,1.9,0,2.3,1.1c1.9,4.4-1.9,10.5,2.9,13c3.3,1.7,5.3,2.2,10.1,4.9
		c1.9,1.1,3.7,2.2,4.9-0.2c1.6-3.4,1.5-10.8,1.2-14.5c-1.3-15.4-1.2-15.9-13.1-15C341.2,157.8,340.9,157.8,340.6,157.8z"/>
</g>
</svg>
