<?xml version="1.0" encoding="utf-8"?>
<!-- Generator: Adobe Illustrator 21.1.0, SVG Export Plug-In . SVG Version: 6.00 Build 0)  -->
<svg version="1.1" id="Calque_1" xmlns="http://www.w3.org/2000/svg" xmlns:xlink="http://www.w3.org/1999/xlink" x="0px" y="0px"
	 viewBox="0 0 432 432" style="enable-background:new 0 0 432 432;" xml:space="preserve">
<style type="text/css">
	.st0{fill:#6E3C3F;}
	.st1{fill:#E3635C;}
	.st2{fill:#343434;}
	.st3{fill:#B1C369;}
	.st4{fill:#A490C4;}
	.st5{fill:#A2C1DB;}
	.st6{fill:#AFB67B;}
	.st7{fill:#4F4747;}
	.st8{fill:#AA6555;}
	.st9{fill:#93C6E3;}
	.st10{fill:#9C3A47;}
	.st11{fill:#52B5C3;}
	.st12{fill:#4B6C2A;}
	.st13{fill:#F4A38D;}
	.st14{fill:#6A8E2D;}
	.st15{fill:#EE7A9F;}
	.st16{fill:#F7DA6A;}
	.st17{fill:#E2991A;}
	.st18{fill:#A7B7BE;}
	.st19{fill:#E8D8CA;}
	.st20{fill:#A1A499;}
	.st21{fill:#C42725;}
	.st22{fill:#DBDC50;}
	.st23{fill:#020203;}
	.st24{fill:#92AA3C;}
	.st25{fill:#DFB87F;}
	.st26{fill:#7E4E1C;}
	.st27{fill:#BBCC53;}
	.st28{fill:#BA5C78;}
	.st29{fill:#85924F;}
	.st30{fill:#7C1142;}
	.st31{fill:#3B322E;}
	.st32{fill:#3B6C51;}
	.st33{fill:#C1292E;}
	.st34{fill:#CDCCCC;}
	.st35{fill:#886649;}
	.st36{fill:#F9B03D;}
	.st37{fill:#7D8C5B;}
	.st38{fill:#0D341E;}
	.st39{fill:#4D8F53;}
	.st40{fill:#1B1B1B;}
	.st41{fill:#F39323;}
	.st42{fill:#E7E6E6;}
	.st43{fill:#9A908B;}
	.st44{fill:#548981;}
	.st45{fill:#89525A;}
	.st46{fill:#AB9AB1;}
	.st47{fill:#5E676E;}
	.st48{fill:#DDDBCA;}
	.st49{fill:#56463E;}
	.st50{fill:#457885;}
	.st51{fill:#FFFFFF;}
	.st52{fill:#E69678;}
	.st53{fill:#A5AB9B;}
	.st54{fill:#855354;}
	.st55{fill:#DE8F6E;}
	.st56{fill:#C19D63;}
	.st57{fill:#837F62;}
	.st58{fill:#7D8769;}
	.st59{fill:#39466A;}
	.st60{fill:#4E4D4D;}
	.st61{fill:#673E44;}
	.st62{fill:#CEB283;}
	.st63{fill:#8890A4;}
	.st64{fill:#99B8B3;}
	.st65{fill:#A0747A;}
	.st66{fill:#BB839E;}
	.st67{fill:#E5DA9B;}
	.st68{fill:#BA9BC9;}
	.st69{fill:#8CACB5;}
	.st70{fill:#746458;}
	.st71{fill:#34354B;}
	.st72{fill:#6A8188;}
	.st73{fill:#B4B4B4;}
	.st74{fill:#97CB9E;}
	.st75{fill:#EE7896;}
	.st76{fill:#785F63;}
	.st77{fill:#E4A87C;}
	.st78{fill:#98D5E8;}
	.st79{fill:#CB6083;}
	.st80{fill:#9A9999;}
	.st81{fill:#C49A6C;}
	.st82{fill:#EC96AB;}
	.st83{fill:#ED87AB;}
	.st84{fill:#E2B471;}
	.st85{fill:#59B465;}
	.st86{fill:#4C996E;}
	.st87{fill:#A84F6B;}
	.st88{fill:#6BC4CD;}
	.st89{fill:#D6809C;}
	.st90{fill:#9DD0B3;}
	.st91{fill:#F3AA9A;}
	.st92{fill:#F29292;}
	.st93{fill:#BBBBBB;}
	.st94{fill:#5B5242;}
	.st95{fill:#8CCDC6;}
	.st96{fill:#EAC892;}
	.st97{fill:#F4B0CC;}
	.st98{fill:#7A6350;}
	.st99{fill:#9FC64B;}
	.st100{fill:#A68C6D;}
	.st101{fill:#F1D3D4;}
	.st102{fill:#BE8BBE;}
	.st103{fill:#F49523;}
	.st104{fill:#789835;}
	.st105{fill:#8FA369;}
	.st106{fill:#B17081;}
	.st107{fill:#E1B63D;}
	.st108{fill:#B05274;}
	.st109{fill:#CA9256;}
	.st110{fill:#A9A9AA;}
	.st111{fill:#BE202E;}
	.st112{fill-rule:evenodd;clip-rule:evenodd;fill:#A9A9AA;}
	.st113{fill:#89657B;}
	.st114{fill:#7F95B7;}
	.st115{fill:#9F9EC6;}
	.st116{fill:#7F6178;}
	.st117{fill:#6D8999;}
	.st118{fill:#A0C07E;}
	.st119{fill:#AA779F;}
	.st120{fill:#FBC063;}
	.st121{fill:#80A0C2;}
	.st122{fill:#CFAC75;}
	.st123{fill:#CD94C2;}
	.st124{fill:#AAB6DE;}
	.st125{fill:#CCAE99;}
	.st126{fill:#86B69F;}
	.st127{fill:#555D57;}
	.st128{fill:#86C1BB;}
	.st129{fill:#CA856C;}
	.st130{fill:#A4AA6D;}
	.st131{fill:#EAB978;}
	.st132{fill:#C091A7;}
	.st133{fill:#7E9DAD;}
	.st134{fill:#E5B1C8;}
	.st135{fill:#B9AEA3;}
	.st136{fill:#627F99;}
	.st137{fill:#E6A9AB;}
	.st138{fill:#913E41;}
	.st139{fill:#B46269;}
	.st140{fill:#C69C6C;}
	.st141{fill:#ED6D78;}
	.st142{fill:#C09047;}
	.st143{fill:#AE6C7B;}
	.st144{fill:#918FB2;}
	.st145{fill:#67816D;}
	.st146{fill:#B3B1A2;}
	.st147{fill:#A23A43;}
	.st148{fill:#6A907C;}
	.st149{fill:#B09294;}
	.st150{fill:#7B484D;}
	.st151{fill:#B78B5E;}
	.st152{fill:#DB7D82;}
	.st153{fill:#781611;}
	.st154{fill:#D38F8F;}
	.st155{fill:#965656;}
	.st156{fill:#9AA4B4;}
	.st157{fill:#754D24;}
	.st158{fill:#C8B7A7;}
	.st159{fill:#B4363B;}
	.st160{fill:#C77272;}
	.st161{fill:#91AF82;}
	.st162{fill:#C69462;}
	.st163{fill:#ED6C5B;}
	.st164{fill:#F3C186;}
	.st165{fill:#F3957D;}
	.st166{fill:#D1BBBC;}
</style>
<g>
	<g>
		<g>
			<g>
				<path class="st66" d="M224.3,86.5c-1.8-2.1-3.5-4.2-5.3-6.3c1.1-0.3,2.3-0.5,3.4-0.7c6.8-1.3,13.6-1.6,20.5-1.5
					c7.7,0.1,15.4,0.8,23,1.9c7.8,1.1,15.5,2.9,22.8,5.9c10.6,4.4,20.2,10.4,29,17.7c14.5,12,24.6,27,30.8,44.7
					c2.5,7.2,4.3,14.5,5.4,22c1,6.1,1.7,12.2,2.1,18.4c0.5,6.8,0.6,13.6,0.3,20.4c-0.5,12-2.3,23.7-6,35.2
					c-2.1,6.6-4.9,12.9-8.8,18.6c-3.9,5.7-8.8,10.5-14.2,14.7c-8.2,6.5-17.2,11.5-26.8,15.7c-2.9,1.3-5.8,2.4-8.6,3.6
					c-8.5,3.4-17.1,6.2-26,8.4c-0.1,0-0.3,0.1-0.5,0c0.3-0.2,0.5-0.4,0.8-0.5c3.5-2.2,6.9-4.5,10.1-7.1c5.4-4.4,10.5-9.1,15.3-14.2
					c6.5-6.9,12.7-14,18.4-21.6c6-8.1,10.8-17,14.9-26.2c4.5-10,7.6-20.5,9.4-31.3c0.7-4.1,1.2-8.2,1.3-12.3c0.1-4,0.3-8,0.1-12.1
					c-0.5-12.1-2.6-23.9-6.9-35.3c-3.8-10-9.5-18.7-16.9-26.3c-8.4-8.6-18.1-15.3-29-20.3c-10.8-4.9-21.9-8.6-33.6-10.8
					c-3.4-0.6-6.9-0.9-10.3-1c-4.4,0-8.8,0-13.2,0.1C225.5,86.3,224.8,86.4,224.3,86.5z"/>
				<path class="st66" d="M163,142c4.1-5.6,5.2-12.1,6.3-18.6c0.3,0,0.6,0,0.8,0c2.5,0.5,4.7-0.1,6.7-1.4c2.2-1.4,3.9-3.3,4.9-5.8
					c0.5-1.4,1-2.8,1.4-4.2c0.5-1.7,0.1-3.3-0.7-4.8c-0.6-1.2-1.5-2.3-2.5-3.3c-0.2-0.2-0.4-0.4-0.7-0.6c0.2-0.2,0.3-0.5,0.5-0.6
					c1.1-1,2.1-2,3.2-2.9c5.5-4.3,11.2-8.4,17.4-11.7c0.3-0.2,0.6-0.3,0.9-0.5c1,2.6,1.9,5.1,2.9,7.6c0,0,0,0.1-0.1,0.1
					c-4.6,3.1-8.2,7.1-11.5,11.5c-2.6,3.4-4.9,7-7.1,10.8c-2.1,3.6-4.1,7.2-6.3,10.8c-2.6,4.2-6,7.8-10,10.7
					c-1.6,1.2-3.3,2.1-5.2,2.9c-0.2,0.1-0.5,0.2-0.7,0.2C163.3,142.1,163.3,142,163,142z"/>
			</g>
			<g>
				<path class="st67" d="M242.2,352.8c-0.4,0.3-0.6,0.5-0.9,0.6c-3.2,2.1-6.8,3.2-10.6,3.5c-4,0.3-7.9,0.2-11.7-1
					c-9.4-3.1-15.2-9.5-17.1-19.2c-2.7-14,0.6-26.6,9.6-37.7c4.4-5.5,9.6-10.3,15-14.8c5.7-4.8,11.8-9.2,17.9-13.6
					c9.9-7.2,19.2-15.1,27.8-23.8c9-9.2,16.8-19.2,23.2-30.3c4.1-7.1,7.6-14.5,9.9-22.4c1.8-5.9,2.9-11.9,3.5-18
					c0.4-3.7,0.5-7.4,0.4-11.1c-0.3-6.7-1.7-13.2-4.1-19.5c-4.4-11.7-11.3-21.6-21.2-29.3c-8.9-6.9-18.7-12.5-29.1-16.7
					c-5.3-2.2-10.9-3.6-16.7-4.3c-2.9-0.3-5.7-0.3-8.6,0.3c-0.3,0.1-0.5,0.1-0.8,0.1c-0.8-1.9-1.6-3.8-2.4-5.7c1.6,0,3.1-0.1,4.6,0
					c4.2,0.2,8.4,0.4,12.6,0.6c3.1,0.2,6.2,0.8,9.2,1.5c13.2,3.1,25.7,7.8,37.5,14.6c9.2,5.3,16.9,12.2,23.7,20.3
					c6.2,7.5,10.5,16.1,13.1,25.4c2.3,8.3,3.8,16.8,4.3,25.5c1.1,19.5-2.6,38.1-10.4,55.9c-4.6,10.4-10.2,20.1-17.2,29
					c-6.2,7.9-12.9,15.3-20,22.3c-4.3,4.2-8.9,8-13.6,11.6c-6.3,4.8-13.2,8.4-20.4,11.4c-4.1,1.7-8.2,3.4-12.3,5.2
					c-5.6,2.4-9.9,6.5-12.9,11.8c-1.3,2.4-2.4,4.8-2.8,7.6c-0.5,3.5,0,6.8,1.8,9.8c2.8,4.8,6.9,7.8,12.2,9.4
					c1.9,0.6,3.9,0.9,5.9,1.1C241.7,352.7,241.8,352.8,242.2,352.8z"/>
				<path class="st67" d="M211.8,105c-7.7,14.5-18,26.4-31.2,36.1c0.1-0.4,0.2-0.7,0.3-1c0.7-2.2,1.1-4.4,1.2-6.6
					c0-0.7-0.1-1.4-0.1-2.1c0-0.3,0.1-0.7,0.2-0.9c2.3-3.9,4.7-7.8,6.9-11.7c3.5-6.1,7.6-11.8,12.6-16.7c1.4-1.3,2.8-2.5,4.4-3.9
					C207.7,100.8,209.6,103,211.8,105z"/>
			</g>
			<g>
				<path class="st68" d="M233.2,98.3c1.7,0.2,3.4,0.3,5.2,0.6c7.8,1.2,15.1,3.7,22.1,7.4c6.8,3.5,13.3,7.4,19.5,12
					c10.8,8,17.9,18.6,22,31.3c1.8,5.5,2.8,11.2,2.9,17c0.1,3.5-0.2,7-0.6,10.5c-0.8,6.6-2.2,13-4.5,19.2
					c-3.1,8.5-7.3,16.4-12.3,23.9c-6.8,10.3-14.8,19.5-23.7,28c-7.9,7.6-16.5,14.4-25.4,20.8c-6.3,4.6-12.6,9.3-18.5,14.5
					c-4.3,3.9-8.5,7.9-12.1,12.4c-4.7,6-8.4,12.6-10.2,20.1c-1.3,5.4-1.5,10.9-1.1,16.4c0.3,4.1,1.1,8,2.7,11.8
					c3.2,7.3,8.6,12.3,15.9,15.3c4.7,1.9,9.6,2.5,14.6,2.2c3.3-0.2,6.6-0.7,9.7-2.2c1.7-0.8,3.3-1.9,5-2.8c0.3-0.2,0.6-0.4,1-0.4
					c-0.1,0.2-0.2,0.4-0.3,0.5c-1.5,1.9-3.3,3.7-5.4,5c-4.7,3-9.8,4.9-15.5,5.2c-7.4,0.4-14.4-1.2-21.3-3.6
					c-7.7-2.7-14.7-6.7-20.6-12.4c-4.1-3.9-7.8-8.2-10.7-13.1c-4-6.9-5.9-14.3-5.3-22.3c0.5-6.2,2.5-12,5.4-17.6
					c3.3-6.1,7.7-11.2,12.8-15.7c4.3-3.8,8.9-7.3,13.8-10.4c6.4-4.1,12.9-8,19.3-12.1c16.5-10.4,31.7-22.5,45-36.8
					c5.2-5.5,10-11.4,14-17.8c5.6-9.1,9.3-19,11.2-29.6c1-5.3,1.5-10.6,1.4-15.9c-0.3-10.5-2.6-20.5-7.9-29.7
					c-3.9-6.9-9.2-12.4-15.7-17c-6.1-4.3-12.7-7.6-19.5-10.3c-4-1.6-8.1-3-12.2-4.2c-0.3-0.1-0.5-0.2-0.8-0.2
					C233.2,98.4,233.2,98.4,233.2,98.3z"/>
				<path class="st68" d="M214,108.6c0.6,1.3,0.9,2.8,1.1,4.2c0.3,4.4-0.1,8.6-2,12.7c-1.5,3.3-3.8,6-6.6,8.2
					c-2.7,2.1-5.8,3.7-8.8,5.3c-3.8,2-7.7,3.9-11.4,6.1c-8.7,5.2-15.3,12.4-20,21.4c-0.2,0.4-0.5,0.8-0.8,1.2c0.2-0.5,0.3-1,0.5-1.4
					c1.3-3.5,3.2-6.6,5.2-9.7c1.8-2.7,3.7-5.4,5.9-7.8c1.2-1.3,2.6-2.6,4-3.8c2.6-2.1,5.2-4.1,7.9-6.2c6.2-4.8,11.4-10.4,16.1-16.6
					c1.2-1.6,2.5-3.2,3.6-4.8c1.8-2.5,3.4-5.2,4.8-8c0.1-0.2,0.2-0.4,0.3-0.6C213.9,108.7,213.9,108.7,214,108.6z"/>
			</g>
		</g>
		<g>
			<path class="st34" d="M237.1,241.1c0.5-1.2,0.9-2.4,1.5-3.5c3.3-7.3,5.4-15.1,6.9-23c0.8-4.4,1-8.9,0.4-13.4
				c-0.1-0.9-0.3-1.7-0.5-2.5c-0.2-0.6-0.1-1.1,0.3-1.6c2-2.3,4-4.7,5.9-7.1c2-2.5,3.9-4.9,5.8-7.5c2.9-4,4.4-8.5,5.2-13.4
				c1.1-6.8,1.2-13.6,1-20.4c-0.1-2.5-0.4-4.9-0.8-7.3c-0.1-0.8-0.4-1.5-0.6-2.3c-0.3-0.8-0.8-1.1-1.5-1c-0.6,0.1-1,0.6-0.9,1.4
				c0.1,2,0.2,4.1,0.2,6.1c0.1,2.8,0.2,5.7,0.2,8.5c0,4.3-0.2,8.5-0.8,12.8c-0.5,3.2-1,6.4-2.5,9.4c-1.1,2.2-2.5,4.2-4,6.2
				c-1.9,2.4-3.9,4.8-5.8,7.2c-2.1,2.7-4.2,5.4-6.3,8c-2.3,3-4.9,5.7-7.8,8.3c-2,1.8-3.9,3.5-5.7,5.4c-2.2,2.3-4.1,4.9-5.2,7.9
				c-1,2.7-1.5,5.5-1.6,8.4c-0.1,2.7-0.1,5.3-0.4,8c-0.3,3.3-1.2,6.4-2.5,9.4c-1.6,3.8-4.5,6.4-7.8,8.7c-0.7,0.5-1.5,0.9-2.2,1.3
				c-2.5,1.5-5.1,1.8-7.9,1.5c-3.4-0.4-6.3-1.9-8.7-4.4c-2.4-2.5-4.5-5.2-5.7-8.5c-1.5-4.1-1.6-8.2-0.6-12.4c0.8-3.5,1.6-7,2.2-10.6
				c0.8-4.7,1.1-9.4,1-14.1c-0.1-6-0.2-12.1-0.5-18.1c-0.2-4.2-0.7-8.3-1.1-12.4c-0.6-6-1.2-12.1-1.7-18.1c-0.2-2.2-0.2-4.4-0.4-6.6
				c0-0.5,0.2-0.8,0.6-1c2.1-1.3,4.2-2.6,6.4-3.8c2.7-1.5,5.6-2.8,8.4-4.2c3.3-1.6,6.5-3.4,9.4-5.8c5.5-4.5,8.7-10.2,9.6-17.2
				c0.2-1.5,0.4-3,0.4-4.6c0.1-2.4-0.4-4.6-1.2-6.8c-0.1-0.3-0.3-0.6-0.4-1c-0.1-1.1-0.8-1.7-1.7-2.4c-2.8-2-5-4.6-6.8-7.5
				c-2.8-4.6-4.6-9.7-5.8-15c-0.6-2.6-1-5.2-1.4-7.9c0-0.1,0-0.3,0-0.5c0.4,0.1,0.7,0.2,1,0.3c5.3,1.8,10.1,4.5,14.1,8.4
				c4.2,4.1,7.4,8.9,9,14.6c0.6,1.9,1.7,3.1,3.6,3.7c2.9,0.9,5.7,1.8,8.6,2.8c6.8,2.3,13.5,5,19.7,8.6c2.9,1.7,5.8,3.5,8.5,5.6
				c9.8,7.7,15.7,17.8,18.3,29.9c1.2,5.8,1.6,11.6,1.2,17.5c-1.3,16.2-6.4,31-16.2,44.1c-4.9,6.5-10.5,12.4-16.3,18.1
				c-4.8,4.7-10,9-15.1,13.3c-0.2,0.1-0.3,0.2-0.5,0.4C237.3,241.2,237.2,241.1,237.1,241.1z M223.6,141.6c-0.3-0.9-0.5-1.6-0.8-2.2
				c-0.3-0.6-0.8-1.2-1.3-1.7c-0.4-0.4-0.9-0.4-1.3-0.1c-0.4,0.3-0.5,0.7-0.4,1.2c0.1,0.4,0.2,0.7,0.4,1.1c0.7,1.8,0.3,3.5-0.9,4.9
				c-0.8,0.9-1.6,1.7-2.4,2.6c-1.3,1.4-2.3,2.9-2.8,4.8c-0.3,1.3-0.4,2.7,0,4c0.2,0.4,0.4,0.9,0.9,0.8c0.5-0.1,0.5-0.6,0.6-1
				c0-0.3,0.1-0.6,0.2-0.9c0.3-2.1,1.3-3.7,3-4.9c0.8-0.5,1.6-1,2.4-1.5c1.5-0.7,3-1.4,4.4-2.1c1.3-0.7,2.6-1.3,3.8-2.1
				c2.6-1.7,4.1-4.2,4.7-7.2c0.5-2.4-0.2-4.5-1.8-6.4c-0.3-0.4-0.8-0.7-1.3-0.8c-0.7-0.3-1.5,0.2-1.7,0.9c-0.1,0.4-0.1,0.7-0.1,1.1
				c0,1,0.1,2.1-0.1,3.1c-0.1,1.2-0.4,2.3-1,3.4c-0.1-0.4-0.1-0.7-0.2-1.1c-0.2-0.8-0.4-1.7-0.7-2.5c-0.1-0.3-0.4-0.6-0.7-0.9
				c-0.4-0.3-0.8-0.4-1.2-0.2c-0.4,0.3-0.6,0.7-0.5,1.2c0.1,0.4,0.2,0.8,0.3,1.2C225.4,138.3,224.7,139.9,223.6,141.6z M202,240.3
				C202,240.3,202,240.3,202,240.3c0-0.6,0-1.1,0-1.7c-0.1-1-0.4-2-1-2.8c-1.1-1.3-2.5-2.1-4.2-1.8c-1.7,0.3-2.6,1.5-3,3.1
				c-0.2,0.8-0.4,1.6-0.5,2.3c-0.2,3.9,0.8,7.5,3.2,10.6c1,1.4,2.3,2.4,4,2.9c0.7,0.2,1.6,0.4,2.3,0.3c1.7-0.1,2.8-1.5,2.3-3
				c-0.2-0.6-0.6-1.1-1-1.5c-1.9-1.8-2.5-4-2.2-6.5C202,241.7,202,241,202,240.3z"/>
			<path class="st34" d="M85.5,65.1c1.3-0.4,2.5-0.3,3.7-0.2c3.6,0.5,7,1.6,10.3,2.9c14.8,6,29.5,12.5,43.7,19.9
				c0.8,0.4,1.6,0.8,2.4,1.3c6.5,3.8,13.2,7.1,20,10.4c3,1.5,5.9,3.1,8.8,4.8c1,0.6,2,1.3,3,2.1c1.8,1.5,2.5,3.5,1.7,5.8
				c-0.7,2.2-1.8,4.3-3.7,5.8c-1.7,1.4-3.5,1.9-5.5,1c-1.6-0.7-3.3-1.4-4.9-2.3c-19.2-10.6-38.1-21.8-56.4-33.9
				c-6-4-11.9-8.2-17.8-12.3c-1.4-1-2.7-2.2-4-3.3C86.3,66.5,85.8,65.9,85.5,65.1z"/>
			<path class="st34" d="M190.5,89.2c-5.2,3.4-10.3,6.7-14.6,11.1c-0.3-0.3-0.5-0.6-0.8-0.9c-3.5-4.2-5.8-9.1-7.2-14.4
				c-0.4-1.6-0.8-3.2-1.2-4.7c-0.3-1.4-0.2-1.6,1.2-2c1.9-0.6,3.9-0.5,5.9-0.2c3,0.6,5.8,1.7,8.4,3.4
				C185.3,83.6,188,86.2,190.5,89.2z"/>
		</g>
	</g>
	<g>
		<g>
			<g>
				<path class="st66" d="M113.6,243.7c1.4-1.4,2.7-2.7,4.3-3.9c0.6-0.4,1.2-0.5,1.9-0.2c1.2,0.6,2.3,1.2,3.5,1.9
					c0.2,0.1,0.4,0.4,0.4,0.6c0.7,8.3,2.7,16.3,4.2,24.5c1.6,8.3,3.3,16.6,4.9,24.9c0.6,3,1.2,6,1.8,9c0.1,0.3,0.1,0.5,0.1,0.8
					c-2.7,0.6-5.3,1.2-8,1.7c-0.1-0.4-0.2-0.7-0.3-1.1c-2.4-10.9-4.7-21.7-7.1-32.6c-1.6-7.5-3.2-15.1-4.8-22.6
					C114.2,245.7,113.8,244.8,113.6,243.7z"/>
				<path class="st68" d="M127.6,307.5c2.6-0.4,5.2-0.9,8-1.3c2.4,11.4,5,22.7,7.2,34.3c-2.2,0.9-4.4,1.1-6.7,1.2
					c-0.6-2.4-1.3-4.8-1.9-7.2c-2.2-8.7-4.3-17.4-6.4-26C127.8,308.1,127.7,307.8,127.6,307.5z"/>
			</g>
			<polygon class="st67" points="120.8,200.3 145.9,198.8 131.8,219.6 141.1,243 116.9,236.1 97.6,252.2 96.6,227 75.4,213.6 
				99,204.9 105.2,180.6 			"/>
		</g>
		<path class="st66" d="M115.9,124.9c0.7-0.4,1.2-0.8,1.7-1.1c3.2-2,6.6-2.4,10.1-1.4c3.6,1,5.3,3.4,5.3,7.1c0,3.4-1.2,6.4-2.8,9.3
			c-2.7,4.8-6.4,8.9-10.4,12.7c-1.6,1.6-3.3,3.1-5.1,4.5c-1.2,1-2.6,1.8-3.9,2.4c-2.3,1.1-5,0.1-5.9-2.2c-2.7-6.7-5.4-13.4-7.9-20.1
			c-0.9-2.5-1.4-5.2-1.7-7.8c-0.6-5.8,2.7-8.9,6.6-10.2c5-1.6,10.3,0.3,12.8,4.6C115,123.3,115.4,124.1,115.9,124.9z"/>
	</g>
</g>
</svg>
