<?xml version="1.0" encoding="utf-8"?>
<!-- Generator: Adobe Illustrator 22.0.1, SVG Export Plug-In . SVG Version: 6.00 Build 0)  -->
<svg version="1.1" id="Calque_1" xmlns="http://www.w3.org/2000/svg" xmlns:xlink="http://www.w3.org/1999/xlink" x="0px" y="0px"
	 viewBox="0 0 432 432" style="enable-background:new 0 0 432 432;" xml:space="preserve">
<style type="text/css">
	.st0{fill:#957452;}
	.st1{fill:#88573C;}
	.st2{fill:#D6C49A;}
	.st3{fill:#E52627;}
	.st4{fill:#CDCCCC;}
	.st5{fill:#264395;}
	.st6{fill:#1E274A;}
	.st7{fill:#EC6625;}
	.st8{fill:#020203;}
	.st9{fill:#E52521;}
	.st10{fill:#808181;}
	.st11{fill:#FFE324;}
	.st12{fill:#3F4244;}
	.st13{fill:#009F4A;}
	.st14{fill:#343434;}
	.st15{fill:#78170E;}
	.st16{fill:#F0E9D5;}
	.st17{fill:#272531;}
	.st18{fill:#222B56;}
	.st19{fill:#9BD2CC;}
	.st20{fill:#83B143;}
	.st21{fill:#1B1B1B;}
	.st22{fill:#FFFFFF;}
	.st23{fill:#DDD6C3;}
	.st24{fill:#997F64;}
	.st25{fill:#77684B;}
	.st26{fill:#A89877;}
	.st27{fill:#B4B4B4;}
	.st28{fill:#DDCEBB;}
	.st29{fill:#9A2A1A;}
	.st30{fill:#5E1C0C;}
	.st31{fill:#F1CA43;}
	.st32{fill:#A57B46;}
	.st33{fill:#F18538;}
	.st34{fill:#F2AC64;}
	.st35{fill:#FAB42D;}
	.st36{fill:#46494E;}
	.st37{fill:#CF875E;}
	.st38{fill:#E7E6E6;}
	.st39{fill:#1A181D;}
	.st40{fill:#637644;}
	.st41{fill:#9F1E29;}
	.st42{fill:#F9B03D;}
	.st43{fill:#0D71B9;}
	.st44{fill:#E52629;}
	.st45{fill:#676767;}
	.st46{fill:#30358C;}
	.st47{fill:#9A9999;}
	.st48{fill:#3F4798;}
	.st49{fill:#2DABE3;}
	.st50{fill:#C1292E;}
	.st51{fill:#F2F2F2;}
	.st52{fill:#AA7C4C;}
	.st53{fill:#D6A573;}
	.st54{fill:#29ACE1;}
	.st55{fill:#88C05E;}
	.st56{fill:#F39323;}
	.st57{fill:#EB5B28;}
	.st58{fill:#B85965;}
	.st59{fill:#A67D52;}
	.st60{fill:#8C633A;}
	.st61{fill:#009245;}
	.st62{fill:#066938;}
	.st63{fill:#7D252D;}
	.st64{fill:#95D3E3;}
	.st65{fill:#603914;}
	.st66{fill:#EFC9AF;}
	.st67{fill:#D987B8;}
	.st68{fill:#8FC14D;}
	.st69{fill:#C69C6C;}
	.st70{fill:#2BADE1;}
	.st71{fill:#A4C958;}
	.st72{fill:#754D24;}
	.st73{fill:#35AE73;}
	.st74{fill:#E0B99E;}
	.st75{fill:#BDCCD4;}
	.st76{fill:#0C0D0D;}
	.st77{fill:#F4E152;}
	.st78{fill:#1E1911;}
	.st79{fill:#A1BD4F;}
	.st80{fill:#CBE6DC;}
	.st81{fill:#B5DCCE;}
	.st82{fill:#1F1D1B;}
	.st83{fill:#746458;}
	.st84{fill:#C7B29A;}
	.st85{fill:#998675;}
	.st86{fill:#428540;}
	.st87{fill:#E3E5E3;}
	.st88{fill:#161617;}
	.st89{fill:#1E1F1E;}
	.st90{fill:#474847;}
	.st91{fill:#191A19;}
	.st92{fill:#4B2C15;}
	.st93{fill:#92552A;}
	.st94{fill:#7EA847;}
	.st95{fill:#D59E2B;}
	.st96{fill:#807E79;}
	.st97{fill:#E5B744;}
	.st98{fill:#8EC045;}
	.st99{fill:#3B569A;}
	.st100{fill:#A1B7E0;}
	.st101{fill:#8FC9CC;}
	.st102{fill:#9ED1CA;}
	.st103{fill:#81AAA9;}
	.st104{fill:#E1783D;}
	.st105{fill:#64328A;}
	.st106{fill:#DEDEA5;}
	.st107{fill:#754997;}
	.st108{fill:#EE6F43;}
	.st109{fill:#A6CB67;}
	.st110{fill:#8FB7C0;}
	.st111{fill:#E2E1DF;}
	.st112{fill:#2C3E70;}
	.st113{fill:#D9BF96;}
	.st114{fill:#9C6941;}
	.st115{fill:#61605E;}
	.st116{fill:#9C9A99;}
	.st117{fill:#245F3D;}
	.st118{fill:#191713;}
	.st119{fill:#C39A62;}
	.st120{fill:#A17C4F;}
	.st121{fill:#F39200;}
	.st122{fill:#432918;}
	.st123{fill:#B17F4A;}
	.st124{fill:#FFCE1E;}
	.st125{fill:#BE1622;}
	.st126{fill:#3AAA35;}
	.st127{fill:#911825;}
	.st128{fill:#009FE3;}
	.st129{fill:#E94E1B;}
	.st130{fill:#FFCC03;}
	.st131{fill:#95C11F;}
	.st132{fill:#00A19A;}
	.st133{fill:#683C11;}
	.st134{fill:#878787;}
	.st135{fill:#634E42;}
	.st136{fill:#CBBBA0;}
	.st137{fill:#7B5B41;}
	.st138{fill:#493E36;}
	.st139{fill:#78A62C;}
	.st140{fill:#2C8535;}
	.st141{fill:#F9B233;}
	.st142{fill:none;}
	.st143{fill:#CA9E67;}
	.st144{fill:#E30613;}
	.st145{fill:#C6C6C6;}
	.st146{fill:#575756;}
	.st147{fill:#7B6A58;}
	.st148{fill:#A3C5D7;}
	.st149{fill:#332C25;}
	.st150{fill:#29235C;}
	.st151{fill:#E6332A;}
	.st152{fill:#738D93;}
	.st153{fill:#C87B31;}
	.st154{fill:#5BBCA7;}
	.st155{fill:#EF786F;}
	.st156{fill:#EE8D9E;}
	.st157{fill:#A74B56;}
	.st158{fill:#E72D7B;}
	.st159{fill:#E84138;}
	.st160{fill:#3B2315;}
	.st161{fill:#8EC044;}
	.st162{fill:#A1C74B;}
	.st163{fill:#231F20;}
	.st164{fill:#F6D9A7;}
	.st165{fill:#F4A5A6;}
	.st166{fill:#6E6F70;}
	.st167{fill:#F8AF41;}
	.st168{fill:#B79C19;}
	.st169{fill:#EFD101;}
	.st170{fill:#207A97;}
	.st171{fill:#20ACE3;}
	.st172{fill:#C51618;}
	.st173{fill:#C19446;}
	.st174{fill:#9E599F;}
	.st175{fill:#CD95C2;}
	.st176{fill:#F29A26;}
	.st177{fill:#FCCE8D;}
	.st178{fill:#F39B85;}
	.st179{fill:#E52628;}
	.st180{fill:#6BB52D;}
</style>
<g>
	<g>
		<path class="st49" d="M314.4,356.1c0.1-1.4,0.6-3,1.4-4.5c1.9-3.7,4.3-7.1,7.1-10.2c2.6-2.8,5.2-5.5,7.9-8.2
			c6.3-6.3,13.6-11,22-14.2c4.1-1.5,8.4-2.5,12.8-2.6c2,0,4,0.1,6,0.7c1,0.3,1.9,0.8,2.8,1.3c3.4,2.3,4.5,6.4,2.8,10.1
			c-0.8,1.9-2.1,3.4-3.6,4.8c-1.9,1.7-4,3.1-6.3,4.3c-4.3,2.3-8.8,4.2-13.3,6c-5.7,2.3-11.4,4.4-16.8,7.1c-3.2,1.6-6.3,3.3-9.4,5
			c-1.6,0.9-3.1,2.1-4.6,3.1c-0.7,0.5-1.4,1-2.2,1.4C317.6,362.3,314.3,360.3,314.4,356.1z"/>
		<path class="st49" d="M109.8,357.8c0-0.9-0.4-2-0.9-3c-1.3-2.5-2.8-4.8-4.8-6.8c-1.7-1.8-3.5-3.7-5.3-5.5
			c-4.2-4.2-9.1-7.4-14.7-9.4c-2.8-1-5.6-1.7-8.6-1.7c-1.4,0-2.7,0-4,0.5c-0.6,0.2-1.3,0.5-1.8,0.9c-2.2,1.5-3,4.2-1.9,6.7
			c0.6,1.2,1.4,2.3,2.4,3.2c1.3,1.1,2.7,2,4.2,2.8c2.9,1.6,5.9,2.8,8.9,4c3.8,1.5,7.6,2.9,11.2,4.7c2.1,1.1,4.2,2.2,6.3,3.3
			c1.1,0.6,2.1,1.4,3.1,2.1c0.5,0.3,1,0.7,1.5,0.9C107.8,361.9,109.9,360.6,109.8,357.8z"/>
		<path class="st49" d="M337.6,311.6c0.1-2.2,0.6-4.1,1.3-5.8c0.4-1.2,0.9-2.4,1.3-3.6c2.9-8.1,7.4-15.1,14.5-20.2
			c2.1-1.5,4.3-2.8,6.8-3.5c0.8-0.2,1.5-0.4,2.3-0.5c4-0.3,6.7,2.7,6.2,6.6c-0.2,1.5-0.8,2.8-1.5,4.1c-1.3,2.4-3,4.5-5,6.5
			c-2.4,2.4-4.9,4.7-7.4,7c-4.1,3.7-8.1,7.6-11.8,11.7c-0.4,0.4-0.8,0.8-1.2,1.1c-2,1.3-4.5,0.5-5.2-1.8
			C337.7,312.6,337.6,311.9,337.6,311.6z"/>
	</g>
	<g>
		<g>
			<path class="st72" d="M301.2,162.1c0.1,6,0.3,15.2,0.4,24.4c0.2,16.3,0.3,32.6,0.4,48.9c0,4.1-0.2,8.2-0.4,12.2
				c0,0.6-0.1,1.2-0.2,1.8c-0.2,1.5-1,2.4-2.3,2.9c-1.7,0.7-3.5,0.7-5.3,0.3c-1.6-0.4-2.6-1.6-2.7-3.3c-0.1-2.7-0.2-5.4-0.2-8.1
				c-0.1-4.4-0.2-8.7-0.2-13.1c0-8.6-0.1-17.2-0.1-25.8c0-4.5,0.1-8.9,0.1-13.4c0.2-10.3,0.4-20.7,0.5-31c0.1-8.6,0.2-17.3,0.2-25.9
				c0-7.1-0.2-14.3-0.2-21.4c0-5.9,0-11.8,0.1-17.7c0.1-4.8,0.3-9.7,0.9-14.5c0.4-2.9,0.9-5.8,2.1-8.5c0.3-0.6,0.6-1.2,1-1.8
				c1.3-1.8,3.5-1.5,4.3,0.6c0.4,1.1,0.6,2.3,0.6,3.5c0.2,4.1,0.3,8.2,0.3,12.3c0.1,11.6,0.2,23.3,0.3,34.9
				C300.9,132.7,301.1,145.8,301.2,162.1z"/>
			<g>
				<path class="st38" d="M287.7,86.2c-0.4-0.3-0.7-0.5-1-0.7c-1.9-1.4-3.8-2.8-5.5-4.3c-0.9-0.8-1.7-1.8-2.4-2.8
					c-0.3-0.4-0.6-0.9-0.8-1.5c-1.1-2.8,0.4-5.4,3.4-5.6c4.3-0.4,7.9,1.1,10.7,4.4c1.4,1.7,2.4,3.6,3.4,5.6c0.2,0.4,0.4,0.8,0.6,1.3
					c1.4-0.3,2.7-0.4,4,0.4c1.2,0.8,1.8,2,2.1,3.4c0.5,0,0.9,0.1,1.4,0.1c7.9,0.5,15.7,1.5,23.3,3.8c24.7,7.8,41,24.1,48.7,48.8
					c1.9,6,2.6,12.2,2.3,18.5c-0.5,7.6-2.5,14.7-6,21.4c-5.7,10.9-13.8,19.6-23.9,26.6c-8.9,6.2-18.6,10.2-29.2,12.3
					c-5.1,1-10.3,1.4-15.5,1.2c-1.1,0-2.1-0.1-3.2-0.2c-0.7-0.1-1.3,0.1-1.8,0.6c-1.6,1.3-3.4,2-5.5,2c-1.8,0-3.4-0.5-4.8-1.8
					c-0.4-0.4-0.9-0.6-1.5-0.5c-2.9,0.5-5.7,0.9-8.6,1.2c-2.7,0.3-5.5,0.3-8.2-0.4c-1.7-0.4-3.1-1.3-4.1-2.8
					c-1.5-2.2-1.2-4.8,0.9-6.6c1-0.9,2.3-1.4,3.6-1.7c2.4-0.6,4.7-0.4,7.1-0.1c0.4,0.1,0.9,0.1,1.4,0c-0.3-0.2-0.6-0.5-1-0.7
					c-1.3-1-2.4-2.1-3.1-3.5c-0.4-0.8-0.6-1.7-0.5-2.6c0.1-1.7,1-2.8,2.5-3.5c1.7-0.8,3.4-0.9,5.2-0.4c2.7,0.8,5,2.2,7.1,4
					c0.8,0.7,1.6,1.5,2.4,2.3c0.4,0.5,0.8,0.6,1.4,0.4c1.3-0.5,2.7-0.6,4.1,0c0.9,0.4,1.8,1,2.8,1.6c0.1-0.2,0.3-0.5,0.5-0.9
					c3.6-7.3,6.1-14.9,7.6-22.9c2.4-12.4,3.1-24.9,2.7-37.5c-0.2-6.2-0.7-12.3-1.5-18.5c-1.3-9.5-3.9-18.7-7.8-27.4
					c-0.6-1.3-1.3-2.5-1.9-3.7c-0.1-0.1-0.2-0.3-0.3-0.4c-0.1,0-0.2,0-0.3,0c-1.6,0.2-2.5,1.2-3.4,2.5c-5.4,8.1-11.3,15.9-17.3,23.6
					c-3.4,4.5-6.6,9.1-9.8,13.7c-13.3,19.4-28.4,37.2-45.3,53.7c-13,12.7-26.7,24.6-40.8,36c-8.7,7-17.5,13.8-26.2,20.7
					c-0.4,0.3-0.8,0.6-1.2,0.9c-2.4,2-5.3,2.6-8.3,2.4c-6.9-0.4-13-2.9-18.8-6.4c-1.2-0.8-2.3-1.8-3.4-2.8c-0.9-0.9-1.6-1.9-2.1-3.1
					c-1.2-3.2,0.3-6.3,3.5-7.5c1.8-0.6,3.7-0.5,5.5-0.1c3.2,0.7,6.1,2.1,8.9,3.8c0.3,0.2,0.6,0.4,0.9,0.6c0.1,0,0.1,0,0.3,0
					c-0.2-0.5-0.3-0.9-0.4-1.3c-1.5-3.9-2.8-7.9-3.6-12c-0.6-3.3-1-6.7-0.6-10c0.3-2.2,0.8-4.4,2.2-6.2c1.5-2.2,3.7-3.2,6.3-3.1
					c1.4,0,2.7,0.6,3.9,1.3c1.9,1.2,3.4,2.8,4.6,4.6c2.4,3.5,3.9,7.3,4.7,11.5c0.9,5,1,9.9-0.4,14.8c-0.5,1.7-1.2,3.3-1.9,5
					c0.2-0.1,0.4-0.1,0.6-0.3c8.4-5.9,16.7-12,24.4-19c9.3-8.5,18.5-17.1,27.7-25.7c5.5-5.2,11.1-10.3,16.5-15.6
					c3.8-3.7,7.5-7.5,11.2-11.3c1.3-1.3,2.4-2.8,3.7-4.2c0.5-0.5,1.1-0.9,1.5-1.5c15.5-17.2,29.6-35.5,42.5-54.8
					c1.2-1.7,2.3-3.5,3.4-5.3c0.2-0.3,0.4-0.6,0.4-1.1c-0.3,0.2-0.7,0.4-1,0.7c-2.6,1.9-5.4,3.1-8.6,3.6c-1.1,0.2-2.3,0.2-3.4,0.1
					c-2.8-0.3-4.5-2.3-4.4-5.1c0.1-2,0.9-3.7,2.2-5.1c1.2-1.3,2.7-2.2,4.2-3.1c3-1.6,6.3-2.6,9.6-3.5
					C286.9,86.4,287.2,86.3,287.7,86.2z"/>
				<path class="st50" d="M343.4,137.5l11.2-5.9c1.2-0.6,2.6,0.4,2.4,1.7l-2.1,12.5c-0.1,0.5,0.1,1.1,0.5,1.4l9.1,8.8
					c1,0.9,0.4,2.6-0.9,2.8l-12.5,1.8c-0.5,0.1-1,0.4-1.2,0.9l-5.6,11.3c-0.6,1.2-2.3,1.2-2.9,0l-5.6-11.3c-0.2-0.5-0.7-0.8-1.2-0.9
					l-12.5-1.8c-1.3-0.2-1.9-1.8-0.9-2.8l9.1-8.8c0.4-0.4,0.6-0.9,0.5-1.4l-2.1-12.5c-0.2-1.3,1.2-2.3,2.4-1.7l11.2,5.9
					C342.3,137.8,342.9,137.8,343.4,137.5z"/>
			</g>
		</g>
		<g>
			<path class="st72" d="M104.6,216.7c0-5.8,0-11.6,0-17.3c0-4.3,0.1-8.6,0.2-12.8c0-0.8,0-1.5,0.1-2.3c0.1-0.6,0.1-1.3,0.4-1.9
				c0.6-1.7,1.8-2.8,3.7-2.9c1.7-0.1,3,0.9,3.8,2.4c0.8,1.5,1.1,3.2,1.4,4.9c0.6,3.4,0.4,6.9,0.4,10.3c0,5.1,0,10.2,0,15.3
				c0,1.5,0,2.9,0.1,4.4c0.2,8.3,0.4,16.5,0.6,24.8c0,1.9,0,3.7-0.1,5.6c0,0.9-0.3,1.9-0.5,2.8c-0.6,2.5-2.3,3.9-4.4,5
				c-1.7,0.8-3.1,0.4-4.1-1.2c-0.6-0.9-0.9-1.9-1-3c-0.2-4-0.4-8.1-0.4-12.1C104.5,231.4,104.6,224,104.6,216.7
				C104.6,216.7,104.6,216.7,104.6,216.7z"/>
			<path class="st50" d="M116.7,216.6c-0.1,1.7-0.3,3.3-0.6,4.9c-0.1,0.7-0.5,1.4-0.8,2.1c-0.6,1.1-1.6,1.9-2.9,2.1
				c-2.7,0.3-5.4,0.6-8.1,0.8c-6.2,0.4-12.4,0-18.6-0.5c-4.9-0.4-9.8-0.8-14.6-1.7c-3.7-0.7-7.3-1.8-10.7-3.3
				c-1.2-0.5-2.3-1.2-3.4-2c-0.8-0.6-1.5-1.4-2.1-2.2c-1.3-2.1-0.9-4.4,1.1-5.9c1-0.8,2.1-1.4,3.2-2c2.6-1.6,5.1-3.1,7.7-4.8
				c0.9-0.6,1.7-1.4,2.3-2.2c1-1.2,1-1.6-0.1-2.7c-1.4-1.4-2.9-2.9-4.3-4.3c-1.8-1.9-3.6-3.8-4.9-6.1c-0.7-1.2-1.4-2.4-1.5-3.8
				c-0.1-0.9-0.1-1.8,0.1-2.7c0.4-1.9,1.7-3,3.6-3.3c1.2-0.2,2.4-0.3,3.7-0.2c3.5,0.2,7,0.6,10.5,0.7c4.3,0.1,8.5,0.1,12.8,0
				c3.4-0.1,6.9-0.5,10.3-0.7c2.1-0.2,4.1-0.4,6.1-0.6c1.9-0.2,3.7,0,5.5,0.5c2.2,0.6,3.6,1.9,4.3,4c1,2.6,1.4,5.4,1.5,8.1
				c0,4.2,0,8.3,0,12.5C116.7,204.1,116.8,212.1,116.7,216.6z"/>
		</g>
		<g>
			<path class="st60" d="M336.3,276.3c-0.2,0.9-0.5,1.9-0.8,2.8c-1.5,4.9-3.4,9.6-5.8,14.2c-1.5,2.9-3.1,5.8-4.6,8.7
				c-0.8,1.5-1.6,2.9-2.4,4.4c-1.7,3-3.4,5.8-5.3,8.7c-4.3,6.6-9.2,12.8-14.7,18.4c-2,2-4.1,4-6.3,5.9c-2.9,2.5-5.9,4.7-9.2,6.7
				c-0.5,0.3-1,0.6-1.5,0.9c-2,1.2-4.2,2-6.2,3.2c-4.9,2.7-10.2,4.3-15.5,5.7c-3.4,0.9-6.7,2-10,2.9c-6.8,1.8-13.8,3-20.7,4
				c-6.8,1-13.6,1.6-20.4,1.8c-5.3,0.2-10.6,0.3-15.9,0.2c-8.6-0.2-17.1-1.1-25.6-2.5c-9.6-1.6-19.1-3.9-28.3-7
				c-2.8-0.9-5.5-2-8.2-3.2c-5-2.3-9.7-5.3-14-8.7c-0.6-0.5-1.2-1-1.8-1.5c-4.3-3.5-8.2-7.3-11.9-11.3c-5.8-6.4-10.9-13.4-15.2-21
				c-0.2-0.3-0.3-0.6-0.5-0.9c-2.2-4-4.3-8-6.2-12.1c-2.7-5.6-5-11.4-7.1-17.2c-0.5-1.4-0.9-2.8-1.4-4.2c-0.9-2.8-1.7-5.6-2.4-8.5
				c-0.3-1.2-0.5-2.4-0.7-3.7c-0.3-2.1-0.4-4.3,0.1-6.4c0.7-3.5,2.8-5.8,6.2-6.8c2-0.5,4.1-0.9,6.2-1.1c4.8-0.5,9.5-1,14.3-1.2
				c6.3-0.3,19-0.3,19-0.3c4.7,0,9.3,0.1,14,0c4.2-0.1,8.4-0.2,12.6-0.4c12-0.5,24-0.3,36-0.3c4.9,0,9.8,0,14.7,0.1
				c6.1,0.1,12.2,0.4,18.3,0.6c3.2,0.1,6.4,0.3,9.6,0.3c14.8,0.2,29.5,0.3,44.3,0.4c4,0,8.1-0.2,12.1-0.2c4.8,0,9.7,0.2,14.5,0.3
				c3.2,0.1,6.5,0.2,9.7,0.4c5.6,0.3,11.2,0.8,16.7,1.8c2.4,0.5,4.7,1.1,6.9,2.1c5.3,2.5,8.2,6.8,8.9,12.6c0.1,0.4,0.1,0.9,0.1,1.3
				C337.7,269.8,337.1,273.1,336.3,276.3z"/>
			<g>
				<path class="st72" d="M325.1,302.1c-0.8,1.5-1.6,2.9-2.4,4.4c-1.7,3-3.4,5.8-5.3,8.7c-1.9,0.1-3.8,0.2-5.7,0.3
					c-3.2,0.2-6.4,0.3-9.6,0.5c-20.8,0.8-41.6,0.7-62.4,0.6c-8.6-0.1-17.3-0.1-25.9-0.2c-6.9-0.1-13.7-0.3-20.5-0.5
					c-7.4-0.2-14.9-0.5-22.3-0.9c-7.3-0.4-14.6-0.9-21.9-1.4c-7.4-0.5-14.8-1-22.3-1.5c-6.4-0.4-12.7-0.7-19.1-1.1
					c-5.3-0.4-10.7-0.7-16-1.1c-0.2-0.3-0.3-0.6-0.5-0.9c-2.2-4-4.3-8-6.2-12.1c0.2,0,0.3,0,0.5,0c5.8,0.5,11.5,0.9,17.3,1.3
					c3.8,0.3,7.7,0.4,11.5,0.6c3.3,0.2,6.7,0.4,10,0.6c3.1,0.2,6.2,0.4,9.2,0.6c4,0.3,8,0.6,12,0.8c3.9,0.3,7.7,0.6,11.6,0.8
					c4.8,0.3,9.7,0.7,14.6,0.9c4.7,0.2,9.3,0.4,14,0.6c5.3,0.2,10.6,0.4,15.9,0.5c11.9,0.2,23.8,0.4,35.6,0.5
					c12.5,0.1,24.9,0.2,37.4,0.1c7.9,0,15.8-0.3,23.8-0.5c5-0.1,10-0.4,14.9-0.7C317.1,302.7,321.1,302.4,325.1,302.1z"/>
				<path class="st72" d="M336.3,276.3c-0.2,0.9-0.5,1.9-0.8,2.8c-0.2,0-0.4,0-0.6,0c-5.3,0.4-10.7,0.8-16,1.2c-4,0.3-8,0.4-12,0.6
					c-8.5,0.3-17,0.7-25.5,1c-15.4,0.6-30.7,0.4-46.1,0.3c-7.4-0.1-14.7,0-22.1,0c0,0,0,0,0,0c-13.5,0.1-27.1,0.2-40.6,0.2
					c-12,0-24-0.1-36-0.3c-4.8,0-9.6-0.1-14.4-0.3c-5.5-0.2-11-0.4-16.5-0.6c-5.3-0.3-10.5-0.6-15.8-0.9c-4.1-0.2-8.1-0.4-12.2-0.7
					c-0.5-1.4-0.9-2.8-1.4-4.2c-0.9-2.8-1.7-5.6-2.4-8.5c2.8,0.2,5.6,0.4,8.4,0.6c5.7,0.3,11.5,0.7,17.2,0.9
					c4.7,0.3,9.5,0.5,14.2,0.7c5.6,0.2,11.2,0.4,16.7,0.5c6.7,0.1,13.3,0.2,20,0.3c13,0.1,26,0.1,39,0.1c19.6,0,39.1-0.1,58.7-0.1
					c5,0,9.9,0.1,14.8,0.1c5,0,10-0.1,15-0.2c4.6-0.1,9.2-0.3,13.8-0.5c5.6-0.2,11.2-0.4,16.9-0.7c5.5-0.3,10.9-0.6,16.4-0.9
					c4.2-0.3,8.3-0.7,12.5-1.1C337.7,269.8,337.1,273.1,336.3,276.3z"/>
				<path class="st72" d="M302.6,333.5c-2,2-4.1,4-6.3,5.9c-2.9,2.5-5.9,4.7-9.2,6.7c-5.8,0.1-11.7,0.1-17.6,0.3
					c-6.3,0.1-12.6,0.2-18.9,0.4v-0.1c-8.9,0.1-17.8,0.2-26.7,0.2c-5.8,0-11.7,0-17.6-0.1c-5.4-0.1-10.8-0.1-16.3-0.2
					c-3.7-0.1-7.4-0.2-11.2-0.4c-5-0.2-10-0.4-15-0.6c-4.3-0.2-8.6-0.4-12.9-0.6c-6-0.3-12-0.7-18-0.9c-4.2-0.2-8.3-0.4-12.5-0.5
					c-0.6-0.5-1.2-1-1.8-1.5c-4.3-3.5-8.2-7.3-11.9-11.3c3.8,0.1,7.7,0.2,11.5,0.3c6,0.2,12,0.4,18,0.7c5.7,0.3,11.4,0.7,17.1,1
					c3.4,0.2,6.8,0.3,10.2,0.4c4.9,0.2,9.8,0.4,14.7,0.6c5.6,0.2,11.2,0.3,16.9,0.4c5,0.1,10,0.2,15,0.2c9.8,0,19.6,0,29.5-0.1
					c8.8-0.1,17.6-0.2,26.4-0.3C278.3,333.9,290.5,333.6,302.6,333.5z"/>
			</g>
		</g>
		<g>
			<circle class="st65" cx="200" cy="306.7" r="33.5"/>
			<circle class="st49" cx="200" cy="306.5" r="22.5"/>
		</g>
	</g>
	<g>
		<path class="st38" d="M146.8,120.8c3.3-6.4,8.5-9.2,15.8-7.6c0.1-0.6,0.3-1.2,0.4-1.8c0.6-2.3,1.3-4.6,2.5-6.7
			c1.5-2.7,3.6-4.9,6.3-6.4c4.9-2.7,10.3-1.9,14.3,2c2,2,3.3,4.3,4.2,7c0.3,1,0.6,2.1,0.9,3.1c1-0.2,2-0.5,2.9-0.6
			c10.1-1.4,17.9,5.6,19.2,13.9c0.3,2.2,0.5,4.4,0.1,6.6c-0.7,3.5-2.7,6.2-5.7,8.1c-2.3,1.5-4.8,2.4-7.4,2.8
			c-2.4,0.4-4.8,0.6-7.3,0.8c-5.5,0.4-11,0.1-16.5-0.1c-2.7-0.1-5.4-0.3-8.1-0.3c-3.9,0.1-7.9,0.1-11.8,0.2c-2.7,0-5.4-0.1-8.1-0.6
			c-1.9-0.3-3.7-0.8-5.4-1.7c-3-1.7-5.1-4.1-5.7-7.6c-0.8-4.7,1.9-9.5,6.5-10.8C144.9,121,145.8,121,146.8,120.8z"/>
		<circle class="st42" cx="137.4" cy="106.4" r="23.7"/>
		<path class="st38" d="M84.6,104.1c0.2-1,0.3-2,0.5-2.9c0.1-0.5,0.4-1.1,0.6-1.6c1.6-2.8,4.7-3.7,7.6-2.9c0.4,0.1,0.8,0.3,1.2,0.5
			c0.1-0.2,0.2-0.4,0.2-0.6c0.7-2.7,2.1-5,4.2-7.1c1.6-1.6,3.5-2.7,5.9-3.3c4.4-1.1,8.4,1,9.5,5c0.2,0.7,0.3,1.3,0.4,2
			c0,0.2,0.1,0.4,0.1,0.6c0.5,0,0.9,0,1.4,0.1c2.9,0.3,5,2.1,5.4,4.7c0.1,0.9,0.1,1.8-0.1,2.6c-0.1,0.4,0,0.7,0.3,1
			c1.3,1.2,2.2,2.7,2.5,4.3c0.5,2.9-0.5,5.3-2.9,7.3c-1.4,1.2-3.1,1.9-4.9,2.4c-1.4,0.3-2.9,0.6-4.3,0.8c-4.1,0.5-8.3,0.6-12.5,0.6
			c-2.8,0-5.6-0.3-8.4-0.6c-1.6-0.2-3.2-0.3-4.8-0.6c-2-0.3-3.9-1.1-5.4-2.4c-1.1-0.9-1.9-2-2.1-3.4c-0.3-1.9,0.5-3.5,2.1-4.8
			c1-0.7,2.1-1.2,3.2-1.6C84.4,104.2,84.5,104.2,84.6,104.1z"/>
	</g>
</g>
</svg>
