<?xml version="1.0" encoding="utf-8"?>
<!-- Generator: Adobe Illustrator 22.0.1, SVG Export Plug-In . SVG Version: 6.00 Build 0)  -->
<svg version="1.1" id="Calque_1" xmlns="http://www.w3.org/2000/svg" xmlns:xlink="http://www.w3.org/1999/xlink" x="0px" y="0px"
	 viewBox="0 0 432 432" style="enable-background:new 0 0 432 432;" xml:space="preserve">
<style type="text/css">
	.st0{fill:#957452;}
	.st1{fill:#88573C;}
	.st2{fill:#D6C49A;}
	.st3{fill:#E52627;}
	.st4{fill:#CDCCCC;}
	.st5{fill:#264395;}
	.st6{fill:#1E274A;}
	.st7{fill:#EC6625;}
	.st8{fill:#020203;}
	.st9{fill:#E52521;}
	.st10{fill:#808181;}
	.st11{fill:#FFE324;}
	.st12{fill:#3F4244;}
	.st13{fill:#009F4A;}
	.st14{fill:#343434;}
	.st15{fill:#78170E;}
	.st16{fill:#F0E9D5;}
	.st17{fill:#272531;}
	.st18{fill:#222B56;}
	.st19{fill:#9BD2CC;}
	.st20{fill:#83B143;}
	.st21{fill:#1B1B1B;}
	.st22{fill:#FFFFFF;}
	.st23{fill:#DDD6C3;}
	.st24{fill:#997F64;}
	.st25{fill:#77684B;}
	.st26{fill:#A89877;}
	.st27{fill:#B4B4B4;}
	.st28{fill:#DDCEBB;}
	.st29{fill:#9A2A1A;}
	.st30{fill:#5E1C0C;}
	.st31{fill:#F1CA43;}
	.st32{fill:#A57B46;}
	.st33{fill:#F18538;}
	.st34{fill:#F2AC64;}
	.st35{fill:#FAB42D;}
	.st36{fill:#46494E;}
	.st37{fill:#CF875E;}
	.st38{fill:#E7E6E6;}
	.st39{fill:#1A181D;}
	.st40{fill:#637644;}
	.st41{fill:#9F1E29;}
	.st42{fill:#F9B03D;}
	.st43{fill:#0D71B9;}
	.st44{fill:#E52629;}
	.st45{fill:#676767;}
	.st46{fill:#30358C;}
	.st47{fill:#9A9999;}
	.st48{fill:#3F4798;}
	.st49{fill:#2DABE3;}
	.st50{fill:#C1292E;}
	.st51{fill:#F2F2F2;}
	.st52{fill:#AA7C4C;}
	.st53{fill:#D6A573;}
	.st54{fill:#29ACE1;}
	.st55{fill:#88C05E;}
	.st56{fill:#F39323;}
	.st57{fill:#EB5B28;}
	.st58{fill:#B85965;}
	.st59{fill:#A67D52;}
	.st60{fill:#8C633A;}
	.st61{fill:#009245;}
	.st62{fill:#066938;}
	.st63{fill:#7D252D;}
	.st64{fill:#95D3E3;}
	.st65{fill:#603914;}
	.st66{fill:#EFC9AF;}
	.st67{fill:#D987B8;}
	.st68{fill:#8FC14D;}
	.st69{fill:#C69C6C;}
	.st70{fill:#2BADE1;}
	.st71{fill:#A4C958;}
	.st72{fill:#754D24;}
	.st73{fill:#35AE73;}
	.st74{fill:#E0B99E;}
	.st75{fill:#BDCCD4;}
	.st76{fill:#0C0D0D;}
	.st77{fill:#F4E152;}
	.st78{fill:#1E1911;}
	.st79{fill:#A1BD4F;}
	.st80{fill:#CBE6DC;}
	.st81{fill:#B5DCCE;}
	.st82{fill:#1F1D1B;}
	.st83{fill:#746458;}
	.st84{fill:#C7B29A;}
	.st85{fill:#998675;}
	.st86{fill:#428540;}
	.st87{fill:#E3E5E3;}
	.st88{fill:#161617;}
	.st89{fill:#1E1F1E;}
	.st90{fill:#474847;}
	.st91{fill:#191A19;}
	.st92{fill:#4B2C15;}
	.st93{fill:#92552A;}
	.st94{fill:#7EA847;}
	.st95{fill:#D59E2B;}
	.st96{fill:#807E79;}
	.st97{fill:#E5B744;}
	.st98{fill:#8EC045;}
	.st99{fill:#3B569A;}
	.st100{fill:#A1B7E0;}
	.st101{fill:#8FC9CC;}
	.st102{fill:#9ED1CA;}
	.st103{fill:#81AAA9;}
	.st104{fill:#E1783D;}
	.st105{fill:#64328A;}
	.st106{fill:#DEDEA5;}
	.st107{fill:#754997;}
	.st108{fill:#EE6F43;}
	.st109{fill:#A6CB67;}
	.st110{fill:#8FB7C0;}
	.st111{fill:#E2E1DF;}
	.st112{fill:#2C3E70;}
	.st113{fill:#D9BF96;}
	.st114{fill:#9C6941;}
	.st115{fill:#61605E;}
	.st116{fill:#9C9A99;}
	.st117{fill:#245F3D;}
	.st118{fill:#191713;}
	.st119{fill:#C39A62;}
	.st120{fill:#A17C4F;}
	.st121{fill:#F39200;}
	.st122{fill:#432918;}
	.st123{fill:#B17F4A;}
	.st124{fill:#FFCE1E;}
	.st125{fill:#BE1622;}
	.st126{fill:#3AAA35;}
	.st127{fill:#911825;}
	.st128{fill:#009FE3;}
	.st129{fill:#E94E1B;}
	.st130{fill:#FFCC03;}
	.st131{fill:#95C11F;}
	.st132{fill:#00A19A;}
	.st133{fill:#683C11;}
	.st134{fill:#878787;}
	.st135{fill:#634E42;}
	.st136{fill:#CBBBA0;}
	.st137{fill:#7B5B41;}
	.st138{fill:#493E36;}
	.st139{fill:#78A62C;}
	.st140{fill:#2C8535;}
	.st141{fill:#F9B233;}
	.st142{fill:none;}
	.st143{fill:#CA9E67;}
	.st144{fill:#E30613;}
	.st145{fill:#C6C6C6;}
	.st146{fill:#575756;}
	.st147{fill:#7B6A58;}
	.st148{fill:#A3C5D7;}
	.st149{fill:#332C25;}
	.st150{fill:#29235C;}
	.st151{fill:#E6332A;}
	.st152{fill:#738D93;}
	.st153{fill:#C87B31;}
	.st154{fill:#5BBCA7;}
	.st155{fill:#EF786F;}
	.st156{fill:#EE8D9E;}
	.st157{fill:#A74B56;}
	.st158{fill:#E72D7B;}
	.st159{fill:#E84138;}
	.st160{fill:#3B2315;}
	.st161{fill:#8EC044;}
	.st162{fill:#A1C74B;}
	.st163{fill:#231F20;}
	.st164{fill:#F6D9A7;}
	.st165{fill:#F4A5A6;}
	.st166{fill:#6E6F70;}
	.st167{fill:#F8AF41;}
	.st168{fill:#B79C19;}
	.st169{fill:#EFD101;}
	.st170{fill:#207A97;}
	.st171{fill:#20ACE3;}
	.st172{fill:#C51618;}
	.st173{fill:#C19446;}
	.st174{fill:#9E599F;}
	.st175{fill:#CD95C2;}
	.st176{fill:#F29A26;}
	.st177{fill:#FCCE8D;}
	.st178{fill:#F39B85;}
	.st179{fill:#E52628;}
	.st180{fill:#6BB52D;}
</style>
<g>
	<g>
		<path class="st4" d="M59.7,133.2c-11-6.8-4.9-25.5,9.6-19.2c-5.2-11.7,15.3-20.2,18.1-12.9c3.5-16.2,30.3-7.3,24.8,5.8
			c13.2-4,21.9,21,6.6,20.7c4.5,10.7,0.9,26.1-17.1,17.5c-6.1,12.4-28.2,1.9-24.2-7.5C71.6,145.9,60.8,148.3,59.7,133.2z"/>
		<path class="st4" d="M374.1,208.4c7.6,4.7,3.4,17.6-6.6,13.2c3.6,8.1-10.5,13.9-12.5,8.9c-2.4,11.2-20.9,5-17.1-4
			c-9.1,2.8-15.1-14.5-4.6-14.3c-3.1-7.4-0.6-18,11.8-12.1c4.2-8.6,19.4-1.3,16.7,5.2C365.8,199.7,373.3,198,374.1,208.4z"/>
		<path class="st4" d="M93,320.6c-0.1-12.5,26.9-7,15.7,6.4c9.8-2.7,16.4,9.9,10.2,11.3c15.9-2.8,8,23.3-5.4,14.8
			c6.4,10.3-19,16.8-17.3,3.3c-8.2,7.6-21.6-0.3-14.1-10.9c-10.2-4.1-0.9-17.1,6.8-14.4C82.2,327.5,80.5,320.9,93,320.6z"/>
	</g>
	<g>
		<g>
			<g>
				<path class="st42" d="M304.2,283.1c0,33.9-43.4,35.6-96.9,35.6c-53.5,0-90.4-17.1-96.9-35.6c-0.1-0.4-0.3-0.8-0.4-1.2
					c-4.1-12.4-11.2-43.7,10.3-43.7c13.3,0,14,13.6,12.2,25c17.8-8.6,44.7-15.8,74.7-15.8c53.1,0,96.1,1.7,96.9,34.8
					C304.2,282.6,304.2,282.9,304.2,283.1z"/>
				<path class="st43" d="M304.2,283.1c0,33.9-43.4,35.6-96.9,35.6c-53.5,0-90.4-17.1-96.9-35.6c-0.1-0.4-0.3-0.8-0.4-1.2
					c62.9,0.3,146.3,0.5,194.2,0.3C304.2,282.6,304.2,282.9,304.2,283.1z"/>
			</g>
			<g>
				<g>
					<g>
						<path class="st44" d="M310.8,284.7c-6.3,0-19.4-51.9-1.4-51.9S317.1,284.7,310.8,284.7z"/>
						<path class="st44" d="M311,287.7c6.3,0,19.4,51.9,1.4,51.9S304.7,287.7,311,287.7z"/>
					</g>
					<path class="st4" d="M296.9,285.2c0-10.6,23.1-6.5,23.1-1.1C320,291.5,296.9,294,296.9,285.2z"/>
				</g>
				<path class="st44" d="M165.1,291.1c22.8,0,31.4,0,64.5,0s-10.3,42.2-37.9,40.8S150,291.1,165.1,291.1z"/>
				<path class="st44" d="M126.9,266.6c-0.4-8-42.2-6.8-42.2,2.9S127.5,277.4,126.9,266.6z"/>
			</g>
		</g>
		<g>
			<g>
				<g>
					<path class="st44" d="M216.1,78.3c0-6.3,76.8-19.4,76.8-1.4S216.1,84.6,216.1,78.3z"/>
					<path class="st44" d="M211.6,78.5c0,6.3-76.8,19.4-76.8,1.4S211.6,72.2,211.6,78.5z"/>
				</g>
				<path class="st45" d="M214.4,92.4c-10.6,0-6.5-23.1-1.1-23.1C220.7,69.2,223.2,92.4,214.4,92.4z"/>
			</g>
			<g>
				<path class="st43" d="M341.2,157.6c0-5.1-33.4-4.4-61.7-4.7c-4-31.9-19.6-66.5-58.1-66.5c-45.9,0-80.5,43.9-80.5,84.5
					c0,14,16,23.6,37.2,28.6l-2.6,7.5c-0.9,2.5,0.5,5.2,2.9,6.1c2.5,0.9,5.2-0.5,6.1-2.9l3-8.7c17,2.7,36,2.7,52.4-0.3l3.1,9.1
					c0.9,2.5,3.6,3.8,6.1,2.9c2.5-0.9,3.8-3.6,2.9-6.1l-2.8-8c18.2-5,31.2-14.2,31.2-28c0-1.3,0-2.6-0.1-3.9
					C303.5,165.2,341.2,161.7,341.2,157.6z"/>
				<path class="st42" d="M298.7,192c-6.7,9.1-38.8,18.6-84.8,18.9c-46-0.3-78.1-9.8-84.8-18.9c-1.6-2.3-5.8-6-5.8,4.2
					c0,7.4,45.7,22.3,90.6,22.4c45.7,0.1,90.6-14.8,90.6-22.4C304.5,186,300.3,189.7,298.7,192z"/>
				<path class="st4" d="M214.8,106c34.8-2.5,53.8,54.2,44.8,66.5c-9,12.3-53.5,9.1-69.8,9.1c-24.3,0-42.2-16.7-13.6-52.3
					C191.8,108.7,200.9,107,214.8,106z"/>
			</g>
			<path class="st44" d="M345.9,158c0.5-1.8,0.2-3.7-0.7-5.4c7.3-3.9,22.7-19.1,15.6-24.7c-7-5.5-17.1,13.2-19,21.6
				c-1.8-0.8-3.8-0.7-5.6,0c-5.6-7.8-17.9-18.8-22.8-12.6c-4.9,6.2,9.3,14.9,18.5,18.1c-0.2,1.3,0,2.6,0.4,3.8
				c-7.6,6-17,17.2-11.2,21.8c6,4.7,14.2-8.1,17.6-17.3c1.2,0,2.4-0.2,3.5-0.8c4.9,7.7,18.6,20.7,23.8,14.1
				C371.3,170,354.8,160.6,345.9,158z"/>
		</g>
	</g>
</g>
</svg>
