<?xml version="1.0" encoding="utf-8"?>
<!-- Generator: Adobe Illustrator 22.0.1, SVG Export Plug-In . SVG Version: 6.00 Build 0)  -->
<svg version="1.1" id="Calque_1" xmlns="http://www.w3.org/2000/svg" xmlns:xlink="http://www.w3.org/1999/xlink" x="0px" y="0px"
	 viewBox="0 0 432 432" style="enable-background:new 0 0 432 432;" xml:space="preserve">
<style type="text/css">
	.st0{fill:#957452;}
	.st1{fill:#88573C;}
	.st2{fill:#D6C49A;}
	.st3{fill:#E52627;}
	.st4{fill:#CDCCCC;}
	.st5{fill:#264395;}
	.st6{fill:#1E274A;}
	.st7{fill:#EC6625;}
	.st8{fill:#020203;}
	.st9{fill:#E52521;}
	.st10{fill:#808181;}
	.st11{fill:#FFE324;}
	.st12{fill:#3F4244;}
	.st13{fill:#009F4A;}
	.st14{fill:#343434;}
	.st15{fill:#78170E;}
	.st16{fill:#F0E9D5;}
	.st17{fill:#272531;}
	.st18{fill:#222B56;}
	.st19{fill:#9BD2CC;}
	.st20{fill:#83B143;}
	.st21{fill:#1B1B1B;}
	.st22{fill:#FFFFFF;}
	.st23{fill:#DDD6C3;}
	.st24{fill:#997F64;}
	.st25{fill:#77684B;}
	.st26{fill:#A89877;}
	.st27{fill:#B4B4B4;}
	.st28{fill:#DDCEBB;}
	.st29{fill:#9A2A1A;}
	.st30{fill:#5E1C0C;}
	.st31{fill:#F1CA43;}
	.st32{fill:#A57B46;}
	.st33{fill:#F18538;}
	.st34{fill:#F2AC64;}
	.st35{fill:#FAB42D;}
	.st36{fill:#46494E;}
	.st37{fill:#CF875E;}
	.st38{fill:#E7E6E6;}
	.st39{fill:#1A181D;}
	.st40{fill:#637644;}
	.st41{fill:#9F1E29;}
	.st42{fill:#F9B03D;}
	.st43{fill:#0D71B9;}
	.st44{fill:#E52629;}
	.st45{fill:#676767;}
	.st46{fill:#30358C;}
	.st47{fill:#9A9999;}
	.st48{fill:#3F4798;}
	.st49{fill:#2DABE3;}
	.st50{fill:#C1292E;}
	.st51{fill:#F2F2F2;}
	.st52{fill:#AA7C4C;}
	.st53{fill:#D6A573;}
	.st54{fill:#29ACE1;}
	.st55{fill:#88C05E;}
	.st56{fill:#F39323;}
	.st57{fill:#EB5B28;}
	.st58{fill:#B85965;}
	.st59{fill:#A67D52;}
	.st60{fill:#8C633A;}
	.st61{fill:#009245;}
	.st62{fill:#066938;}
	.st63{fill:#7D252D;}
	.st64{fill:#95D3E3;}
	.st65{fill:#603914;}
	.st66{fill:#EFC9AF;}
	.st67{fill:#D987B8;}
	.st68{fill:#8FC14D;}
	.st69{fill:#C69C6C;}
	.st70{fill:#2BADE1;}
	.st71{fill:#A4C958;}
	.st72{fill:#754D24;}
	.st73{fill:#35AE73;}
	.st74{fill:#E0B99E;}
	.st75{fill:#BDCCD4;}
	.st76{fill:#0C0D0D;}
	.st77{fill:#F4E152;}
	.st78{fill:#1E1911;}
	.st79{fill:#A1BD4F;}
	.st80{fill:#CBE6DC;}
	.st81{fill:#B5DCCE;}
	.st82{fill:#1F1D1B;}
	.st83{fill:#746458;}
	.st84{fill:#C7B29A;}
	.st85{fill:#998675;}
	.st86{fill:#428540;}
	.st87{fill:#E3E5E3;}
	.st88{fill:#161617;}
	.st89{fill:#1E1F1E;}
	.st90{fill:#474847;}
	.st91{fill:#191A19;}
	.st92{fill:#4B2C15;}
	.st93{fill:#92552A;}
	.st94{fill:#7EA847;}
	.st95{fill:#D59E2B;}
	.st96{fill:#807E79;}
	.st97{fill:#E5B744;}
	.st98{fill:#8EC045;}
	.st99{fill:#3B569A;}
	.st100{fill:#A1B7E0;}
	.st101{fill:#8FC9CC;}
	.st102{fill:#9ED1CA;}
	.st103{fill:#81AAA9;}
	.st104{fill:#E1783D;}
	.st105{fill:#64328A;}
	.st106{fill:#DEDEA5;}
	.st107{fill:#754997;}
	.st108{fill:#EE6F43;}
	.st109{fill:#A6CB67;}
	.st110{fill:#8FB7C0;}
	.st111{fill:#E2E1DF;}
	.st112{fill:#2C3E70;}
	.st113{fill:#D9BF96;}
	.st114{fill:#9C6941;}
	.st115{fill:#61605E;}
	.st116{fill:#9C9A99;}
	.st117{fill:#245F3D;}
	.st118{fill:#191713;}
	.st119{fill:#C39A62;}
	.st120{fill:#A17C4F;}
	.st121{fill:#F39200;}
	.st122{fill:#432918;}
	.st123{fill:#B17F4A;}
	.st124{fill:#FFCE1E;}
	.st125{fill:#BE1622;}
	.st126{fill:#3AAA35;}
	.st127{fill:#911825;}
	.st128{fill:#009FE3;}
	.st129{fill:#E94E1B;}
	.st130{fill:#FFCC03;}
	.st131{fill:#95C11F;}
	.st132{fill:#00A19A;}
	.st133{fill:#683C11;}
	.st134{fill:#878787;}
	.st135{fill:#634E42;}
	.st136{fill:#CBBBA0;}
	.st137{fill:#7B5B41;}
	.st138{fill:#493E36;}
	.st139{fill:#78A62C;}
	.st140{fill:#2C8535;}
	.st141{fill:#F9B233;}
	.st142{fill:none;}
	.st143{fill:#CA9E67;}
	.st144{fill:#E30613;}
	.st145{fill:#C6C6C6;}
	.st146{fill:#575756;}
	.st147{fill:#7B6A58;}
	.st148{fill:#A3C5D7;}
	.st149{fill:#332C25;}
	.st150{fill:#29235C;}
	.st151{fill:#E6332A;}
	.st152{fill:#738D93;}
	.st153{fill:#C87B31;}
	.st154{fill:#5BBCA7;}
	.st155{fill:#EF786F;}
	.st156{fill:#EE8D9E;}
	.st157{fill:#A74B56;}
	.st158{fill:#E72D7B;}
	.st159{fill:#E84138;}
	.st160{fill:#3B2315;}
	.st161{fill:#8EC044;}
	.st162{fill:#A1C74B;}
	.st163{fill:#231F20;}
	.st164{fill:#F6D9A7;}
	.st165{fill:#F4A5A6;}
	.st166{fill:#6E6F70;}
	.st167{fill:#F8AF41;}
	.st168{fill:#B79C19;}
	.st169{fill:#EFD101;}
	.st170{fill:#207A97;}
	.st171{fill:#20ACE3;}
	.st172{fill:#C51618;}
	.st173{fill:#C19446;}
	.st174{fill:#9E599F;}
	.st175{fill:#CD95C2;}
	.st176{fill:#F29A26;}
	.st177{fill:#FCCE8D;}
	.st178{fill:#F39B85;}
	.st179{fill:#E52628;}
	.st180{fill:#6BB52D;}
</style>
<g>
	<path class="st3" d="M228.5,65c1.7,0.2,3.4,0.4,5,0.6c1.7,0.2,3.2,0.9,4.7,1.9c3,2,5.8,4.4,8.4,6.9c1.7,1.6,3.3,3.3,5,4.9
		c0.4,0.4,0.8,0.8,1.2,1.2c2,2.1,4.5,3.1,7.4,3.6c3.1,0.5,6.2,0.4,9.3,0.1c5.7-0.5,11.4-1,17.1-1.5c4-0.3,8.1-0.6,12.1-0.8
		c4.3-0.2,8.7-0.3,13-0.4c1.3,0,2.7,0.2,4,0.4c1.4,0.2,2.5,1,3.3,2.2c0.8,1.1,1.3,2.4,1.6,3.7c0.5,2.1,0.9,4.2,1.2,6.3
		c0.9,5.4,1.1,10.9,0.8,16.4c-0.1,1-0.3,2-0.7,3c-0.6,1.6-1.9,2.2-3.5,1.6c-0.7-0.3-1.4-0.7-2-1.1c-4.8-3.1-10-5.5-15.4-7.2
		c-3-0.9-6-1.6-9.1-1.9c-5.8-0.6-11.3,0.5-16.6,2.7c-4.9,2-9,5.2-12.2,9.4c-1.2,1.7-2.4,3.4-3.5,5.1c-0.6,0.9-1.1,1.8-1.7,2.7
		c-0.8,1.3-2,2.2-3.5,2.4c-1.8,0.3-3.7,0.6-5.6,0.8c-2.8,0.2-5.7,0.3-8.5,0.4c-2.4,0.1-4.9,0-7.3,0c-3.2,0-6.4-0.1-9.6-0.1
		c-4.6,0-9.2,0-13.8,0c-4.6,0-9.2-0.2-13.8-0.2c-3.4,0-6.9,0-10.3-0.1c-1.7,0-3.3-0.1-5-0.1c-1.2,0-2.1-0.5-2.9-1.3
		c-0.5-0.5-0.9-1-1.4-1.5c-1.7-1.8-3.4-3.7-5.1-5.5c-3.5-3.5-7.6-5.9-12.4-7.4c-3.6-1.1-7.3-1.9-11-2.4c-4.7-0.6-9.3-0.2-13.7,1.4
		c-2.3,0.8-4.6,1.6-6.9,2.5c-0.9,0.4-1.9,0.5-2.9,0.4c-1.3-0.1-2.6-0.1-3.9-0.1c-1.2,0-2.3-0.1-3.5-0.2c-1-0.1-1.8-0.6-2.1-1.5
		c-0.3-0.9-0.6-1.9-0.7-2.8c-0.2-1.9-0.3-3.7-0.5-5.6c0-0.2,0-0.5,0-0.7c0.1-2.1,1.1-3.5,3-4.2c1.5-0.5,3-0.8,4.5-1
		c0.5-0.1,1-0.1,1.5-0.2c0.6-0.1,0.7-0.1,0.8-0.7c0.2-1.1,0.3-2.2,0.5-3.2c0.1-0.8,0.2-1.5,0.4-2.3c0.3-1,0.8-1.7,1.6-2.4
		c1-0.8,2.1-1.3,3.3-1.7c3-1.1,6.2-1.7,9.3-2.3c6.9-1.3,13.9-2.3,20.9-3.2c3.1-0.4,6.1-0.8,9.2-1.1c2.1-0.2,4.3-0.4,6.4-0.6
		c1.8-0.2,3.6-0.7,5.2-1.5c1.2-0.6,2.5-1.3,3.6-2c2.7-1.6,5.3-3.2,7.9-4.8c1.8-1.1,3.6-2.1,5.4-3.2c3-1.8,6.3-2.7,9.7-3.2
		c2.5-0.3,5-0.4,7.5-0.5C219.3,64.8,223.9,64.8,228.5,65z M185.1,87.6c0.4,0,0.6,0.1,0.9,0.1c1.6,0,3.2,0,4.8,0
		c2.9-0.1,5.7-0.1,8.6-0.2c3.1-0.1,6.3-0.2,9.4-0.4c4.3-0.3,8.5-0.8,12.8-1.2c1-0.1,2-0.3,2.9-0.5c0.6-0.1,0.9-0.5,1-1.1
		c0.3-2.6,0.3-5.2-0.5-7.7c-0.3-0.8-0.6-1.5-1-2.3c-0.3-0.6-0.8-0.9-1.5-1c-0.9-0.1-1.9-0.3-2.8-0.4c-3.1-0.1-6.1-0.1-9.2,0.1
		c-3.6,0.2-7,1.2-10.1,3.2c-3.2,2.2-6.4,4.3-9.5,6.6c-1.5,1.2-3.1,2.2-4.6,3.3C185.7,86.4,185.3,86.8,185.1,87.6z"/>
	<path class="st12" d="M324.7,141.2c-0.7,8.1-3.2,15.5-8.3,22c-2.4,3.1-5,5.8-8.2,8.1c-1.9,1.3-3.9,2.3-6.1,3
		c-2.5,0.8-5.1,1.2-7.7,1.6c-2.3,0.3-4.7,0.4-7,0.2c-3.8-0.3-7.4-1.3-10.8-2.9c-2.9-1.3-5.7-2.9-8.1-4.9c-1.2-1-2.4-2.1-3.5-3.2
		c-2.1-2-3.6-4.5-4.8-7.2c-1.7-3.8-2.9-7.8-3.4-12c-0.3-2.3-0.2-4.7,0.2-7c0.7-4.8,2.1-9.3,4.2-13.7c1.3-2.8,3-5.3,5-7.6
		c1.3-1.6,2.9-2.8,4.7-3.8c0.9-0.5,1.7-1.1,2.5-1.6c4.1-2.2,8.4-4,13.1-4.7c2.9-0.4,5.7-0.3,8.6,0.4c8.4,1.9,15.5,6.1,21.4,12.3
		c3.4,3.6,5.9,7.9,7.5,12.6c0.7,2.1,0.9,4.4,0.9,6.6C324.7,139.9,324.7,140.6,324.7,141.2z M306.9,145.4c0.1-3.1,0-5.4-0.6-7.8
		c-1-4.4-3.2-8.1-6.7-11c-2.3-1.9-4.9-3.1-7.9-3.6c-2.2-0.4-4.4,0.1-6.4,1c-5.2,2.4-8.6,6.3-10.3,11.8c-0.1,0.4-0.2,0.8-0.3,1.2
		c-0.2,0.7-0.4,1.4-0.6,2c-0.5,2.4-0.9,4.8-0.7,7.3c0.2,2.7,1,5.2,2.8,7.2c0.8,0.9,1.7,1.8,2.7,2.6c2.8,2.2,5.9,3.8,9.4,4.4
		c5,0.8,9.5-0.7,13.2-4.1C305.1,153.5,306.5,149.3,306.9,145.4z"/>
	<path class="st12" d="M143.8,177.2c-4.9-0.4-9.7-1.9-14.4-4.1c-2-1-3.9-2.1-5.8-3.4c-3-2.1-5.3-4.7-7.1-7.9
		c-1.5-2.5-2.5-5.2-3.2-8.1c-0.7-2.6-1.1-5.2-1.3-7.8c-0.1-1.5-0.1-3.1,0.1-4.6c0.4-3.3,1-6.6,2.1-9.8c2.2-6.8,6.3-12.1,12.4-16
		c3-1.9,6.4-2.9,10-3.5c3.7-0.6,7.4-0.5,11.2-0.1c5.8,0.7,11.3,2.5,16.2,5.6c5.2,3.3,8.9,7.8,11.1,13.5c1.4,3.7,2.4,7.5,2.6,11.5
		c0.2,3.4-0.3,6.7-1.1,10c-1.1,4.3-3.2,8.1-5.9,11.6c-2.9,3.7-6.3,7-10.5,9.4C154.6,176.7,150.1,177.5,143.8,177.2z M163,146.4
		c0-0.4,0.1-0.9,0.1-1.3c0-2-0.2-4-1.1-5.8c-0.8-1.7-1.6-3.3-2.7-4.9c-1.7-2.5-3.9-4.6-6.5-6.1c-3.2-1.8-6.7-2.5-10.4-2
		c-3.1,0.4-5.9,1.8-8.2,3.8c-3.7,3.1-5.6,7.2-6.1,12c-0.3,2.8,0.1,5.6,0.8,8.4c0.4,1.6,1.1,3,2,4.4c0.5,0.8,1.1,1.5,1.7,2.2
		c0.8,1,1.7,2,2.8,2.7c1.4,0.9,2.8,1.6,4.3,2.2c1.7,0.6,3.4,0.9,5.1,0.7c3.2-0.3,6.3-1.2,9.2-2.7C159.6,157.2,162.4,152.5,163,146.4
		z"/>
	<path class="st12" d="M190.6,147.9c-2.1-0.1-4.1-0.5-6.1-1c-2-0.5-3.5-1.6-4.3-3.5c-0.7-1.7-1-3.5-1.2-5.3
		c-0.1-0.7-0.1-1.4-0.1-2.1c0-0.9,0-1.7,0.3-2.5c0.1-0.4,0.3-0.7,0.7-0.9c0.9-0.5,1.8-0.9,2.8-0.9c2.6-0.1,5.2-0.3,7.8-0.3
		c3.1,0,6.1,0.2,9.2,0.1c3.2,0,6.4-0.2,9.6-0.3c2.9-0.1,5.7-0.2,8.6-0.3c3.6-0.1,7.3-0.2,10.9-0.2c2.4,0,4.9,0,7.3,0
		c3.5,0.1,7.1,0.2,10.6,0.3c1.2,0,2.4,0,3.6,0.1c2.2,0.1,3.2,1,3.7,3.1c0.4,1.6,0.7,3.3,0.5,5c-0.1,1-0.4,2-0.7,2.9
		c-0.5,1.3-1.5,2.2-2.8,2.8c-1.1,0.5-2.3,0.6-3.5,0.8c-2.1,0.2-4.2,0.1-6.3-0.1c-2-0.1-4,0-6.1,0.1c-2.9,0.2-5.8,0.3-8.7,0.5
		c-2.8,0.2-5.6,0.4-8.5,0.6c-3.6,0.3-7.3,0.6-10.9,0.8c-3.2,0.2-6.5,0.3-9.7,0.4C195.1,148,192.8,147.9,190.6,147.9z"/>
</g>
<g>
	<path class="st13" d="M220.1,184.6c4.6,0.1,9.2,0.3,13.7,0.7c2.2,0.2,4.3,0.7,6.3,1.6c1.7,0.8,3.1,1.9,4,3.4c0.3,0.5,0.6,1,0.9,1.5
		c1.7,3.1,4.1,5.6,6.3,8.3c0.7,0.8,1.6,1.4,2.7,1.6c1.6,0.3,3.2,0.5,4.8,0.7c2.8,0.3,5.7,0.6,8.5,0.8c2.9,0.3,5.7,0.5,8.6,0.7
		c3.8,0.3,7.6,0.5,11.4,0.8c4.2,0.3,8.5,0.5,12.7,0.8c2.9,0.2,5.7,0.4,8.6,0.5c1.9,0.1,3.5,0.9,4.8,2.2c0.4,0.5,0.9,0.9,1.3,1.4
		c0.6,0.9,1.3,1.7,1.9,2.6c3.6,5.2,6.4,10.9,9.2,16.5c0.5,0.9,0.9,1.9,1.3,2.8c1.2,2.9,1.6,5.9,1,8.9c-0.6,3.3-1.2,6.6-1.9,9.9
		c-0.3,1.4-0.7,2.9-1.2,4.3c-0.7,2-2.1,3.4-4.2,4.1c-2.8,0.9-5.6,1-8.4,0.5c-2.5-0.5-4.1-1.9-4.5-4.5c-0.3-1.6-0.6-3.2-0.9-4.8
		c-0.5-2.7-1-5.4-2.1-8c-2.3-5.7-6.3-9.6-12.1-11.5c-1.9-0.6-3.8-0.8-5.7-1c-5-0.4-9.7,0.4-14.2,2.7c-3.6,1.8-6.5,4.5-8.5,8.1
		c-0.5,0.9-0.9,1.8-1.3,2.7c-1.5,3.4-2.4,6.9-3.1,10.6c-0.3,1.6-0.7,3.2-1.1,4.8c-0.5,1.7-1.7,2.7-3.5,3.1c-0.8,0.2-1.7,0.3-2.6,0.4
		c-2.4,0.2-4.7,0.3-7.1,0.4c-4.8,0.3-9.6,0.6-14.4,0.8c-5,0.2-9.9,0.3-14.9,0.3c-12.1-0.1-24.2-0.2-36.4-0.4c-2.9,0-5.8-0.2-8.7-0.3
		c-3-0.2-4.7-1.6-5.4-4.6c-0.3-1.2-0.4-2.5-0.6-3.7c-0.5-3.4-1.2-6.8-2.2-10.2c-1.5-4.9-4.5-8.7-9-11.2c-5.9-3.4-12.2-4.7-19-3.2
		c-1.5,0.3-3,0.6-4.4,1.3c-2.3,1.1-4.2,2.7-5.9,4.5c-1.3,1.4-2.2,3-3.3,4.5c-2.1,3.1-3.3,6.5-3.6,10.2c-0.1,1.6-0.2,3.2-0.3,4.8
		c-0.1,1.9-1.2,3.4-3,4c-0.5,0.2-1.1,0.4-1.7,0.5c-0.2,0.1-0.5,0.1-0.8,0.1c-2-0.3-4-0.8-5.8-1.9c-1.9-1.2-3.3-2.8-3.9-5
		c-0.3-1-0.5-2.1-0.7-3.1c-0.3-2.5-0.6-5.1-0.8-7.6c-0.2-2.4-0.3-4.8,0.1-7.2c0.4-2.6,1.6-4.4,4.1-5.3c0.8-0.3,1.6-0.5,2.4-0.8
		c1.2-0.4,2.4-0.9,3.6-1.4c1-0.4,1.6-1.2,2.2-2.1c0.8-1.4,1.4-2.9,1.7-4.5c0.3-1.6,0.6-3.3,0.9-5c0.8-4.9,2.5-9.4,5.7-13.2
		c1.4-1.7,3-3.2,4.5-4.7c0.7-0.7,1.4-1.2,2.3-1.6c1.6-0.8,3.1-1.8,4.7-2.5c3.1-1.4,6.4-2.3,9.7-3c4-0.8,8-1.6,12-2.3
		c6.9-1.2,13.8-2.1,20.8-2.4c6-0.2,11.9-0.6,17.9-0.9c5.7-0.3,11.4-0.5,16-0.7C213.8,184.5,216.9,184.5,220.1,184.6z M236.3,208.6
		c-1.2-2.5-2.4-5-3.7-7.5c-1-2-2.3-3.8-3.9-5.5c-1.2-1.3-2.7-2-4.3-2.5c-2.2-0.6-4.4-0.9-6.6-1.1c-5.2-0.4-10.3-0.2-15.5,0.2
		c-1,0.1-1.9,0.2-2.8,0.3c-1.2,0.2-2,0.9-2.3,2.1c-0.2,0.9-0.4,1.8-0.4,2.7c-0.1,2.8,0.1,5.6,0.8,8.3c0,0.1,0,0.2,0.1,0.3
		c0.4,2.2,1.8,3.4,4,3.7c2,0.3,4.1,0.5,6.1,0.7c3.7,0.3,7.3,0.6,11,0.8c4.4,0.2,8.8,0.2,13.2,0c0.9-0.1,1.9-0.1,2.8-0.2
		c0.7-0.1,1.4-0.2,2-0.7C236.7,209.6,236.6,209.1,236.3,208.6z M185.9,208.9c-0.4-2.6-0.8-5.3-1.2-7.9c-0.1-0.3-0.2-0.7-0.3-1
		c-0.3-0.9-1-1.6-1.9-1.9c-1.2-0.4-2.4-0.5-3.6-0.4c-2.6,0.1-5.1,0.4-7.6,1c-2.5,0.6-4.9,1.2-7.4,1.9c-0.8,0.2-1.6,0.6-2.4,1
		c-0.9,0.4-1.5,1.1-1.9,2c-0.4,1-0.7,1.9-0.8,3c-0.1,0.8,0.2,1.3,1,1.5c0.8,0.3,1.7,0.5,2.5,0.6c0.9,0.1,1.9,0.2,2.9,0.2
		c4.6,0.2,9.3,0.4,13.9,0.6c2.1,0.1,4.2,0.1,6.3,0.2c0.1,0,0.3,0,0.5-0.1C185.9,209.4,185.9,209.2,185.9,208.9z"/>
	<path class="st12" d="M304.1,258.5c-0.5,3.5-2,6.7-3.8,9.7c-1.8,2.8-4.4,4.7-7.6,5.7c-3.2,0.9-6.4,1.1-9.6,0.5
		c-9.1-1.6-15-7.1-18.4-15.5c-1.7-4.4-1.4-8.8,0.9-13c2.3-4.3,5.7-7.4,10-9.5c4.3-2.1,8.8-2.4,13.4-1c4.5,1.3,8.1,3.9,11.2,7.3
		c1.3,1.5,2.2,3.2,2.8,5.1c0.8,2.4,1.2,4.8,1.4,7.3C304.3,256.2,304.3,257.4,304.1,258.5z M276.1,259.8c0.9,2.8,2.8,4.4,5.8,4.7
		c2.5,0.3,4.8-0.2,7-1.3c1.3-0.7,2.1-1.7,2.6-3.1c0.5-1.5,0.6-3.1,0.4-4.7c-0.2-1.9-0.7-3.7-1.5-5.4c-0.7-1.5-1.7-2.8-3-3.8
		c-0.7-0.6-1.6-1.1-2.5-1.3c-0.9-0.3-1.8-0.3-2.7,0.1c-1.9,0.7-3.4,1.8-4.6,3.4c-1.5,2.1-2.3,4.5-2.3,7.1
		C275.3,256.8,275.6,258.3,276.1,259.8z"/>
	<path class="st12" d="M161.3,258.9c-0.3,3.1-1.3,5.9-3.2,8.3c-4.2,5.4-10,7.4-16.6,7.2c-3.1-0.1-6-1.1-8.7-2.4
		c-4.3-2.1-7.6-5.3-9.1-9.9c-0.6-1.9-1.2-4-1.5-6c-0.2-1.2-0.3-2.6-0.2-3.8c0.5-4.5,1.8-8.7,4.4-12.5c1.3-1.9,2.9-3.5,4.9-4.5
		c3.2-1.7,6.5-2.5,10.2-2.1c3.3,0.3,6.2,1.4,8.9,3.2c4.5,2.9,7.6,7,9.7,11.9c1,2.3,1.5,4.7,1.5,7.5
		C161.5,256.7,161.4,257.8,161.3,258.9z M136.2,264.1c1.6,1.4,3.6,1.6,5.6,1.5c6.1-0.4,10.2-6.6,9.4-12.2
		c-1.2-7.8-8.9-10.1-13.5-8.5c-1.3,0.4-2.4,1.2-3.3,2.3c-1.8,2.2-2.6,4.7-2.7,8.1C131.9,258.5,133.4,261.7,136.2,264.1z"/>
</g>
<g>
	<g>
		<path class="st12" d="M138.2,367.2c-1.3-0.1-2.7-0.3-4-0.5c-1.6-0.2-3.1-0.5-4.7-0.9c-3.4-0.8-6.2-2.5-8.4-5.3
			c-0.2-0.2-0.4-0.5-0.6-0.7c-2.3-2.5-3.7-5.4-4.4-8.7c-0.9-3.8-1-7.6-0.3-11.5c0.3-1.5,0.9-2.9,1.7-4.2c1-1.6,2.2-3.1,3.6-4.3
			c1-0.9,2-1.8,3.1-2.6c3.2-2.5,6.8-3.7,10.8-4.2c2.8-0.4,5.6-0.1,8.3,0.6c3.5,0.9,6.5,2.7,9.2,5.2c3.5,3.3,5.9,7.2,6.7,12
			c1.1,6,0.1,11.5-3.7,16.4c-1.3,1.6-2.8,2.9-4.5,4.1c-2.8,1.9-5.8,3.5-9.2,4.1C140.6,367,139.4,367.1,138.2,367.2z M148,345.8
			c0-0.3,0-0.6,0-0.9c-0.2-2.4-1.1-4.6-2.9-6.1c-2-1.8-4.5-2.6-7.2-2.4c-2.8,0.2-5.3,1.2-7.5,2.8c-0.3,0.2-0.6,0.5-0.9,0.8
			c-2.8,3.8-2.8,8.2-0.4,12c1.1,1.8,2.8,3,4.6,4.1c3,1.7,6,1.5,8.9-0.3C146.2,353.5,147.9,350,148,345.8z"/>
		<path class="st12" d="M260.2,343.3c0.2-4.9,1.6-9.4,4.8-13.2c3.1-3.7,6.8-6.5,11.2-8.3c4.8-2,9.7-2,14.6-0.3
			c1.6,0.6,3.2,1.2,4.7,2.1c3.8,2.2,6.4,5.5,7.9,9.6c2,5.4,2.1,10.7-0.2,16c-1.5,3.5-6.7,9.7-10.9,11.7c-4,2-8.1,2.9-12.5,2.5
			c-3.2-0.3-6.4-1.1-9.2-2.6c-4.9-2.5-7.8-6.8-9.5-11.9C260.5,347,260.2,345.2,260.2,343.3z M293.2,342.9c-0.2-1-0.3-2.1-0.5-3.1
			c-1-3.7-3.9-7.4-9.1-7.4c-4.4,0-8,1.8-10.4,5.6c-0.4,0.6-0.6,1.3-0.8,2c-0.2,1-0.2,2-0.4,3c-0.3,1.6,0.1,3.1,0.8,4.6
			c1,2,2.5,3.6,4.5,4.6c2.2,1.1,4.5,1.3,6.9,1.1c1.6-0.2,3.2-0.7,4.5-1.7c1.4-1.1,2.5-2.5,3.3-4C292.9,346,293.2,344.5,293.2,342.9z
			"/>
	</g>
	<path class="st7" d="M337.1,284.6c-1.2-0.1-2.3,0.1-3.4,0.4c-0.3,0.1-0.6,0.2-0.9,0.3c-1.6,0.7-3.3,0.7-5,0.2
		c-2.4-0.6-4.9-1.2-7.3-1.8c-2.2-0.5-4.5-0.9-6.7-1.4c-0.8-0.1-1.4-0.5-1.8-1.1c-0.6-0.7-1.2-1.4-1.8-2.1c-0.3-0.3-0.5-0.6-0.8-0.8
		c-1.4-1.2-3-1.2-4.2,0.1c-0.5,0.5-0.9,1.1-1.2,1.7c-0.4,0.8-0.6,1.6-1,2.4c-0.2,0.6-0.5,1.1-0.8,1.6c-0.7,1.1-1.5,2.1-2.3,3.2
		c-1,1.4-1,1.4-2.8,1.5c-2.5,0.1-4.9,0.2-7.4,0.3c-1.4,0-2.8,0-4.3,0c-3.9,0.1-7.8,0.3-11.6,0.4c-1.5,0.1-3,0.1-4.5,0.2
		c-1,0.1-1.9-0.1-2.8-0.5c-1.5-0.8-3.1-1.5-4.7-2.2c-2.1-1-4.3-1.8-6.7-2.1c-1.8-0.2-3.7-0.3-5.6-0.4c-1.2-0.1-2.4-0.1-3.6-0.2
		c-2.3-0.2-4.6-0.5-6.8-0.7c-2.6-0.3-5.3-0.6-7.9-0.9c-2.1-0.3-4.1-0.6-6.2-0.8c-3.9-0.4-7.8-0.8-11.7-1.2c-2.8-0.3-5.6-0.4-8.4-0.3
		c-3.6,0.1-7,1.1-10,3.1c-1.9,1.3-3.8,2.5-5.6,3.9c-3.8,2.8-7.3,5.9-10.8,9.1c-1.4,1.3-2.9,2.6-4.4,3.8c-1.3,1.1-2.9,1.7-4.5,1.9
		c-0.9,0.1-1.9,0.2-2.9,0.2c-3.1-0.1-6.2-0.2-9.3-0.3c0,0,0,0,0,0c-0.6,0-1.1-0.1-1.7-0.1c-3.3,0-6.6,0-9.8,0.1
		c-3.4,0.1-6.9,0.6-10.2,1.2c-6.6,1.3-13,3.3-19.2,5.9c-6.3,2.6-12.1,6.1-17.1,10.8c-1.5,1.4-3,2.8-4.6,4c-1.7,1.2-2.5,2.9-2.5,5
		c0,4.2-0.1,8.4-0.1,12.5c0,1.3,0.1,2.7,0.2,4c0.3,3.5,2,6.1,5.2,7.5c0.4,0.2,0.9,0.4,1.4,0.5c2.2,0.7,4.4,0.9,6.6,0.7
		c0.9-0.1,1.7-0.3,2.5-0.6c1.3-0.5,2.2-1.5,2.5-2.8c0.2-0.7,0.3-1.4,0.3-2.1c0.1-2.1,0.1-4.2,0.2-6.3c0.1-1.2,0.1-2.4,0.3-3.6
		c0.8-4.1,2.5-7.7,5.6-10.7c1.5-1.4,3.2-2.6,5-3.6c6.5-3.5,13.5-4.6,20.8-3.6c2.8,0.4,5.6,1.2,8.1,2.5c5.5,2.8,9.3,7.1,11.9,12.6
		c0.4,0.9,0.7,1.9,1,2.8c0.7,2.4,1,4.9,1.3,7.3c0.1,1.3,0.3,2.7,0.5,4c0.3,2,1.5,3.3,3.4,3.9c0.9,0.3,1.9,0.5,2.8,0.5
		c4.8,0.2,9.7,0.4,14.5,0.5c6,0.1,12,0.1,18,0.2c13.3,0.1,26.6,0,39.9-0.7c2.4-0.1,4.7-0.5,6.9-1.2c1.9-0.6,3.3-1.7,4.1-3.5
		c0.5-1.1,0.9-2.2,1.2-3.4c0.7-2.2,0.8-4.6,1.2-6.9c0.4-2.7,0.9-5.4,1.8-8.1c1.2-3.4,3-6.2,5.9-8.4c4.2-3.1,8.9-4.8,14.1-5.2
		c3-0.3,5.9,0,8.9,0.5c5.9,1,11.2,3.3,16,6.9c1.5,1.1,2.8,2.5,3.9,4.1c0.5,0.7,1,1.4,1.6,2c0.8,0.8,1.9,1.1,3,1
		c0.6-0.1,1.3-0.1,1.9-0.3c3.5-1.1,7-2.5,10.1-4.5c1.1-0.7,2.1-1.5,3-2.4c2.3-2.2,3.1-5,2.8-8.1c-0.1-1.4-0.4-2.8-0.6-4.2
		c-0.2-1-0.2-2,0.1-2.9c0.5-1.6,1-3.3,1.7-4.8c1.7-3.7,3.6-7.4,5.4-11.1c0.8-1.6,1.5-3.3,2.2-5c0.2-0.5,0.4-1.2,0.3-1.8
		C339.8,285.7,338.7,284.7,337.1,284.6z M223.5,301.6c-0.1,1.2-0.8,1.9-1.9,2.1c-2.3,0.3-4.7,0.7-7,0.8c-9.6,0.4-19.2,0.7-28.8,0.9
		c-2.1,0.1-4.3-0.1-6.4-0.2c-0.4,0-0.8-0.1-1.4-0.2c0.4-0.3,0.6-0.4,0.7-0.5c3.3-2.2,6.7-4.3,10-6.5c2.7-1.8,5.4-3.6,8.1-5.5
		c1.8-1.2,3.7-2,5.8-2.3c5.5-1,11-1.5,16.5-1.1c3.2,0.2,4,1,4.5,4.1C224.1,296,223.9,298.8,223.5,301.6z M248.6,305.9
		c-1.9-0.1-3.7-0.3-5.5-0.4c-2.3-0.1-4.6-0.2-6.9-0.3c-0.4,0-0.7,0-1.2-0.1c0-0.5,0.1-0.9,0.1-1.3c0.4-3.3,0.9-6.5,1.3-9.8
		c0.4-3,0.7-3.3,3.6-3.3c1.2,0,2.4,0.1,3.7,0.2c1.5,0.1,2.6,0.9,3.4,2.2c0.6,1.1,1.3,2.2,1.7,3.4c0.9,2.7,1.8,5.5,2.6,8.3
		c0.1,0.2,0,0.5,0.1,1C250.5,305.9,249.6,306,248.6,305.9z"/>
</g>
</svg>
