<?xml version="1.0" encoding="utf-8"?>
<!-- Generator: Adobe Illustrator 21.1.0, SVG Export Plug-In . SVG Version: 6.00 Build 0)  -->
<svg version="1.1" id="Calque_1" xmlns="http://www.w3.org/2000/svg" xmlns:xlink="http://www.w3.org/1999/xlink" x="0px" y="0px"
	 viewBox="0 0 432 432" style="enable-background:new 0 0 432 432;" xml:space="preserve">
<style type="text/css">
	.st0{fill:#F39323;}
	.st1{fill:#DC7B18;}
	.st2{fill:#A3282E;}
	.st3{fill:#77151F;}
	.st4{fill:#014837;}
	.st5{fill:#48AE4D;}
	.st6{fill:#E52521;}
	.st7{fill:#E52629;}
	.st8{fill:#CDCCCC;}
	.st9{fill:#E7E6E6;}
	.st10{fill:#921D25;}
	.st11{fill:#C1292E;}
	.st12{fill:#066938;}
	.st13{fill:#DB4D58;}
	.st14{fill:#009245;}
	.st15{fill:#FFFFFF;}
	.st16{fill:#178D4D;}
	.st17{fill:#CE7278;}
	.st18{fill:#D85A62;}
	.st19{fill:#D48B4F;}
	.st20{fill:#EAA35C;}
	.st21{fill:#412413;}
	.st22{fill:#754D24;}
	.st23{fill:#020203;}
	.st24{fill:#D9646D;}
	.st25{fill:#F9B03D;}
	.st26{fill:#F4DBC6;}
	.st27{fill:#F2F2F2;}
	.st28{fill:#343434;}
	.st29{fill:#82171C;}
	.st30{fill:#28285B;}
	.st31{fill:#808181;}
</style>
<g>
	<path class="st11" d="M220.5,234.8c-0.3,1.7-0.6,3.2-0.9,4.5c-6.2-1.4-11.5-2.6-15.2-3.4c0.2-1.4,0.5-2.8,0.7-4.2
		C209.4,232.4,214.6,233.5,220.5,234.8z"/>
	<path class="st11" d="M313.6,249.7c0,1.7,0,3.1,0,4.1c-5.5-0.3-12.9-1-20.4-1.7c0.2-1.5,0.4-3,0.6-4.4
		C301.6,248.7,308.4,249.4,313.6,249.7z"/>
	<g>
		<path class="st12" d="M295.5,189.3c-0.8-1-1.8-1.8-2.9-2.3c-0.7-0.4-1.5-0.5-2.3-0.6c-1.6-0.2-3.1,0.1-4.5,0.9
			c-1.5,0.9-3,1.9-4.4,2.9c-2,1.5-3.7,3.2-5.5,4.9c-0.7,0.7-1.4,1.3-2.1,2c-1.1,1.1-2.2,2.3-3.3,3.4c-0.3,0.3-0.7,0.7-1,1
			c-0.9,0.9-1.7,1.8-2.6,2.7c-0.2,0.2-0.4,0.4-0.6,0.6c-0.9,0.9-1.8,1.9-2.6,2.8c-0.2-0.9-0.5-1.8-0.8-2.7c-0.1-0.5-0.3-1-0.4-1.5
			c-0.4-1.2-0.7-2.5-1.1-3.7c-0.2-0.5-0.3-1.1-0.5-1.6c-0.5-1.8-1-3.5-1.6-5.3c-0.3-1.1-0.7-2.1-1-3.2c-0.9-2.7-1.8-5.4-3-8
			c-0.9-1.9-1.8-3.7-3-5.4c-1-1.6-2.4-2.7-4.2-3.4c-0.9-0.3-1.8-0.6-2.7-0.6c-1.5,0-2.9,0.2-4.3,0.8c-1.7,0.8-3,2.1-3.9,3.7
			c-1.1,2-1.5,4.2-1.3,6.5c0.2,2.4,0.8,4.7,1.7,6.9c0.3,0.7,0.7,1.4,1.2,2c0.5,0.6,1.1,1.1,1.8,1.6c1.1,0.8,2.3,1,3.6,0.3
			c1-0.5,2.1-1.8,1.6-3.5c-0.2-0.9-0.5-1.7-0.8-2.6c-0.3-0.8-0.6-1.6-0.8-2.4c-0.2-0.6-0.3-1.2-0.4-1.8c0-0.2,0-0.5,0.2-0.6
			c0.2-0.1,0.4,0.1,0.5,0.2c0.3,0.3,0.6,0.7,0.8,1.1c0.6,1,1.1,2,1.4,3.1c1,2.8,1.9,5.7,2.8,8.5c0,0,0,0,0,0c0.3,1,0.7,2,1,3
			c0.2,0.7,0.5,1.5,0.7,2.2c0.2,0.7,0.5,1.3,0.7,1.9c0.4,1.1,0.8,2.2,1.1,3.3c0.2,0.5,0.3,1.1,0.5,1.6c0,0.1,0,0.1,0.1,0.2
			c0.5,1.4,1,2.9,1.5,4.3c0.1,0.2,0.1,0.3,0.2,0.5c0.6,1.6,1.1,3.3,2,4.8c0.5,1,1.3,1.6,2.2,1.9c0.3,0.1,0.7,0.2,1.1,0.3
			c0.2,0,0.4,0,0.5,0c0.6-0.1,1.2-0.2,1.7-0.4c0.1,0,0.2-0.1,0.3-0.1c0.1,0,0.3-0.1,0.4-0.2c0.7-0.4,1.4-1,1.6-1.9
			c0-0.1,0.1-0.2,0.1-0.3c0.1,0,0.2-0.1,0.2-0.1c1.1-0.8,2.1-1.7,3.1-2.6c0.1-0.1,0.2-0.2,0.3-0.3c1.1-1,2.2-2.1,3.3-3.1
			c0,0,0.1-0.1,0.1-0.1c0.3-0.3,0.6-0.6,0.9-0.9c0.7-0.7,1.4-1.4,2.2-2c0.8-0.7,1.6-1.5,2.4-2.3c0.1-0.1,0.2-0.2,0.3-0.3
			c0.6-0.6,1.3-1.3,1.9-1.9c0,0,0,0,0,0c1.8-1.8,3.7-3.6,5.5-5.3c0.7-0.7,1.5-1.3,2.3-1.8c0.3-0.2,0.7-0.3,1.1-0.5
			c0.1-0.1,0.4-0.1,0.5,0c0.1,0.1,0,0.3-0.1,0.5c-0.3,0.4-0.7,0.8-1,1.2c-0.5,0.5-1.1,1-1.6,1.5c-0.6,0.5-1.1,1.1-1.6,1.7
			c-1,1.1-0.7,2.5-0.1,3.3c0.7,1,1.7,1.4,2.8,1.2c0.7-0.1,1.4-0.2,2-0.5c0.6-0.3,1.2-0.6,1.7-1.1c1.6-1.3,3-2.8,4.1-4.6
			c1.1-1.7,1.6-3.5,1.6-5.5C297,192.1,296.5,190.6,295.5,189.3z M236.9,181.3L236.9,181.3C236.9,181.3,236.9,181.3,236.9,181.3
			c0.1-0.4,0.1-0.9,0.2-1.4l0,0c0,0,0,0,0,0c1.8,1.2,3.6,2.3,5.3,3.4c0,0.2,0,0.3,0,0.5c0,0.3,0,0.5-0.1,0.8c0,0,0,0,0,0
			c0,0,0,0,0,0c-0.9-0.5-1.8-1-2.7-1.6c-0.4-0.2-0.7-0.4-1.1-0.7C238,182,237.5,181.6,236.9,181.3z M243.9,189.5
			c0,0.1,0,0.1,0.1,0.2c0,0,0,0,0,0c0,0,0,0,0,0c-0.1,0-0.1,0-0.2,0c-0.1,0-0.1,0-0.2,0c-1.7-0.4-3.4-0.9-5.1-1.4c0,0,0,0,0,0
			c-0.1,0-0.3-0.1-0.3-0.2c-0.1-0.4-0.3-0.8-0.5-1.3c0,0,0,0,0,0c0,0,0,0,0,0c0.1,0,0.2,0,0.3,0c1.7,0.4,3.3,0.9,5,1.3
			c0.2,0.1,0.3,0.1,0.4,0.3c0,0.1,0.1,0.1,0.1,0.2C243.6,188.9,243.8,189.2,243.9,189.5z M243.3,182.1c-1.1-2.1-2.3-4.3-3.5-6.5
			c0.1-0.1,0.3-0.2,0.4-0.4c0.1-0.1,0.3-0.2,0.4-0.3c0.2-0.1,0.4-0.2,0.6-0.3c0,0,0,0,0,0c0,0,0,0,0,0c0.1,0.1,0.2,0.3,0.2,0.4
			c0.7,1.7,1.4,3.3,2.1,5c0.2,0.5,0.4,1,0.7,1.4c0,0.1,0.1,0.2,0.1,0.2c0,0.1,0,0.1,0.1,0.2c0,0.1,0,0.1,0.1,0.2h0c0,0,0,0,0,0
			C244.1,182,243.7,182,243.3,182.1z M246.8,184.2C246.8,184.2,246.8,184.2,246.8,184.2C246.8,184.2,246.8,184.2,246.8,184.2
			c-0.1-0.2-0.3-0.4-0.4-0.5c-0.1-0.1-0.1-0.1-0.2-0.2c-0.1-0.2-0.3-0.3-0.4-0.5c0-0.1,0-0.2,0-0.2c0-0.1,0-0.1,0-0.1
			c0.1-0.9,0.3-1.8,0.4-2.7c0.1-0.8,0.3-1.7,0.5-2.5c0.1-0.8,0.3-1.6,0.4-2.5c0-0.1,0-0.2,0.1-0.3c0,0,0,0,0,0c0,0,0,0,0,0
			c0.5,0.3,0.9,0.6,1.4,1c0,0,0,0,0,0c0,0,0,0,0,0c-0.2,0.8-0.3,1.6-0.5,2.4C247.7,180,247.3,182,246.8,184.2z M249,188.1
			c-0.1,0.1-0.2,0.3-0.3,0.4c0,0,0,0,0,0c-0.1-0.1-0.1-0.2-0.1-0.3c0-0.1,0-0.1-0.1-0.2c-0.1-0.2-0.1-0.4-0.2-0.5c0-0.1,0-0.2,0-0.3
			c0-0.1,0-0.2,0.1-0.2c1.3-2.1,2.6-4.1,4-6.2c0,0,0.1-0.1,0.1-0.1c0,0,0,0,0.1-0.1c0,0,0,0,0,0c0,0,0,0,0,0
			c0.1,0.1,0.1,0.3,0.2,0.4c0,0.1,0.1,0.2,0.1,0.3c0.1,0.1,0.1,0.3,0.2,0.4c0,0,0,0,0,0c0,0,0,0.1,0,0.2c0,0,0,0,0,0
			c0,0.1-0.1,0.1-0.1,0.2c-0.5,0.8-1.1,1.7-1.6,2.5C250.4,185.8,249.7,186.9,249,188.1z M250.7,194.3
			C250.6,194.3,250.6,194.3,250.7,194.3C250.6,194.4,250.6,194.4,250.7,194.3L250.7,194.3C250.6,194.4,250.6,194.4,250.7,194.3
			c-0.3-0.5-0.5-1-0.6-1.5c0,0,0,0,0,0c0,0,0,0,0-0.1c0,0,0,0,0,0c0,0,0,0,0,0c0-0.1,0.1-0.1,0.1-0.2c0,0,0-0.1,0.1-0.1
			c1-1.3,2.1-2.7,3.1-4c0.2-0.3,0.5-0.6,0.7-0.9c0.2-0.2,0.3-0.4,0.5-0.7c0.1-0.1,0.2-0.2,0.3-0.3c0,0,0,0,0,0c0,0,0,0,0,0
			c0,0,0,0.1,0,0.1c0,0,0,0.1,0.1,0.1c0,0,0,0.1,0,0.1c0.1,0.3,0.2,0.6,0.3,0.9c0,0.1,0,0.2,0.1,0.2c0,0.1,0,0.2,0,0.2
			c0,0,0,0.1-0.1,0.1c-0.9,1.2-1.8,2.4-2.8,3.6C251.9,192.7,251.3,193.5,250.7,194.3z M252.9,200.4
			C252.9,200.4,252.8,200.5,252.9,200.4c-0.1,0.1-0.2,0.2-0.3,0.3c-0.1-0.2-0.1-0.4-0.2-0.5c0-0.2-0.1-0.3-0.1-0.5
			c-0.1-0.2-0.1-0.4-0.2-0.6c0-0.1,0-0.2,0.1-0.2c0.1-0.1,0.1-0.2,0.2-0.2c1.5-1.6,3-3.3,4.4-4.9c0.1-0.1,0.2-0.2,0.3-0.3
			c0,0,0,0,0.1-0.1l0,0c0,0,0,0,0,0c0.2,0.5,0.4,0.9,0.5,1.4c0,0,0,0.1,0,0.2c0,0,0,0.1,0,0.1c0,0-0.1,0.1-0.1,0.1c0,0,0,0,0,0
			c-0.4,0.4-0.7,0.8-1.1,1.3C255.2,197.8,254.1,199.1,252.9,200.4z M255.1,206.1C255.1,206.1,255.1,206.2,255.1,206.1
			c-0.1,0.1-0.2,0.2-0.2,0.2c0,0.1-0.1,0.1-0.2,0.2c0,0,0,0,0,0l0,0c0-0.1-0.1-0.2-0.1-0.2c-0.1-0.3-0.3-0.6-0.4-0.9
			c0.9-0.9,1.7-1.8,2.6-2.7c0.7-0.8,1.5-1.6,2.2-2.4c0.1-0.1,0.2-0.2,0.2-0.2l0,0c0,0,0,0,0,0c0.1,0.4,0.2,0.8,0.3,1.2
			c0,0.1,0,0.1,0,0.2c0,0,0,0,0,0c0,0,0,0.1,0,0.2c0,0,0,0,0,0c0,0.1-0.1,0.1-0.1,0.1c0,0,0,0,0,0c-0.4,0.4-0.8,0.8-1.2,1.2
			c-0.8,0.9-1.6,1.7-2.5,2.6C255.6,205.7,255.4,205.9,255.1,206.1z M257.6,211.9C257.5,211.9,257.5,212,257.6,211.9
			c-0.1,0.1-0.2,0.2-0.2,0.2c0,0,0,0,0,0c0,0,0,0,0,0c-0.3-0.6-0.5-1.1-0.8-1.7l0,0l0,0c0,0,0.1-0.1,0.1-0.1
			c0.6-0.6,1.2-1.2,1.8-1.9c0.7-0.7,1.4-1.4,2.1-2.2c0.1-0.1,0.2-0.3,0.4-0.4l0,0c0,0,0,0,0,0c0.1,0.2,0.1,0.4,0.2,0.6
			c0.1,0.2,0.2,0.4,0.2,0.7c0,0.1,0,0.3,0,0.4c0,0.1-0.1,0.2-0.2,0.3c0,0.1-0.1,0.1-0.1,0.2c-0.1,0.1-0.3,0.3-0.4,0.4
			C259.6,209.6,258.6,210.8,257.6,211.9z M260.7,217c-0.2,0.2-0.3,0.3-0.5,0.5c0,0,0,0,0,0c0,0,0,0,0,0c0,0-0.1,0-0.1,0
			c-0.1-0.1-0.2-0.2-0.3-0.3c-0.1-0.1-0.1-0.2-0.2-0.3c0-0.1-0.1-0.1-0.1-0.1c-0.1-0.1-0.2-0.2-0.2-0.3c0,0,0,0,0,0c0,0,0,0,0,0
			c0.1-0.1,0.3-0.3,0.6-0.7c0,0,0.1-0.1,0.1-0.1c0,0,0.1-0.1,0.1-0.1c0.1-0.1,0.3-0.3,0.4-0.4c0.8-0.8,1.7-1.6,2.2-2c0,0,0,0,0,0
			l0,0c0.1-0.1,0.1-0.1,0.2-0.1c0,0,0,0,0,0c0,0,0,0,0,0c0.1,0.3,0.1,0.5,0.1,0.8c0,0,0,0,0,0c0,0.1,0,0.2,0,0.3c0,0.1,0,0.2,0,0.3
			c0,0,0,0,0,0v0c0,0,0,0,0,0c0,0,0,0,0,0.1c0,0,0,0,0,0c0,0,0,0-0.1,0.1c0,0,0,0,0,0c-0.5,0.5-1,1-1.6,1.6
			c-0.1,0.1-0.3,0.3-0.4,0.4c0,0,0,0,0,0C260.9,216.8,260.8,216.9,260.7,217z M268.5,211.9c-0.2,0.2-0.5,0.4-0.7,0.6
			c-0.1,0-0.1,0.1-0.2,0.1c0-0.1-0.1-0.2-0.1-0.3c-0.4-1.4-0.7-2.9-1.1-4.3c0-0.1-0.1-0.3,0-0.5c0,0,0-0.1,0-0.1c0,0,0-0.1,0-0.1
			c0,0,0-0.1,0.1-0.1c0,0,0.1-0.1,0.1-0.1c0.1-0.1,0.3-0.3,0.4-0.4c0.1-0.1,0.2-0.1,0.2-0.2c0,0,0,0,0,0l0,0c0,0,0,0,0,0
			c0.4,1.3,0.7,2.5,1.1,3.7c0,0.1,0.1,0.3,0.1,0.4c0.1,0.3,0.2,0.7,0.3,1c0,0,0,0,0,0c0,0,0,0,0,0
			C268.8,211.6,268.6,211.7,268.5,211.9z M271.8,209.2C271.8,209.2,271.8,209.2,271.8,209.2C271.8,209.2,271.8,209.2,271.8,209.2
			C271.8,209.2,271.8,209.2,271.8,209.2c-0.1-0.2-0.1-0.3-0.1-0.4c-0.4-1.2-0.7-2.5-1.1-3.7c0-0.1-0.1-0.2-0.1-0.3
			c-0.1-0.4-0.2-0.8-0.4-1.1c0,0,0-0.1,0-0.1c0,0,0-0.1,0-0.1c0,0,0-0.1,0-0.1c0.2-0.3,0.5-0.6,0.8-0.9c0,0,0,0,0,0l0,0
			c0.1,0.5,0.3,1,0.4,1.5c0.1,0.3,0.2,0.7,0.3,1c0.3,1.2,0.7,2.4,1,3.6C272.4,208.8,272.1,209,271.8,209.2z M276.8,204.7
			C276.8,204.7,276.8,204.7,276.8,204.7c-0.1,0.2-0.2,0.3-0.3,0.4c-0.2,0.2-0.5,0.5-0.7,0.7c0,0,0,0,0,0c0,0,0,0,0,0
			c0-0.1,0-0.2-0.1-0.2c0-0.1,0-0.1,0-0.2c-0.5-1.9-1-3.9-1.5-5.8c0,0,0-0.1,0-0.1c0,0,0,0,0,0c0,0,0,0,0,0c0,0,0,0,0,0
			c0-0.1,0-0.2,0.1-0.2c0.3-0.3,0.6-0.5,0.9-0.8c0,0,0,0,0,0c0,0,0,0,0,0c0,0.2,0.1,0.3,0.1,0.4c0.2,0.7,0.4,1.4,0.5,2.1
			c0.3,1.1,0.6,2.3,0.9,3.4c0,0,0,0.1,0,0.1c0,0.1,0,0.1,0,0.2C276.8,204.6,276.8,204.6,276.8,204.7z M280.9,200.7
			c-0.1,0.1-0.1,0.1-0.2,0.2c-0.3,0.3-0.6,0.5-0.9,0.8c0,0,0,0,0-0.1c0,0,0,0,0,0c-0.4-2.1-0.8-4.2-1.1-6.3c0-0.1,0-0.2,0.1-0.3
			c0.2-0.2,0.5-0.5,0.7-0.7c0,0,0.1,0,0.1-0.1c0,0,0.1-0.1,0.1-0.1c0,0,0,0,0,0v0c0,0,0,0,0,0c0,0.1,0,0.2,0.1,0.2
			c0,0.1,0,0.1,0,0.2c0.1,0.5,0.2,0.9,0.3,1.4c0,0.1,0,0.2,0.1,0.4c0.3,1.4,0.5,2.8,0.8,4.2c0,0.1,0,0.1,0,0.2
			C280.9,200.6,280.9,200.7,280.9,200.7z M284.3,197.4c-0.2,0.1-0.3,0.3-0.5,0.5c0,0,0,0,0,0c0,0-0.1,0.1-0.2,0.1c0,0,0,0,0,0
			c0,0,0,0,0,0c0,0,0-0.1,0-0.1c0-0.1,0-0.2,0-0.3c-0.1-0.8-0.1-1.7-0.2-2.5c0-0.3-0.1-0.7-0.1-1c0-0.2,0-0.4-0.1-0.6
			c-0.1-0.6-0.1-1.3-0.2-1.9c0-0.1,0-0.3,0-0.3c0.2-0.2,0.5-0.4,0.8-0.7c0,0,0,0,0,0c0,0,0,0,0,0c0,0.1,0,0.2,0,0.2c0,0,0,0,0,0
			c0,0.3,0.1,0.6,0.1,1c0.2,1.8,0.3,3.5,0.5,5.3C284.5,197.2,284.4,197.3,284.3,197.4z M294.4,190.6c0.1-0.1,0.2-0.1,0.3-0.2
			c0.1,0.2,0.3,0.4,0.4,0.6c0,0.1,0.1,0.2,0.1,0.2c0.1,0.2,0.2,0.3,0.2,0.5c-0.8,0.5-1.5,1-2.3,1.5c-1,0.7-2,1.4-3,2
			c0,0-0.1-0.1-0.1-0.1c-0.3-0.2-0.5-0.3-0.8-0.5c0.1-0.1,0.1-0.1,0.2-0.2c0.4-0.3,0.8-0.6,1.3-1C292,192.5,293.2,191.5,294.4,190.6
			z M288.9,192.3c-0.1,0.2-0.2,0.5-0.2,0.7c-0.2,0.5-0.3,1-0.5,1.5c0,0.1-0.1,0.1-0.1,0.2c0,0,0,0.1-0.1,0.1
			c-0.1,0.1-0.3,0.1-0.4,0.2c-0.3,0.1-0.5,0.3-0.8,0.4c0,0,0,0,0,0c0.3-1.1,0.6-2.1,0.9-3.2c0.1-0.2,0.1-0.5,0.2-0.7
			c0.3-1.2,0.7-2.3,1-3.5c0.5-0.1,0.9-0.1,1.4-0.2c0,0,0,0,0,0c0,0,0,0,0,0c0,0.1,0,0.2-0.1,0.2c0,0,0,0,0,0.1
			C289.8,189.5,289.3,190.9,288.9,192.3z M292.5,201.1c-0.3,0.2-0.5,0.5-0.7,0.7c0,0,0,0,0,0c-0.1,0.1-0.2,0.1-0.4,0c0,0,0,0,0,0
			c-0.4-0.1-0.8-0.2-1.2-0.3c-1-0.2-2.1-0.5-3.1-0.7c-0.1,0-0.1,0-0.3-0.1c0,0,0,0,0,0c0,0,0,0,0,0c0.3-0.3,0.5-0.5,0.8-0.7
			c0,0,0.1-0.1,0.1-0.1c0.1-0.1,0.2-0.1,0.3-0.1c0,0,0.1,0,0.1,0c1.4,0.3,2.9,0.7,4.3,1c0,0,0.1,0,0.2,0.1c0,0,0,0,0.1,0
			C292.6,201,292.5,201.1,292.5,201.1z M295.4,197.2L295.4,197.2c-0.3,0-0.6,0-1,0.1c-0.9,0.1-1.9,0.1-2.8,0.2
			c-0.5,0-1.1,0.1-1.6,0.1c0,0,0,0,0,0c0,0,0,0,0,0c0.1-0.2,0.1-0.3,0.2-0.5c0.1-0.2,0.1-0.3,0.2-0.5l0,0c0,0,0,0,0,0
			c1-0.1,2-0.2,2.9-0.2c0.8-0.1,1.6-0.1,2.5-0.2c0,0,0,0,0,0c0,0,0,0,0,0C295.7,196.5,295.5,196.8,295.4,197.2
			C295.4,197.2,295.4,197.2,295.4,197.2z"/>
		<path class="st13" d="M272.2,211c-1.2-0.2-2.4-0.3-3.6-0.5c-0.5-0.1-1-0.1-1.6-0.2c-1-0.1-1.9-0.3-2.9-0.4
			c-0.7-0.1-1.4-0.2-2.2-0.3c-0.7-0.1-1.4-0.2-2.1-0.3h0c-0.7-0.1-1.3-0.2-2-0.3c-1.4-0.2-2.9-0.4-4.3-0.6
			c-14.7-1.9-27-3.1-27.4-1.3c-0.3,1.4-0.9,4.3-1.7,8c-0.1,0.4-0.1,0.7-0.2,1.1c0,0.2-0.1,0.3-0.1,0.5c-0.1,0.6-0.2,1.2-0.4,1.8
			c-1.1,5.3-2.3,11.5-3.3,16.2c-0.3,1.7-0.6,3.2-0.9,4.5c-0.4,2-0.7,3.3-0.7,3.6c3.8,1.1,7.6,2.1,11.4,3.1c1.9,0.5,3.8,1,5.7,1.5h0
			c0.5,0.1,1,0.2,1.5,0.4c0.2,0.1,0.4,0.1,0.7,0.2c0.4,0.1,0.8,0.2,1.2,0.3h0c2.2,0.6,4.5,1.1,6.7,1.6c7.8,1.9,15.7,3.5,23.5,4.7
			c2.1,0.3,4.2,0.6,6.2,0.9c0.5,0.1,1,0.1,1.5,0.2h0c0.1,0,0.1,0,0.2,0c0.3,0,0.6,0.1,0.8,0.1c2.5,0.3,5,0.5,7.5,0.7
			c2.2,0.2,4.4,0.3,6.6,0.4c0.2-1.6,0.5-3.2,0.7-4.8h0c0.2-1.5,0.4-3,0.6-4.4c1.1-7.7,2-14.5,2.8-19.9c0.1-0.5,0.1-1,0.2-1.4
			c0-0.2,0-0.3,0.1-0.5c0-0.4,0.1-0.7,0.1-1c0.5-3.6,0.8-6.4,1-8.3c0.1-1.2,0.2-2,0.2-2.4C292.3,213.7,282.6,212.5,272.2,211z"/>
		<path class="st11" d="M301.2,206.9c-5.8,0.6-14.2,0-23.6-1.1c-0.5-0.1-1.1-0.1-1.6-0.2c-0.1,0-0.2,0-0.3,0c-1.3-0.2-2.7-0.4-4-0.6
			c-0.4-0.1-0.8-0.1-1.2-0.2c-1.2-0.2-2.4-0.4-3.6-0.6c-1.5-0.2-2.9-0.5-4.4-0.7c-1.4-0.2-2.8-0.5-4.2-0.7c-0.5-0.1-1-0.2-1.5-0.3
			c-1.9-0.3-3.8-0.7-5.6-1c-9.4-1.8-18.4-3.6-25.7-5.2c-2.7-0.6-4.3,9.8-2.4,10.1c1,0.2,2,0.5,3,0.8c3.3,0.8,7.1,1.7,11.2,2.5
			c0.2,0,0.4,0.1,0.6,0.1c5.2,1,10.9,2.1,17,3c1.5,0.2,3,0.5,4.6,0.7c0.8,0.1,1.6,0.2,2.5,0.3c0.3,0,0.5,0.1,0.8,0.1
			c0,0,0.1,0,0.1,0c0.4,0.1,0.8,0.1,1.2,0.1c0.3,0,0.7,0.1,1,0.1c1.1,0.1,2.2,0.3,3.3,0.4c4.8,0.6,9.8,1,14.8,1.4c0.1,0,0.3,0,0.4,0
			c2.7,0.2,5.3,0.3,8,0.4c0.6,0,1.2,0,1.8,0.1c1.5,0.1,3,0.1,4.6,0.1c1.1,0,2.1,0,3.2,0C304.3,216.6,303.9,206.5,301.2,206.9z"/>
		<g>
			<path class="st14" d="M286,222.2c-0.1-0.1-0.3,0-0.4,0.1c-0.1,0.1-0.3,0.2-0.4,0.3c-0.3,0.2-0.5,0.3-0.8,0.5
				c-1.1,0.8-2.2,1.4-3.4,1.8c-1.8,0.7-3.6,1-5.5,0.8c-0.9-0.1-1.7-0.2-2.5-0.5c-1.4-0.4-2.7-0.9-3.9-1.7c-0.6-0.4-1.3-0.8-1.8-1.3
				c-0.2-0.2-0.4-0.5-0.6-0.7c-0.1-0.1-0.1-0.2-0.2-0.3c-0.1-0.1-0.3-0.2-0.4-0.1c-0.1,0.1-0.1,0.2-0.1,0.4c0,0,0,0,0,0.1
				c0.1,0.4,0.3,0.9,0.4,1.3c0.3,0.7,0.7,1.4,1.1,2c0.2,0.3,0.4,0.6,0.7,0.8c0.7,0.7,1.6,1.4,2.5,1.9c0.6,0.3,1.3,0.6,2,0.9
				c0.8,0.3,1.6,0.5,2.7,0.6c0.3,0,0.8,0,1.3,0c1.7-0.1,3.3-0.6,4.8-1.6c0.9-0.6,1.8-1.4,2.7-2.1c0.8-0.7,1.5-1.4,2-2.3
				c0.1-0.1,0.1-0.3,0.2-0.4C286.2,222.4,286.1,222.3,286,222.2z M280.6,226.5c-0.3,0.1-0.5,0.1-0.8,0.2c-1.2,0.3-2.4,0.5-3.7,0.5
				c-0.4,0-0.8,0-1.1,0c-1.7-0.2-3.3-0.6-4.8-1.5c-0.3-0.2-0.5-0.3-0.8-0.5c-0.1,0-0.1-0.1-0.2-0.2c-0.1-0.1,0-0.2,0-0.3
				c0.1-0.1,0.2-0.1,0.3,0c0.1,0,0.1,0.1,0.2,0.2c0.8,0.6,1.7,1,2.7,1.3c0.9,0.3,1.8,0.5,2.7,0.6c1.6,0.1,3.2-0.1,4.7-0.5
				c0.2,0,0.3-0.1,0.5-0.1c0,0,0.1,0,0.1,0c0.1,0,0.2,0.1,0.3,0.2C280.9,226.4,280.8,226.5,280.6,226.5z"/>
			<path class="st14" d="M267.7,228.9c0,0.3-0.3,0.5-0.6,0.4c-0.5-0.2-0.9-0.5-1.3-0.8c-0.2-0.2-0.5-0.4-0.7-0.6
				c-0.1,0.1-0.2,0.2-0.2,0.3c-0.1,0.2-0.2,0.3-0.3,0.5c-0.1,0.1-0.1,0.2-0.2,0.2c-0.2,0.2-0.5,0.1-0.6-0.2c0-0.1,0-0.3,0-0.4
				c0.1-1.1,0.2-2.1,0.3-3.2c0.1-0.7,0.2-1.4,0.3-2.1c0.1-0.6,0.2-1.2,0.3-1.7c0-0.3,0.1-0.3,0.3-0.4c0.2,0,0.4,0.1,0.4,0.3
				c0.1,0.5,0.2,0.9,0.4,1.4c0.2,1,0.5,2,0.9,2.9c0.4,0.8,0.7,1.6,0.9,2.4c0.1,0.2,0.1,0.5,0.2,0.7
				C267.7,228.7,267.7,228.8,267.7,228.9z"/>
			<path class="st14" d="M263.5,217.8c0-0.1,0-0.2-0.1-0.3c-0.3-0.8-0.7-1.4-1.2-2c0,0,0,0,0,0c-0.2-0.2-0.4-0.4-0.7-0.6
				c-0.1-0.1-0.3-0.1-0.4-0.2c-0.3,0-0.6,0.1-0.8,0.4c-0.1,0.2-0.2,0.3-0.3,0.5c0,0.1-0.1,0.2-0.1,0.3c0,0,0,0,0,0
				c-0.1,0.4-0.2,0.7-0.3,1.1c-0.1,0.4-0.1,0.9-0.2,1.4c0,0.3-0.1,0.5-0.1,0.8c0,0.3,0,0.6,0,0.8c0,0,0,0,0,0.1
				c0,0.4,0.3,0.6,0.6,0.8c0.3,0.1,0.5,0.2,0.8,0.1c0.3,0,0.7-0.1,1-0.2c0.4-0.1,0.7-0.3,0.9-0.7c0,0,0.1-0.1,0.1-0.1
				c0-0.1,0.1-0.2,0.2-0.3c0-0.1,0.1-0.1,0.1-0.2c0.1-0.4,0.2-0.8,0.4-1.2C263.5,218.1,263.5,218,263.5,217.8z M261.2,215.9
				c0,0,0.1,0,0.2,0.1c0.1,0,0.2,0.1,0.3,0.2c0,0,0,0,0.1,0c0.1,0,0.1,0.1,0.2,0.2c0,0,0.1,0.1,0.1,0.1c0.1,0.1,0.1,0.1,0.2,0.2
				c0,0,0,0,0,0c0.1,0.1,0.2,0.2,0.2,0.2c0,0,0.1,0.1,0.1,0.1c0.1,0.1,0.2,0.2,0.2,0.4c0.1,0.1,0.1,0.2,0.2,0.4c0,0,0,0,0,0
				c0.1,0.2,0,0.4-0.2,0.4c-0.2,0.1-0.4,0-0.5-0.2c0-0.1-0.1-0.2-0.1-0.3c0-0.1-0.1-0.2-0.2-0.3c-0.1-0.2-0.3-0.3-0.4-0.5
				c-0.1-0.1-0.1-0.1-0.2-0.2c-0.1-0.1-0.2-0.1-0.3-0.2c0,0,0,0-0.1,0c0,0-0.1-0.1-0.1-0.1c-0.1-0.1-0.1-0.3-0.1-0.4
				C260.8,216,261,215.9,261.2,215.9z"/>
			<path class="st14" d="M270.6,216.5c0-0.1,0-0.2-0.1-0.4c-0.1-0.3-0.3-0.4-0.5-0.4c-0.2,0-0.5,0-0.7,0.2c-0.9,0.6-1.7,1.3-2.5,2
				c-0.2,0.2-0.3,0.4-0.2,0.7c0.1,0.4,0.1,0.7,0,1.1c0,0.1,0,0.3,0,0.4c0,0.3,0.1,0.5,0.4,0.6c0.1,0,0.2,0.1,0.3,0.2
				c0.3,0.2,0.6,0.4,1,0.6c0.3,0.2,0.6,0.2,1,0.2c0.3,0,0.7-0.2,0.8-0.6c0.1-0.3,0.2-0.7,0.3-1c0,0,0-0.1,0-0.1c0-0.4,0.1-0.8,0.1-1
				c0-0.5,0.1-0.9,0.1-1.4C270.6,217.3,270.6,216.9,270.6,216.5z M269.8,220.9c0,0.2-0.2,0.3-0.3,0.3c-0.7-0.1-1.4-0.3-2-0.7
				c-0.1-0.1-0.3-0.2-0.4-0.3c-0.1-0.1-0.1-0.4,0-0.5c0.1-0.1,0.3-0.1,0.5,0c0.4,0.4,0.9,0.5,1.4,0.6c0.2,0,0.3,0.1,0.5,0.1
				C269.7,220.5,269.8,220.7,269.8,220.9z"/>
			<path class="st14" d="M264.1,221c0,0.2,0,0.5-0.1,0.7c-0.2,0.8-0.4,1.5-0.6,2.3c-0.3,1.2-0.6,2.3-0.9,3.5c0,0.2-0.1,0.3-0.1,0.5
				c0,0.1,0,0.1-0.1,0.2c-0.1,0.1-0.2,0.2-0.3,0.2c-0.2,0-0.3-0.1-0.3-0.2c-0.1-0.3-0.2-0.5-0.3-0.8c-0.1-0.2-0.2-0.4-0.3-0.6
				c-0.2,0.1-0.4,0.2-0.6,0.3c-0.1,0.1-0.3,0.1-0.4,0.2c-0.1,0-0.2,0-0.4,0c-0.2,0-0.3-0.2-0.3-0.4c0-0.1,0-0.1,0.1-0.2
				c0-0.1,0.1-0.1,0.1-0.2c0.9-1.2,1.6-2.4,2.4-3.7c0.3-0.4,0.5-0.9,0.8-1.3c0.1-0.2,0.3-0.5,0.4-0.7c0.1-0.2,0.3-0.2,0.4-0.2
				C263.9,220.6,264.1,220.7,264.1,221z"/>
			<path class="st14" d="M266.3,219.9c-0.1,0.2-0.2,0.4-0.5,0.5c-0.5,0.2-0.9,0.2-1.4,0.1c-0.2,0-0.5-0.1-0.7-0.2
				c-0.2-0.1-0.3-0.3-0.3-0.5c0-0.1,0-0.1,0-0.2c0-0.1,0-0.2,0-0.3c0-0.2,0.1-0.4,0.1-0.6c0.1-0.3,0.2-0.6,0.5-0.8
				c0,0,0.1-0.1,0.2-0.1c0,0,0,0,0,0c0.1-0.1,0.2-0.1,0.3-0.1h0.1c0.2,0,0.3,0,0.5,0c0.2,0,0.5,0.1,0.7,0.2c0.3,0.1,0.5,0.3,0.6,0.6
				C266.5,218.9,266.5,219.4,266.3,219.9z"/>
			<path class="st5" d="M275,227.3c-1.7-0.2-3.3-0.6-4.8-1.5c-0.3-0.2-0.5-0.4-0.8-0.5c-0.1,0-0.1-0.1-0.2-0.2
				c-0.1-0.1,0-0.2,0.1-0.3c0.1-0.1,0.2-0.1,0.3,0c0.1,0,0.1,0.1,0.2,0.2c0.8,0.6,1.7,1,2.7,1.3c0.9,0.3,1.8,0.5,2.7,0.6
				c1.6,0.1,3.2-0.1,4.7-0.5c0.2-0.1,0.3-0.1,0.5-0.1c0,0,0.1,0,0.1,0c0.1,0,0.2,0.1,0.3,0.2c0,0.1,0,0.2-0.2,0.3
				c-0.3,0.1-0.5,0.1-0.8,0.2c-1.2,0.3-2.4,0.5-3.7,0.5C275.8,227.3,275.4,227.3,275,227.3z"/>
			<path class="st14" d="M295.1,225.1c0.1,0,0.1,0.1,0.2,0.1c0.1,0.1,0.2,0.1,0.3,0.2c0.1,0,0.2,0.1,0.3,0.1
				c0.1,0.1,0.2,0.1,0.4,0.1c0.1,0,0.2,0.1,0.3,0.1c0.1,0,0.1,0,0.2,0.1c0-0.4,0.1-0.7,0.1-1c-0.9-0.2-1.8-0.5-2.6-0.9
				c-0.7-0.3-1.3-0.6-1.9-1.1c-0.2-0.2-0.5-0.4-0.7-0.6c-0.1-0.1-0.1-0.2-0.2-0.3c-0.1-0.1-0.3-0.1-0.4,0c-0.1,0.1-0.1,0.2-0.1,0.4
				c0,0,0,0,0,0.1c0.2,0.4,0.4,0.8,0.6,1.3c0.4,0.7,0.8,1.3,1.4,1.8c0.2,0.3,0.5,0.5,0.8,0.7c0.8,0.7,1.7,1.2,2.7,1.6
				c0,0,0.1,0,0.1,0c0.1-0.5,0.1-1,0.2-1.4c-0.3-0.1-0.6-0.2-0.9-0.3c-0.3-0.1-0.6-0.3-0.9-0.4c-0.1,0-0.1-0.1-0.2-0.1
				c-0.1-0.1-0.1-0.2,0-0.3C294.9,225.1,295,225.1,295.1,225.1z"/>
			<path class="st5" d="M296.6,225.8c0.1,0,0.1,0,0.2,0.1c0,0.1,0,0.3-0.1,0.5c-0.3-0.1-0.6-0.2-0.9-0.3c-0.3-0.1-0.6-0.3-0.9-0.4
				c-0.1,0-0.1-0.1-0.2-0.1c-0.1-0.1-0.1-0.2,0-0.3c0.1-0.1,0.2-0.1,0.3-0.1c0.1,0,0.1,0.1,0.2,0.1c0.1,0.1,0.2,0.1,0.3,0.2
				c0.1,0.1,0.2,0.1,0.3,0.1c0.1,0.1,0.2,0.1,0.4,0.2C296.4,225.7,296.5,225.8,296.6,225.8z"/>
			<path class="st5" d="M261.2,215.9c0,0,0.1,0,0.2,0.1c0.6,0.3,1.1,0.8,1.4,1.4c0.1,0.1,0.1,0.3,0.2,0.4c0.1,0.2,0,0.4-0.2,0.4
				c-0.2,0.1-0.4,0-0.5-0.2c-0.3-0.6-0.7-1.1-1.3-1.4c-0.1,0-0.1-0.1-0.2-0.1c-0.1-0.1-0.1-0.3-0.1-0.4
				C260.8,216,261,215.9,261.2,215.9z"/>
			<path class="st5" d="M269.4,221.2c-0.7-0.1-1.4-0.3-2-0.7c-0.1-0.1-0.3-0.2-0.4-0.3c-0.1-0.1-0.1-0.4,0-0.5
				c0.1-0.1,0.3-0.2,0.5,0c0.4,0.4,0.9,0.5,1.4,0.7c0.2,0,0.3,0.1,0.5,0.1c0.2,0.1,0.3,0.2,0.3,0.4
				C269.7,221.1,269.5,221.2,269.4,221.2z"/>
			<path class="st14" d="M293.3,228.7c0,0.3-0.2,0.5-0.5,0.4c-0.5-0.1-1-0.3-1.4-0.6c-0.3-0.1-0.5-0.3-0.8-0.5
				c-0.1,0.1-0.1,0.3-0.2,0.4c-0.1,0.2-0.2,0.4-0.2,0.6c0,0.1-0.1,0.2-0.2,0.3c-0.2,0.2-0.5,0.2-0.6-0.1c0-0.1-0.1-0.3-0.1-0.4
				c-0.1-1.1-0.2-2.2-0.2-3.2c0-0.7,0-1.4,0-2.1c0-0.6,0-1.2,0-1.8c0-0.3,0.1-0.4,0.3-0.4c0.2,0,0.4,0,0.5,0.3
				c0.2,0.4,0.4,0.9,0.6,1.3c0.4,0.9,0.8,1.9,1.3,2.7c0.5,0.7,0.9,1.4,1.3,2.2c0.1,0.2,0.2,0.5,0.3,0.7
				C293.3,228.6,293.3,228.7,293.3,228.7z"/>
			<path class="st14" d="M286.3,218.1c-0.4-0.7-1-1.3-1.7-1.7c-0.2-0.2-0.5-0.3-0.8-0.4c0,0-0.1,0-0.1,0c-0.2,0-0.3-0.1-0.4,0
				c-0.3,0-0.5,0.2-0.6,0.5c-0.1,0.3-0.2,0.6-0.2,0.9c-0.1,0.9,0,1.7,0.1,2.6c0,0.3,0.1,0.5,0.1,0.8c0.1,0.3,0.1,0.6,0.3,0.9
				c0.1,0.4,0.4,0.6,0.8,0.6c0.3,0,0.5,0,0.8-0.1c0.3-0.1,0.6-0.3,1-0.4c0.3-0.2,0.6-0.5,0.7-0.9c0,0,0-0.1,0-0.1
				c0-0.2,0.1-0.4,0.1-0.6c0-0.4,0-0.9,0.1-1.3C286.5,218.6,286.4,218.3,286.3,218.1z M285.8,219c-0.2,0.1-0.4,0.1-0.5-0.1
				c-0.1-0.1-0.2-0.2-0.3-0.4c0-0.1-0.1-0.1-0.2-0.2c0,0,0,0-0.1,0c-0.3-0.2-0.7-0.4-1-0.5c-0.1,0-0.1,0-0.2-0.1
				c-0.1-0.1-0.2-0.2-0.2-0.4c0-0.1,0.1-0.2,0.2-0.3c0,0,0,0,0,0c0,0,0.1,0,0.1,0c0,0,0.1,0,0.2,0c0.5,0.1,0.9,0.4,1.3,0.7
				c0,0,0.1,0,0.1,0.1c0,0,0.1,0.1,0.1,0.1c0.1,0,0.1,0.1,0.2,0.1c0.1,0.1,0.2,0.2,0.3,0.4c0,0,0,0,0,0v0c0,0,0,0,0,0.1
				c0,0,0,0,0,0.1C285.9,218.8,285.9,218.9,285.8,219z"/>
			<path class="st14" d="M293.9,220.1c0-0.4,0-0.8,0-1c-0.1-0.5-0.1-0.9-0.1-1.3c-0.1-0.4-0.1-0.8-0.2-1.2c0,0,0,0,0-0.1
				c0-0.1-0.1-0.2-0.1-0.3c-0.1-0.3-0.3-0.3-0.6-0.3c-0.2,0-0.4,0.1-0.6,0.3c-0.1,0.1-0.3,0.3-0.4,0.4c-0.6,0.6-1.2,1.3-1.8,2
				c-0.2,0.2-0.2,0.5-0.1,0.8c0.1,0.3,0.2,0.7,0.2,1.1c0,0.1,0,0.3,0.1,0.4c0.1,0.3,0.2,0.5,0.5,0.6c0.1,0,0.2,0.1,0.4,0.1
				c0.3,0.1,0.7,0.3,1,0.4c0.3,0.1,0.7,0.1,1,0.1c0.3,0,0.7-0.3,0.7-0.7c0-0.3,0.1-0.7,0.1-1C293.9,220.1,293.9,220.1,293.9,220.1z
				 M293,221.2c-0.8,0-1.4-0.1-2-0.4c-0.1-0.1-0.3-0.1-0.4-0.3c-0.2-0.1-0.2-0.3,0-0.5c0.1-0.1,0.3-0.2,0.5-0.1
				c0.5,0.3,1,0.4,1.5,0.4c0.2,0,0.3,0,0.5,0c0.2,0,0.3,0.2,0.3,0.4C293.3,221,293.1,221.2,293,221.2z"/>
			<path class="st14" d="M288.3,222.5c-0.1,0.8-0.1,1.6-0.2,2.4c-0.1,1.2-0.2,2.4-0.3,3.6c0,0.2,0,0.3-0.1,0.5c0,0.1,0,0.1,0,0.2
				c0,0.1-0.1,0.2-0.3,0.3c-0.2,0-0.3,0-0.4-0.2c-0.1-0.2-0.3-0.5-0.4-0.7c-0.1-0.2-0.2-0.4-0.4-0.6c-0.2,0.1-0.3,0.2-0.5,0.3
				c-0.1,0.1-0.3,0.2-0.4,0.2c-0.1,0-0.2,0.1-0.4,0.1c-0.2,0-0.3-0.1-0.3-0.3c0-0.1,0-0.1,0-0.2c0-0.1,0-0.1,0.1-0.2
				c0.7-1.3,1.2-2.6,1.8-4c0.2-0.5,0.4-1,0.6-1.4c0.1-0.2,0.2-0.5,0.3-0.7c0.1-0.2,0.2-0.3,0.4-0.2c0.3,0,0.4,0.2,0.4,0.4
				C288.3,222,288.4,222.3,288.3,222.5z"/>
			<path class="st14" d="M289.7,220.4c0,0.2-0.2,0.4-0.4,0.6c-0.4,0.3-0.9,0.3-1.4,0.3c-0.2,0-0.5-0.1-0.7-0.1
				c-0.2,0-0.4-0.2-0.4-0.4c0-0.2,0-0.4,0-0.5c0-0.2,0-0.4,0-0.7c0-0.3,0.1-0.6,0.4-0.8c0.1-0.2,0.3-0.2,0.5-0.3c0.4,0,0.8,0,1.2,0
				c0.3,0.1,0.5,0.3,0.7,0.5C289.7,219.4,289.8,219.9,289.7,220.4z"/>
			<path class="st5" d="M283.7,217.1c0,0,0.1,0,0.2,0c0.7,0.2,1.2,0.6,1.7,1.1c0.1,0.1,0.2,0.2,0.3,0.4c0.1,0.2,0,0.4-0.1,0.5
				c-0.2,0.1-0.4,0.1-0.5-0.1c-0.4-0.6-0.9-0.9-1.6-1.1c-0.1,0-0.1,0-0.2-0.1c-0.1-0.1-0.2-0.2-0.1-0.4
				C283.4,217.2,283.5,217.1,283.7,217.1z"/>
			<path class="st5" d="M293,221.2c-0.8,0-1.4-0.1-2-0.4c-0.1-0.1-0.3-0.2-0.4-0.3c-0.2-0.1-0.2-0.3-0.1-0.5
				c0.1-0.2,0.3-0.2,0.5-0.1c0.5,0.3,1,0.4,1.5,0.4c0.2,0,0.3,0,0.5,0c0.2,0,0.3,0.2,0.3,0.4C293.2,221,293.1,221.2,293,221.2z"/>
			<path class="st14" d="M261.7,221.3c-0.1-0.1-0.3-0.1-0.4,0c-0.1,0.1-0.2,0.2-0.3,0.2c-0.2,0.2-0.5,0.4-0.7,0.5
				c-0.6,0.4-1.3,0.7-2,0.9c-1.3,0.5-2.7,0.7-4.2,0.8c-0.9,0.1-1.7,0-2.6-0.1c-1.9-0.2-3.6-0.9-5.2-2c-1.1-0.7-2.1-1.5-3-2.5
				c-0.2-0.2-0.4-0.4-0.7-0.7c-0.1-0.1-0.2-0.3-0.4-0.4c-0.1-0.1-0.2-0.2-0.4-0.1c-0.1,0-0.2,0.2-0.2,0.3c0,0.1,0,0.3,0.1,0.4
				c0.3,1,0.9,1.9,1.5,2.7c0.7,0.9,1.4,1.8,2.2,2.7c1.2,1.3,2.6,2.1,4.3,2.6c0.5,0.1,1,0.2,1.2,0.3c1,0.1,1.9,0.1,2.7,0
				c0.7-0.1,1.4-0.2,2.1-0.4c1-0.3,2-0.7,2.9-1.3c0.3-0.2,0.6-0.4,0.8-0.6c0.6-0.5,1.1-1.1,1.5-1.7c0.3-0.4,0.5-0.8,0.7-1.2
				c0,0,0,0,0-0.1C261.8,221.5,261.8,221.3,261.7,221.3z M257.6,224.4c0,0-0.1,0.1-0.2,0.1c-0.3,0.1-0.6,0.2-0.9,0.3
				c-1.6,0.5-3.3,0.6-5,0.4c-0.3-0.1-0.7-0.1-1.1-0.2c-1.2-0.3-2.4-0.7-3.5-1.3c-0.2-0.1-0.5-0.3-0.7-0.4c-0.1-0.1-0.2-0.2-0.1-0.3
				c0-0.1,0.2-0.1,0.3-0.1c0,0,0.1,0,0.1,0.1c0.2,0.1,0.3,0.2,0.5,0.3c1.4,0.8,2.9,1.3,4.5,1.5c0.9,0.1,1.9,0.1,2.8,0
				c1-0.1,2-0.3,2.9-0.7c0.1,0,0.1-0.1,0.2-0.1c0.1,0,0.2,0,0.2,0.1C257.7,224.2,257.7,224.3,257.6,224.4z"/>
			<path class="st5" d="M251.5,225.3c1.7,0.1,3.4,0.1,5-0.4c0.3-0.1,0.6-0.2,0.9-0.4c0.1,0,0.1-0.1,0.2-0.1c0.1-0.1,0.1-0.2,0-0.3
				c-0.1-0.1-0.2-0.1-0.3-0.1c-0.1,0-0.2,0.1-0.2,0.1c-0.9,0.4-1.9,0.6-2.9,0.7c-0.9,0.1-1.9,0.1-2.8,0c-1.6-0.2-3.1-0.7-4.5-1.5
				c-0.2-0.1-0.3-0.2-0.5-0.3c0,0-0.1,0-0.1-0.1c-0.1,0-0.2,0-0.3,0.1c-0.1,0.1,0,0.2,0.1,0.3c0.2,0.1,0.5,0.3,0.7,0.4
				c1.1,0.6,2.3,1,3.5,1.3C250.8,225.2,251.2,225.2,251.5,225.3z"/>
			<path class="st14" d="M237.1,216.1c-0.1-0.1-0.3-0.2-0.4-0.1c-0.1,0-0.2,0.1-0.3,0.2c-0.3,0.1-0.5,0.3-0.8,0.4
				c-0.7,0.2-1.4,0.3-2.2,0.4c-1.4,0.2-2.8,0.1-4.3-0.1c-0.9-0.1-1.7-0.3-2.5-0.6c-0.8-0.3-1.5-0.6-2.1-1.1
				c-0.1,0.4-0.1,0.7-0.2,1.1c0.7,0.4,1.4,0.8,2.1,1.1c0.9,0.3,1.8,0.5,2.7,0.7c1,0.1,2,0.2,3,0c0.1,0,0.2,0,0.2-0.1
				c0.1,0,0.2,0,0.2,0.1c0,0.1,0,0.2-0.1,0.3c-0.1,0-0.1,0.1-0.2,0.1c-0.3,0-0.6,0.1-1,0.1c-1.7,0.1-3.3-0.2-5-0.7
				c-0.3-0.1-0.7-0.3-1-0.5c-0.4-0.2-0.7-0.4-1.1-0.6c-0.1,0.6-0.2,1.2-0.4,1.8c0.1,0.1,0.3,0.2,0.4,0.3c0.4,0.2,0.9,0.4,1.1,0.5
				c1,0.4,1.8,0.5,2.7,0.6c0.7,0.1,1.4,0.1,2.1,0.1c1.1,0,2.1-0.2,3.1-0.6c0.3-0.1,0.7-0.3,1-0.4c0.7-0.4,1.3-0.8,1.9-1.3
				c0.3-0.3,0.6-0.7,1-1l0,0C237.2,216.4,237.2,216.2,237.1,216.1z"/>
			<path class="st5" d="M232.5,218.3c-0.1,0-0.1,0.1-0.2,0.1c-0.3,0.1-0.6,0.1-1,0.1c-1.7,0.1-3.3-0.2-5-0.7c-0.3-0.1-0.7-0.3-1-0.5
				c-0.4-0.2-0.8-0.4-1.1-0.6c0-0.2,0.1-0.3,0.1-0.5c0.7,0.4,1.4,0.8,2.1,1.1c0.9,0.3,1.8,0.5,2.7,0.7c1,0.1,2,0.2,3,0
				c0.1,0,0.2-0.1,0.3-0.1c0.1,0,0.2,0,0.2,0.1C232.6,218.1,232.5,218.2,232.5,218.3z"/>
			<path class="st14" d="M239.5,216.6c-0.2,0.6-0.3,1.1-0.5,1.7c-0.2,0.7-0.4,1.3-0.7,2c-0.4,1-0.8,2-1.2,3
				c-0.1,0.1-0.1,0.2-0.2,0.3c-0.2,0.2-0.5,0.2-0.6-0.1c0-0.1-0.1-0.2-0.1-0.3c0-0.2,0-0.4-0.1-0.6c0-0.1,0-0.3,0-0.4
				c-0.3,0.1-0.6,0.1-0.9,0.2c-0.5,0.1-1,0.1-1.5,0.1c-0.3,0-0.5-0.3-0.4-0.6c0-0.1,0.1-0.1,0.1-0.2c0.2-0.2,0.3-0.4,0.5-0.6
				c0.6-0.6,1.2-1.2,1.9-1.7c0.8-0.6,1.5-1.4,2.1-2.1c0.3-0.4,0.6-0.7,0.9-1.1c0.2-0.2,0.3-0.2,0.5-0.1
				C239.5,216.3,239.5,216.4,239.5,216.6z"/>
			<path class="st14" d="M247.2,213.7c-0.1-0.6-0.4-0.8-0.9-0.8c-0.3,0-0.6,0-0.9,0.1c-0.8,0.2-1.5,0.6-2.2,1.1
				c-0.2,0.2-0.4,0.4-0.4,0.6c-0.1,0.4-0.2,0.8-0.3,1.2c0,0.2,0,0.4,0,0.6c0,0,0,0.1,0,0.1c0,0.4,0.1,0.8,0.4,1.1
				c0.2,0.3,0.5,0.5,0.8,0.7c0.2,0.2,0.5,0.3,0.8,0.3c0.4,0.1,0.7,0,0.9-0.3c0.2-0.2,0.4-0.5,0.5-0.7c0.1-0.2,0.2-0.5,0.4-0.7
				c0.4-0.8,0.7-1.5,0.9-2.4C247.2,214.3,247.2,214,247.2,213.7z M246,214.6C246,214.6,246,214.6,246,214.6c-0.1,0-0.1,0-0.2,0h-0.2
				c-0.6,0-1.2,0.1-1.7,0.5c-0.2,0.1-0.4,0.1-0.5-0.1c-0.1-0.1-0.1-0.4,0-0.5c0.1-0.1,0.2-0.2,0.4-0.3c0.6-0.3,1.3-0.4,2-0.4
				c0.1,0,0.1,0,0.2,0c0.2,0.1,0.3,0.2,0.2,0.4C246.2,214.4,246.1,214.5,246,214.6L246,214.6z"/>
			<path class="st14" d="M239.6,213.1c-0.4-1-0.8-2-1.3-2.9c-0.1-0.2-0.2-0.3-0.3-0.4c0,0-0.1-0.1-0.2-0.1c-0.2-0.1-0.3-0.1-0.4,0
				c-0.1,0-0.2,0.1-0.2,0.1c-0.1,0.1-0.2,0.2-0.2,0.3c-0.2,0.4-0.4,0.8-0.6,1.2c-0.2,0.4-0.3,0.8-0.6,1.2c-0.1,0.3-0.2,0.6-0.4,1
				c0,0,0,0.1,0,0.1c-0.1,0.3-0.1,0.7-0.2,1c-0.1,0.4,0.2,0.7,0.5,0.9c0.3,0.2,0.6,0.2,1,0.2c0.4,0,0.7-0.1,1.1-0.1
				c0.1,0,0.3,0,0.4,0c0.3,0,0.5-0.1,0.7-0.4c0.1-0.1,0.1-0.3,0.2-0.4c0.1-0.3,0.3-0.7,0.5-1C239.7,213.7,239.7,213.4,239.6,213.1z
				 M238.4,215.1c-0.2,0.1-0.3,0.1-0.5,0.1c-0.7,0.1-1.3-0.1-2.1-0.3c-0.1,0-0.2-0.2-0.2-0.4c0-0.2,0.2-0.3,0.4-0.3
				c0.2,0,0.3,0.1,0.5,0.1c0.5,0.1,1,0.2,1.6,0.1c0.2-0.1,0.4,0.1,0.4,0.2C238.7,214.8,238.6,215,238.4,215.1z"/>
			<path class="st14" d="M241.6,223.9c0,0.1,0,0.1,0,0.2c-0.1,0.2-0.2,0.3-0.4,0.2c-0.1,0-0.2-0.1-0.3-0.2c-0.1-0.1-0.2-0.2-0.3-0.4
				c-0.1-0.1-0.2-0.3-0.4-0.5c-0.2,0.2-0.4,0.3-0.5,0.4c-0.2,0.2-0.4,0.4-0.6,0.6c-0.1,0.1-0.3,0.1-0.4,0c-0.1-0.1-0.2-0.2-0.2-0.3
				c0-0.1,0-0.1,0-0.2c0-0.2,0.1-0.3,0.1-0.5c0.3-1.2,0.5-2.3,0.8-3.5c0.2-0.8,0.3-1.5,0.5-2.3c0.1-0.2,0.1-0.5,0.2-0.7
				c0.1-0.2,0.3-0.3,0.5-0.2c0.2,0,0.3,0.1,0.3,0.4c0,0.3,0,0.5,0.1,0.8c0,0.5,0,1,0.1,1.6c0.1,1.5,0.3,2.9,0.5,4.3
				C241.6,223.8,241.6,223.9,241.6,223.9z"/>
			<path class="st14" d="M242.3,215.2c0,0.2-0.1,0.4-0.2,0.6c0,0.1-0.1,0.3-0.2,0.5c-0.1,0.2-0.3,0.3-0.5,0.3
				c-0.2,0-0.5-0.1-0.7-0.1c-0.5-0.1-0.9-0.3-1.2-0.7c-0.1-0.2-0.2-0.4-0.2-0.7c0.1-0.5,0.3-0.9,0.6-1.3c0.2-0.2,0.5-0.3,0.8-0.3
				c0.4,0.1,0.8,0.1,1.1,0.3c0.2,0.1,0.3,0.2,0.4,0.4C242.3,214.6,242.3,214.9,242.3,215.2z"/>
			<path class="st5" d="M246.3,213.7c0,0-0.1,0-0.2,0c-0.8,0-1.6,0.2-2.4,0.6c-0.2,0.1-0.3,0.2-0.5,0.3c-0.2,0.2-0.2,0.4,0,0.6
				c0.2,0.2,0.4,0.2,0.6,0.1c0.7-0.5,1.4-0.7,2.2-0.7c0.1,0,0.2,0,0.2,0c0.2-0.1,0.3-0.2,0.3-0.4C246.7,214,246.6,213.8,246.3,213.7
				z"/>
			<path class="st5" d="M235.9,214.9c0.7,0.2,1.4,0.4,2.1,0.3c0.2,0,0.3-0.1,0.5-0.1c0.2-0.1,0.3-0.3,0.2-0.4
				c-0.1-0.2-0.2-0.3-0.4-0.2c-0.5,0.2-1.1,0.1-1.6-0.1c-0.2,0-0.3-0.1-0.5-0.1c-0.2,0-0.4,0.1-0.4,0.3
				C235.7,214.7,235.8,214.8,235.9,214.9z"/>
		</g>
		<g>
			<g>
				<path class="st12" d="M237.7,246.9c-0.3,0.1-0.5,0.2-0.8,0.3c-0.2,0.1-0.4,0.1-0.6,0.2c-0.1,0-0.2,0.1-0.3,0.1h0
					c0,0-0.1,0-0.1,0.1c0,0-0.1,0-0.1,0c-0.2,0.1-0.3,0.2-0.5,0.2c0,0,0,0,0,0c-0.2,0.1-0.5,0.3-0.7,0.4c-0.3,0.2-0.6,0.4-0.9,0.6
					c-0.8,0.7-1.6,1.4-2.3,2.2c-0.7-1.2-1.1-2.6-1.1-4.2c0-0.3,0-0.6,0.1-0.9c0-0.5,0.1-0.9,0.3-1.4c0.9,0.6,1.9,1.1,2.8,1.5
					c0.4,0.1,0.7,0.2,1,0.3C235.4,246.7,236.5,246.9,237.7,246.9z"/>
				<path class="st12" d="M237.9,246.3c-1.2-0.5-2.2-1.2-3.1-2.2c-0.4-0.5-0.8-1.1-1.1-1.7c-0.3-0.5-0.5-1.1-0.7-1.7
					c1.3-1.1,2.9-1.8,4.6-2c-0.2,1.1-0.4,2.2-0.4,3.2c0,0.4,0,0.7,0.1,1.1c0,0,0,0.1,0,0.1v0l0,0.3c0,0.1,0,0.2,0,0.3c0,0,0,0,0,0.1
					c0,0.1,0,0.2,0,0.3c0,0,0,0.1,0,0.1c0,0.1,0,0.3,0.1,0.4c0,0,0,0,0,0.1c0,0.2,0.1,0.5,0.2,0.7
					C237.8,245.7,237.9,246,237.9,246.3z"/>
				<path class="st12" d="M240,255c-0.5,0.1-1.1,0.2-1.6,0.2c-1.3,0-2.5-0.3-3.6-0.8c0.1-1.4,0.3-2.7,0.9-4c0.5-1.2,1.3-2.2,2.4-3
					c0,0,0,0,0.1-0.1c-0.1,1.1,0,2.2,0.2,3.3c0.1,0.3,0.1,0.7,0.2,1.1C239,252.8,239.5,253.9,240,255z"/>
				<path class="st12" d="M245.8,243.4c-1.1,0.1-2.1,0.3-3.1,0.6c-0.2,0.1-0.4,0.2-0.6,0.2c-0.1,0-0.3,0.1-0.4,0.1
					c-1.1,0.4-2.1,1-3,1.7c0-0.9,0.2-1.7,0.5-2.5c0.1-0.3,0.3-0.6,0.4-0.9c0.7-1.2,1.6-2.2,2.7-3.1
					C243.8,240.5,245.1,241.8,245.8,243.4z"/>
				<path class="st12" d="M246.5,248.2c-0.1,0.6-0.3,1.2-0.5,1.8c-0.4,1-1,1.9-1.7,2.7c-1.3-0.6-2.6-1.3-3.6-2.4
					c-0.1-0.1-0.3-0.3-0.4-0.4c-0.1-0.1-0.2-0.3-0.3-0.4c0,0,0,0-0.1-0.1c-0.1-0.1-0.2-0.3-0.3-0.5c-0.1-0.2-0.2-0.3-0.3-0.5h0v0
					c-0.1-0.2-0.2-0.4-0.3-0.6c0,0,0,0,0,0c-0.1-0.2-0.2-0.5-0.2-0.7c0-0.1,0-0.2-0.1-0.3c0,0,0.1,0,0.1,0c1.3-0.4,2.5-0.5,3.8-0.2
					C244.1,246.8,245.4,247.4,246.5,248.2z"/>
				<path class="st15" d="M238.9,246.7c0,0-0.1,0-0.1,0c0,0.1,0,0.2,0.1,0.3c0.1,0.2,0.1,0.5,0.2,0.7c0,0,0,0,0,0
					c0.1,0.2,0.2,0.4,0.3,0.6v0h0c0.1,0.2,0.2,0.3,0.3,0.5c0.1,0.2,0.2,0.3,0.3,0.5c0,0,0,0.1,0.1,0.1c0.1,0.1,0.2,0.3,0.3,0.4
					c0.1,0.2,0.3,0.3,0.4,0.4c1,1,2.3,1.8,3.6,2.4c-1.1,1.2-2.6,2-4.3,2.3c-0.6-1.1-1.1-2.2-1.4-3.3c-0.1-0.4-0.1-0.7-0.2-1.1
					c-0.1-0.4-0.1-0.8-0.2-1.2c0-0.1,0-0.2,0-0.3c0-0.1,0-0.2,0-0.4c0-0.1,0-0.2,0-0.4c0-0.1,0-0.2,0-0.3V248c0,0,0-0.1,0-0.1
					c0-0.2,0-0.4,0-0.6c0,0,0,0-0.1,0c-0.2,0.2-0.4,0.3-0.6,0.5c-0.1,0.1-0.2,0.2-0.3,0.3c-0.1,0.1-0.2,0.2-0.3,0.3
					c-0.1,0.1-0.3,0.3-0.4,0.5c0,0.1-0.1,0.1-0.1,0.2c-0.1,0.1-0.1,0.2-0.2,0.3c0,0.1-0.1,0.2-0.1,0.2c0,0,0,0,0,0
					c0,0,0,0.1-0.1,0.1c-0.1,0.2-0.2,0.4-0.3,0.6c-0.6,1.3-0.9,2.6-0.9,4c-1.4-0.7-2.7-1.8-3.5-3.2c0.7-0.8,1.5-1.6,2.3-2.2
					c0.3-0.2,0.6-0.4,0.9-0.6c0.2-0.1,0.5-0.3,0.7-0.4c0,0,0,0,0,0c0.1-0.1,0.3-0.2,0.5-0.2c0,0,0.1,0,0.1,0c0,0,0.1,0,0.1-0.1h0
					c0.1,0,0.2-0.1,0.3-0.1c0.2-0.1,0.4-0.2,0.6-0.2c0.3-0.1,0.5-0.2,0.8-0.3c-1.1,0-2.2-0.2-3.3-0.5c-0.3-0.1-0.6-0.2-1-0.3
					c-0.9-0.4-1.9-0.9-2.8-1.5c0.3-0.9,0.7-1.8,1.3-2.6c0.3-0.5,0.7-0.9,1.2-1.3c0.2,0.6,0.4,1.1,0.7,1.7c0.3,0.6,0.7,1.2,1.1,1.7
					c0.8,1,1.8,1.7,3.1,2.2c-0.1-0.3-0.2-0.5-0.3-0.8c-0.1-0.2-0.1-0.5-0.2-0.7c0,0,0,0,0-0.1c0-0.1,0-0.3-0.1-0.4c0,0,0-0.1,0-0.1
					c0-0.1,0-0.2,0-0.3c0,0,0,0,0-0.1c0-0.1,0-0.2,0-0.3l0-0.3v0c0,0,0-0.1,0-0.1c0-0.3,0-0.7-0.1-1.1c0-1.1,0.2-2.1,0.4-3.2
					c0.3,0,0.5,0,0.8,0c0.5,0,0.9,0,1.4,0.1c0,0,0,0,0,0c0.1,0,0.3,0,0.4,0.1c0.1,0,0.1,0,0.2,0c0.6,0.2,1.3,0.4,1.8,0.7
					c-1.1,0.9-2,1.9-2.7,3.1c-0.2,0.3-0.3,0.6-0.4,0.9c-0.3,0.8-0.5,1.6-0.5,2.5c0.9-0.7,1.9-1.3,3-1.7c0.1,0,0.2-0.1,0.4-0.1
					c0.2-0.1,0.4-0.2,0.6-0.2c1-0.3,2.1-0.5,3.1-0.6c0.3,0.5,0.5,1.1,0.6,1.8c0.1,0.6,0.2,1.2,0.2,1.8c0,0.4,0,0.8-0.1,1.3
					c-1.2-0.8-2.5-1.4-3.9-1.7C241.4,246.2,240.1,246.2,238.9,246.7z"/>
			</g>
			<g>
				<path class="st12" d="M277,255.1c-0.2,0.1-0.4,0.1-0.7,0.2c-0.2,0.1-0.4,0.1-0.5,0.2c-0.2,0.1-0.3,0.1-0.5,0.2
					c-0.3,0.1-0.5,0.3-0.8,0.4c-0.2,0.1-0.4,0.2-0.6,0.4c-0.3,0.2-0.6,0.4-0.9,0.6c-0.8,0.7-1.6,1.4-2.3,2.2
					c-0.7-1.2-1.1-2.7-1.1-4.2c0-0.2,0-0.3,0-0.5c0-0.6,0.1-1.3,0.3-1.8c0.9,0.6,1.9,1.1,2.8,1.5c0.4,0.1,0.7,0.2,1,0.3
					C274.8,254.9,275.9,255.1,277,255.1z"/>
				<path class="st12" d="M277.3,254.5c-1.2-0.5-2.2-1.2-3.1-2.2c-0.6-0.7-1-1.4-1.4-2.2c-0.2-0.4-0.4-0.8-0.5-1.2
					c1.3-1.1,2.9-1.8,4.6-2c-0.2,1.1-0.4,2.2-0.4,3.2c0,0.2,0,0.3,0,0.5c0,0.2,0,0.4,0,0.6C276.7,252.4,276.9,253.4,277.3,254.5z"/>
				<path class="st12" d="M279.4,263.2c-0.5,0.1-1.1,0.2-1.6,0.2c-1.3,0-2.5-0.3-3.6-0.8c0.1-1.4,0.3-2.7,0.9-4
					c0.5-1.2,1.3-2.2,2.4-3c0,0,0,0,0.1-0.1c-0.1,1.1,0,2.2,0.2,3.3c0.1,0.3,0.1,0.7,0.2,1.1C278.3,261,278.8,262.1,279.4,263.2z"/>
				<path class="st12" d="M285.2,251.6c-1.1,0.1-2.1,0.3-3.1,0.6c-0.4,0.1-0.7,0.3-1,0.4c-1.1,0.4-2.1,1-3,1.7c0-1.2,0.4-2.3,1-3.4
					c0,0,0-0.1,0.1-0.1c0.7-1.2,1.6-2.1,2.6-3c1.5,0.8,2.7,2,3.4,3.5C285.1,251.4,285.1,251.5,285.2,251.6z"/>
				<path class="st12" d="M285.9,256.4c0,0,0,0.1,0,0.1c-0.3,1.7-1.1,3.1-2.2,4.3c-1.3-0.5-2.6-1.3-3.6-2.4
					c-0.8-0.8-1.3-1.7-1.7-2.7c-0.1-0.2-0.1-0.4-0.2-0.6c0-0.1,0-0.2-0.1-0.2c0,0,0.1,0,0.1,0c1.3-0.4,2.5-0.5,3.8-0.2
					C283.4,255,284.7,255.6,285.9,256.4z"/>
				<path class="st15" d="M278.2,254.9c0,0-0.1,0-0.1,0c0,0.1,0,0.2,0.1,0.2c0.1,0.2,0.1,0.4,0.2,0.6c0.4,1,0.9,1.9,1.7,2.7
					c1,1,2.3,1.8,3.6,2.4c-1.1,1.2-2.6,2-4.3,2.4c-0.6-1.1-1.1-2.2-1.4-3.3c-0.1-0.4-0.2-0.7-0.2-1.1c-0.2-0.8-0.3-1.6-0.3-2.4v0
					c0-0.2,0-0.4,0-0.6v-0.1c0-0.1,0-0.1,0-0.2c0,0,0,0-0.1,0c-0.1,0-0.1,0.1-0.1,0.1h0c-0.1,0.1-0.2,0.1-0.3,0.2
					c-0.1,0.1-0.2,0.1-0.3,0.2c-0.2,0.2-0.4,0.3-0.5,0.5c-0.2,0.2-0.3,0.4-0.5,0.6c0,0,0,0,0,0c-0.1,0.2-0.2,0.3-0.3,0.5
					c0,0,0,0.1-0.1,0.1c-0.1,0.2-0.2,0.4-0.3,0.6c-0.6,1.3-0.8,2.6-0.9,4c-1.4-0.7-2.7-1.8-3.5-3.2c0.7-0.8,1.5-1.6,2.3-2.2
					c0.3-0.2,0.6-0.4,0.9-0.6c0.2-0.1,0.4-0.3,0.6-0.4c0.3-0.1,0.5-0.3,0.8-0.4c0.2-0.1,0.3-0.1,0.5-0.2c0.2-0.1,0.4-0.1,0.5-0.2
					c0.2-0.1,0.4-0.1,0.7-0.2c-1.1,0-2.2-0.2-3.3-0.5c-0.3-0.1-0.6-0.2-1-0.3c-0.9-0.4-1.9-0.9-2.8-1.5c0.3-1.1,0.8-2,1.5-2.9
					c0.3-0.4,0.6-0.7,1-1c0.1,0.4,0.3,0.8,0.5,1.2c0.4,0.8,0.8,1.5,1.4,2.2c0.8,1,1.8,1.7,3.1,2.2c-0.4-1-0.6-2.1-0.7-3.2
					c0-0.2,0-0.4,0-0.6c0-0.1,0-0.3,0-0.5c0-1.1,0.2-2.1,0.4-3.2c0.3,0,0.5,0,0.8,0c1.4,0,2.7,0.3,3.9,1c-1,0.8-1.9,1.8-2.6,3
					c0,0,0,0.1-0.1,0.1c-0.6,1-0.9,2.2-1,3.4c0.9-0.7,1.9-1.3,3-1.7c0.3-0.1,0.6-0.2,1-0.4c1-0.3,2.1-0.5,3.1-0.6
					c0.5,1.1,0.8,2.3,0.8,3.5c0,0.4,0,0.8-0.1,1.3c-1.2-0.8-2.5-1.4-3.9-1.7C280.7,254.4,279.4,254.5,278.2,254.9z"/>
			</g>
		</g>
	</g>
	<path class="st11" d="M146.1,223.5c0,1.6,0.1,2.9,0.1,3.9c-3.8-0.4-6.9-0.6-9-0.7c-0.2-1.1-0.6-2.6-0.9-4.1
		C138.3,222.7,141.8,223,146.1,223.5z"/>
	<g>
		<path class="st16" d="M208.5,204c-0.3-0.1-0.6-0.1-0.9-0.2c-2-0.4-3.8-0.9-5.7-1.3c-0.3-0.1-0.6-0.1-0.9-0.2
			c-0.4-0.1-0.9-0.2-1.3-0.3c-0.3-0.1-0.7-0.1-1-0.2c-2.4-0.5-4.8-1-7.1-1.5c-0.5-0.1-1-0.2-1.5-0.3c0,0-0.1,0-0.1,0
			c-0.3,0-0.5-0.1-0.8-0.1c-1.3-0.2-2.6-0.5-3.9-0.7c-0.3,0-0.5-0.1-0.8-0.1c-0.7-0.1-1.4-0.2-2.1-0.3c-0.1,0-0.1,0-0.2,0
			c0,0-0.1,0-0.1,0c-0.3,0-0.6-0.1-0.9-0.1c-0.3,0-0.7-0.1-1.1-0.1c-0.3,0-0.6-0.1-0.9-0.1c-0.3,0-0.6-0.1-0.9-0.1
			c-0.3,0-0.6-0.1-0.8-0.1c-0.4,0-0.8-0.1-1.3-0.1c-0.2,0-0.3,0-0.5,0c-0.1,0-0.3,0-0.5,0c-0.3,0-0.7-0.1-1-0.1c0,0,0,0,0,0
			c-1-0.1-2-0.2-3.1-0.2c0,0-0.1,0-0.1,0c-0.2,0-0.4,0-0.6,0c-0.2,0-0.5,0-0.7,0c-0.1,0-0.3,0-0.4,0c-0.4,0-0.8,0-1.2-0.1
			c-0.1,0-0.2,0-0.3,0c-0.4,0-0.9,0-1.3,0c0,0-0.1,0-0.1,0c-0.3,0-0.7,0-1.1,0c-0.1,0-0.3,0-0.4,0c-0.5,0-0.9,0-1.4,0h-0.3
			c-5.4-0.1-11.1,0.2-17.4,0.8c-0.4,5.9,0,18.2,0.1,25.5c0,1.6,0.1,2.9,0.1,3.9c0,1.1,0,1.7,0,1.9c1.5,0.1,3.5,0.3,5.9,0.6
			c1.9,0.2,4,0.5,6.2,0.8c0.5,0.1,1,0.1,1.5,0.2c0.1,0,0.2,0,0.2,0c0.3,0,0.6,0.1,0.9,0.1c2.4,0.3,4.9,0.7,7.4,1
			c1.1,0.2,2.2,0.3,3.3,0.5c0,0,0.1,0,0.1,0c0.8,0.1,1.5,0.2,2.2,0.3c0,0,0,0,0,0c0.6,0.1,1.1,0.2,1.6,0.2c0,0,0,0,0,0
			c0.3,0,0.7,0.1,1,0.1c0.2,0,0.5,0.1,0.7,0.1c0.1,0,0.3,0,0.4,0.1c0.7,0.1,1.2,0.2,1.7,0.3c1.3,0.2,2.6,0.4,3.9,0.6
			c1.5,0.2,3,0.5,4.4,0.7h0c0.8,0.1,1.5,0.3,2.3,0.4h0c0.2,0,0.3,0,0.5,0.1h0c0.5,0.1,0.9,0.2,1.4,0.2c2.8,0.5,5.4,1,7.6,1.4
			c1.8,0.4,3.4,0.7,4.6,1.1c0.1-0.8,0.3-1.6,0.4-2.4c0.2-1.4,0.5-2.8,0.7-4.2c1.7-10.4,3.6-22.3,4.3-27.4
			C209.1,204.1,208.8,204,208.5,204z"/>
		<path class="st17" d="M182.2,198.7c-0.3,0-0.6-0.1-0.9-0.1c-0.3,0-0.7-0.1-1.1-0.1c-0.3,0-0.6-0.1-0.9-0.1c-0.3,0-0.6-0.1-0.9-0.1
			c-0.3,0-0.6-0.1-0.8-0.1c-0.4,0-0.8-0.1-1.3-0.1c-0.2,0-0.3,0-0.5,0c-0.1,0-0.3,0-0.5,0c-0.3,0-0.7-0.1-1-0.1
			c-0.2,2.8-0.5,5.8-0.7,8.8c0,0,0,0,0,0c-0.6,7.3-1.2,14.9-1.6,20c-0.1,1.6-0.3,2.9-0.4,4c-0.1,0.8-0.2,1.4-0.2,1.9
			c0,0,0.1,0,0.1,0c0.8,0.1,1.5,0.2,2.2,0.3c0,0,0,0,0,0c0.6,0.1,1.1,0.2,1.6,0.2c0,0,0,0,0,0c0.3,0,0.7,0.1,1,0.1
			c0.2,0,0.5,0.1,0.7,0.1c0.1,0,0.3,0,0.4,0.1c0.7,0.1,1.2,0.2,1.7,0.3c0-0.6,0.1-1.3,0.1-1.9c0.1-1.3,0.2-2.7,0.3-4.1
			c0.4-5.1,0.8-10.2,1.3-15.1C181.5,207.6,182,202.8,182.2,198.7C182.3,198.7,182.3,198.7,182.2,198.7z"/>
		<g>
			<g>
				<path class="st11" d="M159.4,230.3c-0.2,0.1-0.4,0.1-0.7,0.2c-0.2,0.1-0.4,0.1-0.6,0.2c-0.2,0.1-0.3,0.1-0.5,0.2
					c-0.2,0.1-0.5,0.2-0.7,0.4c-0.2,0.1-0.4,0.3-0.7,0.4c-0.3,0.2-0.6,0.4-0.9,0.6c-0.8,0.7-1.6,1.4-2.3,2.2
					c-0.7-1.2-1.1-2.7-1.1-4.2c0-0.1,0-0.3,0-0.4c0-0.6,0.1-1.2,0.3-1.8c0,0,0-0.1,0-0.2c0.1,0.1,0.2,0.1,0.3,0.2
					c0.3,0.2,0.7,0.4,1.1,0.6c0.2,0.1,0.5,0.2,0.7,0.4c0.2,0.1,0.5,0.2,0.7,0.3c0.4,0.1,0.7,0.2,1,0.3
					C157.2,230.1,158.3,230.3,159.4,230.3z"/>
				<path class="st11" d="M159.7,229.7c-0.6-0.2-1.1-0.5-1.6-0.8c-0.5-0.4-1-0.8-1.5-1.4c-0.8-0.9-1.3-1.9-1.7-3
					c0-0.1-0.1-0.3-0.1-0.4c1.3-1.1,2.9-1.8,4.6-2c-0.2,1-0.3,1.9-0.4,2.9c0,0.1,0,0.2,0,0.3c0,0.4,0,0.7,0.1,1.1
					c0,0.9,0.2,1.7,0.4,2.6C159.6,229.2,159.6,229.5,159.7,229.7z"/>
				<path class="st11" d="M161.8,238.4c-0.5,0.1-1.1,0.2-1.6,0.2c-1.3,0-2.5-0.3-3.6-0.8c0.1-1.4,0.3-2.7,0.9-4
					c0.5-1.2,1.3-2.2,2.4-3c0,0,0,0,0.1-0.1c-0.1,1.1,0,2.2,0.2,3.3c0.1,0.3,0.1,0.7,0.2,1.1C160.8,236.2,161.3,237.3,161.8,238.4z"
					/>
				<path class="st11" d="M167.6,226.8c-1.1,0.1-2.1,0.3-3.1,0.6c-0.4,0.1-0.7,0.3-1,0.4c-1,0.4-1.8,0.8-2.6,1.4
					c-0.1,0.1-0.3,0.2-0.4,0.3c0-0.1,0-0.2,0-0.3c0.1-1.1,0.4-2.1,0.9-3c0.1-0.3,0.3-0.5,0.5-0.8c0.6-0.9,1.3-1.6,2.2-2.3
					c1.3,0.7,2.4,1.7,3.2,3C167.4,226.3,167.5,226.5,167.6,226.8z"/>
				<path class="st11" d="M168.3,231.6c0,0.2-0.1,0.3-0.1,0.5c-0.3,1.5-1.1,2.9-2.1,4c-1.3-0.5-2.6-1.3-3.6-2.4
					c-0.8-0.7-1.3-1.6-1.7-2.6c-0.1-0.2-0.2-0.5-0.2-0.7c0-0.1,0-0.2-0.1-0.3c0,0,0.1,0,0.1,0c1.3-0.4,2.5-0.5,3.8-0.2
					C165.9,230.2,167.1,230.8,168.3,231.6z"/>
				<path class="st15" d="M168.4,230.2v0.1c0,0.4,0,0.8-0.1,1.2c-1.2-0.8-2.5-1.4-3.9-1.7c-1.3-0.3-2.6-0.2-3.8,0.2c0,0-0.1,0-0.1,0
					c0,0.1,0,0.2,0.1,0.3c0.1,0.2,0.1,0.5,0.2,0.7c0.4,1,0.9,1.9,1.7,2.6c1,1,2.3,1.8,3.6,2.4c-1.1,1.2-2.6,2-4.3,2.4
					c-0.6-1.1-1.1-2.2-1.4-3.3c-0.1-0.4-0.2-0.7-0.2-1.1c-0.1-0.3-0.1-0.6-0.2-1c-0.1-0.5-0.1-0.9-0.1-1.4c0-0.2,0-0.5,0-0.7
					c0-0.1,0-0.1,0-0.2c0,0,0,0-0.1,0c-0.1,0-0.1,0.1-0.2,0.1c-0.1,0.1-0.2,0.2-0.4,0.3c-0.1,0.1-0.2,0.2-0.3,0.3
					c-0.2,0.2-0.4,0.4-0.5,0.6c-0.1,0.1-0.2,0.2-0.3,0.4c-0.3,0.4-0.5,0.8-0.7,1.3c-0.6,1.3-0.8,2.6-0.9,4c-1.4-0.7-2.7-1.8-3.5-3.2
					c0.7-0.8,1.5-1.6,2.3-2.2c0.3-0.2,0.6-0.4,0.9-0.6c0.2-0.1,0.4-0.3,0.7-0.4c0.2-0.1,0.5-0.3,0.7-0.4c0.2-0.1,0.3-0.1,0.5-0.2
					c0.2-0.1,0.4-0.1,0.6-0.2c0.2-0.1,0.4-0.1,0.7-0.2c-1.1,0-2.2-0.2-3.3-0.5c-0.3-0.1-0.6-0.2-1-0.3c-0.2-0.1-0.5-0.2-0.7-0.3
					c-0.2-0.1-0.5-0.2-0.7-0.4c-0.4-0.2-0.7-0.4-1.1-0.6c-0.1-0.1-0.2-0.1-0.3-0.2c0.4-1.3,1.1-2.6,2.1-3.5c0.1-0.1,0.2-0.2,0.4-0.3
					c0,0.1,0.1,0.3,0.1,0.4c0.4,1.1,1,2.1,1.7,3c0.4,0.5,0.9,1,1.5,1.4c0.5,0.3,1,0.6,1.6,0.8c-0.1-0.2-0.1-0.4-0.2-0.7
					c-0.2-0.8-0.4-1.7-0.4-2.6c0-0.3,0-0.7-0.1-1.1c0-0.1,0-0.2,0-0.3c0.1-0.9,0.2-1.9,0.4-2.9c0.2,0,0.5,0,0.8,0
					c1.4,0,2.7,0.3,3.9,1c-0.8,0.7-1.6,1.4-2.2,2.3c-0.2,0.2-0.3,0.5-0.5,0.8c-0.5,0.9-0.9,2-0.9,3c0,0.1,0,0.2,0,0.3
					c0.1-0.1,0.3-0.2,0.4-0.3c0.8-0.6,1.7-1.1,2.6-1.4c0.3-0.1,0.6-0.2,1-0.4c1-0.3,2.1-0.5,3.1-0.6
					C168.1,227.8,168.4,229,168.4,230.2z"/>
			</g>
			<g>
				<path class="st11" d="M190.6,235.4c-0.1,0-0.1,0-0.2,0.1h0c-0.2,0.1-0.5,0.1-0.7,0.2c-0.1,0-0.2,0.1-0.2,0.1
					c-0.2,0.1-0.3,0.1-0.5,0.2c-0.5,0.2-1,0.5-1.4,0.8c-0.3,0.2-0.6,0.4-0.9,0.6c-0.8,0.7-1.6,1.4-2.3,2.2c-0.7-1.2-1.1-2.7-1.1-4.2
					c0-0.4,0-0.8,0.1-1.2c0-0.4,0.1-0.8,0.2-1.2c0.9,0.6,1.9,1.1,2.8,1.5c0.4,0.1,0.7,0.2,1,0.3c0.1,0,0.2,0.1,0.3,0.1h0
					c0,0,0,0,0.1,0c0.2,0.1,0.3,0.1,0.5,0.1c0,0,0,0,0.1,0c0.2,0,0.4,0.1,0.6,0.1c0.2,0,0.4,0.1,0.6,0.1c0.1,0,0.3,0,0.4,0h0
					C190.2,235.4,190.4,235.4,190.6,235.4z"/>
				<path class="st11" d="M190.9,234.8c-1-0.4-1.9-1-2.7-1.8c-0.1-0.1-0.3-0.3-0.4-0.4c-0.8-1-1.5-2.2-1.9-3.4
					c0.2-0.2,0.5-0.4,0.7-0.6c1.1-0.8,2.5-1.3,3.9-1.4c-0.1,0.6-0.2,1.3-0.3,1.9c-0.1,0.4-0.1,0.9-0.1,1.3c0,0.4,0,0.7,0.1,1.1
					c0,0.6,0.1,1.2,0.3,1.8C190.6,233.9,190.8,234.4,190.9,234.8z"/>
				<path class="st11" d="M193,243.5c-0.5,0.1-1.1,0.2-1.6,0.2c-1.3,0-2.5-0.3-3.6-0.8c0.1-1.4,0.3-2.7,0.9-4c0.5-1.2,1.3-2.2,2.4-3
					c0,0,0,0,0.1-0.1c-0.1,1.1,0,2.2,0.2,3.3c0.1,0.3,0.1,0.7,0.2,1.1C192,241.3,192.4,242.4,193,243.5z"/>
				<path class="st11" d="M198.8,232c-1.1,0.1-2.1,0.3-3.1,0.6c-0.4,0.1-0.7,0.3-1,0.4c-0.6,0.2-1.2,0.5-1.8,0.9
					c-0.4,0.3-0.8,0.5-1.2,0.9c0-0.4,0-0.7,0.1-1c0.1-0.8,0.4-1.6,0.9-2.3c0.3-0.6,0.7-1.1,1.1-1.6c0.5-0.5,1-1,1.6-1.5
					c1,0.5,1.9,1.3,2.6,2.1C198.2,230.9,198.5,231.4,198.8,232z"/>
				<path class="st11" d="M199.5,236.7c0,0.2,0,0.3-0.1,0.5c-0.3,1.5-1.1,2.9-2.1,4c-1.3-0.5-2.6-1.3-3.6-2.4
					c-0.9-0.9-1.5-1.9-1.9-3.1c0-0.1,0-0.1-0.1-0.2c0-0.1,0-0.2-0.1-0.2c0,0,0,0,0,0c0,0,0.1,0,0.1,0c1.3-0.4,2.5-0.5,3.8-0.2
					C197.1,235.3,198.3,235.9,199.5,236.7z"/>
				<path class="st15" d="M191.7,235.3C191.7,235.3,191.7,235.3,191.7,235.3c0,0.1,0,0.2,0.1,0.3c0,0.1,0,0.1,0.1,0.2
					c0.4,1.2,1,2.2,1.9,3.1c1,1,2.3,1.8,3.6,2.4c-1.1,1.2-2.6,2-4.3,2.4c-0.6-1.1-1.1-2.2-1.4-3.3c-0.1-0.4-0.2-0.7-0.2-1.1
					c-0.2-1.1-0.3-2.2-0.2-3.3c0,0,0,0-0.1,0c-1.1,0.8-1.9,1.8-2.4,3c-0.6,1.3-0.8,2.6-0.9,4c-1.4-0.7-2.6-1.8-3.5-3.2
					c0.7-0.8,1.5-1.6,2.3-2.2c0.3-0.2,0.6-0.4,0.9-0.6c0.5-0.3,0.9-0.6,1.4-0.8c0.2-0.1,0.3-0.2,0.5-0.2c0.1,0,0.2-0.1,0.2-0.1
					c0.2-0.1,0.5-0.2,0.7-0.2h0c0.1,0,0.1,0,0.2-0.1c-0.2,0-0.4,0-0.7,0h0c-0.1,0-0.3,0-0.4,0c-0.2,0-0.4,0-0.6-0.1
					c-0.2,0-0.4-0.1-0.6-0.1c0,0-0.1,0-0.1,0c-0.2,0-0.3-0.1-0.5-0.1c0,0,0,0-0.1,0h0c-0.1,0-0.2-0.1-0.3-0.1
					c-0.3-0.1-0.6-0.2-1-0.3c-0.9-0.4-1.9-0.9-2.8-1.5c0.1-0.2,0.2-0.5,0.3-0.7c0.5-1.2,1.2-2.3,2.2-3.1c0.4,1.2,1,2.4,1.9,3.4
					c0.1,0.1,0.3,0.3,0.4,0.4c0.8,0.8,1.6,1.4,2.7,1.8c-0.2-0.5-0.3-0.9-0.4-1.4c-0.1-0.6-0.2-1.2-0.3-1.8c0-0.3,0-0.7-0.1-1.1
					c0-0.4,0.1-0.9,0.1-1.3c0.1-0.6,0.2-1.3,0.3-1.9c0.2,0,0.5,0,0.8,0c1.4,0,2.7,0.3,3.9,1c-0.6,0.5-1.1,1-1.6,1.5
					c-0.4,0.5-0.8,1-1.1,1.6c-0.4,0.7-0.7,1.5-0.9,2.3c-0.1,0.3-0.1,0.7-0.1,1c0.4-0.3,0.8-0.6,1.2-0.9c0.6-0.3,1.2-0.6,1.8-0.9
					c0.3-0.1,0.6-0.2,1-0.4c1-0.3,2.1-0.5,3.1-0.6c0.4,0.9,0.7,1.9,0.8,2.9c0,0.2,0,0.4,0,0.6c0,0.4,0,0.8-0.1,1.2
					c-1.2-0.8-2.5-1.4-3.9-1.7c-1.3-0.3-2.6-0.2-3.8,0.2C191.8,235.2,191.7,235.3,191.7,235.3z"/>
			</g>
		</g>
		<path class="st12" d="M214.3,205.3c-1.7-0.4-3.3-0.8-4.9-1.1c-0.3-0.1-0.6-0.1-0.9-0.2c-0.3-0.1-0.6-0.1-0.9-0.2
			c-2-0.4-3.8-0.9-5.7-1.3c-0.3-0.1-0.6-0.1-0.9-0.2c-0.4-0.1-0.9-0.2-1.3-0.3c-0.3-0.1-0.7-0.1-1-0.2c-2.4-0.5-4.8-1-7.1-1.5
			c-0.5-0.1-1-0.2-1.5-0.3c0,0-0.1,0-0.1,0c-0.3,0-0.5-0.1-0.8-0.1c-1.3-0.2-2.6-0.5-3.9-0.7c-0.3,0-0.5-0.1-0.8-0.1
			c-0.7-0.1-1.4-0.2-2.1-0.3c-0.1,0-0.1,0-0.2,0c0,0-0.1,0-0.1,0c-0.3,0-0.6-0.1-0.9-0.1c-0.3,0-0.7-0.1-1.1-0.1
			c-0.3,0-0.6-0.1-0.9-0.1c-0.3,0-0.6-0.1-0.9-0.1c-0.3,0-0.6-0.1-0.8-0.1c-0.4,0-0.8-0.1-1.3-0.1c-0.2,0-0.3,0-0.5,0
			c-0.1,0-0.3,0-0.5,0c-0.3,0-0.7-0.1-1-0.1c0,0,0,0,0,0c-1-0.1-2-0.2-3.1-0.2c0,0-0.1,0-0.1,0c-0.2,0-0.4,0-0.6,0
			c-0.2,0-0.5,0-0.7,0c-0.1,0-0.3,0-0.4,0c-0.4,0-0.8,0-1.2-0.1c-0.1,0-0.2,0-0.3,0c-0.4,0-0.9,0-1.3,0c0,0-0.1,0-0.1,0
			c-0.3,0-0.7,0-1.1,0c-0.1,0-0.3,0-0.4,0c-0.5,0-0.9,0-1.4,0h-0.3c-5.4-0.1-11.1,0.2-17.4,0.8c-1.5,0.1-3,0.3-4.5,0.5
			c-1.5,0.2-1.7-13.7,0.7-13.8c8.1-0.3,14.8-0.5,21-0.4c4.1,0.1,8,0.3,11.8,0.6c0.2,0,0.3,0,0.5,0c0,0,0.1,0,0.1,0
			c2.6,0.2,5.2,0.5,7.8,0.9c0.3,0,0.6,0.1,1,0.1c0.2,0,0.4,0.1,0.6,0.1c3.7,0.6,7.5,1.3,11.6,2.2c5.9,1.3,12.4,3,20.1,5.1
			C218.3,193.8,216.6,205.8,214.3,205.3z"/>
		<g>
			<path class="st11" d="M188.1,215c-0.1,1-0.9,1.5-1.8,1.1c-1.4-0.7-2.7-1.4-3.9-2.3c-0.4-0.3-0.8-0.7-1.3-1.1
				c-0.3-0.2-0.6-0.4-0.9-0.7c-0.3,0.4-0.5,0.7-0.7,1c-0.3,0.5-0.6,1-1,1.5c-0.2,0.2-0.4,0.5-0.6,0.7c-0.7,0.6-1.6,0.2-1.8-0.6
				c-0.1-0.4-0.1-0.8-0.1-1.2c0.2-3.2,0.5-6.4,0.8-9.6c0.2-1.9,0.5-3.8,0.8-5.7c0-0.2,0-0.3,0.1-0.5c0.3-1.7,0.6-3.5,0.9-5.2
				c0.1-0.8,0.4-1,1-1.1c0.7,0,1.1,0.3,1.3,1c0.4,1.4,0.7,2.8,1.1,4.2c0.2,0.7,0.4,1.5,0.6,2.2c0.6,2.2,1.2,4.3,2.2,6.3
				c1.1,2.3,2,4.6,2.8,7.1c0.2,0.7,0.4,1.5,0.5,2.2C188.1,214.5,188.1,214.8,188.1,215z"/>
			<path class="st11" d="M163.2,183.6c0.2-2.5,0.6-5.1,1.4-7.5c0.3-0.9,0.7-1.7,1.3-2.4c1.1-1.3,2.3-1.5,3.7-0.6
				c0.7,0.5,1.4,1.1,2,1.7c1.7,1.8,3,3.9,3.8,6.2c0.3,0.8,0.3,1.5,0.1,2.3c-0.4,1.2-0.7,2.5-1.1,3.7c-0.2,0.5-0.5,1-0.8,1.5
				c-0.1,0.1-0.2,0.2-0.2,0.3c-0.6,1.2-1.6,1.7-2.7,2c-1,0.3-2.1,0.5-3.1,0.6c-0.8,0.1-1.6-0.1-2.4-0.4c-1.1-0.4-1.8-1.2-1.9-2.3
				c-0.1-0.9-0.1-1.8-0.1-2.7C163,185.2,163.1,184.4,163.2,183.6z M168.5,176.2c-0.6-0.1-1,0.2-1.2,0.6c-0.2,0.4-0.1,0.9,0.2,1.2
				c0.1,0.1,0.3,0.2,0.5,0.3c1.7,1,3.1,2.3,3.9,4.2c0.2,0.6,0.9,0.8,1.4,0.6c0.5-0.2,0.8-0.7,0.6-1.3c-0.1-0.4-0.3-0.9-0.6-1.3
				c-1-1.8-2.5-3.1-4.3-4.2C168.8,176.3,168.6,176.2,168.5,176.2z"/>
			<path class="st11" d="M196.7,185.8c-0.1,0.8-0.2,2-0.3,3.1c0,0.1,0,0.2-0.1,0.3c-0.3,1-0.5,2-0.8,3c-0.3,1.1-1.5,1.7-2.5,1.7
				c-1,0-2.1-0.2-3-0.7c-1-0.5-1.9-1.2-2.9-1.7c-0.3-0.2-0.7-0.4-1-0.6c-0.8-0.4-1.2-1-1.3-1.9c0-0.4,0-0.9,0-1.3
				c0.1-1.1,0.1-2.3-0.1-3.4c-0.2-0.9,0.1-1.6,0.7-2.2c2.3-2.2,4.8-4.2,7.4-6c0.6-0.4,1.3-0.6,2-0.6c0.8,0,1.4,0.4,1.6,1.2
				c0.1,0.4,0.2,0.7,0.2,1.1c0.1,1.3,0.2,2.6,0.2,3.9C196.9,183,196.8,184.3,196.7,185.8z M193.2,191.9c0.4,0.1,0.9-0.3,1-0.9
				c0.1-0.6-0.2-1.1-0.8-1.3c-0.5-0.1-1-0.2-1.4-0.3c-1.6-0.4-3.1-0.8-4.3-2c-0.4-0.4-1.1-0.3-1.5,0.1c-0.4,0.4-0.5,1-0.1,1.5
				c0.3,0.4,0.7,0.7,1.1,0.9C189,191,191,191.4,193.2,191.9z"/>
			<path class="st11" d="M177.2,191.3c0,0.7-0.1,1.5-0.3,2.2c-0.3,1.5-0.7,3-1.1,4.4c-0.2,0.8-0.4,1.7-0.6,2.5
				c-0.5,2.1-1,4.1-1.6,6.2c0,0,0,0,0,0c-0.3,1.4-0.7,2.8-1,4.2c-0.1,0.5-0.3,1-0.4,1.5c0,0.1-0.1,0.3-0.2,0.4
				c-0.2,0.4-0.5,0.6-0.9,0.6c-0.5,0-0.8-0.2-1-0.6c-0.3-0.8-0.6-1.6-1-2.4c-0.2-0.6-0.5-1.2-0.8-1.9c-0.6,0.3-1.1,0.5-1.7,0.7
				c-0.4,0.2-0.8,0.4-1.3,0.5c-0.4,0.1-0.7,0.2-1.1,0.1c-0.6,0-0.9-0.5-0.8-1.1c0-0.2,0.1-0.4,0.2-0.6c0.1-0.2,0.2-0.4,0.3-0.5
				c2.4-3.2,4.5-6.7,6.7-10.1c0.2-0.3,0.4-0.6,0.6-0.9c0.8-1.3,1.5-2.7,2.3-4c0.4-0.7,0.8-1.4,1.2-2c0.4-0.6,0.8-0.7,1.3-0.5
				C176.8,190.2,177.2,190.6,177.2,191.3z"/>
			<path class="st11" d="M175.4,186.1c0.1-0.7,0.2-1.3,0.3-1.9c0.2-0.9,0.7-1.7,1.4-2.3c0.5-0.4,1.1-0.6,1.7-0.6
				c1.2,0,2.4,0.3,3.5,0.7c0.9,0.3,1.4,1,1.7,1.9c0.4,1.4,0.4,2.8-0.1,4.1c-0.3,0.7-0.8,1.1-1.4,1.5c-1.4,0.7-2.8,0.5-4.2,0.3
				c-0.7-0.1-1.4-0.4-2.1-0.7c-0.7-0.2-1-0.8-0.9-1.5C175.3,187,175.4,186.5,175.4,186.1z"/>
			<path class="st18" d="M168.5,176.2c0.1,0,0.3,0.1,0.5,0.2c1.8,1,3.3,2.4,4.3,4.2c0.2,0.4,0.4,0.8,0.6,1.3
				c0.2,0.6-0.1,1.1-0.6,1.3c-0.6,0.2-1.2,0-1.4-0.6c-0.8-1.9-2.1-3.2-3.9-4.2c-0.2-0.1-0.3-0.2-0.5-0.3c-0.3-0.3-0.4-0.8-0.2-1.2
				C167.5,176.4,167.9,176.1,168.5,176.2z"/>
			<path class="st18" d="M193.2,191.9c-2.2-0.4-4.2-0.8-5.9-2c-0.4-0.3-0.8-0.6-1.1-0.9c-0.4-0.4-0.3-1.1,0.1-1.5
				c0.4-0.4,1-0.5,1.5-0.1c1.2,1.1,2.7,1.6,4.3,2c0.5,0.1,1,0.2,1.4,0.3c0.6,0.2,0.9,0.7,0.8,1.3
				C194.1,191.6,193.6,191.9,193.2,191.9z"/>
		</g>
	</g>
	<g>
		<g>
			<path class="st19" d="M375.3,222.5c-0.3,0-1,0.1-1.9,0.1c-1.2,0.1-2.9,0.2-5,0.4c-2.1,0.1-4.5,0.3-7.2,0.5
				c-1.7,0.1-3.5,0.2-5.4,0.4c-2.4,0.2-5,0.3-7.5,0.5c-1.8,0.1-3.6,0.2-5.4,0.4c-2.3,0.2-4.6,0.3-6.9,0.5c-1.8,0.1-3.6,0.2-5.4,0.4
				c-2.2,0.1-4.3,0.3-6.2,0.4c-1.9,0.1-3.7,0.3-5.4,0.4c-1.9,0.1-3.6,0.2-4.9,0.3c-1.3,0.1-2.3,0.2-3,0.2c-1.9,0-4.7-9.8,3.4-9.9
				c9.5-0.1,40.5-2.2,58.2-4.1C378.3,212.8,379.9,222.1,375.3,222.5z"/>
			<g>
				<path class="st20" d="M374.6,252.6C374.6,252.6,374.6,252.6,374.6,252.6c-0.9-8.6-1-23.4-1.2-30c-1.2,0.1-2.9,0.2-5,0.4l0,0
					c0,0,0,0,0,0c-2.1,0.1-4.5,0.3-7.2,0.5c-1.7,0.1-3.5,0.2-5.4,0.4c-2.4,0.2-5,0.3-7.5,0.5c0,0,0,0,0,0v0
					c-1.8,0.1-3.6,0.2-5.3,0.4l0,0c-2.3,0.2-4.6,0.3-6.9,0.5c-1.8,0.1-3.6,0.2-5.4,0.4c-2.2,0.1-4.3,0.3-6.2,0.4
					c-1.9,0.1-3.7,0.3-5.4,0.4c-1.9,0.1-3.6,0.2-4.9,0.3c-0.3,2.3-0.6,15.3-0.7,22.9c0,1.7,0,3.1,0,4.1c0,0.7,0,1.2,0,1.4
					c1.9-0.1,3.8-0.1,5.7-0.2c0.7,0,4.6,0.1,5.4,0c0.1-0.1,4.5-0.4,4.9-0.4c0.3,0,0.5,0,0.8,0c0.5,0,1.1,0,1.6-0.1
					c1.8-0.1,3.6-0.1,5.4-0.2c0.1,0,0.2,0,0.3,0c2.3-0.1,4.5-0.2,6.6-0.3c1.6-0.1,3.1-0.1,4.6-0.2c0.3,0,0.5,0,0.8,0l0,0
					c0,0,0,0,0,0c2.7-0.1,5.2-0.2,7.5-0.3c1.9-0.1,3.7-0.2,5.4-0.2c2.8-0.1,5.2-0.2,7.2-0.3l0,0c1.7-0.1,3-0.2,4-0.2
					C374,252.7,374.4,252.6,374.6,252.6C374.6,252.6,374.6,252.6,374.6,252.6z"/>
				<g>
					<path class="st12" d="M337.2,253.3l-1-28c-1.8,0.1-3.6,0.2-5.4,0.4l0.8,22.6l0,0.3l0.2,4.7l0,1.2c1.8-0.1,3.6-0.1,5.4-0.2
						L337.2,253.3L337.2,253.3z"/>
					<path class="st12" d="M361.3,223.5c-1.7,0.1-3.5,0.2-5.3,0.4l1.1,29.6c1.9-0.1,3.7-0.2,5.4-0.2L361.3,223.5z"/>
				</g>
				<g>
					<path class="st11" d="M319.2,255c0.7,0,4.6,0.1,5.4,0v-29c-1.9,0.1-3.7,0.3-5.4,0.4V255z"/>
					<path class="st11" d="M343.1,224.8l1.1,29.2c1.8-0.1,3.6-0.1,5.4-0.2l-1.1-29.4C346.6,224.5,344.8,224.6,343.1,224.8z"/>
					<path class="st11" d="M373.5,222.7c-1.2,0.1-2.9,0.2-5,0.4l1.1,29.9c2.5-0.1,4.2-0.2,5.1-0.3
						C373.8,244,373.6,229.2,373.5,222.7z"/>
				</g>
			</g>
		</g>
		<g>
			<g>
				<path class="st11" d="M324.6,256.9c1.1,0.1,2.2,0.1,3.3-0.1c-1,0.5-1.9,1.2-2.8,2c-0.2,0.2-0.5,0.5-0.8,0.8
					c-0.7,0.8-1.3,1.7-1.9,2.6c-0.9-1.1-1.6-2.4-1.9-3.9c-0.2-0.8-0.2-1.6-0.1-2.4c1,0.4,2,0.7,3,0.9
					C323.9,256.8,324.3,256.9,324.6,256.9z"/>
				<path class="st11" d="M327.6,255.1c-0.3-0.6-0.6-1.3-0.7-2c-0.1-0.3-0.2-0.7-0.3-1c-0.2-1-0.2-2.1-0.2-3.2
					c-0.8,0.2-1.5,0.6-2.2,1c-0.1,0.1-0.3,0.2-0.4,0.3c-0.6,0.4-1.1,1-1.6,1.6c0.3,0.6,0.7,1.1,1.2,1.7c0.1,0.2,0.3,0.3,0.4,0.5
					c0.3,0.3,0.6,0.6,0.9,0.8c0.3,0.2,0.6,0.4,0.9,0.6c0.8,0.5,1.6,0.8,2.5,0.9C327.9,255.8,327.7,255.5,327.6,255.1z"/>
				<path class="st11" d="M331.9,264.2c-0.5,0.2-1,0.4-1.6,0.5c-1.3,0.3-2.5,0.2-3.7-0.1c-0.2-1.4-0.2-2.7,0.1-4.1
					c0.3-1.3,0.9-2.4,1.8-3.4c0,0,0,0,0.1-0.1c0.1,1.1,0.4,2.2,0.9,3.2c0.1,0.3,0.3,0.6,0.4,1C330.4,262.3,331.1,263.3,331.9,264.2z
					"/>
				<path class="st11" d="M335.3,251.7c-1,0.3-2,0.7-3,1.2c-0.3,0.2-0.6,0.4-0.9,0.6c-1,0.6-1.9,1.4-2.6,2.3
					c-0.2-1.2-0.1-2.3,0.3-3.5c0.4-1.3,1.1-2.5,2-3.5C332.7,249.3,334.2,250.3,335.3,251.7z"/>
				<path class="st11" d="M336.9,256.3c0.1,1.7-0.4,3.4-1.3,4.8c-1.4-0.3-2.8-0.8-4-1.6c-1.1-0.7-1.9-1.7-2.5-2.9
					c0-0.1-0.1-0.2-0.1-0.2l0,0c0,0,0.1,0,0.1-0.1c1.2-0.6,2.4-1,3.7-0.9C334.2,255.4,335.6,255.7,336.9,256.3z"/>
				<path class="st15" d="M329.1,256.6c0-0.1-0.1-0.2-0.1-0.2c0,0,0.1,0,0.1-0.1c1.2-0.6,2.4-1,3.7-0.9c1.4,0,2.8,0.3,4.1,0.9
					c0-0.4-0.1-0.8-0.2-1.2c0-0.1,0-0.2-0.1-0.3c-0.1-0.4-0.2-0.7-0.3-1l0,0c-0.3-0.7-0.6-1.4-1.1-2c-1,0.3-2,0.7-3,1.2
					c-0.3,0.2-0.6,0.4-0.9,0.6c-0.1,0.1-0.3,0.2-0.4,0.3c-0.1,0.1-0.3,0.2-0.4,0.3c0,0-0.1,0-0.1,0.1c-0.2,0.1-0.4,0.3-0.5,0.4
					c-0.2,0.1-0.3,0.3-0.5,0.5c0,0,0,0,0,0c-0.1,0.1-0.1,0.1-0.2,0.2c0,0,0,0,0,0c-0.2,0.2-0.3,0.3-0.5,0.5c0-0.1,0-0.3-0.1-0.4v0
					c0-0.1,0-0.1,0-0.2c0,0,0,0,0-0.1c0-0.5,0-1.1,0.1-1.6c0.1-0.4,0.2-0.8,0.3-1.2c0.1-0.2,0.2-0.5,0.3-0.7
					c0.1-0.2,0.2-0.5,0.3-0.7c0.1-0.1,0.2-0.3,0.2-0.4c0,0,0-0.1,0.1-0.1c0.1-0.2,0.2-0.4,0.4-0.6c0.1-0.1,0.1-0.2,0.2-0.3
					c0.1-0.1,0.2-0.2,0.3-0.4c0.1-0.1,0.1-0.2,0.2-0.3c-0.1,0-0.1,0-0.2-0.1c-1.2-0.3-2.5-0.4-3.8-0.1c-0.3,0-0.5,0.1-0.7,0.2
					c0,1.1,0.1,2.2,0.2,3.2c0.1,0.4,0.2,0.7,0.3,1c0.2,0.7,0.4,1.4,0.7,2c0.2,0.3,0.3,0.7,0.5,1c-0.9-0.2-1.8-0.5-2.5-0.9
					c-0.3-0.2-0.6-0.4-0.9-0.6c-0.3-0.3-0.6-0.5-0.9-0.8c-0.1-0.1-0.3-0.3-0.4-0.5c-0.4-0.5-0.8-1.1-1.2-1.7c-0.6,0.7-1,1.6-1.3,2.5
					c-0.1,0.4-0.2,0.8-0.3,1.2c0,0.2,0,0.3-0.1,0.5c1,0.4,2,0.7,3,0.9c0.4,0,0.7,0.1,1.1,0.1c1.1,0.1,2.2,0.1,3.3-0.1
					c-1,0.5-1.9,1.2-2.8,2c-0.2,0.2-0.5,0.5-0.8,0.8c-0.7,0.8-1.3,1.7-1.9,2.6c1.1,1.2,2.5,2.1,4,2.5c-0.2-1.3-0.2-2.7,0.1-4.1
					c0.3-1.3,0.9-2.4,1.8-3.4c0,0,0,0,0.1-0.1c0.1,1.1,0.4,2.2,0.9,3.2c0.1,0.3,0.3,0.6,0.4,1c0.6,1,1.3,2,2,3
					c1.6-0.7,2.9-1.8,3.7-3.1c-1.4-0.3-2.8-0.8-4-1.6C330.5,258.8,329.7,257.8,329.1,256.6z"/>
			</g>
			<g>
				<path class="st11" d="M356.2,255.9c1.1,0.1,2.2,0.1,3.3-0.1c-1,0.5-1.9,1.2-2.8,2c-0.2,0.2-0.5,0.5-0.8,0.8
					c-0.7,0.8-1.3,1.7-1.9,2.6c-0.9-1.1-1.6-2.4-1.9-3.9c-0.2-0.8-0.2-1.6-0.1-2.4c1,0.4,2,0.7,3,0.9
					C355.5,255.8,355.9,255.8,356.2,255.9z"/>
				<path class="st11" d="M356.3,253.5c-1-0.8-1.8-1.8-2.5-2.9c1-1.3,2.5-2.4,4.2-2.9c0,1.1,0.1,2.2,0.2,3.2c0.1,0.4,0.2,0.7,0.3,1
					c0.3,1.1,0.7,2.1,1.3,3C358.4,254.9,357.3,254.3,356.3,253.5z"/>
				<path class="st11" d="M363.5,263.2c-0.5,0.2-1,0.4-1.6,0.5c-1.3,0.3-2.5,0.2-3.7-0.1c-0.2-1.4-0.2-2.7,0.1-4.1
					c0.3-1.3,0.9-2.4,1.8-3.4c0,0,0,0,0.1-0.1c0.1,1.1,0.4,2.2,0.9,3.2c0.1,0.3,0.3,0.6,0.4,1C362,261.2,362.7,262.2,363.5,263.2z"
					/>
				<path class="st11" d="M366.9,250.7c-1,0.3-2,0.7-3,1.2c-0.3,0.2-0.6,0.4-0.9,0.6c-1,0.6-1.9,1.4-2.6,2.3
					c-0.2-1.2-0.1-2.3,0.3-3.5c0.4-1.3,1.1-2.5,2-3.5C364.3,248.2,365.8,249.3,366.9,250.7z"/>
				<path class="st11" d="M368.5,255.2c0.1,1.7-0.4,3.4-1.3,4.8c-1.4-0.3-2.8-0.8-4-1.6c-1.1-0.7-1.9-1.7-2.5-2.9
					c0-0.1-0.1-0.2-0.1-0.2c0,0,0,0,0,0c0,0,0.1,0,0.1-0.1c1.2-0.6,2.4-1,3.7-0.9C365.8,254.4,367.2,254.7,368.5,255.2z"/>
				<path class="st15" d="M360.7,255.3c0,0-0.1,0-0.1,0.1c0,0,0,0,0,0c0,0.1,0.1,0.2,0.1,0.2c0.6,1.2,1.4,2.1,2.5,2.9
					c1.2,0.8,2.6,1.3,4,1.6c-0.9,1.4-2.2,2.5-3.7,3.1c-0.8-1-1.5-2-2-3c-0.2-0.4-0.3-0.7-0.4-1c-0.4-1-0.7-2.1-0.9-3.2
					c0,0,0,0-0.1,0.1c-0.9,1-1.5,2.1-1.8,3.4c-0.3,1.4-0.3,2.7-0.1,4.1c-1.6-0.4-3-1.3-4-2.5l0,0c0.6-0.9,1.2-1.8,1.9-2.6
					c0.3-0.3,0.5-0.5,0.8-0.8c0.8-0.8,1.7-1.5,2.8-2c-1.1,0.2-2.2,0.3-3.3,0.1c-0.3,0-0.7-0.1-1.1-0.1c-1-0.2-2-0.5-3-0.9
					c0.1-1.6,0.7-3.1,1.7-4.3c0.7,1.1,1.5,2.1,2.5,2.9c1,0.8,2.2,1.3,3.4,1.5c-0.6-0.9-1-2-1.3-3c-0.1-0.3-0.2-0.7-0.3-1
					c-0.2-1-0.2-2.1-0.2-3.2c0.2-0.1,0.5-0.1,0.7-0.2c1.4-0.3,2.7-0.2,4,0.2c-0.9,1-1.6,2.2-2,3.5c-0.4,1.1-0.5,2.3-0.3,3.5
					c0.8-0.9,1.6-1.7,2.6-2.3c0.3-0.2,0.6-0.4,0.9-0.6c0.9-0.5,1.9-0.9,3-1.2c0.7,0.9,1.2,2.1,1.5,3.3c0.1,0.4,0.1,0.8,0.2,1.2
					c-1.3-0.6-2.7-0.9-4.1-0.9C363.1,254.3,361.8,254.6,360.7,255.3z"/>
			</g>
		</g>
		<g>
			<g>
				<path class="st21" d="M340.6,191.9c-0.2,0-0.3,0-0.5,0.1c-0.4,0.1-0.9,0.2-1.3,0.4c-0.1-0.1-0.1-0.2-0.2-0.3
					c-0.5-0.7-1.2-1.3-1.9-1.8c-0.1-0.1-0.2-0.3-0.3-0.4c-0.5-0.5-1.1-0.9-1.7-1.3c-0.9-0.5-1.7-1-2.6-1.5c-0.3-0.1-0.5-0.3-0.8-0.5
					c-0.3-0.2-0.5-0.4-0.8-0.5c-0.4-0.3-0.8-0.6-0.9-1.1c-0.1-0.4,0-0.6,0.3-0.8c0.2-0.1,0.4-0.2,0.7-0.2c0.3,0,0.6,0,0.8-0.1
					c0,0,0,0,0-0.1c-0.1-0.1-0.2-0.2-0.2-0.3c-1-0.9-1.7-2-2.4-3.1c-0.9-1.5-1.4-3.1-1.6-4.9c0-0.4-0.1-0.8-0.1-1.2
					c0-0.1,0-0.3,0-0.4c0.1-0.5,0.6-0.8,1.1-0.5c0.3,0.1,0.5,0.4,0.7,0.7c0.3,0.6,0.7,1.2,1,1.7c0.1,0.2,0.2,0.5,0.4,0.7
					c0.1,0.2,0.2,0.3,0.4,0.6c0.1-0.1,0.2-0.2,0.2-0.3c0.1-0.3,0.3-0.5,0.4-0.8c0.3-0.4,0.5-0.9,0.8-1.3c0.1-0.2,0.3-0.3,0.4-0.5
					c0.5-0.5,1.1-0.4,1.4,0.2c0.3,0.6,0.3,1.2,0.3,1.8c-0.1,0.8-0.2,1.6-0.5,2.4c-0.1,0.4-0.2,0.7-0.3,1.1c-0.1,0.3,0,0.6,0.1,0.8
					c0.1,0.3,0.3,0.6,0.5,0.9c0.6,0.8,1,1.7,1.5,2.6c0.1,0.3,0.3,0.5,0.4,0.8c0.1,0.1,0.2,0.3,0.3,0.4c0.2-0.1,0.3-0.3,0.3-0.4
					c0.1-0.4,0.3-0.8,0.4-1.3c0.1-0.6,0.3-1.3,0.6-1.9c0.1-0.2,0.2-0.5,0.4-0.7c0.5-0.6,1.2-0.5,1.6,0.1c0.2,0.4,0.3,0.8,0.4,1.2
					c0.1,0.6,0,1.2-0.1,1.9c-0.2,0.7-0.3,1.4-0.6,2.1c-0.3,0.9-0.3,1.8,0,2.7c0.3,0.8,0.6,1.5,1,2.2
					C340.3,191.3,340.5,191.6,340.6,191.9z"/>
				<path class="st21" d="M355.8,174.3c0,0.4-0.1,0.8-0.1,1.2c-0.2,1.7-0.7,3.4-1.6,4.9c-0.7,1.1-1.4,2.2-2.4,3.1
					c-0.1,0.1-0.2,0.2-0.2,0.3c0,0,0,0,0,0c0.3,0,0.6,0,0.8,0.1c0.2,0,0.5,0.1,0.7,0.2c0.3,0.2,0.4,0.4,0.3,0.8
					c-0.1,0.5-0.5,0.9-0.9,1.2c-0.3,0.2-0.5,0.4-0.8,0.5c-0.3,0.2-0.5,0.3-0.8,0.5c-0.9,0.5-1.7,1-2.6,1.5c-0.6,0.4-1.2,0.8-1.7,1.3
					c-0.1,0.1-0.2,0.2-0.3,0.4c-0.7,0.5-1.4,1.1-1.9,1.8c-0.1,0.1-0.2,0.3-0.2,0.4c-0.5-0.2-1.1-0.4-1.7-0.5c0.1-0.3,0.3-0.6,0.5-1
					c0.4-0.7,0.7-1.5,1-2.2c0.3-0.9,0.3-1.8,0-2.7c-0.2-0.7-0.4-1.4-0.6-2.1c-0.1-0.6-0.2-1.2-0.1-1.8c0-0.4,0.2-0.8,0.4-1.2
					c0.4-0.6,1.1-0.7,1.6-0.1c0.2,0.2,0.3,0.5,0.4,0.7c0.3,0.6,0.4,1.2,0.6,1.9c0.1,0.4,0.2,0.8,0.4,1.3c0.1,0.2,0.1,0.3,0.3,0.4
					c0.1-0.1,0.2-0.3,0.3-0.4c0.1-0.2,0.3-0.5,0.4-0.8c0.4-0.9,0.9-1.8,1.5-2.6c0.2-0.3,0.3-0.6,0.5-0.9c0.1-0.3,0.1-0.5,0.1-0.8
					c-0.1-0.4-0.2-0.7-0.3-1.1c-0.2-0.8-0.4-1.6-0.5-2.4c-0.1-0.6,0-1.2,0.3-1.8c0.3-0.6,0.9-0.7,1.4-0.2c0.1,0.2,0.3,0.3,0.4,0.5
					c0.3,0.4,0.5,0.9,0.8,1.3c0.1,0.3,0.3,0.5,0.4,0.8c0.1,0.1,0.1,0.2,0.2,0.3c0.1-0.2,0.3-0.4,0.4-0.6c0.1-0.2,0.2-0.5,0.4-0.7
					c0.3-0.6,0.7-1.2,1-1.7c0.2-0.3,0.4-0.5,0.7-0.7c0.5-0.2,1,0,1.1,0.5C355.8,174,355.8,174.1,355.8,174.3z"/>
			</g>
			<path class="st22" d="M353.9,224.2c0,0.1-0.1,0.2-0.1,0.4c0,0-0.1,0-0.1-0.1c-1.3-0.6-4.3-1.4-5.7-1.6c0.1-0.4,0.2-0.7,0.2-1.1
				c0.1-0.5,0.2-1.1,0.2-1.7c-0.1-0.9-0.5-1.7-1-2.4c-0.3-0.4-0.6-0.9-0.9-1.4c-0.3,0.1-0.6,0.2-1,0.3c-0.8,0.2-1.5,0.4-2.3,0.4
				c-0.7,0-1.4,0-2.2,0c-0.5,0-1-0.1-1.5-0.3c0,0,0,0,0,0c-0.3,0.6-0.7,1.2-1.1,1.7c-0.5,0.7-0.9,1.5-1,2.4c-0.1,0.6,0,1.1,0.2,1.7
				c0,0,0,0.1,0,0.1c-1.2,0.1-4.5,1-5.9,1.6c-0.4-1.6-0.4-3.2,0.1-4.7c0.4-1.4,0.9-2.7,1.6-3.9c0.5-0.8,1.1-1.5,1.9-1.9
				c0,0,0.1,0,0.1,0c-0.1-0.1-0.1-0.1-0.2-0.2c-0.9-1.2-1.3-2.6-1.3-4c0-0.6,0.1-1.1,0.2-1.7c0.2-1.2,0.5-2.4,0.7-3.6
				c0.2-1.2,0.2-2.4,0.1-3.6c-0.1-0.9-0.3-1.8-0.1-2.8c0.1-0.8,0.4-1.6,0.7-2.3c-0.2-0.1-0.3-0.2-0.5-0.3c-1.1-0.8-2-1.7-2.7-2.9
				c-0.5-1-0.8-2-0.9-3.1c0-0.2,0-0.4,0-0.5c0-0.5,0.4-0.7,0.9-0.5c0.4,0.2,0.8,0.3,1.2,0.5c0.7,0.3,1.4,0.6,2.1,0.9
				c0.4,0.2,0.7,0.4,1.1,0.6c0.7,0.5,1.4,1.1,1.9,1.8c0.1,0.1,0.1,0.2,0.2,0.3c0.4-0.2,0.8-0.3,1.3-0.4c0.2,0,0.3-0.1,0.5-0.1
				c0.6-0.1,1.2-0.1,1.7,0c0.6,0.1,1.1,0.3,1.7,0.5c0.1-0.1,0.2-0.3,0.2-0.4c0.5-0.7,1.2-1.4,1.9-1.8c0.3-0.2,0.7-0.4,1.1-0.6
				c0.7-0.3,1.4-0.6,2.1-1c0.4-0.2,0.8-0.3,1.2-0.5c0.5-0.2,0.8,0,0.9,0.5c0,0.2,0,0.4,0,0.6c-0.1,1.1-0.4,2.1-0.9,3.1
				c-0.7,1.2-1.6,2.1-2.7,2.9c-0.1,0.1-0.3,0.2-0.4,0.2c0.1,0.2,0.2,0.4,0.3,0.6c0.3,0.5,0.4,1.1,0.4,1.7c0.1,0.7,0.2,2,0.2,2
				c0,0.3,0,0.5,0,0.8c0,1.2,0.2,2.4,0.6,3.6c0.2,0.8,0.5,1.6,0.8,2.3c0.2,0.6,0.5,1.1,0.7,1.6c0.3,0.7,0.5,1.4,0.5,2.2
				c0.1,0.9-0.1,1.8-0.5,2.6c0,0,0,0,0,0c0,0,0.1,0,0.1,0.1c0.8,0.5,1.4,1.1,1.9,1.9c0.7,1.2,1.2,2.6,1.6,3.9
				C354.5,220.6,354.4,222.4,353.9,224.2z"/>
			<g>
				<path class="st15" d="M341.2,200.9c0,0.4-0.1,0.8-0.2,1.1c-0.2,0.8-0.7,1.4-1.3,1.4c0,0-0.1,0-0.1,0s-0.1,0-0.1,0
					c-0.6-0.1-1.1-0.6-1.3-1.4c-0.1-0.3-0.2-0.7-0.2-1.1c0-1.4,0.7-2.5,1.6-2.5S341.2,199.5,341.2,200.9z"/>
				<path class="st23" d="M341.1,201.9C341.1,201.9,341.1,202,341.1,201.9c-0.2,0.9-0.7,1.4-1.3,1.5c0,0-0.1,0-0.1,0s-0.1,0-0.1,0
					c-0.6-0.1-1.1-0.6-1.3-1.4c0,0,0,0,0,0c0-0.8,0.6-1.5,1.4-1.5S341.1,201.1,341.1,201.9z"/>
				<circle class="st15" cx="339" cy="201.4" r="0.2"/>
				<path class="st15" d="M345.9,201c0,0.4-0.1,0.8-0.2,1.1c-0.2,0.8-0.7,1.4-1.3,1.4c0,0-0.1,0-0.1,0s-0.1,0-0.1,0
					c-0.6-0.1-1.1-0.6-1.3-1.4c-0.1-0.3-0.2-0.7-0.2-1.1c0-1.4,0.7-2.5,1.6-2.5C345.2,198.5,345.9,199.6,345.9,201z"/>
				<path class="st23" d="M345.7,202.1C345.7,202.1,345.7,202.1,345.7,202.1c-0.2,0.9-0.7,1.4-1.3,1.5c0,0-0.1,0-0.1,0s-0.1,0-0.1,0
					c-0.6-0.1-1.1-0.6-1.3-1.4c0,0,0,0,0,0c0-0.8,0.6-1.5,1.4-1.5C345.1,200.6,345.7,201.2,345.7,202.1z"/>
				<circle class="st15" cx="343.7" cy="201.6" r="0.2"/>
			</g>
			<path class="st23" d="M347,208.8c-2.2,5.1-8.2,3.5-9.4-0.2c1.5,1.9,3.4,2.8,4.5,2.9c0-0.3,0-1.8,0-2.8c0.1,0,0.1,0,0.2,0
				c0,0.8,0,2.1,0,2.8C343.7,211.5,344.3,211.4,347,208.8z"/>
			<path class="st11" d="M344.9,206.4c0,1.2-1.2,2.1-2.6,2.2c-0.1,0-0.1,0-0.2,0h0c-1.6,0-2.9-1-2.9-2.2c0-1.2,1.3-2.2,2.9-2.2
				C343.6,204.2,344.9,205.2,344.9,206.4z"/>
			<path class="st24" d="M339.9,206c0.1-0.6,0.7-1,1.4-1C340.9,205.2,340.6,205.4,339.9,206z"/>
			<path class="st21" d="M339.5,227.2c-0.2,0.2-0.5,0.2-0.8,0.1c-0.1,0-0.2-0.1-0.2-0.1c-0.9-0.5-1.9-1-2.8-1.5
				c-0.1-0.1-0.2-0.1-0.4-0.2c-0.1,0.1-0.1,0.2-0.2,0.4c-0.2,0.5-0.4,1-0.6,1.6c-0.1,0.2-0.2,0.4-0.3,0.5c-0.3,0.4-0.8,0.4-1.2,0
				c-0.1-0.1-0.2-0.2-0.2-0.3c-0.1-0.3-0.3-0.6-0.4-0.9c-0.3-0.7-0.6-1.4-0.9-2.2c0.1-0.1,0.2-0.1,0.4-0.2c1.3-0.6,4.6-1.5,5.9-1.6
				c0.1,0,0.2,0,0.2,0c0.1,0.2,0.2,0.5,0.3,0.7c0.3,0.7,0.7,1.4,1.1,2c0.2,0.3,0.3,0.6,0.4,0.9C339.8,226.7,339.7,226.9,339.5,227.2
				z"/>
			<path class="st21" d="M354.1,224.7c-0.3,0.7-0.6,1.4-0.9,2.2c-0.1,0.3-0.3,0.6-0.4,0.9c-0.1,0.1-0.1,0.2-0.2,0.3
				c-0.3,0.4-0.9,0.4-1.2,0c-0.1-0.1-0.2-0.3-0.3-0.5c-0.2-0.5-0.4-1-0.6-1.6c0-0.1-0.1-0.2-0.2-0.4c-0.1,0.1-0.3,0.1-0.4,0.2
				c-1,0.5-1.9,1-2.8,1.5c-0.1,0-0.2,0.1-0.2,0.1c-0.3,0.1-0.6,0.1-0.8-0.1c-0.2-0.2-0.3-0.5-0.2-0.8c0.1-0.3,0.3-0.6,0.4-0.9
				c0.3-0.7,0.7-1.4,1.1-2c0.1-0.2,0.2-0.5,0.3-0.7c0.1,0,0.1,0,0.2,0c0.1,0,0.1,0,0.2,0c1.4,0.1,4.4,1,5.7,1.6c0,0,0.1,0,0.1,0.1
				C353.9,224.6,354,224.7,354.1,224.7z"/>
		</g>
	</g>
	<g>
		<g>
			<path class="st25" d="M137.2,226.7c-0.2-1.1-0.6-2.6-0.9-4.1c-0.3-1.7-0.7-3.4-0.9-5c-1.1,0.2-2.2,0.3-3.3,0.4
				c0.1,0.5,0.6,2.8,0.9,4.4c-0.4,0.1-2.1,0.4-3.8,0.8c-0.3-0.8-4.1-13.9-7.8-27.3c0-0.2-0.1-0.4-0.2-0.6c-1.3-4.6-2.5-9.2-3.6-13.3
				c-0.2,0-0.3,0-0.5,0.1c-1.1,0.1-2.2,0.3-3.4,0.4c-0.2,0-0.3,0-0.5,0.1c-2.1,0.3-4.4,0.7-6.7,1.1c-0.4,0.1-0.8,0.1-1.2,0.2
				c-1.5,0.3-3,0.6-4.6,0.9c-1.5,0.3-3,0.6-4.5,1c-1.1,0.2-2.2,0.5-3.3,0.8c-3.3,0.8-6.5,1.7-9.6,2.6c-4.4,1.3-8.6,2.7-12.1,4.1
				c0.4,1.5,2.4,9.2,6.4,19.3c-2,0.5-6.5,2.2-10.8,4.1c-0.1,0-0.2,0.1-0.3,0.1c-1.2,0.5-3,1.4-4.1,1.9c-0.2,0.1-0.4,0.2-0.5,0.2
				c-1.8,0.9-3.4,1.8-4.5,2.6c0.4,1,0.9,2.2,1.6,3.7l9.7,18.3c0.5,0.9,0.9,1.7,1.4,2.5c1.6-0.8,3.4-1.7,5.3-2.6c0-0.3,0-0.5,0-0.8
				c0-0.8,0.1-1.6,0.3-2.3c0.4-1.5,1.3-2.8,2.5-3.9c1.3-1.1,2.9-1.8,4.6-2c0.3,0,0.5,0,0.8,0c1.4,0,2.7,0.3,3.9,1
				c0.9,0.5,1.7,1.2,2.4,1.9c2.6-0.9,5.3-1.8,8.3-2.7c3.8-1.1,7.6-1.9,11.4-2.6c0-0.6,0.1-1.3,0.3-1.8c0.4-1.5,1.3-2.8,2.5-3.9
				c1.3-1.1,2.9-1.8,4.6-2c0.3,0,0.5,0,0.8,0c1.4,0,2.7,0.3,3.9,1c1.6,0.8,2.8,2.1,3.6,3.7c0.1,0.3,0.3,0.6,0.4,0.9
				c4-0.4,8-0.9,12.1-1.5C137.5,228.3,137.4,227.7,137.2,226.7z M75,220.2c1,0,1.8,0.8,1.8,1.8c0,1-0.8,1.8-1.8,1.8
				c-1,0-1.8-0.8-1.8-1.8C73.2,221,74,220.2,75,220.2z M69.7,223.8c0-0.8,0.6-1.4,1.4-1.4c0.8,0,1.4,0.6,1.4,1.4
				c0,0.8-0.6,1.4-1.4,1.4C70.4,225.2,69.7,224.6,69.7,223.8z M77.6,232.7c-1.4,0.3-2.3,1.8-3.4,4.8c-0.1-1.5-0.7-3.6-2.2-4.4
				c3-1.8,1-4.4-0.6-4.9c1.6-0.8,1.9-1.4,2.5-3c0.8,1.5,1.3,2,3.8,2.7C75,229.1,76,231.2,77.6,232.7z M83.9,225.9
				c-1.3-1-3.6-1.5-4.4-0.3c-0.3-1.5-0.6-1.9-1.5-3c0.9-0.4,1.4-0.9,1.7-1.5c0.3,1.8,3.2,3.8,4.7,1.4c0.8,1.8,1.8,2.4,2.4,2.6
				C85.1,225,84.4,225.2,83.9,225.9z"/>
			<path class="st14" d="M66.7,216.8c-0.1,0-0.2,0.1-0.3,0.1c-1.2,0.5-3,1.4-4.1,1.9c-0.2,0.1-0.4,0.2-0.5,0.2
				c-1.4-2.6-2.6-8.6-7.8-8.4c4.2-2,7.9-3.5,10.1-4.7C62.1,210.1,65.6,215,66.7,216.8z"/>
			<path class="st14" d="M68.6,243.7l-3.1,1.7l-10.3-17.7c0,0,2.4-1.5,3.8-2.2L68.6,243.7z"/>
			<path class="st23" d="M119.8,212.3c-1.3,0.3-2.7,0.7-4.2,1c-7.2,1.8-16.3,3.9-22.2,5.3c-2.7,0.6-4.8,1.1-5.7,1.4
				c-0.5-1.7-1.1-3.8-1.8-6c-2.3-7.2-5.4-15.6-6.2-17.7c1.8-0.6,4-1.2,6.4-1.8h0c3.2-0.8,6.8-1.7,10.3-2.6c0.1,0,0.3-0.1,0.4-0.1
				c1-0.2,2-0.5,3-0.7c0.1,0,0.1,0,0.2,0c0,0,0,0,0,0c0.1,0,0.1,0,0.2,0c2.3-0.5,4.4-1,6.3-1.5c0.2,0,0.4-0.1,0.6-0.1h0
				c2.9-0.7,5-1.1,5.8-1.3c0.4,1.7,1,3.7,1.7,6v0c0.1,0.5,0.3,0.9,0.4,1.4c0.3,1,0.5,1.9,0.8,2.9c0.9,3.1,1.8,6.2,2.5,8.8
				C119,209.6,119.6,211.5,119.8,212.3z"/>
			<g>
				<circle class="st11" cx="75" cy="222" r="1.8"/>
				<path class="st11" d="M72.5,223.8c0,0.8-0.6,1.4-1.4,1.4c-0.8,0-1.4-0.6-1.4-1.4c0-0.8,0.6-1.4,1.4-1.4
					C71.9,222.4,72.5,223,72.5,223.8z"/>
				<path class="st14" d="M77.6,232.7c-1.4,0.3-2.3,1.8-3.4,4.8c-0.1-1.5-0.7-3.6-2.2-4.4c3-1.8,1-4.4-0.6-4.9
					c1.6-0.8,1.9-1.4,2.5-3c0.8,1.5,1.3,2,3.8,2.7C75,229.1,76,231.2,77.6,232.7z"/>
				<path class="st14" d="M86.9,225.1c-1.8-0.1-2.5,0.1-2.9,0.8c-1.3-1-3.6-1.5-4.4-0.3c-0.3-1.5-0.6-1.9-1.5-3
					c0.9-0.4,1.4-0.9,1.7-1.5c0.3,1.8,3.2,3.8,4.7,1.4C85.2,224.3,86.2,224.9,86.9,225.1z"/>
			</g>
			<g>
				<g>
					<path class="st14" d="M82.7,242.7c-1.1,0.3-2.1,0.8-3.1,1.4c-0.3,0.2-0.6,0.4-0.9,0.6c-0.8,0.7-1.6,1.4-2.3,2.2
						c-0.6-1-1-2.1-1.1-3.3c0-0.3,0-0.5,0-0.8c0-0.8,0.1-1.6,0.3-2.3c0.9,0.6,1.9,1.1,2.8,1.5c0.1,0,0.2,0.1,0.3,0.1
						c0.3,0.1,0.5,0.2,0.7,0.2C80.5,242.5,81.6,242.7,82.7,242.7z"/>
					<path class="st14" d="M83,242.1c-0.7-0.3-1.4-0.7-2-1.2c-0.4-0.3-0.7-0.6-1-1c-0.8-1-1.5-2.2-1.9-3.4c1.3-1.1,2.9-1.8,4.6-2
						c-0.2,1.1-0.4,2.2-0.4,3.2c0,0.4,0,0.7,0.1,1.1c0,0.5,0.1,0.9,0.2,1.4C82.6,240.9,82.8,241.5,83,242.1z"/>
					<path class="st14" d="M85.1,250.8c-0.5,0.1-1.1,0.2-1.6,0.2c-1.3,0-2.5-0.3-3.6-0.8c0.1-1.4,0.3-2.7,0.9-4
						c0.5-1.2,1.3-2.2,2.4-3c0,0,0,0,0.1-0.1c-0.1,1.1,0,2.2,0.2,3.3c0.1,0.3,0.1,0.7,0.2,1.1C84,248.6,84.5,249.7,85.1,250.8z"/>
					<path class="st14" d="M90.9,239.2c-1.1,0.1-2.1,0.3-3.1,0.6c-0.4,0.1-0.7,0.3-1,0.4c-1.1,0.4-2.1,1-3,1.7
						c0-0.8,0.2-1.6,0.5-2.4c0.1-0.3,0.3-0.7,0.5-1c0.7-1.2,1.6-2.2,2.7-3.1c0.9,0.5,1.7,1.2,2.4,1.9
						C90.2,238,90.6,238.6,90.9,239.2z"/>
					<path class="st14" d="M91.6,244c-0.3,1.7-1.1,3.3-2.2,4.5c-1.3-0.6-2.6-1.3-3.6-2.4c-0.9-0.9-1.6-2-1.9-3.3
						c0-0.1,0-0.2-0.1-0.3c0,0,0,0,0,0c0,0,0.1,0,0.1,0c1.3-0.4,2.5-0.5,3.8-0.2C89.1,242.6,90.4,243.2,91.6,244z"/>
					<path class="st15" d="M83.9,242.5c0,0-0.1,0-0.1,0c0,0.1,0,0.2,0.1,0.3c0.3,1.3,1,2.4,1.9,3.3c1,1,2.3,1.8,3.6,2.4
						c-1.1,1.2-2.6,2-4.3,2.4c-0.6-1.1-1.1-2.2-1.4-3.3c-0.1-0.4-0.2-0.7-0.2-1.1c-0.2-1.1-0.3-2.2-0.2-3.3c0,0,0,0-0.1,0.1
						c-1.1,0.8-1.9,1.8-2.4,3c-0.6,1.3-0.8,2.6-0.9,4c-1.4-0.7-2.7-1.8-3.5-3.2c0.7-0.8,1.5-1.6,2.3-2.2c0.3-0.2,0.6-0.4,0.9-0.6
						c1-0.6,2-1.1,3.1-1.4c-1.1,0-2.2-0.2-3.3-0.5c-0.2-0.1-0.5-0.2-0.7-0.2c-0.1,0-0.2,0-0.3-0.1c-0.9-0.4-1.9-0.9-2.8-1.5
						c0.4-1.5,1.3-2.8,2.5-3.9c0.4,1.2,1,2.4,1.9,3.4c0.3,0.4,0.7,0.7,1,1c0.6,0.5,1.3,0.9,2,1.2c-0.2-0.6-0.4-1.2-0.5-1.8
						c-0.1-0.5-0.1-0.9-0.2-1.4c0-0.3,0-0.7-0.1-1.1c0-1.1,0.2-2.1,0.4-3.2c0.3,0,0.5,0,0.8,0c1.4,0,2.7,0.3,3.9,1
						c-1.1,0.9-2,1.9-2.7,3.1c-0.2,0.3-0.3,0.7-0.5,1c-0.3,0.7-0.5,1.5-0.5,2.4c0.9-0.7,1.9-1.3,3-1.7c0.3-0.1,0.6-0.2,1-0.4
						c1-0.3,2.1-0.5,3.1-0.6c0.5,1.1,0.8,2.3,0.8,3.5c0,0.4,0,0.8-0.1,1.2c-1.2-0.8-2.5-1.4-3.9-1.7C86.4,242,85.2,242.1,83.9,242.5
						z"/>
				</g>
				<g>
					<path class="st14" d="M117,232.6c-1.1,0.3-2.1,0.8-3.1,1.4c-0.3,0.2-0.6,0.4-0.9,0.6c-0.8,0.7-1.6,1.4-2.3,2.2
						c-0.7-1.2-1.1-2.7-1.1-4.2c0-0.2,0-0.3,0-0.5c0-0.6,0.1-1.3,0.3-1.8c0.8,0.5,1.7,1,2.6,1.4c0.1,0,0.1,0.1,0.2,0.1
						c0.4,0.1,0.7,0.2,1,0.3C114.7,232.4,115.8,232.6,117,232.6z"/>
					<path class="st14" d="M117.2,232c-0.5-0.2-1.1-0.5-1.5-0.8c-0.6-0.4-1.1-0.8-1.5-1.4c-0.8-1-1.5-2.2-1.9-3.4
						c1.3-1.1,2.9-1.8,4.6-2c-0.2,1.1-0.4,2.2-0.4,3.2c0,0.4,0,0.7,0.1,1.1c0,0.8,0.2,1.5,0.4,2.3C117,231.4,117.1,231.7,117.2,232z
						"/>
					<path class="st14" d="M119.3,240.7c-0.5,0.1-1.1,0.2-1.6,0.2c-1.3,0-2.5-0.3-3.6-0.8c0.1-1.4,0.3-2.7,0.9-4
						c0.5-1.2,1.3-2.2,2.4-3c0,0,0,0,0.1-0.1c-0.1,1.1,0,2.2,0.2,3.3c0.1,0.3,0.1,0.7,0.2,1.1C118.3,238.5,118.8,239.6,119.3,240.7z
						"/>
					<path class="st14" d="M125.1,229.1c-1.1,0.1-2.1,0.3-3.1,0.6c-0.4,0.1-0.7,0.3-1,0.4c-0.5,0.2-1,0.4-1.4,0.6
						c-0.6,0.3-1.1,0.7-1.6,1.1c0-0.3,0-0.6,0.1-0.9c0.1-0.9,0.4-1.7,0.9-2.5c0.7-1.2,1.6-2.2,2.7-3.1
						C123.1,226.2,124.4,227.5,125.1,229.1z"/>
					<path class="st14" d="M125.8,233.9c-0.3,1.7-1.1,3.3-2.2,4.5c-1.3-0.6-2.6-1.3-3.6-2.4c-0.9-0.9-1.6-2-1.9-3.3
						c0-0.1,0-0.2-0.1-0.3c0,0,0,0,0,0c0,0,0.1,0,0.1,0c1.3-0.4,2.5-0.5,3.8-0.2C123.4,232.5,124.7,233.1,125.8,233.9z"/>
					<path class="st15" d="M118.1,232.4c0,0-0.1,0-0.1,0c0,0.1,0,0.2,0.1,0.2c0.3,1.3,1,2.4,1.9,3.3c1.1,1,2.3,1.8,3.6,2.4
						c-1.1,1.2-2.6,2-4.3,2.4c-0.6-1.1-1.1-2.2-1.4-3.3c-0.1-0.4-0.1-0.7-0.2-1.1c-0.2-1.1-0.3-2.2-0.2-3.3c0,0,0,0-0.1,0
						c-1.1,0.8-1.9,1.8-2.4,3c-0.6,1.3-0.8,2.6-0.9,4c-1.4-0.7-2.6-1.8-3.5-3.2c0.7-0.8,1.5-1.6,2.3-2.2c0.3-0.2,0.6-0.4,0.9-0.6
						c1-0.6,2-1.1,3.1-1.4c-1.1,0-2.2-0.2-3.3-0.5c-0.3-0.1-0.6-0.2-1-0.3c-0.1,0-0.1-0.1-0.2-0.1c-0.9-0.4-1.8-0.9-2.6-1.4
						c0.4-1.5,1.3-2.8,2.5-3.9c0.4,1.2,1,2.4,1.9,3.4c0.5,0.5,1,1,1.5,1.4c0.5,0.3,1,0.6,1.5,0.8c-0.1-0.3-0.2-0.6-0.3-1
						c-0.2-0.7-0.3-1.5-0.4-2.3c0-0.3,0-0.7-0.1-1.1c0.1-1.1,0.2-2.1,0.4-3.2c0.3,0,0.5,0,0.8,0c1.4,0,2.7,0.3,3.9,1
						c-1.1,0.9-2,1.9-2.7,3.1c-0.4,0.8-0.7,1.6-0.9,2.5c-0.1,0.3-0.1,0.6-0.1,0.9c0.5-0.4,1.1-0.8,1.6-1.1c0.4-0.2,0.9-0.5,1.4-0.6
						c0.3-0.1,0.6-0.2,1-0.4c1-0.3,2.1-0.5,3.1-0.6c0.1,0.3,0.3,0.6,0.4,0.9c0.3,0.8,0.4,1.7,0.4,2.6c0,0.4,0,0.8-0.1,1.3
						c-1.2-0.8-2.5-1.4-3.9-1.7C120.7,231.9,119.4,232,118.1,232.4z"/>
				</g>
			</g>
		</g>
		<g>
			<path class="st26" d="M115,194.4c-1.8-1.1-3.2-2.6-4.4-3.3c0.6-0.4,0.9-1.1,1.1-1.8c0.1-0.4-0.5-0.5-0.6-0.2
				c-0.2,0.6-0.4,1.1-0.9,1.4c-0.5,0.3-1.2,0.3-1.7,0.2c-0.2-0.1-0.4-0.1-0.6-0.3c-0.1-0.1-0.2-0.2-0.3-0.3c-0.4-0.4-0.6-1-0.5-1.6
				c0-0.1,0-0.3,0.1-0.4c0-0.1,0-0.1,0.1-0.2c0.1-0.4-0.4-0.5-0.6-0.2c-0.1,0.3-0.2,0.6-0.2,0.9c-0.9-0.3-3.4,1.3-6.4,1.2
				c-0.5-4.3,2.7-13.7,10.9-11.8C119.9,180.2,119.3,188.8,115,194.4z"/>
			<path class="st27" d="M112.6,182.4c2.4,0.3,5.7,1.8,4.4,3.9S116,184.1,112.6,182.4z"/>
			<path class="st27" d="M109.8,181.6c-1.8-1.5-5.2-2.9-5.8-0.6C103.3,183.3,106.3,180.3,109.8,181.6z"/>
			<g>
				<path class="st23" d="M105,185.2c0.2-1.3,2.7-0.9,3.2,0c0.2,0.3,0.7,0,0.5-0.3c-0.7-1.4-4-1.8-4.3,0.1
					C104.4,185.5,104.9,185.6,105,185.2L105,185.2z"/>
			</g>
			<g>
				<path class="st23" d="M111.5,186.3c0.8-0.3,1.6-0.5,2.4-0.1c0.8,0.4,1.3,1.2,1.2,2.1c0,0.4,0.6,0.4,0.6,0c0.1-1-0.4-1.9-1.2-2.4
					c-1-0.6-2.1-0.5-3.1-0.1C111,185.9,111.2,186.5,111.5,186.3L111.5,186.3z"/>
			</g>
			<path class="st11" d="M131.6,182.9c-0.7,0.2-1.2,0.8-1.3,1.6c-1-0.1-2.3-0.7-3.6,0.2c-2,1.4-3.3,7.7-4.5,8.8c0,0,0,0,0,0
				c-0.1-0.4-0.2-0.8-0.4-1.3c0.7-0.4,1.9-2.1,0-4.8c1.6-1.2,1.7-4.2-1.1-6.4c0.1-2.3-2.9-4-5.3-4.7c-0.3-1.5-3.2-1.8-6.2-1.5
				c-0.9-0.9-3.2-0.6-5.4,1.1c-1-0.4-2.9,0.3-4.3,2.4c-0.5,0-0.9,0-1.2,0.2c0.6-4.4,9.4-12.7,20.3-8.5
				C128.9,174,130.8,178.1,131.6,182.9z"/>
			<path class="st9" d="M135.5,189.3c-2.4,1.9-3.8,2.4-5.2,1.1c-1.4-1.4-0.3-2.5,0.2-3.2c-1.2-0.7-1.5-1.3-0.2-1.7
				c-0.1-0.3-0.1-0.7,0-1.1c0.1-0.7,0.6-1.4,1.3-1.6c0.5-0.1,1.1-0.1,1.9,0.4c3.4,0.2,2.5,1.9,2.2,2.4
				C136.6,186.3,137.8,188.9,135.5,189.3z"/>
			<path class="st11" d="M97.4,192.7c0,0-0.1,0-0.1,0.1c-0.7,0.4-1.4,0.8-2,1.4c-0.1,0.1-0.2,0.2-0.4,0.3c0,0-0.1,0.1-0.1,0.1
				c-0.1,0.1-0.2,0.2-0.4,0.4c0,0,0,0,0,0c-0.1,0.1-0.3,0.3-0.4,0.4c-0.1,0.2-0.3,0.3-0.4,0.5c-0.1,0.2-0.3,0.3-0.4,0.5
				c-0.7,1-1.3,2.2-1.7,3.4c-0.1,0.3-0.2,0.6-0.3,0.9c0,0.1-0.1,0.2-0.1,0.3c-1.5-1.1-3.3-3.7-5-6.5h0c-1-1.7-2.1-3.6-2.9-5.2
				c-0.9-1.8-1.7-3.4-2.1-4.4c1-0.1,2.4-0.9,3.2-2.1c1.1,0.2,2.4-1,4.2-2.2c0.5,0,0.9-0.1,1.2-0.2c0.9,2.4,2,4.5,3.2,6.3
				c1.3,1.9,2.6,3.4,3.7,4.6c0.1,0.2,0.2,0.4,0.3,0.6C97,192.2,97.2,192.4,97.4,192.7z"/>
			<path class="st23" d="M86.3,174c-0.4,0.9-0.5,2.1-0.3,3c-0.2,0.1-0.4,0.2-0.6,0.3c-2.2-0.8-2.8,0.2-3.4,1.8
				c-1.9-2-8.1-5.6-7.9-8.5c0.2-3,3.4-3.5,5-3.3c1.6,0.2,1.4,1.9,2.1,2.4c0.6,0.4,1.3-2.8,3.5-2.4C86.8,167.5,87.1,172.5,86.3,174z"
				/>
			<path class="st27" d="M121.7,192.1c0.2,0.5,0.4,0.9,0.4,1.3c0.2,0.9-0.1,1.6-1,2c-0.3,0.1-0.8,0.2-1.3,0.3c0,0,0,0,0,0
				c-0.3,0-0.6,0-0.9,0c-0.2,0-0.4,0-0.6,0c-1-0.1-2-0.5-2.8-0.9c-0.2-0.1-0.4-0.2-0.6-0.4c4.4-5.6,4.9-14.2-4.1-16.2
				c-8.2-1.9-11.5,7.5-10.9,11.8c-0.2,0-0.5,0-0.7,0c-0.6-0.1-1.2-0.2-1.8-0.4c-1.6-1.9-2.2-4.9,0.5-7.4c-0.5-2.1-0.4-3.2,0.3-3.6
				c0.3-0.2,0.7-0.2,1.2-0.2c1.3-2.1,3.3-2.8,4.3-2.4c2.1-1.7,4.4-2.1,5.4-1.1c2.9-0.3,5.8,0,6.2,1.5c2.4,0.7,5.4,2.4,5.3,4.7
				c2.9,2.3,2.7,5.2,1.1,6.4C123.6,189.9,122.4,191.7,121.7,192.1z"/>
			<path class="st27" d="M89.6,180.4c-0.3,0.2-0.7,0.2-1.2,0.2c-1.8,1.2-3.1,2.4-4.2,2.2c-0.8,1.1-2.1,2-3.2,2.1
				c-0.6,0-1.1-0.2-1.3-0.8c-1.9-0.5-2.2-2.8,0-3.4c0-1.3,1.5-1.7,2.2-1.6c0,0,0,0,0,0c0.7-1.6,1.3-2.6,3.4-1.8
				c0.2-0.1,0.4-0.2,0.6-0.3c2-0.7,3.7,0.2,3.8,1.3C90.7,179.1,90.4,180,89.6,180.4z"/>
			<path class="st11" d="M94.2,215c-0.5,1.4-0.8,2.6-0.8,3.7c-2.7,0.6-4.8,1.1-5.7,1.4c-0.5-1.7-1.1-3.8-1.8-6
				c1.5-2.5,3.7-6.2,5.1-9.2c0.3,1.1,0.9,2,1.8,2.7C91.4,211.4,91.9,214.7,94.2,215z"/>
			<path class="st27" d="M118.3,207.2c-0.6,1.6-1.4,3-2.7,3.6c0.4,0.8,0.4,1.7,0,2.5c-0.6,1.4-2.1,2.6-4.5,3.3
				c0.3,1.3-1.1,3.9-7,3.7c1.3,1.7-0.8,5.5-3.6,5c0,1.6-1.5,3.1-3.6,2.9c-2.1-0.2-2.7-3.9-1.7-6.4c-0.4-0.3-0.7-0.6-1-1
				c-0.5-0.6-0.7-1.4-0.7-2.3c0-1.1,0.2-2.3,0.8-3.7c-2.4-0.3-2.8-3.6-1.4-7.4c-0.9-0.7-1.5-1.7-1.8-2.7c-0.3-1.2-0.3-2.5,0-3.9
				c0-0.1,0.1-0.2,0.1-0.3c0-0.1,0.1-0.2,0.1-0.3c0-0.2,0.1-0.3,0.2-0.5c0.4-1.2,1-2.3,1.7-3.4c0.1-0.2,0.2-0.3,0.4-0.5
				c0.1-0.2,0.3-0.3,0.4-0.5c0.1-0.2,0.3-0.3,0.4-0.4c0,0,0,0,0,0c0.1-0.1,0.2-0.2,0.4-0.4c0,0,0.1-0.1,0.1-0.1
				c0.1-0.1,0.2-0.2,0.4-0.3c0.6-0.5,1.3-1,2-1.4c0,0,0.1,0,0.1-0.1c0.1,0.2,0.3,0.3,0.4,0.5c1.3,1.3,2.6,1.5,3.4,1.3
				c1.4-0.3,5.3-1.7,6.4-2.8c-0.5,2-0.1,5.2,2.5,6.1c0.5,0.2,1,0.3,1.5,0.4c0.1,0,0.1,0,0.2,0c0.1,0,0.2,0,0.3,0
				c0.2,0,0.4,0.1,0.6,0.1c0,0,0,0,0,0c0.7,0.1,1.4,0.1,2.1,0.1h0c0.1,0,0.2,0,0.3,0h0c0.1,0,0.2,0,0.4,0c0.1,0,0.2,0,0.3,0
				c0,0,0.1,0,0.1,0c0.2,0,0.3,0,0.5-0.1c0.4-0.1,0.9-0.2,1.3-0.3c0.1,0,0.2-0.1,0.3-0.1c0.1,0,0.2-0.1,0.3-0.1
				C119.2,199.4,119.4,203.8,118.3,207.2z"/>
			<path class="st27" d="M115.8,198.4c-0.1,0-0.2,0-0.3,0c-0.1,0-0.2,0-0.4,0C115.4,198.4,115.6,198.4,115.8,198.4z"/>
			<path class="st27" d="M116.4,198.3c-0.2,0-0.3,0-0.5,0.1c0,0-0.1,0-0.1,0C116,198.4,116.2,198.3,116.4,198.3z"/>
			<path class="st9" d="M122.3,194.9c-0.3,0.4-0.7,0.8-1,1.1c-1,0.9-2,1.5-3,1.9c-0.1,0-0.2,0.1-0.3,0.1c-0.1,0-0.2,0.1-0.3,0.1
				c-0.4,0.1-0.9,0.2-1.3,0.3c-0.2,0-0.4,0-0.6,0.1c-0.2,0-0.4,0-0.6,0.1h0c-0.1,0-0.2,0-0.3,0h0c-0.7,0-1.4,0-2.1-0.1c0,0,0,0,0,0
				c-0.2,0-0.4-0.1-0.6-0.1c-0.1,0-0.2,0-0.3,0c-0.1,0-0.1,0-0.2,0c-0.5-0.1-1.1-0.3-1.5-0.4c-2.7-0.9-3-4.1-2.5-6.1
				c-1.1,1.1-5,2.5-6.4,2.8c-0.9,0.2-2.2,0-3.4-1.3c-0.1-0.1-0.3-0.3-0.4-0.5c-0.2-0.2-0.4-0.5-0.6-0.8c-0.1-0.2-0.2-0.4-0.3-0.6
				c-0.4-0.8-0.8-1.8-1.2-3.1c0.7,0.6,1.5,1,2.2,1.3c0.6,0.2,1.2,0.4,1.8,0.4c0.2,0,0.5,0,0.7,0c3,0.1,5.5-1.5,6.4-1.2
				c0,0.1,0,0.3,0,0.5c0,0,0,0.1,0,0.1c0,0.1,0,0.1,0,0.2c0,0,0,0.1,0,0.1c0,0,0,0.1,0,0.1c0,0.1,0,0.1,0.1,0.2c0,0,0,0.1,0.1,0.2
				c0,0,0,0.1,0.1,0.1c0,0.1,0.1,0.1,0.1,0.2c0,0.1,0.1,0.1,0.1,0.2c0,0.1,0.1,0.1,0.2,0.2c0.1,0.1,0.1,0.1,0.2,0.2
				c0,0,0.1,0.1,0.2,0.1c0.1,0.1,0.2,0.1,0.3,0.2c0.1,0,0.1,0,0.2,0.1c0,0,0,0,0.1,0c0.1,0,0.1,0,0.2,0.1c0.1,0,0.1,0,0.2,0
				c0,0,0.1,0,0.1,0c0,0,0,0,0.1,0c0.6,0.1,1.2,0,1.7-0.2c0.1,0,0.1-0.1,0.2-0.1c1.1,0.6,2.4,1.9,4,3v0c0.1,0.1,0.3,0.2,0.4,0.3
				c0.2,0.1,0.4,0.3,0.6,0.4c0.8,0.5,1.8,0.8,2.8,0.9c0.2,0,0.4,0,0.7,0c0.3,0,0.5,0,0.8,0c0,0,0,0,0,0c0.5,0,0.9-0.1,1.2-0.3
				c0,0,0,0,0.1,0C121.5,195.2,121.9,195.1,122.3,194.9z"/>
			<path class="st9" d="M115.1,198.4c0.2,0,0.4,0,0.6-0.1c-0.1,0-0.2,0-0.3,0C115.4,198.4,115.3,198.4,115.1,198.4z"/>
			<path class="st9" d="M116.4,198.3c-0.2,0-0.3,0-0.5,0.1c0,0-0.1,0-0.1,0C116,198.4,116.2,198.3,116.4,198.3z"/>
			<g>
				<path class="st23" d="M111.6,189.3c-0.2,0.7-0.5,1.4-1.1,1.8c-0.1,0-0.1,0.1-0.2,0.1c-0.5,0.2-1.1,0.3-1.7,0.2v0c0,0,0,0-0.1,0
					c0,0-0.1,0-0.1,0c-0.1,0-0.1,0-0.2,0c-0.1,0-0.1,0-0.2-0.1c0,0,0,0-0.1,0c-0.1,0-0.1,0-0.2-0.1c-0.1-0.1-0.2-0.1-0.3-0.2
					c0,0-0.1-0.1-0.2-0.1c-0.1,0-0.1-0.1-0.2-0.2c-0.1-0.1-0.1-0.1-0.2-0.2c-0.1-0.1-0.1-0.1-0.1-0.2c0-0.1-0.1-0.1-0.1-0.2
					c0,0,0-0.1-0.1-0.1c0,0,0-0.1-0.1-0.2c0-0.1,0-0.1-0.1-0.2c0-0.1,0-0.1,0-0.2c0,0,0-0.1,0-0.2c0,0,0-0.1,0-0.1
					c0-0.1,0-0.3,0-0.5c0-0.3,0.1-0.6,0.2-0.9c0.1-0.4,0.7-0.2,0.6,0.2c0,0.1-0.1,0.1-0.1,0.2c0,0.1-0.1,0.3-0.1,0.4
					c0,0.6,0.1,1.2,0.5,1.6c0.1,0.1,0.2,0.2,0.3,0.3c0.2,0.1,0.4,0.2,0.6,0.3c0.5,0.1,1.2,0.1,1.7-0.2c0.5-0.3,0.7-0.8,0.9-1.4
					C111.2,188.8,111.8,189,111.6,189.3z"/>
			</g>
		</g>
	</g>
</g>
</svg>
